<?xml version="1.0" encoding="UTF-8" standalone="no"?>
<!-- Created with Inkscape (http://www.inkscape.org/) -->

<svg
   width="43.929592mm"
   height="50.831615mm"
   viewBox="0 0 43.929592 50.831615"
   version="1.1"
   id="svg5"
   inkscape:version="1.1.2 (0a00cf5339, 2022-02-04)"
   sodipodi:docname="logo.svg"
   xmlns:inkscape="http://www.inkscape.org/namespaces/inkscape"
   xmlns:sodipodi="http://sodipodi.sourceforge.net/DTD/sodipodi-0.dtd"
   xmlns="http://www.w3.org/2000/svg"
   xmlns:svg="http://www.w3.org/2000/svg">
  <sodipodi:namedview
     id="namedview7"
     pagecolor="#ffffff"
     bordercolor="#000000"
     borderopacity="0.25"
     inkscape:pageshadow="2"
     inkscape:pageopacity="0.0"
     inkscape:pagecheckerboard="0"
     inkscape:document-units="mm"
     showgrid="false"
     showguides="true"
     inkscape:guide-bbox="true"
     inkscape:zoom="3.0756786"
     inkscape:cx="115.90938"
     inkscape:cy="128.10181"
     inkscape:window-width="1920"
     inkscape:window-height="1043"
     inkscape:window-x="0"
     inkscape:window-y="0"
     inkscape:window-maximized="1"
     inkscape:current-layer="g193548"
     fit-margin-top="0"
     fit-margin-left="0"
     fit-margin-right="0"
     fit-margin-bottom="0">
    <sodipodi:guide
       position="12.717529,39.084416"
       orientation="0,-1"
       id="guide1005" />
    <sodipodi:guide
       position="22.353128,14.026527"
       orientation="0,-1"
       id="guide955" />
    <sodipodi:guide
       position="70.109863,40.852787"
       orientation="0,-1"
       id="guide1298" />
    <sodipodi:guide
       position="90.416647,12.008852"
       orientation="0,-1"
       id="guide1300" />
  </sodipodi:namedview>
  <defs
     id="defs2">
    <inkscape:perspective
       sodipodi:type="inkscape:persp3d"
       inkscape:vp_x="0 : 389.7996 : 1"
       inkscape:vp_y="0 : 999.99992 : 0"
       inkscape:vp_z="1500 : 389.7996 : 1"
       inkscape:persp3d-origin="749.99998 : 95.754155 : 1"
       id="perspective4362" />
    <clipPath
       id="clp12">
      <path
         d="m 45.315,71.927 h 12.92 v 15.867 h -12.92 z"
         id="path184"
         inkscape:connector-curvature="0" />
    </clipPath>
    <clipPath
       id="clp21">
      <path
         d="m 123.91,72.178 h 26.23 v 15.294 h -26.23 z"
         id="path592"
         inkscape:connector-curvature="0" />
    </clipPath>
    <clipPath
       id="clp9">
      <path
         d="m 413.96,49.857 h 31.76 v 8.719 h -31.76 z"
         id="path100"
         inkscape:connector-curvature="0" />
    </clipPath>
    <inkscape:perspective
       sodipodi:type="inkscape:persp3d"
       inkscape:vp_x="0 : 389.7996 : 1"
       inkscape:vp_y="0 : 999.99992 : 0"
       inkscape:vp_z="1500 : 389.7996 : 1"
       inkscape:persp3d-origin="749.99998 : 95.754155 : 1"
       id="perspective4362-5" />
    <clipPath
       id="clp12-3">
      <path
         d="m 45.315,71.927 h 12.92 v 15.867 h -12.92 z"
         id="path184-5"
         inkscape:connector-curvature="0" />
    </clipPath>
    <clipPath
       id="clp21-6">
      <path
         d="m 123.91,72.178 h 26.23 v 15.294 h -26.23 z"
         id="path592-2"
         inkscape:connector-curvature="0" />
    </clipPath>
    <clipPath
       id="clp9-9">
      <path
         d="m 413.96,49.857 h 31.76 v 8.719 h -31.76 z"
         id="path100-1"
         inkscape:connector-curvature="0" />
    </clipPath>
    <inkscape:perspective
       sodipodi:type="inkscape:persp3d"
       inkscape:vp_x="0 : 635.96801 : 1"
       inkscape:vp_y="0 : 999.99996 : 0"
       inkscape:vp_z="1500 : 635.96801 : 1"
       inkscape:persp3d-origin="750 : 341.92255 : 1"
       id="perspective4362-9" />
    <clipPath
       id="clp12-37">
      <path
         d="m 45.315,71.927 h 12.92 v 15.867 h -12.92 z"
         id="path184-4"
         inkscape:connector-curvature="0" />
    </clipPath>
    <clipPath
       id="clp21-5">
      <path
         d="m 123.91,72.178 h 26.23 v 15.294 h -26.23 z"
         id="path592-25"
         inkscape:connector-curvature="0" />
    </clipPath>
    <clipPath
       id="clp9-4">
      <path
         d="m 413.96,49.857 h 31.76 v 8.719 h -31.76 z"
         id="path100-7"
         inkscape:connector-curvature="0" />
    </clipPath>
    <inkscape:perspective
       sodipodi:type="inkscape:persp3d"
       inkscape:vp_x="0 : 635.96801 : 1"
       inkscape:vp_y="0 : 999.99996 : 0"
       inkscape:vp_z="1500 : 635.96801 : 1"
       inkscape:persp3d-origin="750 : 341.92255 : 1"
       id="perspective4362-6" />
    <clipPath
       id="clp12-8">
      <path
         d="m 45.315,71.927 h 12.92 v 15.867 h -12.92 z"
         id="path184-9"
         inkscape:connector-curvature="0" />
    </clipPath>
    <clipPath
       id="clp21-2">
      <path
         d="m 123.91,72.178 h 26.23 v 15.294 h -26.23 z"
         id="path592-6"
         inkscape:connector-curvature="0" />
    </clipPath>
    <clipPath
       id="clp9-6">
      <path
         d="m 413.96,49.857 h 31.76 v 8.719 h -31.76 z"
         id="path100-4"
         inkscape:connector-curvature="0" />
    </clipPath>
    <inkscape:perspective
       sodipodi:type="inkscape:persp3d"
       inkscape:vp_x="0 : 635.96801 : 1"
       inkscape:vp_y="0 : 999.99996 : 0"
       inkscape:vp_z="1500 : 635.96801 : 1"
       inkscape:persp3d-origin="750 : 341.92255 : 1"
       id="perspective4362-53" />
    <clipPath
       id="clp12-5">
      <path
         d="m 45.315,71.927 h 12.92 v 15.867 h -12.92 z"
         id="path184-6"
         inkscape:connector-curvature="0" />
    </clipPath>
    <clipPath
       id="clp21-29">
      <path
         d="m 123.91,72.178 h 26.23 v 15.294 h -26.23 z"
         id="path592-1"
         inkscape:connector-curvature="0" />
    </clipPath>
    <clipPath
       id="clp9-2">
      <path
         d="m 413.96,49.857 h 31.76 v 8.719 h -31.76 z"
         id="path100-70"
         inkscape:connector-curvature="0" />
    </clipPath>
    <inkscape:perspective
       sodipodi:type="inkscape:persp3d"
       inkscape:vp_x="0 : 635.96801 : 1"
       inkscape:vp_y="0 : 999.99996 : 0"
       inkscape:vp_z="1500 : 635.96801 : 1"
       inkscape:persp3d-origin="750 : 341.92255 : 1"
       id="perspective4362-5356" />
    <clipPath
       id="clp12-2">
      <path
         d="m 45.315,71.927 h 12.92 v 15.867 h -12.92 z"
         id="path184-91"
         inkscape:connector-curvature="0" />
    </clipPath>
    <clipPath
       id="clp21-27">
      <path
         d="m 123.91,72.178 h 26.23 v 15.294 h -26.23 z"
         id="path592-0"
         inkscape:connector-curvature="0" />
    </clipPath>
    <clipPath
       id="clp9-93">
      <path
         d="m 413.96,49.857 h 31.76 v 8.719 h -31.76 z"
         id="path100-6"
         inkscape:connector-curvature="0" />
    </clipPath>
    <inkscape:perspective
       sodipodi:type="inkscape:persp3d"
       inkscape:vp_x="0 : 389.7996 : 1"
       inkscape:vp_y="0 : 999.99992 : 0"
       inkscape:vp_z="1500 : 389.7996 : 1"
       inkscape:persp3d-origin="749.99998 : 95.754155 : 1"
       id="perspective4362-535" />
    <clipPath
       id="clp12-6">
      <path
         d="m 45.315,71.927 h 12.92 v 15.867 h -12.92 z"
         id="path184-2"
         inkscape:connector-curvature="0" />
    </clipPath>
    <clipPath
       id="clp21-9">
      <path
         d="m 123.91,72.178 h 26.23 v 15.294 h -26.23 z"
         id="path592-12"
         inkscape:connector-curvature="0" />
    </clipPath>
    <clipPath
       id="clp9-7">
      <path
         d="m 413.96,49.857 h 31.76 v 8.719 h -31.76 z"
         id="path100-0"
         inkscape:connector-curvature="0" />
    </clipPath>
    <inkscape:perspective
       sodipodi:type="inkscape:persp3d"
       inkscape:vp_x="0 : 389.7996 : 1"
       inkscape:vp_y="0 : 999.99992 : 0"
       inkscape:vp_z="1500 : 389.7996 : 1"
       inkscape:persp3d-origin="749.99998 : 95.754155 : 1"
       id="perspective4362-5-0" />
    <clipPath
       id="clp12-3-6">
      <path
         d="m 45.315,71.927 h 12.92 v 15.867 h -12.92 z"
         id="path184-5-2"
         inkscape:connector-curvature="0" />
    </clipPath>
    <clipPath
       id="clp21-6-6">
      <path
         d="m 123.91,72.178 h 26.23 v 15.294 h -26.23 z"
         id="path592-2-1"
         inkscape:connector-curvature="0" />
    </clipPath>
    <clipPath
       id="clp9-9-8">
      <path
         d="m 413.96,49.857 h 31.76 v 8.719 h -31.76 z"
         id="path100-1-7"
         inkscape:connector-curvature="0" />
    </clipPath>
    <inkscape:perspective
       sodipodi:type="inkscape:persp3d"
       inkscape:vp_x="0 : 635.96801 : 1"
       inkscape:vp_y="0 : 999.99996 : 0"
       inkscape:vp_z="1500 : 635.96801 : 1"
       inkscape:persp3d-origin="750 : 341.92255 : 1"
       id="perspective4362-9-9" />
    <clipPath
       id="clp12-37-2">
      <path
         d="m 45.315,71.927 h 12.92 v 15.867 h -12.92 z"
         id="path184-4-0"
         inkscape:connector-curvature="0" />
    </clipPath>
    <clipPath
       id="clp21-5-2">
      <path
         d="m 123.91,72.178 h 26.23 v 15.294 h -26.23 z"
         id="path592-25-3"
         inkscape:connector-curvature="0" />
    </clipPath>
    <clipPath
       id="clp9-4-7">
      <path
         d="m 413.96,49.857 h 31.76 v 8.719 h -31.76 z"
         id="path100-7-5"
         inkscape:connector-curvature="0" />
    </clipPath>
    <inkscape:perspective
       sodipodi:type="inkscape:persp3d"
       inkscape:vp_x="0 : 635.96801 : 1"
       inkscape:vp_y="0 : 999.99996 : 0"
       inkscape:vp_z="1500 : 635.96801 : 1"
       inkscape:persp3d-origin="750 : 341.92255 : 1"
       id="perspective4362-6-9" />
    <clipPath
       id="clp12-8-2">
      <path
         d="m 45.315,71.927 h 12.92 v 15.867 h -12.92 z"
         id="path184-9-2"
         inkscape:connector-curvature="0" />
    </clipPath>
    <clipPath
       id="clp21-2-8">
      <path
         d="m 123.91,72.178 h 26.23 v 15.294 h -26.23 z"
         id="path592-6-9"
         inkscape:connector-curvature="0" />
    </clipPath>
    <clipPath
       id="clp9-6-7">
      <path
         d="m 413.96,49.857 h 31.76 v 8.719 h -31.76 z"
         id="path100-4-3"
         inkscape:connector-curvature="0" />
    </clipPath>
    <inkscape:perspective
       sodipodi:type="inkscape:persp3d"
       inkscape:vp_x="0 : 635.96801 : 1"
       inkscape:vp_y="0 : 999.99996 : 0"
       inkscape:vp_z="1500 : 635.96801 : 1"
       inkscape:persp3d-origin="750 : 341.92255 : 1"
       id="perspective4362-53-6" />
    <clipPath
       id="clp12-5-1">
      <path
         d="m 45.315,71.927 h 12.92 v 15.867 h -12.92 z"
         id="path184-6-2"
         inkscape:connector-curvature="0" />
    </clipPath>
    <clipPath
       id="clp21-29-9">
      <path
         d="m 123.91,72.178 h 26.23 v 15.294 h -26.23 z"
         id="path592-1-3"
         inkscape:connector-curvature="0" />
    </clipPath>
    <clipPath
       id="clp9-2-1">
      <path
         d="m 413.96,49.857 h 31.76 v 8.719 h -31.76 z"
         id="path100-70-9"
         inkscape:connector-curvature="0" />
    </clipPath>
  </defs>
  <g
     inkscape:label="Layer 1"
     inkscape:groupmode="layer"
     id="layer1"
     transform="translate(-186.65577,-98.20731)">
    <text
       xml:space="preserve"
       style="font-size:4.23333px;font-family:sans-serif;-inkscape-font-specification:sans-serif;fill:#fdf0e3;fill-opacity:1;stroke:#4a280d;stroke-width:15;stroke-linecap:round;stroke-linejoin:round;stroke-miterlimit:4;stroke-dasharray:none"
       x="214.69817"
       y="116.24603"
       id="text265343"><tspan
         sodipodi:role="line"
         id="tspan265341"
         style="stroke-width:15;stroke-miterlimit:4;stroke-dasharray:none"
         x="214.69817"
         y="116.24603" /></text>
    <text
       xml:space="preserve"
       style="font-size:4.23333px;font-family:sans-serif;-inkscape-font-specification:sans-serif;fill:#fdf0e3;fill-opacity:1;stroke:#4a280d;stroke-width:15;stroke-linecap:round;stroke-linejoin:round;stroke-miterlimit:4;stroke-dasharray:none"
       x="214.23691"
       y="114.62688"
       id="text268683"><tspan
         sodipodi:role="line"
         id="tspan268681"
         style="stroke-width:15"
         x="214.23691"
         y="114.62688" /></text>
    <text
       xml:space="preserve"
       style="font-size:4.23333px;font-family:sans-serif;-inkscape-font-specification:sans-serif;fill:#fdf0e3;fill-opacity:1;stroke:#4a280d;stroke-width:5;stroke-linecap:round;stroke-linejoin:round;stroke-miterlimit:4;stroke-dasharray:none"
       x="242.03822"
       y="123.46563"
       id="text270271"><tspan
         sodipodi:role="line"
         id="tspan270269"
         style="stroke-width:5;stroke-miterlimit:4;stroke-dasharray:none"
         x="242.03822"
         y="123.46563" /></text>
    <text
       xml:space="preserve"
       style="font-size:4.23333px;font-family:sans-serif;-inkscape-font-specification:sans-serif;fill:#fdf0e3;fill-opacity:1;stroke:#4a280d;stroke-width:4.99999;stroke-linecap:round;stroke-linejoin:round;stroke-miterlimit:4;stroke-dasharray:none"
       x="244.82349"
       y="125.95525"
       id="text275393"><tspan
         sodipodi:role="line"
         id="tspan275391"
         style="stroke-width:5"
         x="244.82349"
         y="125.95525" /></text>
    <g
       id="g193503"
       transform="translate(0,0.18106276)">
      <g
         id="g193548">
        <path
           sodipodi:type="star"
           style="fill:#92a6bf;fill-opacity:1;stroke:#000000;stroke-width:73.9932;stroke-miterlimit:4;stroke-dasharray:none;stroke-opacity:1"
           id="path4560"
           sodipodi:sides="6"
           sodipodi:cx="-5551.2134"
           sodipodi:cy="-204.52565"
           sodipodi:r1="1701.6108"
           sodipodi:r2="1473.6381"
           sodipodi:arg1="1.0471976"
           sodipodi:arg2="1.5707963"
           inkscape:flatsided="true"
           inkscape:rounded="0"
           inkscape:randomized="0"
           inkscape:transform-center-x="1.5731476e-05"
           inkscape:transform-center-y="7.9344316e-05"
           transform="matrix(0,0.01457052,-0.01454011,0,205.64675,204.32612)"
           d="m -4700.408,1269.1126 -1701.6109,-10e-5 -850.8053,-1473.63823 850.8055,-1473.63817 1701.6108,10e-5 850.8054,1473.63823 z" />
        <text
           xml:space="preserve"
           style="font-size:4.23333px;font-family:sans-serif;-inkscape-font-specification:sans-serif;fill:#fdf0e3;fill-opacity:1;stroke:#4a280d;stroke-width:15;stroke-linecap:round;stroke-linejoin:round;stroke-miterlimit:4;stroke-dasharray:none"
           x="264.96298"
           y="116.49283"
           id="text265343-7"><tspan
             sodipodi:role="line"
             id="tspan265341-8"
             style="stroke-width:15;stroke-miterlimit:4;stroke-dasharray:none"
             x="264.96298"
             y="116.49283" /></text>
        <text
           xml:space="preserve"
           style="font-size:4.23333px;font-family:sans-serif;-inkscape-font-specification:sans-serif;fill:#fdf0e3;fill-opacity:1;stroke:#4a280d;stroke-width:15;stroke-linecap:round;stroke-linejoin:round;stroke-miterlimit:4;stroke-dasharray:none"
           x="264.50171"
           y="114.87369"
           id="text268683-6"><tspan
             sodipodi:role="line"
             id="tspan268681-8"
             style="stroke-width:15"
             x="264.50171"
             y="114.87369" /></text>
        <text
           xml:space="preserve"
           style="font-size:4.23333px;font-family:sans-serif;-inkscape-font-specification:sans-serif;fill:#fdf0e3;fill-opacity:1;stroke:#4a280d;stroke-width:5;stroke-linecap:round;stroke-linejoin:round;stroke-miterlimit:4;stroke-dasharray:none"
           x="292.30304"
           y="123.71243"
           id="text270271-8"><tspan
             sodipodi:role="line"
             id="tspan270269-4"
             style="stroke-width:5;stroke-miterlimit:4;stroke-dasharray:none"
             x="292.30304"
             y="123.71243" /></text>
        <text
           xml:space="preserve"
           style="font-size:4.23333px;font-family:sans-serif;-inkscape-font-specification:sans-serif;fill:#fdf0e3;fill-opacity:1;stroke:#4a280d;stroke-width:4.99999;stroke-linecap:round;stroke-linejoin:round;stroke-miterlimit:4;stroke-dasharray:none"
           x="295.08829"
           y="126.20206"
           id="text275393-3"><tspan
             sodipodi:role="line"
             id="tspan275391-1"
             style="stroke-width:5"
             x="295.08829"
             y="126.20206" /></text>
        <path
           style="fill:#6e5a59;fill-opacity:1;stroke:#000000;stroke-width:0.76;stroke-linecap:round;stroke-linejoin:round;stroke-miterlimit:4;stroke-dasharray:none"
           d="m 222.67265,118.88882 c 0.86075,-0.46568 1.87361,-0.84593 2.78542,-1.65272 1.26346,-1.11793 2.28192,-2.69587 1.97653,-3.23912 -0.30641,-0.5195 -2.09905,0.12885 -3.24534,0.61132 -0.71241,0.29984 -1.44234,0.67536 -2.17597,1.06692"
           id="path9670"
           sodipodi:nodetypes="cscsc" />
        <path
           style="fill:none;stroke:#000000;stroke-width:0.76;stroke-linecap:round;stroke-linejoin:round;stroke-miterlimit:4;stroke-dasharray:none"
           d="m 223.56786,115.02458 c 0.77829,0.71362 0.84273,1.77668 0.79155,2.91638"
           id="path10332"
           sodipodi:nodetypes="cc" />
        <path
           style="fill:none;stroke:#000000;stroke-width:0.76;stroke-linecap:round;stroke-linejoin:round;stroke-miterlimit:4;stroke-dasharray:none"
           d="m 225.02753,114.34919 c 0.44436,0.18572 0.77599,1.09238 0.95497,2.28923"
           id="path10337"
           sodipodi:nodetypes="cc" />
        <path
           style="fill:#a4a4a8;fill-opacity:1;stroke:#000000;stroke-width:0.759883;stroke-linecap:round;stroke-linejoin:round;stroke-miterlimit:4;stroke-dasharray:none"
           d="m 201.35339,110.53072 c -0.71501,0.003 -2.37768,0.27582 -3.05422,1.37165 -1.08475,1.51762 -2.50901,3.59666 -2.67424,6.68855 -0.0482,0.90244 0.0108,1.89117 0.21685,2.97741 0.15846,0.66675 0.40904,1.355 0.68437,1.94055 0.27988,0.61953 0.69373,1.17788 1.12571,1.67758 0.19587,0.27756 0.58929,0.50466 0.61956,0.72284 0.24426,1.09652 -0.0524,2.81157 1.24304,3.07389 0.43542,0.0711 0.77075,-0.059 1.07849,-0.30249 0.3229,-0.25748 0.40749,-0.55262 0.52536,-1.10871 4.62228,0.85542 9.68259,1.29461 16.62311,-0.0528 2.66247,-0.66497 3.50833,-2.98686 4.60706,-5.07812 L 208.4628,111.96799 c -0.43059,-0.91206 -1.89595,-1.35912 -2.86259,-1.31629 -1.15444,-0.34118 -2.89448,-0.47579 -4.24682,-0.1211"
           id="path34876"
           sodipodi:nodetypes="ccscccccccccccc" />
        <path
           style="fill:#a4a4a8;fill-opacity:1;stroke:#000000;stroke-width:0.766939;stroke-linecap:round;stroke-linejoin:round;stroke-miterlimit:4;stroke-dasharray:none"
           d="m 205.51058,127.32653 c -0.0502,0.60264 0.15488,1.40775 0.52814,1.90145 0.37354,0.46347 1.08324,0.591 1.5454,0.27283 0.61913,-0.45961 0.87428,-1.50489 0.93098,-1.94082"
           id="path9038"
           sodipodi:nodetypes="cccc" />
        <path
           style="fill:none;stroke:#000000;stroke-width:0.759883;stroke-linecap:round;stroke-linejoin:round;stroke-miterlimit:4;stroke-dasharray:none"
           d="m 197.23201,114.27734 c -0.71353,-0.36915 -1.44305,-0.72775 -2.43045,-0.91612"
           id="path40216"
           sodipodi:nodetypes="cc" />
        <path
           style="fill:none;stroke:#000000;stroke-width:0.759883;stroke-linecap:round;stroke-linejoin:round;stroke-miterlimit:4;stroke-dasharray:none"
           d="m 196.6794,115.69005 c -1.0641,-0.0362 -1.77401,0.0161 -2.36182,0.0992"
           id="path40218"
           sodipodi:nodetypes="cc" />
        <path
           style="fill:#a4a4a8;fill-opacity:1;stroke:#000000;stroke-width:0.759883;stroke-linecap:round;stroke-linejoin:round;stroke-miterlimit:4;stroke-dasharray:none"
           d="m 215.15903,126.92042 c -0.0502,0.60264 0.15487,1.40775 0.52814,1.90146 0.37354,0.46346 1.08323,0.59099 1.54539,0.27282 0.61914,-0.45961 0.87428,-1.50489 0.93099,-1.94082"
           id="path41005"
           sodipodi:nodetypes="cccc" />
        <path
           style="fill:#6e5a59;fill-opacity:1;stroke:#000000;stroke-width:0.759883;stroke-linecap:round;stroke-linejoin:round;stroke-miterlimit:4;stroke-dasharray:none"
           d="m 219.13117,124.22292 c 1.3315,0.77173 2.19987,-0.23434 2.82958,-1.1311 0.20181,-0.29005 0.34887,-0.61601 0.49586,-0.93342 0.38647,-0.78715 0.44257,-1.65122 0.4636,-2.4532 0.0629,-2.59774 -0.74092,-4.63498 -2.26551,-6.33776 -0.78374,-0.87409 -1.67079,-1.60254 -2.65256,-2.02612 -2.78681,-1.18928 -7.70075,-1.57004 -9.65062,-0.90333 7.00038,-0.0944 5.23783,10.78289 10.77965,13.78493 z"
           id="path46763"
           sodipodi:nodetypes="cccccccc" />
        <path
           style="fill:#6e5a59;fill-opacity:1;stroke:#000000;stroke-width:0.716819;stroke-linecap:round;stroke-linejoin:round;stroke-miterlimit:4;stroke-dasharray:none"
           d="m 208.89621,109.98718 4.82966,14.15148 c 0.64671,0.71856 1.53666,1.2599 3.64895,0.81559 1.2081,-0.31967 1.6357,-1.24844 1.93412,-2.29629 0.33158,-1.16177 0.5367,-2.30684 0.46476,-3.46034 -0.34351,-3.67398 -1.95372,-8.47621 -5.8118,-9.33224 -1.66905,-0.36338 -4.0438,-0.41132 -5.06569,0.1218 z"
           id="path45978"
           sodipodi:nodetypes="ccccccc" />
        <path
           style="fill:#6e5a59;fill-opacity:1;stroke:#000000;stroke-width:0.759883;stroke-linecap:round;stroke-linejoin:round;stroke-miterlimit:4;stroke-dasharray:none"
           d="m 208.4628,111.96803 c 2.01001,1.52864 2.44395,3.8502 1.96238,5.96843 -0.15166,0.6671 -0.71019,1.24359 -1.04771,1.83369 -0.29898,0.50786 -0.30673,1.07824 -0.24788,1.61124 0.16204,1.41773 1.02327,2.59257 2.41776,3.29936 1.86986,1.03864 2.94575,-0.4535 3.34319,-2.18198 0.30708,-1.02858 0.27177,-2.7728 0.15635,-4.11611 -0.13063,-1.52042 -0.57775,-3.33166 -1.68724,-4.97042 -1.27939,-1.89937 -3.29939,-2.76857 -4.46344,-3.42508 z"
           id="path41040"
           sodipodi:nodetypes="csccccsccc" />
        <path
           style="fill:none;stroke:#000000;stroke-width:0.759883;stroke-linecap:round;stroke-linejoin:round;stroke-miterlimit:4;stroke-dasharray:none"
           d="m 209.70485,114.37288 c 0.71353,-0.36916 1.44305,-0.72775 2.43044,-0.91613"
           id="path10884"
           sodipodi:nodetypes="cc" />
        <path
           style="fill:none;stroke:#000000;stroke-width:0.759883;stroke-linecap:round;stroke-linejoin:round;stroke-miterlimit:4;stroke-dasharray:none"
           d="m 210.00007,115.71473 c 1.06411,-0.0362 1.77402,0.0161 2.36182,0.0992"
           id="path11166"
           sodipodi:nodetypes="cc" />
        <path
           style="fill:none;stroke:#000000;stroke-width:0.759999;stroke-linecap:round;stroke-linejoin:round;stroke-miterlimit:4;stroke-dasharray:none"
           d="m 202.20095,115.81787 c 0.0487,0.23333 0.11992,0.30608 0.25685,0.35306 0.11688,0.0401 0.26039,0.0107 0.4211,-0.0907 0.0822,-0.0519 0.20285,-0.43698 0.29163,-0.5159 0.15547,-0.0187 0.0855,0.35517 0.1834,0.46967 0.10405,0.12171 0.3847,0.2519 0.63857,0.0973 0.14806,-0.0911 0.19333,-0.22518 0.21956,-0.31576"
           id="path11372-3"
           sodipodi:nodetypes="csscscc" />
        <ellipse
           style="fill:#000000;stroke:none;stroke-width:0.759999;stroke-linecap:round;stroke-linejoin:round;stroke-miterlimit:4;stroke-dasharray:none"
           id="ellipse13025"
           cx="200.20906"
           cy="115.40933"
           rx="0.65961587"
           ry="0.6884765" />
        <ellipse
           style="fill:#000000;stroke:none;stroke-width:0.759999;stroke-linecap:round;stroke-linejoin:round;stroke-miterlimit:4;stroke-dasharray:none"
           id="ellipse13027"
           cx="206.62601"
           cy="115.43276"
           rx="0.66984326"
           ry="0.69915134" />
        <path
           style="fill:#6e5a59;fill-opacity:1;stroke:none;stroke-width:0.76694;stroke-linecap:round;stroke-linejoin:round;stroke-miterlimit:4;stroke-dasharray:none"
           d="m 201.59262,111.117 c 0.26949,0.95634 0.37074,2.19059 1.00163,2.97056 0.47498,0.503 0.93817,0.52223 1.33433,0.17258 0.71122,-0.56766 1.1356,-1.76906 1.39199,-3.08349 0.17233,-0.95598 -4.09005,-0.84637 -3.72794,-0.0597 z"
           id="path110805"
           sodipodi:nodetypes="cccccc" />
        <path
           style="fill:#d4c4b5;fill-opacity:1;stroke:#000000;stroke-width:0.759883;stroke-linecap:round;stroke-linejoin:round;stroke-miterlimit:4;stroke-dasharray:none"
           d="m 205.31358,110.46675 c -1.03945,-0.25316 -2.52611,-0.27375 -3.71459,0.003 -0.0821,0.0191 -0.16402,0.0394 -0.2456,0.0608"
           id="path116289"
           sodipodi:nodetypes="csc" />
        <path
           d="m 199.40315,136.88288 q -0.0903,0 -0.14675,-0.0282 -0.0508,-0.0339 -0.079,-0.0847 -0.0282,-0.0508 -0.0395,-0.11853 -0.0113,-0.0734 -0.0169,-0.1524 -0.14111,0.17498 -0.36689,0.29351 -0.22013,0.11853 -0.56444,0.11853 -0.22014,0 -0.45156,-0.0621 -0.22578,-0.0677 -0.41204,-0.22577 -0.18627,-0.16369 -0.3048,-0.43463 -0.11853,-0.27093 -0.11853,-0.68297 0,-0.32174 0.079,-0.60396 0.079,-0.28222 0.23706,-0.49106 0.16369,-0.21449 0.4064,-0.33867 0.24271,-0.12418 0.57009,-0.12418 0.28787,0 0.51365,0.10725 0.22577,0.1016 0.4064,0.33866 0,-0.0677 0.006,-0.13546 0.006,-0.0734 0.0282,-0.12983 0.0282,-0.0621 0.0847,-0.096 0.0564,-0.0395 0.1524,-0.0395 0.0847,0 0.15804,0.0677 0.0734,0.0677 0.0847,0.29351 0.0169,0.29916 0.0226,0.53622 0.0113,0.23707 0.0113,0.49107 0,0.31044 -0.006,0.57009 -0.006,0.25964 -0.0282,0.55315 -0.0113,0.12983 -0.0339,0.20885 -0.0169,0.0734 -0.0452,0.11289 -0.0282,0.0339 -0.0677,0.0452 -0.0395,0.0113 -0.079,0.0113 z m -0.3048,-1.43369 q 0,-0.29351 -0.0903,-0.47977 -0.0847,-0.18627 -0.22013,-0.28787 -0.12982,-0.10725 -0.28222,-0.14676 -0.1524,-0.0395 -0.28223,-0.0395 -0.2032,0 -0.34995,0.0734 -0.14111,0.0734 -0.23142,0.2032 -0.0903,0.12418 -0.13547,0.29916 -0.0395,0.16933 -0.0395,0.37253 0,0.49671 0.21449,0.73378 0.22013,0.23706 0.59266,0.23706 0.22014,0 0.37254,-0.0734 0.15804,-0.079 0.254,-0.20884 0.1016,-0.12982 0.14675,-0.3048 0.0508,-0.18062 0.0508,-0.37818 z"
           id="path2649"
           style="font-size:5.64444px;font-family:Sniglet;-inkscape-font-specification:Sniglet;text-align:center;text-anchor:middle;fill:#000000;fill-opacity:1;stroke-width:0.76;stroke-linecap:round;stroke-linejoin:round" />
        <path
           d="m 200.35142,136.51599 q -0.0226,-0.19755 -0.0282,-0.47978 -0.006,-0.28222 -0.006,-0.68297 0,-0.39511 0,-0.63782 0.006,-0.24272 0.0339,-0.42898 0.0282,-0.23142 0.0847,-0.29916 0.0621,-0.0677 0.15805,-0.0677 0.0677,0 0.11853,0.0113 0.0564,0.0113 0.096,0.0508 0.0452,0.0339 0.0677,0.1016 0.0226,0.0677 0.0226,0.18626 0,0.0226 0.006,0.0452 0,0.0226 0,0.0508 0.006,0.0226 0.006,0.0564 0.1524,-0.19191 0.34431,-0.32737 0.19755,-0.13547 0.44591,-0.13547 0.33302,0 0.33302,0.27658 0,0.1016 -0.0452,0.16933 -0.0395,0.0677 -0.11854,0.11289 -0.0734,0.0395 -0.17498,0.0621 -0.0959,0.0226 -0.21448,0.0451 -0.18063,0.0339 -0.33867,0.12983 -0.15804,0.0903 -0.21449,0.23142 0,0.10724 0,0.15804 0.006,0.0508 0.006,0.0847 0.006,0.0339 0.006,0.0734 0,0.0395 0,0.12418 0,0.28786 -0.0113,0.54186 -0.0113,0.24836 -0.0226,0.54187 -0.006,0.13546 -0.0339,0.20884 -0.0226,0.0734 -0.0621,0.11289 -0.0339,0.0395 -0.079,0.0452 -0.0452,0.0113 -0.0903,0.0113 -0.15804,0 -0.21448,-0.0677 -0.0508,-0.0734 -0.0734,-0.3048 z"
           id="path2651"
           style="font-size:5.64444px;font-family:Sniglet;-inkscape-font-specification:Sniglet;text-align:center;text-anchor:middle;fill:#000000;fill-opacity:1;stroke-width:0.76;stroke-linecap:round;stroke-linejoin:round" />
        <path
           d="m 206.2555,136.69097 q -0.0339,-0.096 -0.0452,-0.21449 -0.006,-0.11853 -0.006,-0.29351 0,-0.12418 0,-0.19191 0.006,-0.0734 0.006,-0.12418 0,-0.0564 0,-0.10724 0.006,-0.0565 0.006,-0.1524 0,-0.19756 -0.0113,-0.39511 -0.006,-0.2032 -0.0565,-0.36125 -0.0508,-0.16369 -0.15804,-0.26529 -0.10725,-0.1016 -0.31045,-0.1016 -0.34431,0 -0.53622,0.32738 -0.19191,0.32738 -0.23142,1.04422 -0.0113,0.22578 -0.0113,0.41205 0,0.18626 -0.0226,0.32173 -0.0226,0.12982 -0.0847,0.2032 -0.0565,0.0734 -0.19191,0.0734 -0.12418,0 -0.18063,-0.0621 -0.0564,-0.0677 -0.0847,-0.19756 -0.0226,-0.12982 -0.0282,-0.31609 0,-0.18626 -0.0169,-0.43462 -0.0169,-0.27093 -0.0564,-0.51929 -0.0339,-0.24835 -0.11854,-0.43462 -0.079,-0.19191 -0.22013,-0.3048 -0.13547,-0.11289 -0.34996,-0.11289 -0.20319,0 -0.31608,0.1016 -0.10725,0.096 -0.15805,0.25965 -0.0508,0.15804 -0.0621,0.36124 -0.006,0.19756 -0.006,0.40076 0,0.1016 0,0.1524 0.006,0.0452 0.006,0.0847 0,0.0395 0,0.1016 0.006,0.0621 0.006,0.19191 0,0.18627 -0.0113,0.32174 -0.006,0.13546 -0.0395,0.23142 -0.0395,0.11289 -0.10725,0.14111 -0.0677,0.0226 -0.12417,0.0226 -0.17498,0 -0.22578,-0.12418 -0.0508,-0.12418 -0.0565,-0.36124 0,-0.12983 -0.006,-0.28787 0,-0.16369 0,-0.39511 0,-0.11289 0,-0.19756 0,-0.0847 0,-0.16368 0.006,-0.079 0.006,-0.15805 0.006,-0.0847 0.0113,-0.19191 0.0169,-0.34431 0.12418,-0.54751 0.10724,-0.20885 0.254,-0.31609 0.14676,-0.10724 0.31609,-0.13547 0.16933,-0.0339 0.31044,-0.0339 0.3048,0 0.51365,0.0903 0.20884,0.0903 0.33866,0.23706 0.13547,0.14676 0.19756,0.33303 0.0677,0.18626 0.0903,0.37817 0.0226,-0.18626 0.0903,-0.36688 0.0734,-0.18627 0.20885,-0.32738 0.14111,-0.14676 0.36124,-0.23707 0.22013,-0.0903 0.54187,-0.0903 0.1524,0 0.31044,0.0339 0.16369,0.0282 0.29916,0.13546 0.13546,0.10725 0.22577,0.31045 0.096,0.19755 0.11289,0.53622 0.006,0.10724 0.006,0.19191 0.006,0.079 0.006,0.15805 0.006,0.079 0.006,0.16368 0,0.0847 0,0.19756 0,0.23142 -0.006,0.39511 0,0.15804 0,0.28787 0,0.10724 -0.0113,0.19755 -0.006,0.0903 -0.0339,0.1524 -0.0282,0.0621 -0.0847,0.1016 -0.0508,0.0339 -0.1524,0.0339 -0.096,0 -0.14676,-0.0339 -0.0508,-0.0395 -0.0847,-0.12982 z"
           id="path2653"
           style="font-size:5.64444px;font-family:Sniglet;-inkscape-font-specification:Sniglet;text-align:center;text-anchor:middle;fill:#000000;fill-opacity:1;stroke-width:0.76;stroke-linecap:round;stroke-linejoin:round" />
        <path
           d="m 209.7494,136.88288 q -0.0903,0 -0.14675,-0.0282 -0.0508,-0.0339 -0.079,-0.0847 -0.0282,-0.0508 -0.0395,-0.11853 -0.0113,-0.0734 -0.0169,-0.1524 -0.14111,0.17498 -0.36689,0.29351 -0.22013,0.11853 -0.56444,0.11853 -0.22014,0 -0.45156,-0.0621 -0.22578,-0.0677 -0.41204,-0.22577 -0.18627,-0.16369 -0.3048,-0.43463 -0.11854,-0.27093 -0.11854,-0.68297 0,-0.32174 0.079,-0.60396 0.079,-0.28222 0.23706,-0.49106 0.16369,-0.21449 0.4064,-0.33867 0.24271,-0.12418 0.57009,-0.12418 0.28787,0 0.51364,0.10725 0.22578,0.1016 0.4064,0.33866 0,-0.0677 0.006,-0.13546 0.006,-0.0734 0.0282,-0.12983 0.0282,-0.0621 0.0847,-0.096 0.0564,-0.0395 0.1524,-0.0395 0.0847,0 0.15804,0.0677 0.0734,0.0677 0.0847,0.29351 0.0169,0.29916 0.0226,0.53622 0.0113,0.23707 0.0113,0.49107 0,0.31044 -0.006,0.57009 -0.006,0.25964 -0.0282,0.55315 -0.0113,0.12983 -0.0339,0.20885 -0.0169,0.0734 -0.0452,0.11289 -0.0282,0.0339 -0.0677,0.0452 -0.0395,0.0113 -0.079,0.0113 z m -0.3048,-1.43369 q 0,-0.29351 -0.0903,-0.47977 -0.0847,-0.18627 -0.22013,-0.28787 -0.12983,-0.10725 -0.28223,-0.14676 -0.15239,-0.0395 -0.28222,-0.0395 -0.2032,0 -0.34995,0.0734 -0.14111,0.0734 -0.23142,0.2032 -0.0903,0.12418 -0.13547,0.29916 -0.0395,0.16933 -0.0395,0.37253 0,0.49671 0.21449,0.73378 0.22013,0.23706 0.59266,0.23706 0.22014,0 0.37254,-0.0734 0.15804,-0.079 0.254,-0.20884 0.1016,-0.12982 0.14675,-0.3048 0.0508,-0.18062 0.0508,-0.37818 z"
           id="path2655"
           style="font-size:5.64444px;font-family:Sniglet;-inkscape-font-specification:Sniglet;text-align:center;text-anchor:middle;fill:#000000;fill-opacity:1;stroke-width:0.76;stroke-linecap:round;stroke-linejoin:round" />
        <path
           d="m 213.02318,136.84901 q -0.11289,0 -0.19191,-0.0903 -0.0734,-0.0903 -0.1016,-0.20884 -0.0677,0.0621 -0.15805,0.12418 -0.0847,0.0621 -0.19755,0.11853 -0.11289,0.0508 -0.24836,0.0847 -0.13547,0.0339 -0.29351,0.0339 -0.19191,0 -0.42898,-0.0621 -0.23142,-0.0677 -0.44026,-0.22577 -0.2032,-0.16369 -0.34432,-0.44027 -0.13546,-0.27658 -0.13546,-0.69427 0,-0.3556 0.10724,-0.63217 0.10725,-0.27658 0.29916,-0.46285 0.19755,-0.19191 0.46284,-0.28786 0.27094,-0.1016 0.58702,-0.1016 0.27094,0 0.42898,0.0621 0.15805,0.0621 0.24836,0.14675 0,-0.1524 0,-0.34431 0,-0.19756 0,-0.37818 0.006,-0.18626 0.006,-0.33866 0.006,-0.1524 0.0113,-0.23143 0.0113,-0.19191 0.0677,-0.25964 0.0565,-0.0734 0.19756,-0.0734 0.14675,0 0.19755,0.0734 0.0565,0.0677 0.0677,0.24271 0.006,0.0734 0.006,0.19756 0.006,0.12417 0.006,0.27093 0,0.14675 0,0.29915 0.006,0.14676 0.006,0.27094 0,0.11853 0,0.19755 0,0.079 0,0.079 0,0.57574 -0.0113,1.06116 -0.006,0.48542 -0.006,0.77329 0.0113,0.0621 0.0452,0.11853 0.0395,0.0565 0.079,0.11289 0.0452,0.0564 0.079,0.11853 0.0339,0.0621 0.0339,0.12983 0,0.079 -0.0395,0.14111 -0.0395,0.0564 -0.1016,0.0959 -0.0564,0.0395 -0.12417,0.0621 -0.0621,0.0169 -0.11289,0.0169 z m -1.08938,-0.49671 q 0.34995,0 0.53622,-0.20884 0.18627,-0.20885 0.18627,-0.68862 0,-0.92005 -0.72813,-0.92005 -0.16934,0 -0.32738,0.0508 -0.15805,0.0508 -0.28222,0.15805 -0.11854,0.10724 -0.19756,0.27093 -0.0734,0.16369 -0.0734,0.38947 0,0.18626 0.0508,0.3556 0.0565,0.16933 0.16369,0.3048 0.11289,0.12982 0.27658,0.20884 0.16933,0.079 0.39511,0.079 z"
           id="path2657"
           style="font-size:5.64444px;font-family:Sniglet;-inkscape-font-specification:Sniglet;text-align:center;text-anchor:middle;fill:#000000;fill-opacity:1;stroke-width:0.76;stroke-linecap:round;stroke-linejoin:round" />
        <path
           d="m 213.89242,136.51035 q -0.0113,-0.20885 -0.0226,-0.47414 -0.006,-0.27093 -0.006,-0.59266 0,-0.40076 0.006,-0.68298 0.006,-0.28787 0.0282,-0.46849 0.0282,-0.18626 0.0847,-0.27093 0.0564,-0.0903 0.15804,-0.0903 0.096,0 0.16933,0.0677 0.0734,0.0677 0.0847,0.29351 0.0339,0.59267 0.0339,1.14582 0,0.28223 -0.0113,0.53058 -0.0113,0.24271 -0.0226,0.53622 -0.006,0.13547 -0.0282,0.20885 -0.0169,0.0734 -0.0508,0.11289 -0.0339,0.0395 -0.079,0.0452 -0.0395,0.0113 -0.096,0.0113 -0.1016,0 -0.16933,-0.0677 -0.0677,-0.0734 -0.079,-0.3048 z m 0.254,-3.60116 q 0.12982,0 0.23706,0.1016 0.11289,0.1016 0.11289,0.24272 0,0.13546 -0.11289,0.23706 -0.11289,0.096 -0.254,0.096 -0.11853,0 -0.22577,-0.096 -0.1016,-0.1016 -0.1016,-0.24835 0,-0.13547 0.1016,-0.23143 0.10724,-0.1016 0.24271,-0.1016 z"
           id="path2659"
           style="font-size:5.64444px;font-family:Sniglet;-inkscape-font-specification:Sniglet;text-align:center;text-anchor:middle;fill:#000000;fill-opacity:1;stroke-width:0.76;stroke-linecap:round;stroke-linejoin:round" />
        <path
           d="m 215.16241,136.53293 q -0.006,-0.2032 -0.0113,-0.47414 -0.006,-0.27093 -0.0113,-0.58702 0,-0.31609 -0.006,-0.66604 0,-0.34996 0,-0.71685 0,-0.40075 0.006,-0.68862 0.006,-0.28787 0.0282,-0.47413 0.0282,-0.18627 0.0847,-0.27093 0.0564,-0.0903 0.15804,-0.0903 0.096,0 0.16933,0.0621 0.0734,0.0621 0.0847,0.28787 0.0226,0.4064 0.0282,0.84667 0.006,0.43462 0.006,0.85795 0,0.254 0,0.49107 0,0.23142 -0.006,0.46284 -0.006,0.22578 -0.0113,0.46284 -0.006,0.23707 -0.0169,0.49107 -0.006,0.13547 -0.0282,0.20885 -0.0169,0.0734 -0.0508,0.11288 -0.0339,0.0395 -0.079,0.0452 -0.0395,0.0113 -0.096,0.0113 -0.1016,0 -0.16933,-0.0677 -0.0677,-0.0734 -0.079,-0.3048 z"
           id="path2661"
           style="font-size:5.64444px;font-family:Sniglet;-inkscape-font-specification:Sniglet;text-align:center;text-anchor:middle;fill:#000000;fill-opacity:1;stroke-width:0.76;stroke-linecap:round;stroke-linejoin:round" />
        <path
           d="m 216.42676,136.53293 q -0.006,-0.2032 -0.0113,-0.47414 -0.006,-0.27093 -0.0113,-0.58702 0,-0.31609 -0.006,-0.66604 0,-0.34996 0,-0.71685 0,-0.40075 0.006,-0.68862 0.006,-0.28787 0.0282,-0.47413 0.0282,-0.18627 0.0847,-0.27093 0.0565,-0.0903 0.15805,-0.0903 0.0959,0 0.16933,0.0621 0.0734,0.0621 0.0847,0.28787 0.0226,0.4064 0.0282,0.84667 0.006,0.43462 0.006,0.85795 0,0.254 0,0.49107 0,0.23142 -0.006,0.46284 -0.006,0.22578 -0.0113,0.46284 -0.006,0.23707 -0.0169,0.49107 -0.006,0.13547 -0.0282,0.20885 -0.0169,0.0734 -0.0508,0.11288 -0.0339,0.0395 -0.079,0.0452 -0.0395,0.0113 -0.0959,0.0113 -0.1016,0 -0.16933,-0.0677 -0.0677,-0.0734 -0.079,-0.3048 z"
           id="path2663"
           style="font-size:5.64444px;font-family:Sniglet;-inkscape-font-specification:Sniglet;text-align:center;text-anchor:middle;fill:#000000;fill-opacity:1;stroke-width:0.76;stroke-linecap:round;stroke-linejoin:round" />
        <path
           d="m 218.96111,133.99857 q 0.32173,0 0.57573,0.1016 0.254,0.096 0.42898,0.27658 0.18062,0.18062 0.27658,0.44027 0.096,0.25964 0.096,0.58137 0,0.3556 -0.11288,0.63782 -0.10725,0.28223 -0.3048,0.47978 -0.19191,0.19756 -0.46285,0.3048 -0.26529,0.10725 -0.58138,0.10725 -0.34431,0 -0.60959,-0.11854 -0.25965,-0.11853 -0.44027,-0.32173 -0.17498,-0.2032 -0.26529,-0.46849 -0.0903,-0.26529 -0.0903,-0.5588 0,-0.32173 0.1016,-0.58702 0.10724,-0.27093 0.29915,-0.46284 0.19756,-0.19756 0.47414,-0.3048 0.27657,-0.10725 0.61524,-0.10725 z m -0.0621,2.41018 q 0.23142,0 0.39511,-0.079 0.16369,-0.0847 0.26529,-0.22014 0.10725,-0.13546 0.1524,-0.3048 0.0508,-0.17497 0.0508,-0.36124 0,-0.19191 -0.0508,-0.3556 -0.0452,-0.16933 -0.14675,-0.29351 -0.096,-0.12418 -0.254,-0.19191 -0.1524,-0.0734 -0.36689,-0.0734 -0.22014,0 -0.38382,0.0734 -0.16369,0.0734 -0.27658,0.2032 -0.10725,0.12417 -0.16369,0.29915 -0.0564,0.17498 -0.0564,0.37818 0,0.41204 0.20884,0.67169 0.21449,0.254 0.62653,0.254 z"
           id="path2665"
           style="font-size:5.64444px;font-family:Sniglet;-inkscape-font-specification:Sniglet;text-align:center;text-anchor:middle;fill:#000000;fill-opacity:1;stroke-width:0.76;stroke-linecap:round;stroke-linejoin:round" />
        <path
           style="fill:#a4a4a8;fill-opacity:1;stroke:#000000;stroke-width:0.759883;stroke-linecap:round;stroke-linejoin:round;stroke-miterlimit:4;stroke-dasharray:none"
           d="m 198.5517,112.34664 c -0.0184,-0.0577 -0.18284,-0.49456 -0.20225,-0.55334 -0.35939,-1.08809 -0.8541,-2.34832 0.0658,-3.0878 0.44674,-0.32627 0.81883,-0.34183 1.28156,-0.18582 0.85325,0.35453 1.4313,1.66235 1.72162,2.3334"
           id="path107136"
           sodipodi:nodetypes="csccc" />
        <path
           style="fill:#a4a4a8;fill-opacity:1;stroke:#000000;stroke-width:0.759883;stroke-linecap:round;stroke-linejoin:round;stroke-miterlimit:4;stroke-dasharray:none"
           d="m 208.31736,112.34664 c 0.0184,-0.0577 0.18284,-0.49456 0.20225,-0.55334 0.36376,-1.10131 0.86614,-2.37898 -0.1,-3.11453 -0.44881,-0.36344 -1.0731,-0.26347 -1.50184,-0.0209 -0.7123,0.47935 -1.19395,1.59531 -1.45437,2.19726"
           id="path43516"
           sodipodi:nodetypes="csccc" />
      </g>
    </g>
  </g>
  <style
     type="text/css"
     id="style10296">
	.st0{fill:#75AADB;}
	.st1{fill:#4D4D4D;}
	.st2{fill:#FFFFFF;}
	.st3{fill:url(#SVGID_1_);}
	.st4{fill:url(#SVGID_2_);}
	.st5{fill:url(#SVGID_3_);}
	.st6{fill:url(#SVGID_4_);}
	.st7{fill:url(#SVGID_5_);}
	.st8{fill:url(#SVGID_6_);}
	.st9{fill:url(#SVGID_7_);}
	.st10{fill:url(#SVGID_8_);}
	.st11{fill:url(#SVGID_9_);}
	.st12{fill:url(#SVGID_10_);}
	.st13{opacity:0.18;fill:url(#SVGID_11_);}
	.st14{opacity:0.3;}
</style>
  <style
     type="text/css"
     id="style10296-7">
	.st0{fill:#75AADB;}
	.st1{fill:#4D4D4D;}
	.st2{fill:#FFFFFF;}
	.st3{fill:url(#SVGID_1_);}
	.st4{fill:url(#SVGID_2_);}
	.st5{fill:url(#SVGID_3_);}
	.st6{fill:url(#SVGID_4_);}
	.st7{fill:url(#SVGID_5_);}
	.st8{fill:url(#SVGID_6_);}
	.st9{fill:url(#SVGID_7_);}
	.st10{fill:url(#SVGID_8_);}
	.st11{fill:url(#SVGID_9_);}
	.st12{fill:url(#SVGID_10_);}
	.st13{opacity:0.18;fill:url(#SVGID_11_);}
	.st14{opacity:0.3;}
</style>
  <style
     type="text/css"
     id="style10296-4">
	.st0{fill:#75AADB;}
	.st1{fill:#4D4D4D;}
	.st2{fill:#FFFFFF;}
	.st3{fill:url(#SVGID_1_);}
	.st4{fill:url(#SVGID_2_);}
	.st5{fill:url(#SVGID_3_);}
	.st6{fill:url(#SVGID_4_);}
	.st7{fill:url(#SVGID_5_);}
	.st8{fill:url(#SVGID_6_);}
	.st9{fill:url(#SVGID_7_);}
	.st10{fill:url(#SVGID_8_);}
	.st11{fill:url(#SVGID_9_);}
	.st12{fill:url(#SVGID_10_);}
	.st13{opacity:0.18;fill:url(#SVGID_11_);}
	.st14{opacity:0.3;}
</style>
  <style
     type="text/css"
     id="style10296-9">
	.st0{fill:#75AADB;}
	.st1{fill:#4D4D4D;}
	.st2{fill:#FFFFFF;}
	.st3{fill:url(#SVGID_1_);}
	.st4{fill:url(#SVGID_2_);}
	.st5{fill:url(#SVGID_3_);}
	.st6{fill:url(#SVGID_4_);}
	.st7{fill:url(#SVGID_5_);}
	.st8{fill:url(#SVGID_6_);}
	.st9{fill:url(#SVGID_7_);}
	.st10{fill:url(#SVGID_8_);}
	.st11{fill:url(#SVGID_9_);}
	.st12{fill:url(#SVGID_10_);}
	.st13{opacity:0.18;fill:url(#SVGID_11_);}
	.st14{opacity:0.3;}
</style>
  <style
     type="text/css"
     id="style10296-2">
	.st0{fill:#75AADB;}
	.st1{fill:#4D4D4D;}
	.st2{fill:#FFFFFF;}
	.st3{fill:url(#SVGID_1_);}
	.st4{fill:url(#SVGID_2_);}
	.st5{fill:url(#SVGID_3_);}
	.st6{fill:url(#SVGID_4_);}
	.st7{fill:url(#SVGID_5_);}
	.st8{fill:url(#SVGID_6_);}
	.st9{fill:url(#SVGID_7_);}
	.st10{fill:url(#SVGID_8_);}
	.st11{fill:url(#SVGID_9_);}
	.st12{fill:url(#SVGID_10_);}
	.st13{opacity:0.18;fill:url(#SVGID_11_);}
	.st14{opacity:0.3;}
</style>
  <style
     type="text/css"
     id="style10296-6">
	.st0{fill:#75AADB;}
	.st1{fill:#4D4D4D;}
	.st2{fill:#FFFFFF;}
	.st3{fill:url(#SVGID_1_);}
	.st4{fill:url(#SVGID_2_);}
	.st5{fill:url(#SVGID_3_);}
	.st6{fill:url(#SVGID_4_);}
	.st7{fill:url(#SVGID_5_);}
	.st8{fill:url(#SVGID_6_);}
	.st9{fill:url(#SVGID_7_);}
	.st10{fill:url(#SVGID_8_);}
	.st11{fill:url(#SVGID_9_);}
	.st12{fill:url(#SVGID_10_);}
	.st13{opacity:0.18;fill:url(#SVGID_11_);}
	.st14{opacity:0.3;}
</style>
  <style
     type="text/css"
     id="style10296-3">
	.st0{fill:#75AADB;}
	.st1{fill:#4D4D4D;}
	.st2{fill:#FFFFFF;}
	.st3{fill:url(#SVGID_1_);}
	.st4{fill:url(#SVGID_2_);}
	.st5{fill:url(#SVGID_3_);}
	.st6{fill:url(#SVGID_4_);}
	.st7{fill:url(#SVGID_5_);}
	.st8{fill:url(#SVGID_6_);}
	.st9{fill:url(#SVGID_7_);}
	.st10{fill:url(#SVGID_8_);}
	.st11{fill:url(#SVGID_9_);}
	.st12{fill:url(#SVGID_10_);}
	.st13{opacity:0.18;fill:url(#SVGID_11_);}
	.st14{opacity:0.3;}
</style>
  <style
     type="text/css"
     id="style10296-7-1">
	.st0{fill:#75AADB;}
	.st1{fill:#4D4D4D;}
	.st2{fill:#FFFFFF;}
	.st3{fill:url(#SVGID_1_);}
	.st4{fill:url(#SVGID_2_);}
	.st5{fill:url(#SVGID_3_);}
	.st6{fill:url(#SVGID_4_);}
	.st7{fill:url(#SVGID_5_);}
	.st8{fill:url(#SVGID_6_);}
	.st9{fill:url(#SVGID_7_);}
	.st10{fill:url(#SVGID_8_);}
	.st11{fill:url(#SVGID_9_);}
	.st12{fill:url(#SVGID_10_);}
	.st13{opacity:0.18;fill:url(#SVGID_11_);}
	.st14{opacity:0.3;}
</style>
  <style
     type="text/css"
     id="style10296-4-5">
	.st0{fill:#75AADB;}
	.st1{fill:#4D4D4D;}
	.st2{fill:#FFFFFF;}
	.st3{fill:url(#SVGID_1_);}
	.st4{fill:url(#SVGID_2_);}
	.st5{fill:url(#SVGID_3_);}
	.st6{fill:url(#SVGID_4_);}
	.st7{fill:url(#SVGID_5_);}
	.st8{fill:url(#SVGID_6_);}
	.st9{fill:url(#SVGID_7_);}
	.st10{fill:url(#SVGID_8_);}
	.st11{fill:url(#SVGID_9_);}
	.st12{fill:url(#SVGID_10_);}
	.st13{opacity:0.18;fill:url(#SVGID_11_);}
	.st14{opacity:0.3;}
</style>
  <style
     type="text/css"
     id="style10296-9-5">
	.st0{fill:#75AADB;}
	.st1{fill:#4D4D4D;}
	.st2{fill:#FFFFFF;}
	.st3{fill:url(#SVGID_1_);}
	.st4{fill:url(#SVGID_2_);}
	.st5{fill:url(#SVGID_3_);}
	.st6{fill:url(#SVGID_4_);}
	.st7{fill:url(#SVGID_5_);}
	.st8{fill:url(#SVGID_6_);}
	.st9{fill:url(#SVGID_7_);}
	.st10{fill:url(#SVGID_8_);}
	.st11{fill:url(#SVGID_9_);}
	.st12{fill:url(#SVGID_10_);}
	.st13{opacity:0.18;fill:url(#SVGID_11_);}
	.st14{opacity:0.3;}
</style>
  <style
     type="text/css"
     id="style10296-2-4">
	.st0{fill:#75AADB;}
	.st1{fill:#4D4D4D;}
	.st2{fill:#FFFFFF;}
	.st3{fill:url(#SVGID_1_);}
	.st4{fill:url(#SVGID_2_);}
	.st5{fill:url(#SVGID_3_);}
	.st6{fill:url(#SVGID_4_);}
	.st7{fill:url(#SVGID_5_);}
	.st8{fill:url(#SVGID_6_);}
	.st9{fill:url(#SVGID_7_);}
	.st10{fill:url(#SVGID_8_);}
	.st11{fill:url(#SVGID_9_);}
	.st12{fill:url(#SVGID_10_);}
	.st13{opacity:0.18;fill:url(#SVGID_11_);}
	.st14{opacity:0.3;}
</style>
</svg>
