<?xml version="1.0" encoding="UTF-8" standalone="no"?>
<!-- Created with Inkscape (http://www.inkscape.org/) -->

<svg
   width="43.929592mm"
   height="50.831615mm"
   viewBox="0 0 43.929592 50.831615"
   version="1.1"
   id="svg5"
   inkscape:version="1.1.2 (0a00cf5339, 2022-02-04)"
   sodipodi:docname="logo.svg"
   xmlns:inkscape="http://www.inkscape.org/namespaces/inkscape"
   xmlns:sodipodi="http://sodipodi.sourceforge.net/DTD/sodipodi-0.dtd"
   xmlns="http://www.w3.org/2000/svg"
   xmlns:svg="http://www.w3.org/2000/svg">
  <sodipodi:namedview
     id="namedview7"
     pagecolor="#ffffff"
     bordercolor="#000000"
     borderopacity="0.25"
     inkscape:pageshadow="2"
     inkscape:pageopacity="0.0"
     inkscape:pagecheckerboard="0"
     inkscape:document-units="mm"
     showgrid="false"
     showguides="true"
     inkscape:guide-bbox="true"
     inkscape:zoom="5.031168"
     inkscape:cx="118.95846"
     inkscape:cy="92.225106"
     inkscape:window-width="1920"
     inkscape:window-height="1055"
     inkscape:window-x="0"
     inkscape:window-y="32"
     inkscape:window-maximized="1"
     inkscape:current-layer="g193548"
     fit-margin-top="0"
     fit-margin-left="0"
     fit-margin-right="0"
     fit-margin-bottom="0" />
  <defs
     id="defs2">
    <inkscape:perspective
       sodipodi:type="inkscape:persp3d"
       inkscape:vp_x="0 : 389.7996 : 1"
       inkscape:vp_y="0 : 999.99992 : 0"
       inkscape:vp_z="1500 : 389.7996 : 1"
       inkscape:persp3d-origin="749.99998 : 95.754155 : 1"
       id="perspective4362" />
    <clipPath
       id="clp12">
      <path
         d="m 45.315,71.927 h 12.92 v 15.867 h -12.92 z"
         id="path184"
         inkscape:connector-curvature="0" />
    </clipPath>
    <clipPath
       id="clp21">
      <path
         d="m 123.91,72.178 h 26.23 v 15.294 h -26.23 z"
         id="path592"
         inkscape:connector-curvature="0" />
    </clipPath>
    <clipPath
       id="clp9">
      <path
         d="m 413.96,49.857 h 31.76 v 8.719 h -31.76 z"
         id="path100"
         inkscape:connector-curvature="0" />
    </clipPath>
  </defs>
  <g
     inkscape:label="Layer 1"
     inkscape:groupmode="layer"
     id="layer1"
     transform="translate(-186.65577,-98.20731)">
    <text
       xml:space="preserve"
       style="font-size:4.23333px;font-family:sans-serif;-inkscape-font-specification:sans-serif;fill:#fdf0e3;fill-opacity:1;stroke:#4a280d;stroke-width:15;stroke-linecap:round;stroke-linejoin:round;stroke-miterlimit:4;stroke-dasharray:none"
       x="214.69817"
       y="116.24603"
       id="text265343"><tspan
         sodipodi:role="line"
         id="tspan265341"
         style="stroke-width:15;stroke-miterlimit:4;stroke-dasharray:none"
         x="214.69817"
         y="116.24603" /></text>
    <text
       xml:space="preserve"
       style="font-size:4.23333px;font-family:sans-serif;-inkscape-font-specification:sans-serif;fill:#fdf0e3;fill-opacity:1;stroke:#4a280d;stroke-width:15;stroke-linecap:round;stroke-linejoin:round;stroke-miterlimit:4;stroke-dasharray:none"
       x="214.23691"
       y="114.62688"
       id="text268683"><tspan
         sodipodi:role="line"
         id="tspan268681"
         style="stroke-width:15"
         x="214.23691"
         y="114.62688" /></text>
    <text
       xml:space="preserve"
       style="font-size:4.23333px;font-family:sans-serif;-inkscape-font-specification:sans-serif;fill:#fdf0e3;fill-opacity:1;stroke:#4a280d;stroke-width:5;stroke-linecap:round;stroke-linejoin:round;stroke-miterlimit:4;stroke-dasharray:none"
       x="242.03822"
       y="123.46563"
       id="text270271"><tspan
         sodipodi:role="line"
         id="tspan270269"
         style="stroke-width:5;stroke-miterlimit:4;stroke-dasharray:none"
         x="242.03822"
         y="123.46563" /></text>
    <text
       xml:space="preserve"
       style="font-size:4.23333px;font-family:sans-serif;-inkscape-font-specification:sans-serif;fill:#fdf0e3;fill-opacity:1;stroke:#4a280d;stroke-width:4.99999;stroke-linecap:round;stroke-linejoin:round;stroke-miterlimit:4;stroke-dasharray:none"
       x="244.82349"
       y="125.95525"
       id="text275393"><tspan
         sodipodi:role="line"
         id="tspan275391"
         style="stroke-width:5"
         x="244.82349"
         y="125.95525" /></text>
    <g
       id="g193503"
       transform="translate(0,0.18106276)">
      <g
         id="g193548">
        <path
           sodipodi:type="star"
           style="fill:#d2f2e5;fill-opacity:1;stroke:#4a280d;stroke-width:73.9932;stroke-miterlimit:4;stroke-dasharray:none;stroke-opacity:1"
           id="path4560"
           sodipodi:sides="6"
           sodipodi:cx="-5551.2134"
           sodipodi:cy="-204.52565"
           sodipodi:r1="1701.6108"
           sodipodi:r2="1473.6381"
           sodipodi:arg1="1.0471976"
           sodipodi:arg2="1.5707963"
           inkscape:flatsided="true"
           inkscape:rounded="0"
           inkscape:randomized="0"
           inkscape:transform-center-x="1.5731476e-05"
           inkscape:transform-center-y="7.9344316e-05"
           transform="matrix(0,0.01457052,-0.01454011,0,205.64674,204.32612)"
           d="m -4700.408,1269.1126 -1701.6109,-10e-5 -850.8053,-1473.63823 850.8055,-1473.63817 1701.6108,10e-5 850.8054,1473.63823 z" />
        <g
           id="g193460">
          <path
             style="fill:#cea18c;fill-opacity:1;stroke:#4a280d;stroke-width:0.628513;stroke-linecap:round;stroke-linejoin:round"
             d="m 202.14963,115.74469 c 0.0667,3.73599 1.26346,7.93617 0.0971,10.49595 -0.51331,0.95782 -1.46782,0.54913 -1.8032,-0.331 -1.06146,-2.78572 -0.0576,-7.34494 1.70606,-10.16495 z"
             id="path100740"
             sodipodi:nodetypes="ccsc" />
          <path
             style="fill:#cea18c;fill-opacity:1;stroke:#4a280d;stroke-width:0.628513;stroke-linecap:round;stroke-linejoin:round"
             d="m 203.50927,114.06601 c -1.1509,3.55493 -1.38377,7.91608 -3.31855,9.95799 -0.79667,0.73906 -1.56659,0.0424 -1.5978,-0.89895 -0.0987,-2.97945 2.33207,-6.96512 4.91635,-9.05904 z"
             id="path100742"
             sodipodi:nodetypes="ccsc" />
          <path
             style="fill:#cea18c;fill-opacity:1;stroke:#4a280d;stroke-width:0.628513;stroke-linecap:round;stroke-linejoin:round"
             d="m 203.50927,111.4264 c -1.1509,3.55493 -1.38377,7.91608 -3.31855,9.95799 -0.79667,0.73906 -1.56659,0.0424 -1.5978,-0.89895 -0.0987,-2.97945 2.33207,-6.96512 4.91635,-9.05904 z"
             id="path100744"
             sodipodi:nodetypes="ccsc" />
          <path
             style="fill:#cea18c;fill-opacity:1;stroke:#4a280d;stroke-width:0.628513;stroke-linecap:round;stroke-linejoin:round"
             d="m 203.46248,111.80497 c -1.1509,3.55493 -0.45711,4.45796 -2.39189,6.49988 -0.79667,0.73905 -1.5591,0.0421 -1.5978,-0.89895 -0.0657,-1.59696 0.28174,-2.564 0.80434,-3.37714 0.70924,-1.10357 1.77858,-1.54808 3.18535,-2.22379 z"
             id="path101389"
             sodipodi:nodetypes="ccssc" />
          <path
             style="fill:#cea18c;fill-opacity:1;stroke:#4a280d;stroke-width:0.628513;stroke-linecap:round;stroke-linejoin:round"
             d="m 213.29194,114.99637 c 1.15089,3.55493 1.38377,7.91608 3.31854,9.95799 0.79668,0.73906 1.5666,0.0424 1.5978,-0.89895 0.0987,-2.97945 -2.33207,-6.96512 -4.91634,-9.05904 z"
             id="path102980"
             sodipodi:nodetypes="ccsc" />
          <path
             style="fill:#cea18c;fill-opacity:1;stroke:#4a280d;stroke-width:0.628513;stroke-linecap:round;stroke-linejoin:round"
             d="m 213.73187,112.35676 c 1.1509,3.55493 1.38377,7.91608 3.31855,9.95799 0.79667,0.73906 1.56659,0.0424 1.5978,-0.89895 0.0987,-2.97945 -2.33207,-6.96512 -4.91635,-9.05904 z"
             id="path102982"
             sodipodi:nodetypes="ccsc" />
          <path
             style="fill:#cea18c;fill-opacity:1;stroke:#4a280d;stroke-width:0.628513;stroke-linecap:round;stroke-linejoin:round"
             d="m 214.2186,112.73533 c 1.15089,3.55493 0.45711,4.45796 2.39188,6.49988 0.79668,0.73905 1.5591,0.0422 1.5978,-0.89895 0.0657,-1.59696 -0.28173,-2.564 -0.80433,-3.37715 -0.70924,-1.10356 -1.77858,-1.54807 -3.18535,-2.22378 z"
             id="path102984"
             sodipodi:nodetypes="ccssc" />
          <path
             style="fill:#ffe8d0;fill-opacity:1;stroke:#4a280d;stroke-width:0.628513;stroke-linecap:round;stroke-linejoin:round"
             d="m 199.90794,124.87981 c 0.27653,1.28315 1.00532,2.56472 1.8295,3.07905 1.87201,0.86863 3.96573,1.20374 5.87441,1.40122 1.27084,0.12909 2.42231,0.18644 3.54473,0.17506 1.02559,-0.0688 2.10799,-0.0428 3.30117,-0.52531 1.08909,-0.40795 1.85586,-1.73697 2.23949,-3.4619 0.54586,-4.77813 -0.23861,-9.45311 -2.52543,-13.19117 l 0.0887,-0.17797 c 0.51791,-1.08253 0.0898,-3.21033 -0.76625,-3.5073 -1.19336,-0.25834 -1.98005,0.87057 -2.87229,1.71628 -0.47505,-0.0562 -0.84656,-0.15928 -1.48422,-0.19361 -0.63754,-0.0235 -1.46285,0.0757 -1.57011,-0.0453 -0.78705,-0.88831 -1.50124,-2.10618 -2.51513,-1.96879 -0.28014,0.087 -1.48268,0.37568 -1.59002,3.62491 l -0.14901,0.22402 c -2.36968,3.71385 -3.83728,9.35199 -3.40553,12.85082 z"
             id="path1128"
             sodipodi:nodetypes="cccccccccccscccc" />
          <ellipse
             style="fill:#4a280d;stroke:#4a280d;stroke-width:0.578657;stroke-linecap:round;stroke-linejoin:round"
             id="path11516"
             cx="205.36928"
             cy="114.39112"
             rx="0.46461558"
             ry="0.47440839" />
          <ellipse
             style="fill:#4a280d;stroke:#4a280d;stroke-width:0.578657;stroke-linecap:round;stroke-linejoin:round"
             id="ellipse11598"
             cx="211.98624"
             cy="114.72483"
             rx="0.46461558"
             ry="0.47440839" />
          <path
             style="fill:none;stroke:#4a280d;stroke-width:0.628513;stroke-linecap:round;stroke-linejoin:round"
             d="m 207.66786,114.77378 c 0.007,0.15519 0.0185,0.36139 0.33045,0.41915 0.44,-0.0799 0.4192,-0.31362 0.54988,-0.62937 0.13354,0.23258 -0.0963,0.63357 0.48001,0.66096 0.16754,0.0186 0.33147,-0.16163 0.30435,-0.3184"
             id="path11633"
             sodipodi:nodetypes="ccccc" />
          <path
             style="fill:none;stroke:#4a280d;stroke-width:0.628513;stroke-linecap:round;stroke-linejoin:round"
             d="m 202.14758,119.96239 c 0.25295,1.89926 1.42222,1.77133 1.61096,1.64299 l -0.0478,-0.51823 c 0.0589,0.1839 0.18471,0.32546 0.52514,0.33125 l -0.0452,-0.62346 0.57342,0.15566 c 0.0962,-0.57794 -0.13835,-0.86529 -0.44388,-1.27026"
             id="path15108"
             sodipodi:nodetypes="ccccccc" />
          <path
             style="fill:#a37567;fill-opacity:1;stroke:#4a280d;stroke-width:0.628513;stroke-linecap:round;stroke-linejoin:round"
             d="m 203.8104,113.28888 c -0.98174,-0.59173 -1.31549,-1.04454 -3.69443,-1.55852"
             id="path131203"
             sodipodi:nodetypes="cc" />
          <path
             style="fill:#a37567;fill-opacity:1;stroke:#4a280d;stroke-width:0.628513;stroke-linecap:round;stroke-linejoin:round"
             d="m 203.10841,114.60334 c -1.09888,-0.51932 -2.18919,-1.05635 -3.56922,-0.99531"
             id="path131205"
             sodipodi:nodetypes="cc" />
          <path
             style="fill:#a37567;fill-opacity:1;stroke:#4a280d;stroke-width:0.628513;stroke-linecap:round;stroke-linejoin:round"
             d="m 202.97366,115.57501 c -1.15194,-0.27993 -2.29465,-0.42146 -3.40971,-0.14832"
             id="path131207"
             sodipodi:nodetypes="cc" />
          <path
             style="fill:#a37567;fill-opacity:1;stroke:#4a280d;stroke-width:0.628513;stroke-linecap:round;stroke-linejoin:round"
             d="m 213.92319,113.72419 c 1.01255,-0.48991 1.98861,-1.03193 3.36647,-1.00011"
             id="path131209"
             sodipodi:nodetypes="cc" />
          <path
             style="fill:#a37567;fill-opacity:1;stroke:#4a280d;stroke-width:0.628513;stroke-linecap:round;stroke-linejoin:round"
             d="m 214.19575,114.70879 c 0.95407,-0.32575 2.04261,-0.65584 3.28161,-0.50496"
             id="path131211"
             sodipodi:nodetypes="cc" />
          <path
             style="fill:#a37567;fill-opacity:1;stroke:#4a280d;stroke-width:0.628513;stroke-linecap:round;stroke-linejoin:round"
             d="m 214.09432,115.74469 c 1.33213,-0.24507 2.55271,-0.3644 3.40061,-0.0637"
             id="path131213"
             sodipodi:nodetypes="cc" />
          <path
             style="fill:none;stroke:#4a280d;stroke-width:0.628513;stroke-linecap:round;stroke-linejoin:round"
             d="m 214.02323,120.84226 c -0.25295,1.89926 -1.42222,1.77133 -1.61096,1.64299 l 0.0478,-0.51823 c -0.0589,0.1839 -0.18471,0.32546 -0.52514,0.33125 l 0.0452,-0.62346 -0.57342,0.15566 c -0.0962,-0.57794 0.13835,-0.86529 0.44388,-1.27026"
             id="path140526"
             sodipodi:nodetypes="ccccccc" />
          <path
             style="fill:#a37567;fill-opacity:1;stroke:none;stroke-width:0.628513;stroke-linecap:round;stroke-linejoin:round"
             d="m 214.17181,112.35676 c 0.5179,-1.08253 0.24723,-3.35203 -0.67756,-3.68527 -1.19336,-0.25834 -1.98005,0.87057 -2.87229,1.71628 -0.47505,-0.0562 -0.84656,-0.15928 -1.48422,-0.19361 -0.63754,-0.0235 -1.46285,0.0757 -1.57011,-0.0453 -0.78705,-0.88831 -1.50124,-2.10618 -2.51513,-1.96879 -0.28014,0.087 -1.48268,0.37568 -1.59002,3.62491 0.24464,-0.0869 0.71038,0.0356 0.75655,-0.22759 0.5009,-2.85509 1.45142,-2.85082 2.7421,-0.34233 0.35662,0.69313 1.02845,1.99181 1.76911,2.04838 0.85404,0.0653 1.79153,-1.21092 2.3106,-1.89415 2.06044,-2.71204 2.58957,-1.45932 2.45621,0.60111 -0.0227,0.35102 0.54836,0.30781 0.67476,0.36637 z"
             id="path140610"
             sodipodi:nodetypes="ccccsccsssssc" />
          <path
             style="fill:none;fill-opacity:1;stroke:#4a280d;stroke-width:0.628513;stroke-linecap:round;stroke-linejoin:round"
             d="m 199.90794,124.87981 c 0.27653,1.28315 1.00532,2.56472 1.8295,3.07905 1.87201,0.86863 3.96573,1.20374 5.87441,1.40122 1.27084,0.12909 2.42231,0.18644 3.54473,0.17506 1.02559,-0.0688 2.10799,-0.0428 3.30117,-0.52531 1.08909,-0.40795 1.85586,-1.73697 2.23949,-3.4619 0.54586,-4.77813 -0.23861,-9.45311 -2.52543,-13.19117 l 0.0887,-0.17797 c 0.51791,-1.08253 0.0898,-3.21033 -0.76625,-3.5073 -1.19336,-0.25834 -1.98005,0.87057 -2.87229,1.71628 -0.47505,-0.0562 -0.84656,-0.15928 -1.48422,-0.19361 -0.63754,-0.0235 -1.46285,0.0757 -1.57011,-0.0453 -0.78705,-0.88831 -1.50124,-2.10618 -2.51513,-1.96879 -0.28014,0.087 -1.48268,0.37568 -1.59002,3.62491 l -0.14901,0.22402 c -2.36968,3.71385 -3.83728,9.35199 -3.40553,12.85082 z"
             id="path148160"
             sodipodi:nodetypes="cccccccccccscccc" />
          <path
             style="fill:#ffe8d2;fill-opacity:1;stroke:#4a280d;stroke-width:0.628513;stroke-linecap:round;stroke-linejoin:round"
             d="m 201.30176,127.13857 c -0.83401,0.77968 -1.33749,1.99494 0.25981,1.97795 0.86369,-0.0662 2.14027,-0.71699 1.95894,-0.90073"
             id="path12527"
             sodipodi:nodetypes="ccc" />
          <path
             style="fill:#ffe8d2;fill-opacity:1;stroke:#4a280d;stroke-width:0.628513;stroke-linecap:round;stroke-linejoin:round"
             d="m 214.19271,128.01844 c 0.83401,0.77968 1.33748,1.99494 -0.25981,1.97795 -0.8637,-0.0662 -2.14027,-0.71698 -1.95894,-0.90073"
             id="path33869"
             sodipodi:nodetypes="ccc" />
        </g>
        <g
           id="g193435"
           transform="translate(-6.45085,-1.0583333)">
          <circle
             transform="rotate(-45)"
             class="st0"
             cx="55.647808"
             cy="247.67783"
             id="ellipse10300"
             r="3.2430675"
             style="font-size:4.23333px;font-family:Sniglet;-inkscape-font-specification:sans-serif;stroke:#4a280d;stroke-width:0;stroke-linecap:round;stroke-linejoin:round" />
          <path
             d="m 214.41935,136.23195 q -0.0593,0.004 -0.12277,0.008 -0.0593,0 -0.12277,0 -0.072,0 -0.14393,0 -0.072,0 -0.16087,-0.008 v 0.85937 q 0,0.13545 -0.0677,0.16932 -0.0635,0.0296 -0.16087,0.0296 -0.0508,0 -0.0804,-0.008 -0.0296,-0.004 -0.0508,-0.0212 -0.0169,-0.0212 -0.0296,-0.0593 -0.008,-0.0381 -0.0127,-0.10583 -0.008,-0.0762 -0.0127,-0.22013 -0.004,-0.14817 -0.008,-0.381 0,-0.23283 -0.004,-0.56303 0,-0.33444 0,-0.78317 0,-0.17357 0.0423,-0.33443 0.0423,-0.1651 0.1524,-0.28787 0.11007,-0.127 0.29633,-0.2032 0.1905,-0.0762 0.4826,-0.0762 0.20744,0 0.40217,0.0466 0.19897,0.0466 0.35137,0.16086 0.1524,0.1143 0.24553,0.30904 0.0931,0.19473 0.0931,0.48683 0,0.38947 -0.16933,0.60537 -0.1651,0.21166 -0.4572,0.30056 l 0.56727,0.77894 q 0.0762,0.1016 0.0762,0.20743 0,0.0847 -0.0593,0.13123 -0.055,0.0508 -0.1397,0.0508 -0.0931,0 -0.16087,-0.0508 -0.0677,-0.055 -0.127,-0.1397 z m 0.66463,-0.98636 q 0,-0.2921 -0.1778,-0.4318 -0.17357,-0.14394 -0.55457,-0.14394 -0.1397,0 -0.23283,0.0254 -0.0931,0.0212 -0.14817,0.0847 -0.055,0.0635 -0.0804,0.1778 -0.0212,0.11007 -0.0212,0.28363 0,0.12277 0,0.28787 0,0.1651 0.004,0.30057 0.0974,0.004 0.2159,0.004 0.12276,0 0.2286,0 0.11853,0 0.24976,-0.0127 0.13547,-0.0169 0.24977,-0.0762 0.1143,-0.0635 0.1905,-0.1778 0.0762,-0.11853 0.0762,-0.32173 z"
             id="path21118"
             style="font-size:4.23333px;font-family:Sniglet;-inkscape-font-specification:Sniglet;fill:#ffffff;stroke:#ffffff;stroke-width:0.1;stroke-linecap:round;stroke-linejoin:round;stroke-miterlimit:4;stroke-dasharray:none" />
          <path
             d="m 214.41946,136.23205 q -0.0593,0.004 -0.12277,0.008 -0.0593,0 -0.12276,0 -0.072,0 -0.14394,0 -0.072,0 -0.16087,-0.008 v 0.85936 q 0,0.13548 -0.0678,0.16934 -0.0635,0.0296 -0.16087,0.0296 -0.0508,0 -0.0804,-0.008 -0.0296,-0.004 -0.0508,-0.0212 -0.017,-0.0212 -0.0296,-0.0593 -0.008,-0.0381 -0.0127,-0.10584 -0.008,-0.0762 -0.0127,-0.22013 -0.004,-0.14817 -0.008,-0.381 0,-0.23284 -0.004,-0.56304 0,-0.33443 0,-0.78316 0,-0.17357 0.0423,-0.33444 0.0423,-0.1651 0.1524,-0.28787 0.11006,-0.127 0.29633,-0.20319 0.1905,-0.0762 0.4826,-0.0762 0.20744,0 0.40217,0.0466 0.19897,0.0465 0.35137,0.16087 0.1524,0.1143 0.24553,0.30903 0.0931,0.19473 0.0931,0.48684 0,0.38946 -0.16933,0.60536 -0.1651,0.21167 -0.4572,0.30057 l 0.56727,0.77893 q 0.0762,0.1016 0.0762,0.20744 0,0.0847 -0.0593,0.13123 -0.055,0.0508 -0.13971,0.0508 -0.0931,0 -0.16086,-0.0508 -0.0678,-0.055 -0.127,-0.1397 z m 0.66463,-0.98636 q 0,-0.29211 -0.1778,-0.43181 -0.17357,-0.14393 -0.55457,-0.14393 -0.1397,0 -0.23283,0.0254 -0.0931,0.0212 -0.14816,0.0847 -0.055,0.0635 -0.0805,0.1778 -0.0212,0.11006 -0.0212,0.28363 0,0.12277 0,0.28787 0,0.1651 0.004,0.30056 0.0974,0.004 0.2159,0.004 0.12276,0 0.22859,0 0.11854,0 0.24977,-0.0127 0.13547,-0.017 0.24977,-0.0762 0.11431,-0.0635 0.1905,-0.17779 0.0762,-0.11854 0.0762,-0.32173 z"
             style="font-weight:bold;font-size:5.09201px;font-family:Sniglet;-inkscape-font-specification:Sniglet;fill:#ffffff;stroke:#ffffff;stroke-width:0.1;stroke-linecap:round;stroke-linejoin:round;stroke-miterlimit:4;stroke-dasharray:none"
             id="path192290" />
          <path
             d="m 212.75576,137.29038 q -0.0678,0 -0.11007,-0.0212 -0.0381,-0.0254 -0.0593,-0.0635 -0.0212,-0.0381 -0.0296,-0.0889 -0.008,-0.055 -0.0127,-0.1143 -0.10584,0.13123 -0.27517,0.22013 -0.1651,0.0889 -0.42333,0.0889 -0.1651,0 -0.33867,-0.0465 -0.16933,-0.0508 -0.30903,-0.16934 -0.1397,-0.12277 -0.2286,-0.32597 -0.0889,-0.2032 -0.0889,-0.51223 0,-0.2413 0.0593,-0.45297 0.0593,-0.21167 0.17781,-0.3683 0.12276,-0.16087 0.30479,-0.254 0.18204,-0.0931 0.42757,-0.0931 0.2159,0 0.38524,0.0804 0.16933,0.0762 0.30479,0.254 0,-0.0508 0.004,-0.1016 0.004,-0.055 0.0212,-0.0974 0.0212,-0.0466 0.0635,-0.072 0.0423,-0.0296 0.1143,-0.0296 0.0635,0 0.11853,0.0508 0.055,0.0508 0.0635,0.22014 0.0127,0.22436 0.017,0.40216 0.008,0.1778 0.008,0.3683 0,0.23283 -0.004,0.42757 -0.004,0.19473 -0.0212,0.41486 -0.008,0.0974 -0.0254,0.15664 -0.0127,0.055 -0.0338,0.0847 -0.0212,0.0254 -0.0508,0.0338 -0.0296,0.008 -0.0593,0.008 z m -0.22861,-1.07526 q 0,-0.22014 -0.0678,-0.35983 -0.0635,-0.13971 -0.1651,-0.21591 -0.0974,-0.0804 -0.21167,-0.11007 -0.1143,-0.0296 -0.21167,-0.0296 -0.15239,0 -0.26246,0.055 -0.10583,0.055 -0.17356,0.15241 -0.0678,0.0931 -0.10161,0.22436 -0.0297,0.127 -0.0297,0.2794 0,0.37254 0.16087,0.55034 0.16511,0.1778 0.4445,0.1778 0.16511,0 0.2794,-0.055 0.11854,-0.0593 0.1905,-0.15663 0.0762,-0.0974 0.11007,-0.2286 0.0381,-0.13546 0.0381,-0.28363 z"
             style="font-weight:bold;font-size:5.09201px;font-family:Sniglet;-inkscape-font-specification:Sniglet;fill:#4a280d;stroke:#4a280d;stroke-width:0.1;stroke-linecap:round;stroke-linejoin:round;stroke-miterlimit:4;stroke-dasharray:none"
             id="path192288" />
          <path
             d="m 201.93961,135.11445 q 0.12277,0 0.24553,0.0212 0.127,0.0212 0.2286,0.0593 0.1016,0.0381 0.1651,0.0931 0.0635,0.055 0.0635,0.127 0,0.18627 -0.21167,0.18627 -0.0508,0 -0.0974,-0.0127 -0.0423,-0.017 -0.1016,-0.0296 -0.0593,-0.017 -0.14817,-0.0297 -0.0889,-0.017 -0.22013,-0.017 -0.27941,0 -0.4318,0.1905 -0.1524,0.1905 -0.1524,0.49531 0,0.33443 0.1524,0.53762 0.15663,0.20321 0.44026,0.20321 0.1778,0 0.28787,-0.0296 0.11007,-0.0296 0.1778,-0.0678 0.072,-0.0381 0.1143,-0.0677 0.0465,-0.0296 0.1016,-0.0296 0.0762,0 0.11853,0.0338 0.0466,0.0297 0.0466,0.127 0,0.1016 -0.0804,0.1778 -0.0762,0.0762 -0.19473,0.127 -0.11854,0.0508 -0.25824,0.0762 -0.13547,0.0254 -0.24976,0.0254 -0.51223,0 -0.80434,-0.28364 -0.2921,-0.28363 -0.2921,-0.80433 0,-0.22437 0.0678,-0.42333 0.072,-0.20321 0.21167,-0.35561 0.1397,-0.15239 0.34289,-0.24129 0.20744,-0.0889 0.47837,-0.0889 z"
             style="font-weight:bold;font-size:5.09201px;font-family:Sniglet;-inkscape-font-specification:Sniglet;fill:#4a280d;stroke:#4a280d;stroke-width:0.1;stroke-linecap:round;stroke-linejoin:round;stroke-miterlimit:4;stroke-dasharray:none"
             id="path192278" />
          <path
             d="m 203.53981,137.88305 q 0,0.0804 -0.004,0.1524 -0.004,0.0762 -0.0297,0.13547 -0.0212,0.0593 -0.0678,0.0931 -0.0423,0.0381 -0.12276,0.0381 -0.0931,0 -0.15663,-0.0678 -0.0593,-0.0635 -0.0678,-0.2286 -0.004,-0.10583 -0.0127,-0.25824 -0.008,-0.1524 -0.017,-0.32173 -0.004,-0.16933 -0.0127,-0.33867 -0.004,-0.16933 -0.004,-0.31327 0,-0.49529 0.0678,-0.81703 0.072,-0.32173 0.21167,-0.51223 0.13969,-0.1905 0.34289,-0.2667 0.20744,-0.0762 0.47837,-0.0762 0.2159,0 0.4064,0.0678 0.1905,0.0635 0.3302,0.2032 0.14394,0.13546 0.22861,0.3556 0.0847,0.2159 0.0847,0.5207 0,0.254 -0.0889,0.44874 -0.0847,0.19473 -0.23707,0.33019 -0.1524,0.13124 -0.35983,0.2032 -0.20321,0.0678 -0.43604,0.0678 -0.19896,0 -0.35983,-0.0805 -0.15663,-0.0847 -0.22436,-0.18202 0.0212,0.23706 0.0338,0.44026 0.017,0.2032 0.017,0.4064 z m 0.5842,-2.35797 q -0.14817,0 -0.25824,0.0508 -0.10583,0.0508 -0.17356,0.1397 -0.0678,0.0889 -0.10161,0.21167 -0.0296,0.12277 -0.0296,0.2667 0,0.1397 0.0254,0.2667 0.0296,0.12276 0.0931,0.2159 0.0635,0.0931 0.16933,0.14817 0.10583,0.055 0.25823,0.055 0.11854,0 0.2286,-0.0296 0.11007,-0.0338 0.19473,-0.11007 0.0889,-0.0762 0.13971,-0.2032 0.055,-0.127 0.055,-0.3175 0,-0.19473 -0.055,-0.32597 -0.0508,-0.13546 -0.13971,-0.2159 -0.0847,-0.0847 -0.19473,-0.11853 -0.10583,-0.0338 -0.21167,-0.0338 z"
             style="font-weight:bold;font-size:5.09201px;font-family:Sniglet;-inkscape-font-specification:Sniglet;fill:#4a280d;stroke:#4a280d;stroke-width:0.1;stroke-linecap:round;stroke-linejoin:round;stroke-miterlimit:4;stroke-dasharray:none"
             id="path192280" />
          <path
             d="m 206.03324,137.88305 q 0,0.0804 -0.004,0.1524 -0.004,0.0762 -0.0297,0.13547 -0.0212,0.0593 -0.0678,0.0931 -0.0423,0.0381 -0.12277,0.0381 -0.0931,0 -0.15663,-0.0678 -0.0593,-0.0635 -0.0678,-0.2286 -0.004,-0.10583 -0.0127,-0.25824 -0.008,-0.1524 -0.017,-0.32173 -0.004,-0.16933 -0.0127,-0.33867 -0.004,-0.16933 -0.004,-0.31327 0,-0.49529 0.0678,-0.81703 0.072,-0.32173 0.21168,-0.51223 0.13969,-0.1905 0.34289,-0.2667 0.20744,-0.0762 0.47836,-0.0762 0.21591,0 0.40641,0.0678 0.1905,0.0635 0.33019,0.2032 0.14394,0.13546 0.22861,0.3556 0.0847,0.2159 0.0847,0.5207 0,0.254 -0.0889,0.44874 -0.0847,0.19473 -0.23706,0.33019 -0.1524,0.13124 -0.35983,0.2032 -0.20321,0.0678 -0.43604,0.0678 -0.19896,0 -0.35983,-0.0805 -0.15663,-0.0847 -0.22437,-0.18202 0.0212,0.23706 0.0338,0.44026 0.017,0.2032 0.017,0.4064 z m 0.58419,-2.35797 q -0.14816,0 -0.25823,0.0508 -0.10583,0.0508 -0.17356,0.1397 -0.0678,0.0889 -0.1016,0.21167 -0.0296,0.12277 -0.0296,0.2667 0,0.1397 0.0254,0.2667 0.0296,0.12276 0.0931,0.2159 0.0635,0.0931 0.16933,0.14817 0.10583,0.055 0.25824,0.055 0.11853,0 0.2286,-0.0296 0.11007,-0.0338 0.19473,-0.11007 0.0889,-0.0762 0.1397,-0.2032 0.055,-0.127 0.055,-0.3175 0,-0.19473 -0.055,-0.32597 -0.0508,-0.13546 -0.1397,-0.2159 -0.0847,-0.0847 -0.19473,-0.11853 -0.10583,-0.0338 -0.21167,-0.0338 z"
             style="font-weight:bold;font-size:5.09201px;font-family:Sniglet;-inkscape-font-specification:Sniglet;fill:#4a280d;stroke:#4a280d;stroke-width:0.1;stroke-linecap:round;stroke-linejoin:round;stroke-miterlimit:4;stroke-dasharray:none"
             id="path192282" />
          <path
             d="m 208.62826,137.01098 q -0.008,-0.1524 -0.0127,-0.3175 0,-0.16509 -0.004,-0.35559 -0.004,-0.19051 -0.004,-0.41064 0,-0.22437 0,-0.49954 v -0.52916 l -0.254,0.13123 q -0.10583,0.0678 -0.16933,0.0804 -0.0593,0.0127 -0.13124,0.0127 -0.0635,0 -0.11429,-0.055 -0.0466,-0.055 -0.0466,-0.13124 0,-0.0762 0.0508,-0.13123 0.055,-0.0593 0.127,-0.10583 0.0931,-0.0635 0.19896,-0.127 0.11007,-0.0635 0.21167,-0.11431 0.1016,-0.055 0.18627,-0.0847 0.0889,-0.0338 0.14816,-0.0338 0.0297,0 0.0593,0.008 0.0338,0.008 0.0593,0.0338 0.0296,0.0254 0.0466,0.0804 0.0212,0.0508 0.0254,0.1397 0.008,0.1524 0.0127,0.26671 0.004,0.11429 0.008,0.22436 0.004,0.10583 0.004,0.22437 0,0.11853 0,0.27516 0,0.1905 0,0.36407 0,0.17357 -0.004,0.34291 -0.004,0.16933 -0.008,0.34289 -0.004,0.17357 -0.0127,0.36407 -0.004,0.1016 -0.0212,0.15664 -0.0127,0.055 -0.0381,0.0847 -0.0254,0.0296 -0.0593,0.0338 -0.0297,0.008 -0.072,0.008 -0.0762,0 -0.127,-0.0508 -0.0508,-0.055 -0.0593,-0.2286 z"
             style="font-weight:bold;font-size:5.09201px;font-family:Sniglet;-inkscape-font-specification:Sniglet;fill:#4a280d;stroke:#4a280d;stroke-width:0.1;stroke-linecap:round;stroke-linejoin:round;stroke-miterlimit:4;stroke-dasharray:none"
             id="path192284" />
          <path
             d="m 210.10569,137.01098 c -0.005,-0.1016 -0.01,-0.20743 -0.0127,-0.3175 0,-0.11006 -10e-4,-0.22859 -0.004,-0.35559 -0.003,-0.12701 -0.004,-0.26389 -0.004,-0.41064 0,0 0,-0.33303 0,-0.49954 0,-0.17639 0,-0.52916 0,-0.52916 l -0.254,0.13123 c -0.0706,0.0452 -0.127,0.072 -0.16933,0.0804 -0.0395,0.008 -0.0833,0.0127 -0.13123,0.0127 -0.0423,0 -0.0804,-0.0183 -0.11431,-0.055 -0.031,-0.0367 -0.0465,-0.0804 -0.0465,-0.13124 0,-0.0508 0.0169,-0.0945 0.0508,-0.13123 0.0367,-0.0395 0.079,-0.0748 0.127,-0.10583 0.0621,-0.0423 0.12839,-0.0847 0.19897,-0.127 0.0734,-0.0423 0.14394,-0.0804 0.21167,-0.11431 0.0677,-0.0367 0.12982,-0.0649 0.18627,-0.0847 0.0593,-0.0225 0.10865,-0.0338 0.14816,-0.0338 0.0197,0 0.0395,0.003 0.0593,0.008 0.0225,0.005 0.0423,0.0166 0.0593,0.0338 0.0198,0.0169 0.0353,0.0437 0.0465,0.0804 0.0141,0.0339 0.0226,0.0804 0.0254,0.1397 0.005,0.1016 0.01,0.1905 0.0127,0.26671 0.003,0.0762 0.005,0.15098 0.008,0.22436 0.003,0.0705 0.004,0.14534 0.004,0.22437 v 0.27516 0.36407 c 0,0.11571 -0.001,0.23002 -0.004,0.34291 -0.003,0.11289 -0.005,0.22718 -0.008,0.34289 -0.003,0.11571 -0.007,0.23707 -0.0127,0.36407 -0.003,0.0677 -0.01,0.11995 -0.0212,0.15664 -0.008,0.0367 -0.0212,0.0649 -0.0381,0.0847 -0.0169,0.0197 -0.0367,0.031 -0.0593,0.0338 -0.0197,0.005 -0.0437,0.008 -0.072,0.008 -0.0508,0 -0.0931,-0.0169 -0.127,-0.0508 -0.0339,-0.0367 -0.0536,-0.11287 -0.0593,-0.2286 z"
             style="font-weight:bold;font-size:5.09201px;font-family:Sniglet;-inkscape-font-specification:Sniglet;fill:#4a280d;stroke:#4a280d;stroke-width:0.1;stroke-linecap:round;stroke-linejoin:round;stroke-miterlimit:4;stroke-dasharray:none"
             id="path192286"
             sodipodi:nodetypes="ccssscccscscccccsccccccscsssccscsccc" />
          <path
             d="m 218.74169,137.14645 q -0.0254,-0.072 -0.0338,-0.16087 -0.004,-0.0889 -0.004,-0.22013 0,-0.0931 0,-0.14393 0.004,-0.055 0.004,-0.0931 0,-0.0423 0,-0.0805 0.004,-0.0423 0.004,-0.1143 0,-0.14817 -0.008,-0.29634 -0.004,-0.1524 -0.0423,-0.27093 -0.0381,-0.12276 -0.11853,-0.19897 -0.0805,-0.0762 -0.23283,-0.0762 -0.25823,0 -0.40216,0.24553 -0.14394,0.24554 -0.17358,0.78317 -0.008,0.16933 -0.008,0.30904 0,0.13969 -0.017,0.24129 -0.017,0.0974 -0.0635,0.15241 -0.0423,0.055 -0.14394,0.055 -0.0931,0 -0.13546,-0.0466 -0.0423,-0.0508 -0.0635,-0.14817 -0.017,-0.0974 -0.0212,-0.23706 0,-0.13971 -0.0127,-0.32597 -0.0127,-0.2032 -0.0423,-0.38947 -0.0254,-0.18626 -0.0889,-0.32597 -0.0593,-0.14393 -0.1651,-0.2286 -0.10161,-0.0847 -0.26247,-0.0847 -0.1524,0 -0.23706,0.0762 -0.0805,0.072 -0.11854,0.19473 -0.0381,0.11854 -0.0466,0.27094 -0.004,0.14816 -0.004,0.30056 0,0.0762 0,0.11431 0.004,0.0338 0.004,0.0635 0,0.0296 0,0.0762 0.004,0.0465 0.004,0.14393 0,0.1397 -0.008,0.24131 -0.004,0.10159 -0.0297,0.17356 -0.0296,0.0847 -0.0805,0.10583 -0.0508,0.017 -0.0931,0.017 -0.13124,0 -0.16934,-0.0931 -0.0381,-0.0931 -0.0423,-0.27094 0,-0.0974 -0.004,-0.2159 0,-0.12277 0,-0.29633 0,-0.0847 0,-0.14817 0,-0.0635 0,-0.12276 0.004,-0.0593 0.004,-0.11853 0.004,-0.0635 0.008,-0.14394 0.0127,-0.25823 0.0931,-0.41064 0.0804,-0.15662 0.1905,-0.23706 0.11007,-0.0804 0.23707,-0.1016 0.127,-0.0254 0.23283,-0.0254 0.2286,0 0.38523,0.0678 0.15664,0.0677 0.254,0.1778 0.1016,0.11006 0.14817,0.24977 0.0508,0.13969 0.0677,0.28363 0.017,-0.13971 0.0678,-0.27517 0.055,-0.1397 0.15663,-0.24553 0.10583,-0.11007 0.27094,-0.1778 0.1651,-0.0678 0.40639,-0.0678 0.11431,0 0.23284,0.0254 0.12276,0.0212 0.22437,0.1016 0.1016,0.0804 0.16933,0.23284 0.072,0.14816 0.0847,0.40216 0.004,0.0804 0.004,0.14394 0.004,0.0593 0.004,0.11853 0.004,0.0593 0.004,0.12276 0,0.0635 0,0.14817 0,0.17356 -0.004,0.29633 0,0.11854 0,0.2159 0,0.0805 -0.008,0.14817 -0.004,0.0677 -0.0254,0.1143 -0.0212,0.0466 -0.0635,0.0762 -0.0381,0.0254 -0.11429,0.0254 -0.072,0 -0.11008,-0.0254 -0.0381,-0.0297 -0.0635,-0.0974 z"
             style="font-weight:bold;font-size:5.09201px;font-family:Sniglet;-inkscape-font-specification:Sniglet;fill:#4a280d;stroke:#4a280d;stroke-width:0.1;stroke-linecap:round;stroke-linejoin:round;stroke-miterlimit:4;stroke-dasharray:none"
             id="path192292" />
          <path
             d="m 221.36212,137.29038 q -0.0678,0 -0.11007,-0.0212 -0.0381,-0.0254 -0.0593,-0.0635 -0.0212,-0.0381 -0.0296,-0.0889 -0.008,-0.055 -0.0127,-0.1143 -0.10583,0.13123 -0.27516,0.22013 -0.1651,0.0889 -0.42334,0.0889 -0.1651,0 -0.33866,-0.0465 -0.16934,-0.0508 -0.30903,-0.16934 -0.1397,-0.12277 -0.2286,-0.32597 -0.0889,-0.2032 -0.0889,-0.51223 0,-0.2413 0.0593,-0.45297 0.0593,-0.21167 0.1778,-0.3683 0.12277,-0.16087 0.3048,-0.254 0.18203,-0.0931 0.42756,-0.0931 0.21591,0 0.38524,0.0804 0.16933,0.0762 0.3048,0.254 0,-0.0508 0.004,-0.1016 0.004,-0.055 0.0212,-0.0974 0.0212,-0.0466 0.0635,-0.072 0.0423,-0.0296 0.11431,-0.0296 0.0635,0 0.11853,0.0508 0.055,0.0508 0.0635,0.22014 0.0127,0.22436 0.017,0.40216 0.008,0.1778 0.008,0.3683 0,0.23283 -0.004,0.42757 -0.004,0.19473 -0.0212,0.41486 -0.008,0.0974 -0.0254,0.15664 -0.0127,0.055 -0.0338,0.0847 -0.0212,0.0254 -0.0508,0.0338 -0.0296,0.008 -0.0593,0.008 z m -0.22859,-1.07526 q 0,-0.22014 -0.0678,-0.35983 -0.0635,-0.13971 -0.16509,-0.21591 -0.0974,-0.0804 -0.21167,-0.11007 -0.1143,-0.0296 -0.21167,-0.0296 -0.1524,0 -0.26247,0.055 -0.10583,0.055 -0.17356,0.15241 -0.0678,0.0931 -0.1016,0.22436 -0.0296,0.127 -0.0296,0.2794 0,0.37254 0.16086,0.55034 0.1651,0.1778 0.4445,0.1778 0.1651,0 0.27941,-0.055 0.11853,-0.0593 0.1905,-0.15663 0.0762,-0.0974 0.11006,-0.2286 0.0381,-0.13546 0.0381,-0.28363 z"
             style="font-weight:bold;font-size:5.09201px;font-family:Sniglet;-inkscape-font-specification:Sniglet;fill:#4a280d;stroke:#4a280d;stroke-width:0.1;stroke-linecap:round;stroke-linejoin:round;stroke-miterlimit:4;stroke-dasharray:none"
             id="path192294" />
          <path
             d="m 223.81746,137.26499 q -0.0847,0 -0.14394,-0.0678 -0.055,-0.0678 -0.0761,-0.15663 -0.0508,0.0466 -0.11854,0.0931 -0.0635,0.0466 -0.14816,0.0889 -0.0847,0.0381 -0.18627,0.0635 -0.1016,0.0254 -0.22013,0.0254 -0.14394,0 -0.32174,-0.0465 -0.17357,-0.0508 -0.3302,-0.16934 -0.1524,-0.12276 -0.25824,-0.3302 -0.10159,-0.20743 -0.10159,-0.5207 0,-0.2667 0.0804,-0.47413 0.0804,-0.20744 0.22437,-0.34714 0.14817,-0.14393 0.34713,-0.2159 0.20321,-0.0762 0.44027,-0.0762 0.2032,0 0.32174,0.0465 0.11853,0.0466 0.18626,0.11008 0,-0.11431 0,-0.25824 0,-0.14817 0,-0.28363 0.004,-0.13971 0.004,-0.254 0.004,-0.11431 0.008,-0.17357 0.008,-0.14393 0.0508,-0.19474 0.0423,-0.055 0.14817,-0.055 0.11007,0 0.14817,0.055 0.0423,0.0508 0.0508,0.18204 0.004,0.055 0.004,0.14817 0.004,0.0931 0.004,0.2032 0,0.11006 0,0.22436 0.004,0.11007 0.004,0.2032 0,0.0889 0,0.14817 0,0.0593 0,0.0593 0,0.43179 -0.008,0.79587 -0.004,0.36406 -0.004,0.57996 0.008,0.0465 0.0338,0.0889 0.0296,0.0423 0.0593,0.0847 0.0338,0.0423 0.0593,0.0889 0.0254,0.0466 0.0254,0.0974 0,0.0593 -0.0296,0.10583 -0.0296,0.0423 -0.0762,0.072 -0.0423,0.0296 -0.0931,0.0466 -0.0465,0.0127 -0.0847,0.0127 z m -0.81704,-0.37254 q 0.26247,0 0.40217,-0.15664 0.1397,-0.15663 0.1397,-0.51646 0,-0.69004 -0.5461,-0.69004 -0.127,0 -0.24554,0.0381 -0.11852,0.0381 -0.21166,0.11854 -0.0889,0.0804 -0.14817,0.20319 -0.055,0.12277 -0.055,0.2921 0,0.13971 0.0381,0.26671 0.0423,0.127 0.12277,0.2286 0.0847,0.0974 0.20743,0.15663 0.127,0.0593 0.29634,0.0593 z"
             style="font-weight:bold;font-size:5.09201px;font-family:Sniglet;-inkscape-font-specification:Sniglet;fill:#4a280d;stroke:#4a280d;stroke-width:0.1;stroke-linecap:round;stroke-linejoin:round;stroke-miterlimit:4;stroke-dasharray:none"
             id="path192296" />
          <path
             d="m 224.46939,137.01098 q -0.008,-0.15663 -0.017,-0.35559 -0.004,-0.20321 -0.004,-0.44451 0,-0.30057 0.004,-0.51223 0.004,-0.2159 0.0212,-0.35137 0.0212,-0.1397 0.0635,-0.2032 0.0423,-0.0677 0.11853,-0.0677 0.072,0 0.127,0.0508 0.055,0.0508 0.0635,0.22013 0.0254,0.44451 0.0254,0.85937 0,0.21167 -0.008,0.39794 -0.008,0.18203 -0.017,0.40216 -0.004,0.1016 -0.0212,0.15664 -0.0127,0.055 -0.0381,0.0847 -0.0254,0.0296 -0.0593,0.0338 -0.0296,0.008 -0.072,0.008 -0.0762,0 -0.12701,-0.0508 -0.0508,-0.055 -0.0593,-0.2286 z m 0.1905,-2.70087 q 0.0974,0 0.1778,0.0762 0.0847,0.0762 0.0847,0.18204 0,0.10159 -0.0847,0.17779 -0.0847,0.072 -0.1905,0.072 -0.0889,0 -0.16934,-0.072 -0.0762,-0.0762 -0.0762,-0.18627 0,-0.1016 0.0762,-0.17356 0.0804,-0.0762 0.18204,-0.0762 z"
             style="font-weight:bold;font-size:5.09201px;font-family:Sniglet;-inkscape-font-specification:Sniglet;fill:#4a280d;stroke:#4a280d;stroke-width:0.1;stroke-linecap:round;stroke-linejoin:round;stroke-miterlimit:4;stroke-dasharray:none"
             id="path192298" />
          <path
             d="m 225.42189,137.02791 q -0.004,-0.15239 -0.008,-0.3556 -0.004,-0.20319 -0.008,-0.44026 0,-0.23707 -0.004,-0.49953 0,-0.26247 0,-0.53764 0,-0.30056 0.004,-0.51646 0.004,-0.21591 0.0212,-0.3556 0.0212,-0.13971 0.0635,-0.20321 0.0423,-0.0677 0.11853,-0.0677 0.072,0 0.127,0.0465 0.055,0.0466 0.0635,0.2159 0.017,0.30481 0.0212,0.63501 0.004,0.32596 0.004,0.64346 0,0.1905 0,0.36831 0,0.17356 -0.004,0.34713 -0.004,0.16933 -0.008,0.34713 -0.004,0.1778 -0.0127,0.3683 -0.004,0.1016 -0.0212,0.15664 -0.0127,0.055 -0.0381,0.0847 -0.0254,0.0296 -0.0593,0.0338 -0.0296,0.008 -0.072,0.008 -0.0762,0 -0.127,-0.0508 -0.0508,-0.055 -0.0593,-0.2286 z"
             style="font-weight:bold;font-size:5.09201px;font-family:Sniglet;-inkscape-font-specification:Sniglet;fill:#4a280d;stroke:#4a280d;stroke-width:0.1;stroke-linecap:round;stroke-linejoin:round;stroke-miterlimit:4;stroke-dasharray:none"
             id="path192300" />
          <path
             d="m 226.37015,137.02791 q -0.004,-0.15239 -0.008,-0.3556 -0.004,-0.20319 -0.008,-0.44026 0,-0.23707 -0.004,-0.49953 0,-0.26247 0,-0.53764 0,-0.30056 0.004,-0.51646 0.004,-0.21591 0.0212,-0.3556 0.0212,-0.13971 0.0635,-0.20321 0.0423,-0.0677 0.11854,-0.0677 0.072,0 0.127,0.0465 0.055,0.0466 0.0635,0.2159 0.017,0.30481 0.0212,0.63501 0.004,0.32596 0.004,0.64346 0,0.1905 0,0.36831 0,0.17356 -0.004,0.34713 -0.004,0.16933 -0.008,0.34713 -0.004,0.1778 -0.0127,0.3683 -0.004,0.1016 -0.0212,0.15664 -0.0127,0.055 -0.0381,0.0847 -0.0254,0.0296 -0.0593,0.0338 -0.0296,0.008 -0.072,0.008 -0.0762,0 -0.127,-0.0508 -0.0508,-0.055 -0.0593,-0.2286 z"
             style="font-weight:bold;font-size:5.09201px;font-family:Sniglet;-inkscape-font-specification:Sniglet;fill:#4a280d;stroke:#4a280d;stroke-width:0.1;stroke-linecap:round;stroke-linejoin:round;stroke-miterlimit:4;stroke-dasharray:none"
             id="path192302" />
          <path
             d="m 228.27091,135.12715 q 0.2413,0 0.4318,0.0762 0.19051,0.072 0.32174,0.20743 0.13546,0.13546 0.20743,0.33019 0.072,0.19474 0.072,0.43604 0,0.2667 -0.0847,0.47837 -0.0805,0.21167 -0.2286,0.35983 -0.14393,0.14817 -0.34713,0.2286 -0.19897,0.0804 -0.43603,0.0804 -0.25824,0 -0.45721,-0.0889 -0.19473,-0.0889 -0.33019,-0.2413 -0.13124,-0.1524 -0.19897,-0.35137 -0.0678,-0.19896 -0.0678,-0.4191 0,-0.24129 0.0762,-0.44027 0.0804,-0.20319 0.22436,-0.34713 0.14817,-0.14816 0.3556,-0.2286 0.20743,-0.0804 0.46143,-0.0804 z m -0.0465,1.80763 q 0.17356,0 0.29633,-0.0593 0.12277,-0.0635 0.19896,-0.1651 0.0805,-0.10161 0.11431,-0.22861 0.0381,-0.13123 0.0381,-0.27093 0,-0.14393 -0.0381,-0.26669 -0.0338,-0.127 -0.11008,-0.22014 -0.072,-0.0931 -0.1905,-0.14393 -0.11429,-0.055 -0.27516,-0.055 -0.1651,0 -0.28786,0.055 -0.12277,0.055 -0.20744,0.1524 -0.0804,0.0931 -0.12277,0.22436 -0.0423,0.13124 -0.0423,0.28364 0,0.30903 0.15663,0.50377 0.16087,0.1905 0.4699,0.1905 z"
             style="font-weight:bold;font-size:5.09201px;font-family:Sniglet;-inkscape-font-specification:Sniglet;fill:#4a280d;stroke:#4a280d;stroke-width:0.1;stroke-linecap:round;stroke-linejoin:round;stroke-miterlimit:4;stroke-dasharray:none"
             id="path192304" />
        </g>
      </g>
    </g>
  </g>
  <style
     type="text/css"
     id="style10296">
	.st0{fill:#75AADB;}
	.st1{fill:#4D4D4D;}
	.st2{fill:#FFFFFF;}
	.st3{fill:url(#SVGID_1_);}
	.st4{fill:url(#SVGID_2_);}
	.st5{fill:url(#SVGID_3_);}
	.st6{fill:url(#SVGID_4_);}
	.st7{fill:url(#SVGID_5_);}
	.st8{fill:url(#SVGID_6_);}
	.st9{fill:url(#SVGID_7_);}
	.st10{fill:url(#SVGID_8_);}
	.st11{fill:url(#SVGID_9_);}
	.st12{fill:url(#SVGID_10_);}
	.st13{opacity:0.18;fill:url(#SVGID_11_);}
	.st14{opacity:0.3;}
</style>
</svg>
