<?xml version="1.0" encoding="UTF-8" standalone="no"?>
<!-- Created with Inkscape (http://www.inkscape.org/) -->

<svg
   width="43.929592mm"
   height="50.831615mm"
   viewBox="0 0 43.929592 50.831615"
   version="1.1"
   id="svg5"
   inkscape:version="1.1.2 (0a00cf5339, 2022-02-04)"
   sodipodi:docname="logo.svg"
   xmlns:inkscape="http://www.inkscape.org/namespaces/inkscape"
   xmlns:sodipodi="http://sodipodi.sourceforge.net/DTD/sodipodi-0.dtd"
   xmlns="http://www.w3.org/2000/svg"
   xmlns:svg="http://www.w3.org/2000/svg">
  <sodipodi:namedview
     id="namedview7"
     pagecolor="#ffffff"
     bordercolor="#000000"
     borderopacity="0.25"
     inkscape:pageshadow="2"
     inkscape:pageopacity="0.0"
     inkscape:pagecheckerboard="0"
     inkscape:document-units="mm"
     showgrid="false"
     showguides="true"
     inkscape:guide-bbox="true"
     inkscape:zoom="4.5310143"
     inkscape:cx="67.97595"
     inkscape:cy="104.83304"
     inkscape:window-width="1920"
     inkscape:window-height="1055"
     inkscape:window-x="1920"
     inkscape:window-y="32"
     inkscape:window-maximized="1"
     inkscape:current-layer="g15217"
     fit-margin-top="0"
     fit-margin-left="0"
     fit-margin-right="0"
     fit-margin-bottom="0">
    <sodipodi:guide
       position="12.717529,39.084416"
       orientation="0,-1"
       id="guide1005" />
  </sodipodi:namedview>
  <defs
     id="defs2">
    <inkscape:perspective
       sodipodi:type="inkscape:persp3d"
       inkscape:vp_x="0 : 389.7996 : 1"
       inkscape:vp_y="0 : 999.99992 : 0"
       inkscape:vp_z="1500 : 389.7996 : 1"
       inkscape:persp3d-origin="749.99998 : 95.754155 : 1"
       id="perspective4362" />
    <clipPath
       id="clp12">
      <path
         d="m 45.315,71.927 h 12.92 v 15.867 h -12.92 z"
         id="path184"
         inkscape:connector-curvature="0" />
    </clipPath>
    <clipPath
       id="clp21">
      <path
         d="m 123.91,72.178 h 26.23 v 15.294 h -26.23 z"
         id="path592"
         inkscape:connector-curvature="0" />
    </clipPath>
    <clipPath
       id="clp9">
      <path
         d="m 413.96,49.857 h 31.76 v 8.719 h -31.76 z"
         id="path100"
         inkscape:connector-curvature="0" />
    </clipPath>
    <inkscape:perspective
       sodipodi:type="inkscape:persp3d"
       inkscape:vp_x="0 : 389.7996 : 1"
       inkscape:vp_y="0 : 999.99992 : 0"
       inkscape:vp_z="1500 : 389.7996 : 1"
       inkscape:persp3d-origin="749.99998 : 95.754155 : 1"
       id="perspective4362-5" />
    <clipPath
       id="clp12-3">
      <path
         d="m 45.315,71.927 h 12.92 v 15.867 h -12.92 z"
         id="path184-5"
         inkscape:connector-curvature="0" />
    </clipPath>
    <clipPath
       id="clp21-6">
      <path
         d="m 123.91,72.178 h 26.23 v 15.294 h -26.23 z"
         id="path592-2"
         inkscape:connector-curvature="0" />
    </clipPath>
    <clipPath
       id="clp9-9">
      <path
         d="m 413.96,49.857 h 31.76 v 8.719 h -31.76 z"
         id="path100-1"
         inkscape:connector-curvature="0" />
    </clipPath>
    <inkscape:perspective
       sodipodi:type="inkscape:persp3d"
       inkscape:vp_x="0 : 635.96801 : 1"
       inkscape:vp_y="0 : 999.99996 : 0"
       inkscape:vp_z="1500 : 635.96801 : 1"
       inkscape:persp3d-origin="750 : 341.92255 : 1"
       id="perspective4362-9" />
    <clipPath
       id="clp12-37">
      <path
         d="m 45.315,71.927 h 12.92 v 15.867 h -12.92 z"
         id="path184-4"
         inkscape:connector-curvature="0" />
    </clipPath>
    <clipPath
       id="clp21-5">
      <path
         d="m 123.91,72.178 h 26.23 v 15.294 h -26.23 z"
         id="path592-25"
         inkscape:connector-curvature="0" />
    </clipPath>
    <clipPath
       id="clp9-4">
      <path
         d="m 413.96,49.857 h 31.76 v 8.719 h -31.76 z"
         id="path100-7"
         inkscape:connector-curvature="0" />
    </clipPath>
    <inkscape:perspective
       sodipodi:type="inkscape:persp3d"
       inkscape:vp_x="0 : 635.96801 : 1"
       inkscape:vp_y="0 : 999.99996 : 0"
       inkscape:vp_z="1500 : 635.96801 : 1"
       inkscape:persp3d-origin="750 : 341.92255 : 1"
       id="perspective4362-6" />
    <clipPath
       id="clp12-8">
      <path
         d="m 45.315,71.927 h 12.92 v 15.867 h -12.92 z"
         id="path184-9"
         inkscape:connector-curvature="0" />
    </clipPath>
    <clipPath
       id="clp21-2">
      <path
         d="m 123.91,72.178 h 26.23 v 15.294 h -26.23 z"
         id="path592-6"
         inkscape:connector-curvature="0" />
    </clipPath>
    <clipPath
       id="clp9-6">
      <path
         d="m 413.96,49.857 h 31.76 v 8.719 h -31.76 z"
         id="path100-4"
         inkscape:connector-curvature="0" />
    </clipPath>
    <inkscape:perspective
       sodipodi:type="inkscape:persp3d"
       inkscape:vp_x="0 : 635.96801 : 1"
       inkscape:vp_y="0 : 999.99996 : 0"
       inkscape:vp_z="1500 : 635.96801 : 1"
       inkscape:persp3d-origin="750 : 341.92255 : 1"
       id="perspective4362-53" />
    <clipPath
       id="clp12-5">
      <path
         d="m 45.315,71.927 h 12.92 v 15.867 h -12.92 z"
         id="path184-6"
         inkscape:connector-curvature="0" />
    </clipPath>
    <clipPath
       id="clp21-29">
      <path
         d="m 123.91,72.178 h 26.23 v 15.294 h -26.23 z"
         id="path592-1"
         inkscape:connector-curvature="0" />
    </clipPath>
    <clipPath
       id="clp9-2">
      <path
         d="m 413.96,49.857 h 31.76 v 8.719 h -31.76 z"
         id="path100-70"
         inkscape:connector-curvature="0" />
    </clipPath>
  </defs>
  <g
     inkscape:label="Layer 1"
     inkscape:groupmode="layer"
     id="layer1"
     transform="translate(-186.65577,-98.20731)">
    <text
       xml:space="preserve"
       style="font-size:4.23333px;font-family:sans-serif;-inkscape-font-specification:sans-serif;fill:#fdf0e3;fill-opacity:1;stroke:#4a280d;stroke-width:15;stroke-linecap:round;stroke-linejoin:round;stroke-miterlimit:4;stroke-dasharray:none"
       x="214.69817"
       y="116.24603"
       id="text265343"><tspan
         sodipodi:role="line"
         id="tspan265341"
         style="stroke-width:15;stroke-miterlimit:4;stroke-dasharray:none"
         x="214.69817"
         y="116.24603" /></text>
    <text
       xml:space="preserve"
       style="font-size:4.23333px;font-family:sans-serif;-inkscape-font-specification:sans-serif;fill:#fdf0e3;fill-opacity:1;stroke:#4a280d;stroke-width:15;stroke-linecap:round;stroke-linejoin:round;stroke-miterlimit:4;stroke-dasharray:none"
       x="214.23691"
       y="114.62688"
       id="text268683"><tspan
         sodipodi:role="line"
         id="tspan268681"
         style="stroke-width:15"
         x="214.23691"
         y="114.62688" /></text>
    <text
       xml:space="preserve"
       style="font-size:4.23333px;font-family:sans-serif;-inkscape-font-specification:sans-serif;fill:#fdf0e3;fill-opacity:1;stroke:#4a280d;stroke-width:5;stroke-linecap:round;stroke-linejoin:round;stroke-miterlimit:4;stroke-dasharray:none"
       x="242.03822"
       y="123.46563"
       id="text270271"><tspan
         sodipodi:role="line"
         id="tspan270269"
         style="stroke-width:5;stroke-miterlimit:4;stroke-dasharray:none"
         x="242.03822"
         y="123.46563" /></text>
    <text
       xml:space="preserve"
       style="font-size:4.23333px;font-family:sans-serif;-inkscape-font-specification:sans-serif;fill:#fdf0e3;fill-opacity:1;stroke:#4a280d;stroke-width:4.99999;stroke-linecap:round;stroke-linejoin:round;stroke-miterlimit:4;stroke-dasharray:none"
       x="244.82349"
       y="125.95525"
       id="text275393"><tspan
         sodipodi:role="line"
         id="tspan275391"
         style="stroke-width:5"
         x="244.82349"
         y="125.95525" /></text>
    <g
       id="g193503"
       transform="translate(0,0.18106276)">
      <g
         id="g193548">
        <text
           xml:space="preserve"
           style="font-size:4.23333px;font-family:sans-serif;-inkscape-font-specification:sans-serif;fill:#fdf0e3;fill-opacity:1;stroke:#4a280d;stroke-width:15;stroke-linecap:round;stroke-linejoin:round;stroke-miterlimit:4;stroke-dasharray:none"
           x="264.96298"
           y="116.49283"
           id="text265343-7"><tspan
             sodipodi:role="line"
             id="tspan265341-8"
             style="stroke-width:15;stroke-miterlimit:4;stroke-dasharray:none"
             x="264.96298"
             y="116.49283" /></text>
        <text
           xml:space="preserve"
           style="font-size:4.23333px;font-family:sans-serif;-inkscape-font-specification:sans-serif;fill:#fdf0e3;fill-opacity:1;stroke:#4a280d;stroke-width:15;stroke-linecap:round;stroke-linejoin:round;stroke-miterlimit:4;stroke-dasharray:none"
           x="264.50171"
           y="114.87369"
           id="text268683-6"><tspan
             sodipodi:role="line"
             id="tspan268681-8"
             style="stroke-width:15"
             x="264.50171"
             y="114.87369" /></text>
        <text
           xml:space="preserve"
           style="font-size:4.23333px;font-family:sans-serif;-inkscape-font-specification:sans-serif;fill:#fdf0e3;fill-opacity:1;stroke:#4a280d;stroke-width:5;stroke-linecap:round;stroke-linejoin:round;stroke-miterlimit:4;stroke-dasharray:none"
           x="292.30304"
           y="123.71243"
           id="text270271-8"><tspan
             sodipodi:role="line"
             id="tspan270269-4"
             style="stroke-width:5;stroke-miterlimit:4;stroke-dasharray:none"
             x="292.30304"
             y="123.71243" /></text>
        <text
           xml:space="preserve"
           style="font-size:4.23333px;font-family:sans-serif;-inkscape-font-specification:sans-serif;fill:#fdf0e3;fill-opacity:1;stroke:#4a280d;stroke-width:4.99999;stroke-linecap:round;stroke-linejoin:round;stroke-miterlimit:4;stroke-dasharray:none"
           x="295.08829"
           y="126.20206"
           id="text275393-3"><tspan
             sodipodi:role="line"
             id="tspan275391-1"
             style="stroke-width:5"
             x="295.08829"
             y="126.20206" /></text>
        <g
           id="g15217"
           inkscape:export-filename="/home/pacha/github/cpp11armadillo/inst/rstudio/templates/project/armadillo_small.png"
           inkscape:export-xdpi="96"
           inkscape:export-ydpi="96">
          <path
             sodipodi:type="star"
             style="fill:#fdf0e3;fill-opacity:1;stroke:#4a280d;stroke-width:73.9932;stroke-miterlimit:4;stroke-dasharray:none;stroke-opacity:1"
             id="path4560"
             sodipodi:sides="6"
             sodipodi:cx="-5551.2134"
             sodipodi:cy="-204.52565"
             sodipodi:r1="1701.6108"
             sodipodi:r2="1473.6381"
             sodipodi:arg1="1.0471976"
             sodipodi:arg2="1.5707963"
             inkscape:flatsided="true"
             inkscape:rounded="0"
             inkscape:randomized="0"
             inkscape:transform-center-x="1.5731476e-05"
             inkscape:transform-center-y="7.9344316e-05"
             transform="matrix(0,0.01457052,-0.01454011,0,205.64674,204.32612)"
             d="m -4700.408,1269.1126 -1701.6109,-10e-5 -850.8053,-1473.63823 850.8055,-1473.63817 1701.6108,10e-5 850.8054,1473.63823 z" />
          <path
             style="fill:#907d77;fill-opacity:1;stroke:#4a280d;stroke-width:0.76;stroke-linecap:round;stroke-linejoin:round;stroke-miterlimit:4;stroke-dasharray:none"
             d="m 217.39853,128.32114 c 0.91787,0.33952 1.8719,0.84972 3.07977,1.00254 1.6737,0.21176 3.5314,-0.0641 3.73811,-0.65202 0.18819,-0.57302 -1.48182,-1.49226 -2.6007,-2.03527 -0.69537,-0.33748 -1.45916,-0.63819 -2.23745,-0.9311"
             id="path9670"
             sodipodi:nodetypes="cscsc" />
          <path
             style="fill:#d4c4b5;fill-opacity:1;stroke:#4a280d;stroke-width:0.76;stroke-linecap:round;stroke-linejoin:round;stroke-miterlimit:4;stroke-dasharray:none"
             d="m 199.8127,114.7717 c -1.00846,0.31612 -2.14648,0.88758 -2.8444,1.50017 -1.54229,1.50992 -2.81413,4.05155 -2.96424,6.03681 -0.23991,3.20373 0.5009,5.0563 2.64671,6.35368 6.02864,1.32033 12.73228,0.93338 20.0296,0.53992 0.8676,-0.82361 1.8728,-1.32214 2.69869,-3.489 2.43489,-6.38834 -1.94972,-9.61889 -6.01736,-12.0369 -3.89975,-1.91475 -10.12122,-1.24585 -13.549,1.09532 z"
             id="path1309"
             sodipodi:nodetypes="cccccscc" />
          <path
             style="fill:#907d77;fill-opacity:1;stroke:none;stroke-width:0.76;stroke-linecap:round;stroke-linejoin:round;stroke-miterlimit:4;stroke-dasharray:none"
             d="m 199.30715,115.54525 c -0.47212,3.72207 0.1102,3.91776 0.67018,4.03611 1.39214,0.27601 1.94245,-1.94043 2.35933,-3.80947"
             id="path11334"
             sodipodi:nodetypes="ccc" />
          <path
             style="fill:#907d77;fill-opacity:1;stroke:#4a280d;stroke-width:0.76;stroke-linecap:round;stroke-linejoin:round;stroke-miterlimit:4;stroke-dasharray:none"
             d="m 196.59659,116.6822 c 1.28353,-0.77114 2.95119,-1.19253 4.15025,-1.15607 3.67487,0.28171 6.04223,1.6043 6.99921,4.99866 0.33298,1.23724 -0.21669,2.75731 -0.3108,3.21064 -0.28861,1.29203 1.22207,1.65133 2.13042,1.74469 0.89526,0.10078 1.60185,-0.0606 2.34459,0.0246 0.81362,0.0932 1.55407,0.30814 2.36428,0.38464 0.75662,0.0645 1.62743,-0.053 2.41415,-0.0942 0.8053,0.18688 1.72365,0.27321 2.41225,0.24695 0.92887,-0.0661 1.69293,-0.40094 2.05497,-0.62055 0.18774,-6.16034 -3.26848,-9.38378 -7.79421,-11.74521 -2.98481,-1.34516 -5.70388,-1.21343 -7.99001,-0.92068 -2.09768,0.26862 -7.06069,2.78147 -8.7751,3.9265"
             id="path4409"
             sodipodi:nodetypes="cccccscccccsc" />
          <path
             style="fill:none;stroke:#4a280d;stroke-width:0.759999;stroke-linecap:round;stroke-linejoin:round;stroke-miterlimit:4;stroke-dasharray:none"
             d="m 191.90453,119.46106 c 0.73697,0.0996 1.32057,0.18121 2.01462,0.47909 0.13092,0.0562 0.95235,0.4154 1.09291,0.48856"
             id="path10130"
             sodipodi:nodetypes="csc" />
          <path
             style="fill:none;stroke:#4a280d;stroke-width:0.759999;stroke-linecap:round;stroke-linejoin:round;stroke-miterlimit:4;stroke-dasharray:none"
             d="m 191.91058,121.34528 c 0.16096,-0.10053 0.86411,-0.33058 1.67564,-0.28424 0.0757,0.004 0.60693,0.0444 1.07058,0.3092"
             id="path10336"
             sodipodi:nodetypes="csc" />
          <circle
             transform="rotate(-45)"
             class="st0"
             cx="47.664406"
             cy="239.43797"
             id="ellipse10300"
             r="3.2430675"
             style="font-size:4.23333px;font-family:Sniglet;-inkscape-font-specification:sans-serif;stroke:#4a280d;stroke-width:0;stroke-linecap:round;stroke-linejoin:round" />
          <path
             d="m 202.94778,136.05061 q -0.0593,0.004 -0.12277,0.008 -0.0593,0 -0.12277,0 -0.072,0 -0.14393,0 -0.072,0 -0.16087,-0.008 v 0.85937 q 0,0.13545 -0.0677,0.16932 -0.0635,0.0296 -0.16087,0.0296 -0.0508,0 -0.0804,-0.008 -0.0296,-0.004 -0.0508,-0.0212 -0.0169,-0.0212 -0.0296,-0.0593 -0.008,-0.0381 -0.0127,-0.10583 -0.008,-0.0762 -0.0127,-0.22013 -0.004,-0.14817 -0.008,-0.381 0,-0.23283 -0.004,-0.56303 0,-0.33444 0,-0.78317 0,-0.17357 0.0423,-0.33443 0.0423,-0.1651 0.1524,-0.28787 0.11007,-0.127 0.29633,-0.2032 0.1905,-0.0762 0.4826,-0.0762 0.20744,0 0.40217,0.0466 0.19897,0.0466 0.35137,0.16086 0.1524,0.1143 0.24553,0.30904 0.0931,0.19473 0.0931,0.48683 0,0.38947 -0.16933,0.60537 -0.1651,0.21166 -0.4572,0.30056 l 0.56727,0.77894 q 0.0762,0.1016 0.0762,0.20743 0,0.0847 -0.0593,0.13123 -0.055,0.0508 -0.1397,0.0508 -0.0931,0 -0.16087,-0.0508 -0.0677,-0.055 -0.127,-0.1397 z m 0.66463,-0.98636 q 0,-0.2921 -0.1778,-0.4318 -0.17357,-0.14394 -0.55457,-0.14394 -0.1397,0 -0.23283,0.0254 -0.0931,0.0212 -0.14817,0.0847 -0.055,0.0635 -0.0804,0.1778 -0.0212,0.11007 -0.0212,0.28363 0,0.12277 0,0.28787 0,0.1651 0.004,0.30057 0.0974,0.004 0.2159,0.004 0.12276,0 0.2286,0 0.11853,0 0.24976,-0.0127 0.13547,-0.0169 0.24977,-0.0762 0.1143,-0.0635 0.1905,-0.1778 0.0762,-0.11853 0.0762,-0.32173 z"
             id="path21118"
             style="font-size:4.23333px;font-family:Sniglet;-inkscape-font-specification:Sniglet;fill:#ffffff;stroke:#ffffff;stroke-width:0.1;stroke-linecap:round;stroke-linejoin:round;stroke-miterlimit:4;stroke-dasharray:none" />
          <path
             d="m 202.94789,136.05071 q -0.0593,0.004 -0.12277,0.008 -0.0593,0 -0.12276,0 -0.072,0 -0.14394,0 -0.072,0 -0.16087,-0.008 v 0.85936 q 0,0.13548 -0.0678,0.16934 -0.0635,0.0296 -0.16087,0.0296 -0.0508,0 -0.0804,-0.008 -0.0296,-0.004 -0.0508,-0.0212 -0.017,-0.0212 -0.0296,-0.0593 -0.008,-0.0381 -0.0127,-0.10584 -0.008,-0.0762 -0.0127,-0.22013 -0.004,-0.14817 -0.008,-0.381 0,-0.23284 -0.004,-0.56304 0,-0.33443 0,-0.78316 0,-0.17357 0.0423,-0.33444 0.0423,-0.1651 0.1524,-0.28787 0.11006,-0.127 0.29633,-0.20319 0.1905,-0.0762 0.4826,-0.0762 0.20744,0 0.40217,0.0466 0.19897,0.0465 0.35137,0.16087 0.1524,0.1143 0.24553,0.30903 0.0931,0.19473 0.0931,0.48684 0,0.38946 -0.16933,0.60536 -0.1651,0.21167 -0.4572,0.30057 l 0.56727,0.77893 q 0.0762,0.1016 0.0762,0.20744 0,0.0847 -0.0593,0.13123 -0.055,0.0508 -0.13971,0.0508 -0.0931,0 -0.16086,-0.0508 -0.0678,-0.055 -0.127,-0.1397 z m 0.66463,-0.98636 q 0,-0.29211 -0.1778,-0.43181 -0.17357,-0.14393 -0.55457,-0.14393 -0.1397,0 -0.23283,0.0254 -0.0931,0.0212 -0.14816,0.0847 -0.055,0.0635 -0.0805,0.1778 -0.0212,0.11006 -0.0212,0.28363 0,0.12277 0,0.28787 0,0.1651 0.004,0.30056 0.0974,0.004 0.2159,0.004 0.12276,0 0.22859,0 0.11854,0 0.24977,-0.0127 0.13547,-0.017 0.24977,-0.0762 0.11431,-0.0635 0.1905,-0.17779 0.0762,-0.11854 0.0762,-0.32173 z"
             style="font-weight:bold;font-size:5.09201px;font-family:Sniglet;-inkscape-font-specification:Sniglet;fill:#ffffff;stroke:#ffffff;stroke-width:0.1;stroke-linecap:round;stroke-linejoin:round;stroke-miterlimit:4;stroke-dasharray:none"
             id="path192290" />
          <path
             d="m 201.28419,137.10904 q -0.0678,0 -0.11007,-0.0212 -0.0381,-0.0254 -0.0593,-0.0635 -0.0212,-0.0381 -0.0296,-0.0889 -0.008,-0.055 -0.0127,-0.1143 -0.10584,0.13123 -0.27517,0.22013 -0.1651,0.0889 -0.42333,0.0889 -0.1651,0 -0.33867,-0.0465 -0.16933,-0.0508 -0.30903,-0.16934 -0.1397,-0.12277 -0.2286,-0.32597 -0.0889,-0.2032 -0.0889,-0.51223 0,-0.2413 0.0593,-0.45297 0.0593,-0.21167 0.17781,-0.3683 0.12276,-0.16087 0.30479,-0.254 0.18204,-0.0931 0.42757,-0.0931 0.2159,0 0.38524,0.0804 0.16933,0.0762 0.30479,0.254 0,-0.0508 0.004,-0.1016 0.004,-0.055 0.0212,-0.0974 0.0212,-0.0466 0.0635,-0.072 0.0423,-0.0296 0.1143,-0.0296 0.0635,0 0.11853,0.0508 0.055,0.0508 0.0635,0.22014 0.0127,0.22436 0.017,0.40216 0.008,0.1778 0.008,0.3683 0,0.23283 -0.004,0.42757 -0.004,0.19473 -0.0212,0.41486 -0.008,0.0974 -0.0254,0.15664 -0.0127,0.055 -0.0338,0.0847 -0.0212,0.0254 -0.0508,0.0338 -0.0296,0.008 -0.0593,0.008 z m -0.22861,-1.07526 q 0,-0.22014 -0.0678,-0.35983 -0.0635,-0.13971 -0.1651,-0.21591 -0.0974,-0.0804 -0.21167,-0.11007 -0.1143,-0.0296 -0.21167,-0.0296 -0.15239,0 -0.26246,0.055 -0.10583,0.055 -0.17356,0.15241 -0.0678,0.0931 -0.10161,0.22436 -0.0297,0.127 -0.0297,0.2794 0,0.37254 0.16087,0.55034 0.16511,0.1778 0.4445,0.1778 0.16511,0 0.2794,-0.055 0.11854,-0.0593 0.1905,-0.15663 0.0762,-0.0974 0.11007,-0.2286 0.0381,-0.13546 0.0381,-0.28363 z"
             style="font-weight:bold;font-size:5.09201px;font-family:Sniglet;-inkscape-font-specification:Sniglet;fill:#4a280d;stroke:#4a280d;stroke-width:0.1;stroke-linecap:round;stroke-linejoin:round;stroke-miterlimit:4;stroke-dasharray:none"
             id="path192288" />
          <path
             d="m 207.27012,136.96511 q -0.0254,-0.072 -0.0338,-0.16087 -0.004,-0.0889 -0.004,-0.22013 0,-0.0931 0,-0.14393 0.004,-0.055 0.004,-0.0931 0,-0.0423 0,-0.0805 0.004,-0.0423 0.004,-0.1143 0,-0.14817 -0.008,-0.29634 -0.004,-0.1524 -0.0423,-0.27093 -0.0381,-0.12276 -0.11853,-0.19897 -0.0805,-0.0762 -0.23283,-0.0762 -0.25823,0 -0.40216,0.24553 -0.14394,0.24554 -0.17358,0.78317 -0.008,0.16933 -0.008,0.30904 0,0.13969 -0.017,0.24129 -0.017,0.0974 -0.0635,0.15241 -0.0423,0.055 -0.14394,0.055 -0.0931,0 -0.13546,-0.0466 -0.0423,-0.0508 -0.0635,-0.14817 -0.017,-0.0974 -0.0212,-0.23706 0,-0.13971 -0.0127,-0.32597 -0.0127,-0.2032 -0.0423,-0.38947 -0.0254,-0.18626 -0.0889,-0.32597 -0.0593,-0.14393 -0.1651,-0.2286 -0.10161,-0.0847 -0.26247,-0.0847 -0.1524,0 -0.23706,0.0762 -0.0805,0.072 -0.11854,0.19473 -0.0381,0.11854 -0.0466,0.27094 -0.004,0.14816 -0.004,0.30056 0,0.0762 0,0.11431 0.004,0.0338 0.004,0.0635 0,0.0296 0,0.0762 0.004,0.0465 0.004,0.14393 0,0.1397 -0.008,0.24131 -0.004,0.10159 -0.0297,0.17356 -0.0296,0.0847 -0.0805,0.10583 -0.0508,0.017 -0.0931,0.017 -0.13124,0 -0.16934,-0.0931 -0.0381,-0.0931 -0.0423,-0.27094 0,-0.0974 -0.004,-0.2159 0,-0.12277 0,-0.29633 0,-0.0847 0,-0.14817 0,-0.0635 0,-0.12276 0.004,-0.0593 0.004,-0.11853 0.004,-0.0635 0.008,-0.14394 0.0127,-0.25823 0.0931,-0.41064 0.0804,-0.15662 0.1905,-0.23706 0.11007,-0.0804 0.23707,-0.1016 0.127,-0.0254 0.23283,-0.0254 0.2286,0 0.38523,0.0678 0.15664,0.0677 0.254,0.1778 0.1016,0.11006 0.14817,0.24977 0.0508,0.13969 0.0677,0.28363 0.017,-0.13971 0.0678,-0.27517 0.055,-0.1397 0.15663,-0.24553 0.10583,-0.11007 0.27094,-0.1778 0.1651,-0.0678 0.40639,-0.0678 0.11431,0 0.23284,0.0254 0.12276,0.0212 0.22437,0.1016 0.1016,0.0804 0.16933,0.23284 0.072,0.14816 0.0847,0.40216 0.004,0.0804 0.004,0.14394 0.004,0.0593 0.004,0.11853 0.004,0.0593 0.004,0.12276 0,0.0635 0,0.14817 0,0.17356 -0.004,0.29633 0,0.11854 0,0.2159 0,0.0805 -0.008,0.14817 -0.004,0.0677 -0.0254,0.1143 -0.0212,0.0466 -0.0635,0.0762 -0.0381,0.0254 -0.11429,0.0254 -0.072,0 -0.11008,-0.0254 -0.0381,-0.0297 -0.0635,-0.0974 z"
             style="font-weight:bold;font-size:5.09201px;font-family:Sniglet;-inkscape-font-specification:Sniglet;fill:#4a280d;stroke:#4a280d;stroke-width:0.1;stroke-linecap:round;stroke-linejoin:round;stroke-miterlimit:4;stroke-dasharray:none"
             id="path192292" />
          <path
             d="m 209.89055,137.10904 q -0.0678,0 -0.11007,-0.0212 -0.0381,-0.0254 -0.0593,-0.0635 -0.0212,-0.0381 -0.0296,-0.0889 -0.008,-0.055 -0.0127,-0.1143 -0.10583,0.13123 -0.27516,0.22013 -0.1651,0.0889 -0.42334,0.0889 -0.1651,0 -0.33866,-0.0465 -0.16934,-0.0508 -0.30903,-0.16934 -0.1397,-0.12277 -0.2286,-0.32597 -0.0889,-0.2032 -0.0889,-0.51223 0,-0.2413 0.0593,-0.45297 0.0593,-0.21167 0.1778,-0.3683 0.12277,-0.16087 0.3048,-0.254 0.18203,-0.0931 0.42756,-0.0931 0.21591,0 0.38524,0.0804 0.16933,0.0762 0.3048,0.254 0,-0.0508 0.004,-0.1016 0.004,-0.055 0.0212,-0.0974 0.0212,-0.0466 0.0635,-0.072 0.0423,-0.0296 0.11431,-0.0296 0.0635,0 0.11853,0.0508 0.055,0.0508 0.0635,0.22014 0.0127,0.22436 0.017,0.40216 0.008,0.1778 0.008,0.3683 0,0.23283 -0.004,0.42757 -0.004,0.19473 -0.0212,0.41486 -0.008,0.0974 -0.0254,0.15664 -0.0127,0.055 -0.0338,0.0847 -0.0212,0.0254 -0.0508,0.0338 -0.0296,0.008 -0.0593,0.008 z m -0.22859,-1.07526 q 0,-0.22014 -0.0678,-0.35983 -0.0635,-0.13971 -0.16509,-0.21591 -0.0974,-0.0804 -0.21167,-0.11007 -0.1143,-0.0296 -0.21167,-0.0296 -0.1524,0 -0.26247,0.055 -0.10583,0.055 -0.17356,0.15241 -0.0678,0.0931 -0.1016,0.22436 -0.0296,0.127 -0.0296,0.2794 0,0.37254 0.16086,0.55034 0.1651,0.1778 0.4445,0.1778 0.1651,0 0.27941,-0.055 0.11853,-0.0593 0.1905,-0.15663 0.0762,-0.0974 0.11006,-0.2286 0.0381,-0.13546 0.0381,-0.28363 z"
             style="font-weight:bold;font-size:5.09201px;font-family:Sniglet;-inkscape-font-specification:Sniglet;fill:#4a280d;stroke:#4a280d;stroke-width:0.1;stroke-linecap:round;stroke-linejoin:round;stroke-miterlimit:4;stroke-dasharray:none"
             id="path192294" />
          <path
             d="m 212.34589,137.08365 q -0.0847,0 -0.14394,-0.0678 -0.055,-0.0678 -0.0761,-0.15663 -0.0508,0.0466 -0.11854,0.0931 -0.0635,0.0466 -0.14816,0.0889 -0.0847,0.0381 -0.18627,0.0635 -0.1016,0.0254 -0.22013,0.0254 -0.14394,0 -0.32174,-0.0465 -0.17357,-0.0508 -0.3302,-0.16934 -0.1524,-0.12276 -0.25824,-0.3302 -0.10159,-0.20743 -0.10159,-0.5207 0,-0.2667 0.0804,-0.47413 0.0804,-0.20744 0.22437,-0.34714 0.14817,-0.14393 0.34713,-0.2159 0.20321,-0.0762 0.44027,-0.0762 0.2032,0 0.32174,0.0465 0.11853,0.0466 0.18626,0.11008 0,-0.11431 0,-0.25824 0,-0.14817 0,-0.28363 0.004,-0.13971 0.004,-0.254 0.004,-0.11431 0.008,-0.17357 0.008,-0.14393 0.0508,-0.19474 0.0423,-0.055 0.14817,-0.055 0.11007,0 0.14817,0.055 0.0423,0.0508 0.0508,0.18204 0.004,0.055 0.004,0.14817 0.004,0.0931 0.004,0.2032 0,0.11006 0,0.22436 0.004,0.11007 0.004,0.2032 0,0.0889 0,0.14817 0,0.0593 0,0.0593 0,0.43179 -0.008,0.79587 -0.004,0.36406 -0.004,0.57996 0.008,0.0465 0.0338,0.0889 0.0296,0.0423 0.0593,0.0847 0.0338,0.0423 0.0593,0.0889 0.0254,0.0466 0.0254,0.0974 0,0.0593 -0.0296,0.10583 -0.0296,0.0423 -0.0762,0.072 -0.0423,0.0296 -0.0931,0.0466 -0.0465,0.0127 -0.0847,0.0127 z m -0.81704,-0.37254 q 0.26247,0 0.40217,-0.15664 0.1397,-0.15663 0.1397,-0.51646 0,-0.69004 -0.5461,-0.69004 -0.127,0 -0.24554,0.0381 -0.11852,0.0381 -0.21166,0.11854 -0.0889,0.0804 -0.14817,0.20319 -0.055,0.12277 -0.055,0.2921 0,0.13971 0.0381,0.26671 0.0423,0.127 0.12277,0.2286 0.0847,0.0974 0.20743,0.15663 0.127,0.0593 0.29634,0.0593 z"
             style="font-weight:bold;font-size:5.09201px;font-family:Sniglet;-inkscape-font-specification:Sniglet;fill:#4a280d;stroke:#4a280d;stroke-width:0.1;stroke-linecap:round;stroke-linejoin:round;stroke-miterlimit:4;stroke-dasharray:none"
             id="path192296" />
          <path
             d="m 212.99782,136.82964 q -0.008,-0.15663 -0.017,-0.35559 -0.004,-0.20321 -0.004,-0.44451 0,-0.30057 0.004,-0.51223 0.004,-0.2159 0.0212,-0.35137 0.0212,-0.1397 0.0635,-0.2032 0.0423,-0.0677 0.11853,-0.0677 0.072,0 0.127,0.0508 0.055,0.0508 0.0635,0.22013 0.0254,0.44451 0.0254,0.85937 0,0.21167 -0.008,0.39794 -0.008,0.18203 -0.017,0.40216 -0.004,0.1016 -0.0212,0.15664 -0.0127,0.055 -0.0381,0.0847 -0.0254,0.0296 -0.0593,0.0338 -0.0296,0.008 -0.072,0.008 -0.0762,0 -0.12701,-0.0508 -0.0508,-0.055 -0.0593,-0.2286 z m 0.1905,-2.70087 q 0.0974,0 0.1778,0.0762 0.0847,0.0762 0.0847,0.18204 0,0.10159 -0.0847,0.17779 -0.0847,0.072 -0.1905,0.072 -0.0889,0 -0.16934,-0.072 -0.0762,-0.0762 -0.0762,-0.18627 0,-0.1016 0.0762,-0.17356 0.0804,-0.0762 0.18204,-0.0762 z"
             style="font-weight:bold;font-size:5.09201px;font-family:Sniglet;-inkscape-font-specification:Sniglet;fill:#4a280d;stroke:#4a280d;stroke-width:0.1;stroke-linecap:round;stroke-linejoin:round;stroke-miterlimit:4;stroke-dasharray:none"
             id="path192298" />
          <path
             d="m 213.95032,136.84657 q -0.004,-0.15239 -0.008,-0.3556 -0.004,-0.20319 -0.008,-0.44026 0,-0.23707 -0.004,-0.49953 0,-0.26247 0,-0.53764 0,-0.30056 0.004,-0.51646 0.004,-0.21591 0.0212,-0.3556 0.0212,-0.13971 0.0635,-0.20321 0.0423,-0.0677 0.11853,-0.0677 0.072,0 0.127,0.0465 0.055,0.0466 0.0635,0.2159 0.017,0.30481 0.0212,0.63501 0.004,0.32596 0.004,0.64346 0,0.1905 0,0.36831 0,0.17356 -0.004,0.34713 -0.004,0.16933 -0.008,0.34713 -0.004,0.1778 -0.0127,0.3683 -0.004,0.1016 -0.0212,0.15664 -0.0127,0.055 -0.0381,0.0847 -0.0254,0.0296 -0.0593,0.0338 -0.0296,0.008 -0.072,0.008 -0.0762,0 -0.127,-0.0508 -0.0508,-0.055 -0.0593,-0.2286 z"
             style="font-weight:bold;font-size:5.09201px;font-family:Sniglet;-inkscape-font-specification:Sniglet;fill:#4a280d;stroke:#4a280d;stroke-width:0.1;stroke-linecap:round;stroke-linejoin:round;stroke-miterlimit:4;stroke-dasharray:none"
             id="path192300" />
          <path
             d="m 214.89858,136.84657 q -0.004,-0.15239 -0.008,-0.3556 -0.004,-0.20319 -0.008,-0.44026 0,-0.23707 -0.004,-0.49953 0,-0.26247 0,-0.53764 0,-0.30056 0.004,-0.51646 0.004,-0.21591 0.0212,-0.3556 0.0212,-0.13971 0.0635,-0.20321 0.0423,-0.0677 0.11854,-0.0677 0.072,0 0.127,0.0465 0.055,0.0466 0.0635,0.2159 0.017,0.30481 0.0212,0.63501 0.004,0.32596 0.004,0.64346 0,0.1905 0,0.36831 0,0.17356 -0.004,0.34713 -0.004,0.16933 -0.008,0.34713 -0.004,0.1778 -0.0127,0.3683 -0.004,0.1016 -0.0212,0.15664 -0.0127,0.055 -0.0381,0.0847 -0.0254,0.0296 -0.0593,0.0338 -0.0296,0.008 -0.072,0.008 -0.0762,0 -0.127,-0.0508 -0.0508,-0.055 -0.0593,-0.2286 z"
             style="font-weight:bold;font-size:5.09201px;font-family:Sniglet;-inkscape-font-specification:Sniglet;fill:#4a280d;stroke:#4a280d;stroke-width:0.1;stroke-linecap:round;stroke-linejoin:round;stroke-miterlimit:4;stroke-dasharray:none"
             id="path192302" />
          <path
             d="m 216.79934,134.94581 q 0.2413,0 0.4318,0.0762 0.19051,0.072 0.32174,0.20743 0.13546,0.13546 0.20743,0.33019 0.072,0.19474 0.072,0.43604 0,0.2667 -0.0847,0.47837 -0.0805,0.21167 -0.2286,0.35983 -0.14393,0.14817 -0.34713,0.2286 -0.19897,0.0804 -0.43603,0.0804 -0.25824,0 -0.45721,-0.0889 -0.19473,-0.0889 -0.33019,-0.2413 -0.13124,-0.1524 -0.19897,-0.35137 -0.0678,-0.19896 -0.0678,-0.4191 0,-0.24129 0.0762,-0.44027 0.0804,-0.20319 0.22436,-0.34713 0.14817,-0.14816 0.3556,-0.2286 0.20743,-0.0804 0.46143,-0.0804 z m -0.0465,1.80763 q 0.17356,0 0.29633,-0.0593 0.12277,-0.0635 0.19896,-0.1651 0.0805,-0.10161 0.11431,-0.22861 0.0381,-0.13123 0.0381,-0.27093 0,-0.14393 -0.0381,-0.26669 -0.0338,-0.127 -0.11008,-0.22014 -0.072,-0.0931 -0.1905,-0.14393 -0.11429,-0.055 -0.27516,-0.055 -0.1651,0 -0.28786,0.055 -0.12277,0.055 -0.20744,0.1524 -0.0804,0.0931 -0.12277,0.22436 -0.0423,0.13124 -0.0423,0.28364 0,0.30903 0.15663,0.50377 0.16087,0.1905 0.4699,0.1905 z"
             style="font-weight:bold;font-size:5.09201px;font-family:Sniglet;-inkscape-font-specification:Sniglet;fill:#4a280d;stroke:#4a280d;stroke-width:0.1;stroke-linecap:round;stroke-linejoin:round;stroke-miterlimit:4;stroke-dasharray:none"
             id="path192304" />
          <path
             style="fill:none;stroke:#4a280d;stroke-width:0.759999;stroke-linecap:round;stroke-linejoin:round;stroke-miterlimit:4;stroke-dasharray:none"
             d="m 198.8536,121.06556 c 0.0487,0.23333 0.11992,0.30608 0.25685,0.35306 0.11688,0.0401 0.26039,0.0107 0.4211,-0.0907 0.0822,-0.0519 0.20285,-0.43698 0.29163,-0.5159 0.15547,-0.0187 0.0855,0.35517 0.1834,0.46967 0.10405,0.12171 0.3847,0.2519 0.63857,0.0973 0.14806,-0.0911 0.19333,-0.22518 0.21956,-0.31576"
             id="path11372"
             sodipodi:nodetypes="csscscc" />
          <ellipse
             style="fill:#4a280d;stroke:none;stroke-width:0.759999;stroke-linecap:round;stroke-linejoin:round;stroke-miterlimit:4;stroke-dasharray:none"
             id="ellipse13025"
             cx="196.86169"
             cy="120.65702"
             rx="0.65961587"
             ry="0.6884765" />
          <ellipse
             style="fill:#4a280d;stroke:none;stroke-width:0.759999;stroke-linecap:round;stroke-linejoin:round;stroke-miterlimit:4;stroke-dasharray:none"
             id="ellipse13027"
             cx="203.27864"
             cy="120.68046"
             rx="0.66984326"
             ry="0.69915134" />
          <path
             style="fill:none;stroke:#4a280d;stroke-width:0.76;stroke-linecap:round;stroke-linejoin:round;stroke-miterlimit:4;stroke-dasharray:none"
             d="m 205.81641,120.27978 c 0.98771,-0.28015 1.99276,-0.54299 3.27728,-0.52687"
             id="path10884"
             sodipodi:nodetypes="cc" />
          <path
             style="fill:#d4c4b5;fill-opacity:1;stroke:#4a280d;stroke-width:0.76;stroke-linecap:round;stroke-linejoin:round;stroke-miterlimit:4;stroke-dasharray:none"
             d="m 196.97707,128.14418 c -0.40736,0.82392 0.026,2.54992 1.37924,2.51852 1.44439,-0.15252 1.65162,-1.07865 1.77075,-1.99449"
             id="path9038"
             sodipodi:nodetypes="ccc" />
          <path
             style="fill:#d4c4b5;fill-opacity:1;stroke:#4a280d;stroke-width:0.76;stroke-linecap:round;stroke-linejoin:round;stroke-miterlimit:4;stroke-dasharray:none"
             d="m 204.38545,128.14418 c -0.40736,0.82392 0.026,2.54992 1.37924,2.51852 1.44439,-0.15252 1.65162,-1.07865 1.77075,-1.99449"
             id="path9633"
             sodipodi:nodetypes="ccc" />
          <path
             style="fill:#d4c4b5;fill-opacity:1;stroke:#4a280d;stroke-width:0.76;stroke-linecap:round;stroke-linejoin:round;stroke-miterlimit:4;stroke-dasharray:none"
             d="m 216.7268,128.14418 c 0.40736,0.82392 -0.026,2.54992 -1.37924,2.51852 -1.44439,-0.15252 -1.65162,-1.07865 -1.77075,-1.99449"
             id="path9635"
             sodipodi:nodetypes="ccc" />
          <path
             style="fill:none;stroke:#4a280d;stroke-width:0.76;stroke-linecap:round;stroke-linejoin:round;stroke-miterlimit:4;stroke-dasharray:none"
             d="m 220.8929,126.44413 c -0.0227,1.05568 -0.779,1.80553 -1.66916,2.51907"
             id="path10332"
             sodipodi:nodetypes="cc" />
          <path
             style="fill:none;stroke:#4a280d;stroke-width:0.76;stroke-linecap:round;stroke-linejoin:round;stroke-miterlimit:4;stroke-dasharray:none"
             d="m 222.36352,127.09533 c 0.15364,0.45644 -0.30883,1.30386 -1.09008,2.22806"
             id="path10337"
             sodipodi:nodetypes="cc" />
          <path
             style="fill:none;fill-opacity:1;stroke:#4a280d;stroke-width:0.76;stroke-linecap:round;stroke-linejoin:round;stroke-miterlimit:4;stroke-dasharray:none"
             d="m 204.24466,112.97205 c 5.86689,-0.68464 9.28301,4.00718 7.71784,12.13633"
             id="path99282"
             sodipodi:nodetypes="cc" />
          <path
             style="fill:none;fill-opacity:1;stroke:#4a280d;stroke-width:0.76;stroke-linecap:round;stroke-linejoin:round;stroke-miterlimit:4;stroke-dasharray:none"
             d="m 213.3617,113.67638 c 1.13473,0.55235 1.91176,1.86633 2.5709,3.04741 1.17115,2.09855 1.52003,5.13474 0.79243,8.91376"
             id="path100077"
             sodipodi:nodetypes="csc" />
          <path
             style="fill:none;stroke:#4a280d;stroke-width:0.76;stroke-linecap:round;stroke-linejoin:round;stroke-miterlimit:4;stroke-dasharray:none"
             d="m 205.91359,121.39848 c 1.36025,0.0344 2.26192,0.15505 3.00551,0.30552"
             id="path11166"
             sodipodi:nodetypes="cc" />
          <path
             style="fill:#d4c4b5;fill-opacity:1;stroke:#4a280d;stroke-width:0.76;stroke-linecap:round;stroke-linejoin:round;stroke-miterlimit:4;stroke-dasharray:none"
             d="m 196.10016,117.63983 c -0.41823,-0.48634 -0.79353,-1.02771 -0.98098,-1.82739 -0.3043,-1.29813 -0.11081,-4.03743 1.3839,-4.46818 0.64903,-0.12535 1.22286,0.48677 1.5584,0.93458 0.65483,0.93623 1.01541,2.43171 1.03778,3.81855 -0.0406,1.1373 0.0656,2.08805 0.31977,2.62567 0.0279,0.0591 0.19502,0.48948 0.58769,0.61275"
             id="path6903"
             sodipodi:nodetypes="cscccsc" />
          <path
             style="fill:#d4c4b5;fill-opacity:1;stroke:#4a280d;stroke-width:0.76;stroke-linecap:round;stroke-linejoin:round;stroke-miterlimit:4;stroke-dasharray:none"
             d="m 204.52455,117.8414 c 0.44273,-0.46415 0.84541,-0.98547 1.07381,-1.77443 0.37076,-1.28074 0.31863,-4.02637 -1.15191,-4.53354 -0.64171,-0.15861 -1.24631,0.42314 -1.60447,0.85307 -0.83425,1.49688 -1.13175,3.02183 -1.25951,4.47052 -0.14231,1.42488 -0.59425,2.72752 -1.57575,2.47879"
             id="path13370"
             sodipodi:nodetypes="cscccc" />
        </g>
      </g>
    </g>
  </g>
  <style
     type="text/css"
     id="style10296">
	.st0{fill:#75AADB;}
	.st1{fill:#4D4D4D;}
	.st2{fill:#FFFFFF;}
	.st3{fill:url(#SVGID_1_);}
	.st4{fill:url(#SVGID_2_);}
	.st5{fill:url(#SVGID_3_);}
	.st6{fill:url(#SVGID_4_);}
	.st7{fill:url(#SVGID_5_);}
	.st8{fill:url(#SVGID_6_);}
	.st9{fill:url(#SVGID_7_);}
	.st10{fill:url(#SVGID_8_);}
	.st11{fill:url(#SVGID_9_);}
	.st12{fill:url(#SVGID_10_);}
	.st13{opacity:0.18;fill:url(#SVGID_11_);}
	.st14{opacity:0.3;}
</style>
  <style
     type="text/css"
     id="style10296-7">
	.st0{fill:#75AADB;}
	.st1{fill:#4D4D4D;}
	.st2{fill:#FFFFFF;}
	.st3{fill:url(#SVGID_1_);}
	.st4{fill:url(#SVGID_2_);}
	.st5{fill:url(#SVGID_3_);}
	.st6{fill:url(#SVGID_4_);}
	.st7{fill:url(#SVGID_5_);}
	.st8{fill:url(#SVGID_6_);}
	.st9{fill:url(#SVGID_7_);}
	.st10{fill:url(#SVGID_8_);}
	.st11{fill:url(#SVGID_9_);}
	.st12{fill:url(#SVGID_10_);}
	.st13{opacity:0.18;fill:url(#SVGID_11_);}
	.st14{opacity:0.3;}
</style>
  <style
     type="text/css"
     id="style10296-4">
	.st0{fill:#75AADB;}
	.st1{fill:#4D4D4D;}
	.st2{fill:#FFFFFF;}
	.st3{fill:url(#SVGID_1_);}
	.st4{fill:url(#SVGID_2_);}
	.st5{fill:url(#SVGID_3_);}
	.st6{fill:url(#SVGID_4_);}
	.st7{fill:url(#SVGID_5_);}
	.st8{fill:url(#SVGID_6_);}
	.st9{fill:url(#SVGID_7_);}
	.st10{fill:url(#SVGID_8_);}
	.st11{fill:url(#SVGID_9_);}
	.st12{fill:url(#SVGID_10_);}
	.st13{opacity:0.18;fill:url(#SVGID_11_);}
	.st14{opacity:0.3;}
</style>
  <style
     type="text/css"
     id="style10296-9">
	.st0{fill:#75AADB;}
	.st1{fill:#4D4D4D;}
	.st2{fill:#FFFFFF;}
	.st3{fill:url(#SVGID_1_);}
	.st4{fill:url(#SVGID_2_);}
	.st5{fill:url(#SVGID_3_);}
	.st6{fill:url(#SVGID_4_);}
	.st7{fill:url(#SVGID_5_);}
	.st8{fill:url(#SVGID_6_);}
	.st9{fill:url(#SVGID_7_);}
	.st10{fill:url(#SVGID_8_);}
	.st11{fill:url(#SVGID_9_);}
	.st12{fill:url(#SVGID_10_);}
	.st13{opacity:0.18;fill:url(#SVGID_11_);}
	.st14{opacity:0.3;}
</style>
  <style
     type="text/css"
     id="style10296-2">
	.st0{fill:#75AADB;}
	.st1{fill:#4D4D4D;}
	.st2{fill:#FFFFFF;}
	.st3{fill:url(#SVGID_1_);}
	.st4{fill:url(#SVGID_2_);}
	.st5{fill:url(#SVGID_3_);}
	.st6{fill:url(#SVGID_4_);}
	.st7{fill:url(#SVGID_5_);}
	.st8{fill:url(#SVGID_6_);}
	.st9{fill:url(#SVGID_7_);}
	.st10{fill:url(#SVGID_8_);}
	.st11{fill:url(#SVGID_9_);}
	.st12{fill:url(#SVGID_10_);}
	.st13{opacity:0.18;fill:url(#SVGID_11_);}
	.st14{opacity:0.3;}
</style>
</svg>
