<svg xmlns="http://www.w3.org/2000/svg" version="1.1" xmlns:xlink="http://www.w3.org/1999/xlink" xmlns:svgjs="http://svgjs.dev/svgjs" width="43.929581mm" height="50.831631mm"><svg width="43.929581mm" height="50.831631mm" viewBox="0 0 43.929581 50.831631" version="1.1" id="SvgjsSvg1874" inkscape:version="1.1.2 (0a00cf5339, 2022-02-04)" sodipodi:docname="logo.svg" xmlns:inkscape="http://www.inkscape.org/namespaces/inkscape" xmlns:sodipodi="http://sodipodi.sourceforge.net/DTD/sodipodi-0.dtd" xmlns="http://www.w3.org/2000/svg" xmlns:svg="http://www.w3.org/2000/svg">
  <sodipodi:namedview id="SvgjsSodipodi:namedview1873" pagecolor="#ffffff" bordercolor="#000000" borderopacity="0.25" inkscape:pageshadow="2" inkscape:pageopacity="0.0" inkscape:pagecheckerboard="0" inkscape:document-units="mm" showgrid="false" inkscape:zoom="2.5168462" inkscape:cx="-43.50683" inkscape:cy="90.192241" inkscape:window-width="1920" inkscape:window-height="1043" inkscape:window-x="0" inkscape:window-y="0" inkscape:window-maximized="1" inkscape:current-layer="text3611" showguides="true" inkscape:guide-bbox="true" fit-margin-top="0" fit-margin-left="0" fit-margin-right="0" fit-margin-bottom="0">
    <sodipodi:guide position="26.608324,41.550427" orientation="0,-1" id="SvgjsSodipodi:guide1872"></sodipodi:guide>
    <sodipodi:guide position="20.879456,14.466576" orientation="0,-1" id="SvgjsSodipodi:guide1871"></sodipodi:guide>
  </sodipodi:namedview>
  <defs id="SvgjsDefs1870">
    <inkscape:perspective sodipodi:type="inkscape:persp3d" inkscape:vp_x="0 : 635.96801 : 1" inkscape:vp_y="0 : 999.99996 : 0" inkscape:vp_z="1500 : 635.96801 : 1" inkscape:persp3d-origin="750 : 341.92255 : 1" id="SvgjsInkscape:perspective1869"></inkscape:perspective>
    <clipPath id="SvgjsClipPath1868">
      <path d="m 45.315,71.927 h 12.92 v 15.867 h -12.92 z" id="SvgjsPath1867" inkscape:connector-curvature="0"></path>
    </clipPath>
    <clipPath id="SvgjsClipPath1866">
      <path d="m 123.91,72.178 h 26.23 v 15.294 h -26.23 z" id="SvgjsPath1865" inkscape:connector-curvature="0"></path>
    </clipPath>
    <clipPath id="SvgjsClipPath1864">
      <path d="m 413.96,49.857 h 31.76 v 8.719 h -31.76 z" id="SvgjsPath1863" inkscape:connector-curvature="0"></path>
    </clipPath>
    <inkscape:perspective sodipodi:type="inkscape:persp3d" inkscape:vp_x="0 : 389.7996 : 1" inkscape:vp_y="0 : 999.99992 : 0" inkscape:vp_z="1500 : 389.7996 : 1" inkscape:persp3d-origin="749.99998 : 95.754155 : 1" id="SvgjsInkscape:perspective1862"></inkscape:perspective>
    <clipPath id="SvgjsClipPath1861">
      <path d="m 45.315,71.927 h 12.92 v 15.867 h -12.92 z" id="SvgjsPath1860" inkscape:connector-curvature="0"></path>
    </clipPath>
    <clipPath id="SvgjsClipPath1859">
      <path d="m 123.91,72.178 h 26.23 v 15.294 h -26.23 z" id="SvgjsPath1858" inkscape:connector-curvature="0"></path>
    </clipPath>
    <clipPath id="SvgjsClipPath1857">
      <path d="m 413.96,49.857 h 31.76 v 8.719 h -31.76 z" id="SvgjsPath1856" inkscape:connector-curvature="0"></path>
    </clipPath>
    <inkscape:perspective sodipodi:type="inkscape:persp3d" inkscape:vp_x="0 : 389.7996 : 1" inkscape:vp_y="0 : 999.99992 : 0" inkscape:vp_z="1500 : 389.7996 : 1" inkscape:persp3d-origin="749.99998 : 95.754155 : 1" id="SvgjsInkscape:perspective1855"></inkscape:perspective>
    <clipPath id="SvgjsClipPath1854">
      <path d="m 45.315,71.927 h 12.92 v 15.867 h -12.92 z" id="SvgjsPath1853" inkscape:connector-curvature="0"></path>
    </clipPath>
    <clipPath id="SvgjsClipPath1852">
      <path d="m 123.91,72.178 h 26.23 v 15.294 h -26.23 z" id="SvgjsPath1851" inkscape:connector-curvature="0"></path>
    </clipPath>
    <clipPath id="SvgjsClipPath1850">
      <path d="m 413.96,49.857 h 31.76 v 8.719 h -31.76 z" id="SvgjsPath1849" inkscape:connector-curvature="0"></path>
    </clipPath>
    <inkscape:perspective sodipodi:type="inkscape:persp3d" inkscape:vp_x="0 : 635.96801 : 1" inkscape:vp_y="0 : 999.99996 : 0" inkscape:vp_z="1500 : 635.96801 : 1" inkscape:persp3d-origin="750 : 341.92255 : 1" id="SvgjsInkscape:perspective1848"></inkscape:perspective>
    <clipPath id="SvgjsClipPath1847">
      <path d="m 45.315,71.927 h 12.92 v 15.867 h -12.92 z" id="SvgjsPath1846" inkscape:connector-curvature="0"></path>
    </clipPath>
    <clipPath id="SvgjsClipPath1845">
      <path d="m 123.91,72.178 h 26.23 v 15.294 h -26.23 z" id="SvgjsPath1844" inkscape:connector-curvature="0"></path>
    </clipPath>
    <clipPath id="SvgjsClipPath1843">
      <path d="m 413.96,49.857 h 31.76 v 8.719 h -31.76 z" id="SvgjsPath1842" inkscape:connector-curvature="0"></path>
    </clipPath>
    <inkscape:perspective sodipodi:type="inkscape:persp3d" inkscape:vp_x="0 : 635.96801 : 1" inkscape:vp_y="0 : 999.99996 : 0" inkscape:vp_z="1500 : 635.96801 : 1" inkscape:persp3d-origin="750 : 341.92255 : 1" id="SvgjsInkscape:perspective1841"></inkscape:perspective>
    <clipPath id="SvgjsClipPath1840">
      <path d="m 45.315,71.927 h 12.92 v 15.867 h -12.92 z" id="SvgjsPath1839" inkscape:connector-curvature="0"></path>
    </clipPath>
    <clipPath id="SvgjsClipPath1838">
      <path d="m 123.91,72.178 h 26.23 v 15.294 h -26.23 z" id="SvgjsPath1837" inkscape:connector-curvature="0"></path>
    </clipPath>
    <clipPath id="SvgjsClipPath1836">
      <path d="m 413.96,49.857 h 31.76 v 8.719 h -31.76 z" id="SvgjsPath1835" inkscape:connector-curvature="0"></path>
    </clipPath>
    <inkscape:perspective sodipodi:type="inkscape:persp3d" inkscape:vp_x="0 : 635.96801 : 1" inkscape:vp_y="0 : 999.99996 : 0" inkscape:vp_z="1500 : 635.96801 : 1" inkscape:persp3d-origin="750 : 341.92255 : 1" id="SvgjsInkscape:perspective1834"></inkscape:perspective>
    <clipPath id="SvgjsClipPath1833">
      <path d="m 45.315,71.927 h 12.92 v 15.867 h -12.92 z" id="SvgjsPath1832" inkscape:connector-curvature="0"></path>
    </clipPath>
    <clipPath id="SvgjsClipPath1831">
      <path d="m 123.91,72.178 h 26.23 v 15.294 h -26.23 z" id="SvgjsPath1830" inkscape:connector-curvature="0"></path>
    </clipPath>
    <clipPath id="SvgjsClipPath1829">
      <path d="m 413.96,49.857 h 31.76 v 8.719 h -31.76 z" id="SvgjsPath1828" inkscape:connector-curvature="0"></path>
    </clipPath>
  </defs>
  <g inkscape:label="Layer 1" inkscape:groupmode="layer" id="SvgjsG1827" transform="translate(134.31887,576.54601)">
    <text xml:space="preserve" style="font-size:4.23333px;font-family:sans-serif;-inkscape-font-specification:sans-serif;fill:#fdf0e3;fill-opacity:1;stroke:#4a280d;stroke-width:15;stroke-linecap:round;stroke-linejoin:round;stroke-miterlimit:4;stroke-dasharray:none" x="-105.7908" y="-558.50726" id="SvgjsText1826" svgjs:data="{&quot;leading&quot;:&quot;1.3&quot;}"><tspan sodipodi:role="line" id="SvgjsTspan1825" style="stroke-width:15;stroke-miterlimit:4;stroke-dasharray:none" x="-105.7908" y="-558.50726"></tspan></text>
    <text xml:space="preserve" style="font-size:4.23333px;font-family:sans-serif;-inkscape-font-specification:sans-serif;fill:#fdf0e3;fill-opacity:1;stroke:#4a280d;stroke-width:15;stroke-linecap:round;stroke-linejoin:round;stroke-miterlimit:4;stroke-dasharray:none" x="-106.25206" y="-560.1264" id="SvgjsText1824" svgjs:data="{&quot;leading&quot;:&quot;1.3&quot;}"><tspan sodipodi:role="line" id="SvgjsTspan1823" style="stroke-width:15" x="-106.25206" y="-560.1264"></tspan></text>
    <text xml:space="preserve" style="font-size:4.23333px;font-family:sans-serif;-inkscape-font-specification:sans-serif;fill:#fdf0e3;fill-opacity:1;stroke:#4a280d;stroke-width:5;stroke-linecap:round;stroke-linejoin:round;stroke-miterlimit:4;stroke-dasharray:none" x="-78.450752" y="-551.28766" id="SvgjsText1822" svgjs:data="{&quot;leading&quot;:&quot;1.3&quot;}"><tspan sodipodi:role="line" id="SvgjsTspan1821" style="stroke-width:5;stroke-miterlimit:4;stroke-dasharray:none" x="-78.450752" y="-551.28766"></tspan></text>
    <text xml:space="preserve" style="font-size:4.23333px;font-family:sans-serif;-inkscape-font-specification:sans-serif;fill:#fdf0e3;fill-opacity:1;stroke:#4a280d;stroke-width:4.99999;stroke-linecap:round;stroke-linejoin:round;stroke-miterlimit:4;stroke-dasharray:none" x="-75.665482" y="-548.79803" id="SvgjsText1820" svgjs:data="{&quot;leading&quot;:&quot;1.3&quot;}"><tspan sodipodi:role="line" id="SvgjsTspan1819" style="stroke-width:5" x="-75.665482" y="-548.79803"></tspan></text>
    <g id="SvgjsG1818">
      <g id="SvgjsG1817" transform="rotate(-30,-112.35409,-551.13016)">
        <g id="SvgjsG1816">
          <g id="SvgjsG1815" transform="rotate(30,-112.35408,-551.13016)"></g>
          <g id="SvgjsG1814" transform="rotate(30,-112.35409,-551.13016)">
            <g id="SvgjsG1813" transform="rotate(-30,-112.35409,-551.13016)">
              <path sodipodi:type="star" style="fill:#ffdaf6;fill-opacity:1;stroke:#000000;stroke-width:21.7043;stroke-miterlimit:4;stroke-dasharray:none;stroke-opacity:1" id="SvgjsPath1812" sodipodi:sides="6" sodipodi:cx="-5551.2134" sodipodi:cy="-204.52565" sodipodi:r1="1701.6108" sodipodi:r2="1473.6381" sodipodi:arg1="1.0471976" sodipodi:arg2="1.5707963" inkscape:flatsided="true" inkscape:rounded="0" inkscape:randomized="0" inkscape:transform-center-x="1.5731476e-05" inkscape:transform-center-y="7.9344316e-05" transform="matrix(-0.00728526,0.01261844,-0.01259211,-0.00727006,-155.37153,-482.56942)" d="m -4700.408,1269.1126 -1701.6109,-10e-5 -850.8053,-1473.63823 850.8055,-1473.63817 1701.6108,10e-5 850.8054,1473.63823 z"></path>
              <g aria-label="cpp11armadillo" transform="rotate(30)" id="SvgjsG1811" style="font-weight:bold;font-size:4.93889px;font-family:'Comic Sans MS';-inkscape-font-specification:'Comic Sans MS Bold';stroke-width:0.315912;stroke-linecap:round;stroke-linejoin:round">
                <path d="m -387.69311,-408.70231 q 0.14322,0 0.28645,0.0247 0.14817,0.0247 0.2667,0.0691 0.11854,0.0444 0.19262,0.10866 0.0741,0.0642 0.0741,0.14817 0,0.21731 -0.24694,0.21731 -0.0593,0 -0.1136,-0.0148 -0.0494,-0.0198 -0.11853,-0.0346 -0.0691,-0.0198 -0.17286,-0.0346 -0.10372,-0.0198 -0.25682,-0.0198 -0.32597,0 -0.50377,0.22225 -0.1778,0.22225 -0.1778,0.57785 0,0.39017 0.1778,0.62724 0.18274,0.23707 0.51364,0.23707 0.20744,0 0.33585,-0.0346 0.12841,-0.0346 0.20743,-0.079 0.084,-0.0445 0.13335,-0.079 0.0543,-0.0346 0.11854,-0.0346 0.0889,0 0.13828,0.0395 0.0543,0.0346 0.0543,0.14816 0,0.11854 -0.0938,0.20744 -0.0889,0.0889 -0.22719,0.14816 -0.13828,0.0593 -0.30127,0.0889 -0.15804,0.0296 -0.29139,0.0296 -0.59761,0 -0.93839,-0.33091 -0.34079,-0.3309 -0.34079,-0.93839 0,-0.26176 0.079,-0.49389 0.084,-0.23706 0.24694,-0.41486 0.16299,-0.1778 0.40005,-0.28152 0.24201,-0.10372 0.5581,-0.10372 z" style="font-weight:normal;font-family:Sniglet;-inkscape-font-specification:Sniglet" id="SvgjsPath1810"></path>
                <path d="m -385.82621,-405.47227 q 0,0.0938 -0.005,0.1778 -0.005,0.0889 -0.0346,0.15804 -0.0247,0.0692 -0.079,0.10866 -0.0494,0.0444 -0.14323,0.0444 -0.10865,0 -0.18273,-0.079 -0.0691,-0.0741 -0.079,-0.2667 -0.005,-0.12348 -0.0148,-0.30128 -0.01,-0.1778 -0.0198,-0.37535 -0.005,-0.19756 -0.0148,-0.39511 -0.005,-0.19756 -0.005,-0.36548 0,-0.57785 0.079,-0.95321 0.084,-0.37535 0.24694,-0.5976 0.16299,-0.22225 0.40005,-0.31115 0.24201,-0.0889 0.5581,-0.0889 0.25188,0 0.47413,0.079 0.22225,0.0741 0.38523,0.23707 0.16793,0.15804 0.2667,0.41486 0.0988,0.25189 0.0988,0.60749 0,0.29633 -0.10372,0.52352 -0.0988,0.22719 -0.27657,0.38523 -0.1778,0.15311 -0.41981,0.23707 -0.23707,0.079 -0.5087,0.079 -0.23213,0 -0.41981,-0.0938 -0.18274,-0.0988 -0.26176,-0.21237 0.0247,0.27658 0.0395,0.51365 0.0198,0.23706 0.0198,0.47413 z m 0.68156,-2.75096 q -0.17286,0 -0.30127,0.0593 -0.12347,0.0593 -0.20249,0.16299 -0.079,0.10371 -0.11854,0.24694 -0.0346,0.14323 -0.0346,0.31115 0,0.16298 0.0296,0.31115 0.0346,0.14323 0.10866,0.25188 0.0741,0.10866 0.19755,0.17287 0.12348,0.0642 0.30128,0.0642 0.13829,0 0.2667,-0.0346 0.12841,-0.0395 0.22719,-0.12841 0.10371,-0.0889 0.16298,-0.23707 0.0642,-0.14817 0.0642,-0.37042 0,-0.22718 -0.0642,-0.38029 -0.0593,-0.15804 -0.16298,-0.25188 -0.0988,-0.0988 -0.22719,-0.13829 -0.12348,-0.0395 -0.24695,-0.0395 z" style="font-weight:normal;font-family:Sniglet;-inkscape-font-specification:Sniglet" id="SvgjsPath1809"></path>
                <path d="m -382.91721,-405.47227 q 0,0.0938 -0.005,0.1778 -0.005,0.0889 -0.0346,0.15804 -0.0247,0.0692 -0.079,0.10866 -0.0494,0.0444 -0.14323,0.0444 -0.10865,0 -0.18273,-0.079 -0.0691,-0.0741 -0.079,-0.2667 -0.005,-0.12348 -0.0148,-0.30128 -0.01,-0.1778 -0.0198,-0.37535 -0.005,-0.19756 -0.0148,-0.39511 -0.005,-0.19756 -0.005,-0.36548 0,-0.57785 0.079,-0.95321 0.084,-0.37535 0.24694,-0.5976 0.16299,-0.22225 0.40005,-0.31115 0.24201,-0.0889 0.5581,-0.0889 0.25188,0 0.47413,0.079 0.22225,0.0741 0.38523,0.23707 0.16793,0.15804 0.2667,0.41486 0.0988,0.25189 0.0988,0.60749 0,0.29633 -0.10371,0.52352 -0.0988,0.22719 -0.27658,0.38523 -0.1778,0.15311 -0.41981,0.23707 -0.23707,0.079 -0.5087,0.079 -0.23213,0 -0.41981,-0.0938 -0.18274,-0.0988 -0.26176,-0.21237 0.0247,0.27658 0.0395,0.51365 0.0198,0.23706 0.0198,0.47413 z m 0.68156,-2.75096 q -0.17286,0 -0.30127,0.0593 -0.12347,0.0593 -0.20249,0.16299 -0.079,0.10371 -0.11854,0.24694 -0.0346,0.14323 -0.0346,0.31115 0,0.16298 0.0296,0.31115 0.0346,0.14323 0.10866,0.25188 0.0741,0.10866 0.19755,0.17287 0.12348,0.0642 0.30128,0.0642 0.13829,0 0.2667,-0.0346 0.12841,-0.0395 0.22719,-0.12841 0.10371,-0.0889 0.16298,-0.23707 0.0642,-0.14817 0.0642,-0.37042 0,-0.22718 -0.0642,-0.38029 -0.0593,-0.15804 -0.16298,-0.25188 -0.0988,-0.0988 -0.22719,-0.13829 -0.12348,-0.0395 -0.24695,-0.0395 z" style="font-weight:normal;font-family:Sniglet;-inkscape-font-specification:Sniglet" id="SvgjsPath1808"></path>
                <path d="m -379.88968,-406.48968 q -0.01,-0.1778 -0.0148,-0.37042 0,-0.19262 -0.005,-0.41487 -0.005,-0.22225 -0.005,-0.47907 0,-0.26176 0,-0.58279 v -0.61736 l -0.29633,0.15311 q -0.12347,0.079 -0.19755,0.0938 -0.0692,0.0148 -0.15311,0.0148 -0.0741,0 -0.13335,-0.0642 -0.0543,-0.0642 -0.0543,-0.15311 0,-0.0889 0.0593,-0.1531 0.0642,-0.0691 0.14817,-0.12348 0.10865,-0.0741 0.23212,-0.14816 0.12841,-0.0741 0.24695,-0.13335 0.11853,-0.0642 0.21731,-0.0988 0.10372,-0.0395 0.17286,-0.0395 0.0346,0 0.0691,0.01 0.0395,0.01 0.0691,0.0395 0.0346,0.0296 0.0543,0.0938 0.0247,0.0593 0.0296,0.16298 0.01,0.1778 0.0148,0.31115 0.005,0.13335 0.01,0.26176 0.005,0.12347 0.005,0.26176 0,0.13829 0,0.32103 0,0.22225 0,0.42474 0,0.2025 -0.005,0.40005 -0.005,0.19756 -0.01,0.40005 -0.005,0.2025 -0.0148,0.42475 -0.005,0.11853 -0.0247,0.18274 -0.0148,0.0642 -0.0444,0.0988 -0.0296,0.0346 -0.0692,0.0395 -0.0346,0.01 -0.084,0.01 -0.0889,0 -0.14817,-0.0593 -0.0593,-0.0642 -0.0691,-0.2667 z" style="font-weight:normal;font-family:Sniglet;-inkscape-font-specification:Sniglet" id="SvgjsPath1807"></path>
                <path d="m -378.16601,-406.48968 q -0.01,-0.1778 -0.0148,-0.37042 0,-0.19262 -0.005,-0.41487 -0.005,-0.22225 -0.005,-0.47907 0,-0.26176 0,-0.58279 v -0.61736 l -0.29633,0.15311 q -0.12347,0.079 -0.19756,0.0938 -0.0691,0.0148 -0.1531,0.0148 -0.0741,0 -0.13335,-0.0642 -0.0543,-0.0642 -0.0543,-0.15311 0,-0.0889 0.0593,-0.1531 0.0642,-0.0691 0.14816,-0.12348 0.10866,-0.0741 0.23213,-0.14816 0.12841,-0.0741 0.24695,-0.13335 0.11853,-0.0642 0.21731,-0.0988 0.10371,-0.0395 0.17286,-0.0395 0.0346,0 0.0691,0.01 0.0395,0.01 0.0692,0.0395 0.0346,0.0296 0.0543,0.0938 0.0247,0.0593 0.0296,0.16298 0.01,0.1778 0.0148,0.31115 0.005,0.13335 0.01,0.26176 0.005,0.12347 0.005,0.26176 0,0.13829 0,0.32103 0,0.22225 0,0.42474 0,0.2025 -0.005,0.40005 -0.005,0.19756 -0.01,0.40005 -0.005,0.2025 -0.0148,0.42475 -0.005,0.11853 -0.0247,0.18274 -0.0148,0.0642 -0.0444,0.0988 -0.0296,0.0346 -0.0691,0.0395 -0.0346,0.01 -0.084,0.01 -0.0889,0 -0.14817,-0.0593 -0.0593,-0.0642 -0.0691,-0.2667 z" style="font-weight:normal;font-family:Sniglet;-inkscape-font-specification:Sniglet" id="SvgjsPath1806"></path>
                <path d="m -375.07427,-406.16372 q -0.079,0 -0.12841,-0.0247 -0.0445,-0.0296 -0.0692,-0.0741 -0.0247,-0.0444 -0.0346,-0.10372 -0.01,-0.0642 -0.0148,-0.13335 -0.12347,0.1531 -0.32102,0.25682 -0.19262,0.10372 -0.49389,0.10372 -0.19262,0 -0.39512,-0.0543 -0.19755,-0.0593 -0.36053,-0.19756 -0.16299,-0.14322 -0.2667,-0.38029 -0.10372,-0.23707 -0.10372,-0.59761 0,-0.28151 0.0691,-0.52846 0.0691,-0.24694 0.20744,-0.42968 0.14322,-0.18768 0.3556,-0.29633 0.21237,-0.10866 0.49882,-0.10866 0.25189,0 0.44944,0.0938 0.19756,0.0889 0.3556,0.29633 0,-0.0593 0.005,-0.11853 0.005,-0.0642 0.0247,-0.11359 0.0247,-0.0543 0.0741,-0.084 0.0494,-0.0346 0.13335,-0.0346 0.0741,0 0.13829,0.0593 0.0642,0.0593 0.0741,0.25682 0.0148,0.26176 0.0198,0.4692 0.01,0.20743 0.01,0.42968 0,0.27164 -0.005,0.49883 -0.005,0.22719 -0.0247,0.48401 -0.01,0.11359 -0.0296,0.18274 -0.0148,0.0642 -0.0395,0.0988 -0.0247,0.0296 -0.0593,0.0395 -0.0346,0.01 -0.0691,0.01 z m -0.2667,-1.25447 q 0,-0.25683 -0.079,-0.41981 -0.0741,-0.16298 -0.19262,-0.25188 -0.1136,-0.0938 -0.24695,-0.12841 -0.13335,-0.0346 -0.24694,-0.0346 -0.1778,0 -0.30621,0.0642 -0.12347,0.0642 -0.2025,0.1778 -0.079,0.10865 -0.11853,0.26176 -0.0346,0.14817 -0.0346,0.32597 0,0.43462 0.18768,0.64205 0.19261,0.20744 0.51858,0.20744 0.19262,0 0.32597,-0.0642 0.13829,-0.0691 0.22225,-0.18274 0.0889,-0.11359 0.12841,-0.2667 0.0444,-0.15804 0.0444,-0.3309 z" style="font-weight:normal;font-family:Sniglet;-inkscape-font-specification:Sniglet" id="SvgjsPath1805"></path>
                <path d="m -374.24454,-406.48474 q -0.0198,-0.17287 -0.0247,-0.41981 -0.005,-0.24694 -0.005,-0.59761 0,-0.34572 0,-0.55809 0.005,-0.21237 0.0296,-0.37536 0.0247,-0.20249 0.0741,-0.26176 0.0543,-0.0593 0.13829,-0.0593 0.0593,0 0.10372,0.01 0.0494,0.01 0.084,0.0444 0.0395,0.0296 0.0593,0.0889 0.0197,0.0593 0.0197,0.16299 0,0.0197 0.005,0.0395 0,0.0197 0,0.0444 0.005,0.0198 0.005,0.0494 0.13335,-0.16792 0.30127,-0.28646 0.17286,-0.11853 0.39018,-0.11853 0.29139,0 0.29139,0.242 0,0.0889 -0.0395,0.14817 -0.0346,0.0593 -0.10372,0.0988 -0.0642,0.0346 -0.1531,0.0543 -0.084,0.0198 -0.18768,0.0395 -0.15805,0.0296 -0.29633,0.11359 -0.13829,0.079 -0.18768,0.2025 0,0.0938 0,0.13829 0.005,0.0444 0.005,0.0741 0.005,0.0296 0.005,0.0642 0,0.0346 0,0.10866 0,0.25188 -0.01,0.47413 -0.01,0.21731 -0.0198,0.47414 -0.005,0.11853 -0.0296,0.18274 -0.0198,0.0642 -0.0543,0.0988 -0.0296,0.0346 -0.0691,0.0395 -0.0395,0.01 -0.079,0.01 -0.13828,0 -0.18767,-0.0593 -0.0444,-0.0642 -0.0642,-0.2667 z" style="font-weight:normal;font-family:Sniglet;-inkscape-font-specification:Sniglet" id="SvgjsPath1804"></path>
                <path d="m -369.07847,-406.33164 q -0.0296,-0.084 -0.0395,-0.18768 -0.005,-0.10371 -0.005,-0.25682 0,-0.10865 0,-0.16792 0.005,-0.0642 0.005,-0.10866 0,-0.0494 0,-0.0938 0.005,-0.0494 0.005,-0.13335 0,-0.17286 -0.01,-0.34572 -0.005,-0.1778 -0.0494,-0.31609 -0.0444,-0.14322 -0.13829,-0.23212 -0.0938,-0.0889 -0.27164,-0.0889 -0.30127,0 -0.4692,0.28645 -0.16792,0.28646 -0.20249,0.9137 -0.01,0.19755 -0.01,0.36053 0,0.16299 -0.0197,0.28152 -0.0198,0.1136 -0.0741,0.1778 -0.0494,0.0642 -0.16792,0.0642 -0.10866,0 -0.15804,-0.0543 -0.0494,-0.0593 -0.0741,-0.17286 -0.0197,-0.1136 -0.0247,-0.27658 0,-0.16298 -0.0148,-0.38029 -0.0148,-0.23707 -0.0494,-0.45438 -0.0296,-0.21731 -0.10371,-0.3803 -0.0691,-0.16792 -0.19262,-0.2667 -0.11853,-0.0988 -0.30621,-0.0988 -0.1778,0 -0.27658,0.0889 -0.0938,0.084 -0.13829,0.22718 -0.0445,0.13829 -0.0543,0.31609 -0.005,0.17286 -0.005,0.35066 0,0.0889 0,0.13335 0.005,0.0395 0.005,0.0741 0,0.0346 0,0.0889 0.005,0.0543 0.005,0.16792 0,0.16298 -0.01,0.28152 -0.005,0.11853 -0.0346,0.20249 -0.0346,0.0988 -0.0938,0.12347 -0.0593,0.0198 -0.10865,0.0198 -0.15311,0 -0.19756,-0.10866 -0.0444,-0.10865 -0.0494,-0.31609 0,-0.11359 -0.005,-0.25188 0,-0.14323 0,-0.34572 0,-0.0988 0,-0.17286 0,-0.0741 0,-0.14323 0.005,-0.0691 0.005,-0.13829 0.005,-0.0741 0.01,-0.16792 0.0148,-0.30127 0.10866,-0.47907 0.0938,-0.18274 0.22225,-0.27658 0.12841,-0.0938 0.27657,-0.11853 0.14817,-0.0296 0.27164,-0.0296 0.2667,0 0.44944,0.079 0.18274,0.079 0.29634,0.20744 0.11853,0.12841 0.17286,0.29139 0.0593,0.16299 0.079,0.33091 0.0197,-0.16299 0.079,-0.32103 0.0642,-0.16298 0.18274,-0.28646 0.12347,-0.12841 0.31609,-0.20743 0.19262,-0.079 0.47413,-0.079 0.13335,0 0.27164,0.0296 0.14323,0.0247 0.26176,0.11854 0.11854,0.0938 0.19756,0.27163 0.084,0.17287 0.0988,0.4692 0.005,0.0938 0.005,0.16792 0.005,0.0692 0.005,0.13829 0.005,0.0691 0.005,0.14323 0,0.0741 0,0.17286 0,0.20249 -0.005,0.34572 0,0.13829 0,0.25188 0,0.0938 -0.01,0.17287 -0.005,0.079 -0.0296,0.13335 -0.0247,0.0543 -0.0741,0.0889 -0.0445,0.0296 -0.13335,0.0296 -0.084,0 -0.12841,-0.0296 -0.0444,-0.0346 -0.0741,-0.1136 z" style="font-weight:normal;font-family:Sniglet;-inkscape-font-specification:Sniglet" id="SvgjsPath1803"></path>
                <path d="m -366.0213,-406.16372 q -0.079,0 -0.12841,-0.0247 -0.0444,-0.0296 -0.0691,-0.0741 -0.0247,-0.0444 -0.0346,-0.10372 -0.01,-0.0642 -0.0148,-0.13335 -0.12347,0.1531 -0.32103,0.25682 -0.19262,0.10372 -0.49389,0.10372 -0.19261,0 -0.39511,-0.0543 -0.19755,-0.0593 -0.36054,-0.19756 -0.16298,-0.14322 -0.2667,-0.38029 -0.10371,-0.23707 -0.10371,-0.59761 0,-0.28151 0.0691,-0.52846 0.0691,-0.24694 0.20743,-0.42968 0.14323,-0.18768 0.3556,-0.29633 0.21238,-0.10866 0.49883,-0.10866 0.25188,0 0.44944,0.0938 0.19756,0.0889 0.3556,0.29633 0,-0.0593 0.005,-0.11853 0.005,-0.0642 0.0247,-0.11359 0.0247,-0.0543 0.0741,-0.084 0.0494,-0.0346 0.13335,-0.0346 0.0741,0 0.13829,0.0593 0.0642,0.0593 0.0741,0.25682 0.0148,0.26176 0.0198,0.4692 0.01,0.20743 0.01,0.42968 0,0.27164 -0.005,0.49883 -0.005,0.22719 -0.0247,0.48401 -0.01,0.11359 -0.0296,0.18274 -0.0148,0.0642 -0.0395,0.0988 -0.0247,0.0296 -0.0593,0.0395 -0.0346,0.01 -0.0691,0.01 z m -0.2667,-1.25447 q 0,-0.25683 -0.079,-0.41981 -0.0741,-0.16298 -0.19262,-0.25188 -0.11359,-0.0938 -0.24694,-0.12841 -0.13335,-0.0346 -0.24694,-0.0346 -0.1778,0 -0.30622,0.0642 -0.12347,0.0642 -0.20249,0.1778 -0.079,0.10865 -0.11853,0.26176 -0.0346,0.14817 -0.0346,0.32597 0,0.43462 0.18768,0.64205 0.19262,0.20744 0.51859,0.20744 0.19261,0 0.32596,-0.0642 0.13829,-0.0691 0.22225,-0.18274 0.0889,-0.11359 0.12841,-0.2667 0.0444,-0.15804 0.0444,-0.3309 z" style="font-weight:normal;font-family:Sniglet;-inkscape-font-specification:Sniglet" id="SvgjsPath1802"></path>
                <path d="m -363.15674,-406.19335 q -0.0988,0 -0.16792,-0.079 -0.0642,-0.079 -0.0889,-0.18274 -0.0593,0.0543 -0.13829,0.10865 -0.0741,0.0543 -0.17286,0.10372 -0.0988,0.0445 -0.21731,0.0741 -0.11854,0.0296 -0.25683,0.0296 -0.16792,0 -0.37535,-0.0543 -0.2025,-0.0593 -0.38524,-0.19756 -0.1778,-0.14322 -0.30127,-0.38523 -0.11853,-0.242 -0.11853,-0.60748 0,-0.31115 0.0938,-0.55316 0.0938,-0.242 0.26176,-0.40499 0.17286,-0.16792 0.40499,-0.25188 0.23706,-0.0889 0.51364,-0.0889 0.23707,0 0.37536,0.0543 0.13829,0.0543 0.21731,0.12841 0,-0.13335 0,-0.30127 0,-0.17286 0,-0.33091 0.005,-0.16298 0.005,-0.29633 0.005,-0.13335 0.01,-0.2025 0.01,-0.16792 0.0593,-0.22719 0.0494,-0.0642 0.17286,-0.0642 0.12841,0 0.17286,0.0642 0.0494,0.0593 0.0593,0.21238 0.005,0.0642 0.005,0.17286 0.005,0.10865 0.005,0.23706 0,0.12842 0,0.26177 0.005,0.12841 0.005,0.23706 0,0.10372 0,0.17286 0,0.0692 0,0.0692 0,0.50376 -0.01,0.92851 -0.005,0.42474 -0.005,0.67663 0.01,0.0543 0.0395,0.10371 0.0346,0.0494 0.0692,0.0988 0.0395,0.0494 0.0691,0.10372 0.0296,0.0543 0.0296,0.11359 0,0.0691 -0.0346,0.12347 -0.0346,0.0494 -0.0889,0.084 -0.0494,0.0346 -0.10865,0.0543 -0.0543,0.0148 -0.0988,0.0148 z m -0.95321,-0.43462 q 0.30621,0 0.4692,-0.18274 0.16298,-0.18274 0.16298,-0.60255 0,-0.80503 -0.63712,-0.80503 -0.14816,0 -0.28645,0.0445 -0.13829,0.0444 -0.24695,0.13828 -0.10371,0.0938 -0.17286,0.23707 -0.0642,0.14323 -0.0642,0.34078 0,0.16299 0.0445,0.31115 0.0494,0.14817 0.14323,0.2667 0.0988,0.1136 0.242,0.18274 0.14817,0.0691 0.34572,0.0691 z" style="font-weight:normal;font-family:Sniglet;-inkscape-font-specification:Sniglet" id="SvgjsPath1801"></path>
                <path d="m -362.39616,-406.48968 q -0.01,-0.18274 -0.0197,-0.41487 -0.005,-0.23707 -0.005,-0.51858 0,-0.35066 0.005,-0.59761 0.005,-0.25188 0.0247,-0.40993 0.0247,-0.16298 0.0741,-0.23706 0.0494,-0.079 0.13829,-0.079 0.084,0 0.14816,0.0593 0.0642,0.0593 0.0741,0.25682 0.0296,0.51859 0.0296,1.0026 0,0.24694 -0.01,0.46425 -0.01,0.21238 -0.0197,0.4692 -0.005,0.11853 -0.0247,0.18274 -0.0148,0.0642 -0.0444,0.0988 -0.0296,0.0346 -0.0691,0.0395 -0.0346,0.01 -0.084,0.01 -0.0889,0 -0.14817,-0.0593 -0.0593,-0.0642 -0.0692,-0.2667 z m 0.22225,-3.15101 q 0.1136,0 0.20744,0.0889 0.0988,0.0889 0.0988,0.21237 0,0.11853 -0.0988,0.20743 -0.0988,0.084 -0.22225,0.084 -0.10372,0 -0.19756,-0.084 -0.0889,-0.0889 -0.0889,-0.21731 0,-0.11853 0.0889,-0.20249 0.0938,-0.0889 0.21237,-0.0889 z" style="font-weight:normal;font-family:Sniglet;-inkscape-font-specification:Sniglet" id="SvgjsPath1800"></path>
                <path d="m -361.28491,-406.46993 q -0.005,-0.1778 -0.01,-0.41486 -0.005,-0.23707 -0.01,-0.51365 0,-0.27658 -0.005,-0.58279 0,-0.30621 0,-0.62724 0,-0.35066 0.005,-0.60254 0.005,-0.25188 0.0247,-0.41487 0.0247,-0.16298 0.0741,-0.23706 0.0494,-0.079 0.13828,-0.079 0.084,0 0.14817,0.0543 0.0642,0.0543 0.0741,0.25188 0.0198,0.3556 0.0247,0.74084 0.005,0.38029 0.005,0.75071 0,0.22225 0,0.42968 0,0.2025 -0.005,0.40499 -0.005,0.19756 -0.01,0.40499 -0.005,0.20743 -0.0148,0.42968 -0.005,0.11854 -0.0247,0.18274 -0.0148,0.0642 -0.0444,0.0988 -0.0296,0.0346 -0.0691,0.0395 -0.0346,0.01 -0.084,0.01 -0.0889,0 -0.14816,-0.0593 -0.0593,-0.0642 -0.0692,-0.2667 z" style="font-weight:normal;font-family:Sniglet;-inkscape-font-specification:Sniglet" id="SvgjsPath1799"></path>
                <path d="m -360.1786,-406.46993 q -0.005,-0.1778 -0.01,-0.41486 -0.005,-0.23707 -0.01,-0.51365 0,-0.27658 -0.005,-0.58279 0,-0.30621 0,-0.62724 0,-0.35066 0.005,-0.60254 0.005,-0.25188 0.0247,-0.41487 0.0247,-0.16298 0.0741,-0.23706 0.0494,-0.079 0.13829,-0.079 0.084,0 0.14817,0.0543 0.0642,0.0543 0.0741,0.25188 0.0198,0.3556 0.0247,0.74084 0.005,0.38029 0.005,0.75071 0,0.22225 0,0.42968 0,0.2025 -0.005,0.40499 -0.005,0.19756 -0.01,0.40499 -0.005,0.20743 -0.0148,0.42968 -0.005,0.11854 -0.0247,0.18274 -0.0148,0.0642 -0.0444,0.0988 -0.0296,0.0346 -0.0691,0.0395 -0.0346,0.01 -0.084,0.01 -0.0889,0 -0.14816,-0.0593 -0.0593,-0.0642 -0.0692,-0.2667 z" style="font-weight:normal;font-family:Sniglet;-inkscape-font-specification:Sniglet" id="SvgjsPath1798"></path>
                <path d="m -357.96104,-408.68749 q 0.28151,0 0.50376,0.0889 0.22225,0.084 0.37536,0.24201 0.15804,0.15804 0.24201,0.38523 0.084,0.22719 0.084,0.50871 0,0.31115 -0.0988,0.55809 -0.0938,0.24694 -0.2667,0.41981 -0.16792,0.17286 -0.40499,0.2667 -0.23213,0.0938 -0.50871,0.0938 -0.30127,0 -0.5334,-0.10372 -0.22718,-0.10372 -0.38523,-0.28152 -0.1531,-0.1778 -0.23213,-0.40993 -0.079,-0.23212 -0.079,-0.48895 0,-0.28151 0.0889,-0.51364 0.0938,-0.23707 0.26176,-0.40499 0.17286,-0.17286 0.41487,-0.2667 0.242,-0.0938 0.53834,-0.0938 z m -0.0543,2.10891 q 0.20249,0 0.34572,-0.0692 0.14323,-0.0741 0.23213,-0.19261 0.0938,-0.11854 0.13335,-0.2667 0.0444,-0.15311 0.0444,-0.31609 0,-0.16793 -0.0444,-0.31115 -0.0395,-0.14817 -0.12841,-0.25683 -0.084,-0.10865 -0.22225,-0.16792 -0.13335,-0.0642 -0.32103,-0.0642 -0.19262,0 -0.33584,0.0642 -0.14323,0.0642 -0.24201,0.1778 -0.0938,0.10866 -0.14323,0.26176 -0.0494,0.15311 -0.0494,0.33091 0,0.36054 0.18274,0.58773 0.18768,0.22225 0.54822,0.22225 z" style="font-weight:normal;font-family:Sniglet;-inkscape-font-specification:Sniglet" id="SvgjsPath1797"></path>
              </g>
              <path d="m -101.16282,-542.54356 c 0,0 0.25198,2.81755 0.87281,3.94381 0.620901,1.12615 -3.09409,-0.55273 -3.9167,-3.95521" style="fill:#edcd9d;fill-opacity:1;fill-rule:nonzero;stroke:#000000;stroke-width:0.364713;stroke-linecap:round;stroke-linejoin:miter;stroke-miterlimit:10;stroke-dasharray:none;stroke-opacity:1" id="SvgjsPath1796"></path>
              <path d="m -115.21363,-542.18354 c -3.20827,-1.8523 -7.21278,-4.62091 -9.74462,-9.63711 -2.18104,-1.82185 -2.55878,-2.4675 -2.45968,-2.91662 0.0962,-0.43614 0.65237,-0.58463 1.35636,-0.77238 0.9855,-0.26309 2.33527,-0.62316 3.07867,-1.91077 2.59225,-4.48989 10.0392,-5.06074 16.60041,-1.27262 6.10539,3.52496 8.401443,9.3952 5.5836,14.27585 l -0.005,0.009 -0.006,0.008 c -0.20255,0.2722 -0.39769,0.55092 -0.60413,0.8463 -1.957,2.79736 -4.17512,5.9679 -12.31355,2.1986 -0.57823,-0.31387 -1.04669,-0.57568 -1.48532,-0.82892" style="fill:#edcd9d;fill-opacity:1;fill-rule:nonzero;stroke:none;stroke-width:0.0120966" id="SvgjsPath1795"></path>
              <path d="m -106.29122,-558.85112 c -3.19895,-1.84691 -6.70123,-2.7356 -9.86185,-2.50248 -3.21254,0.23694 -5.69403,1.60133 -6.9877,3.84204 -0.7056,1.22212 -1.95986,1.55661 -2.96777,1.82561 -0.73363,0.19578 -1.36741,0.36498 -1.48739,0.90932 -0.13724,0.6214 0.49283,1.39974 2.49194,3.07172 2.55442,5.03831 6.57607,7.81836 9.799,9.67912 0.4402,0.25415 0.91025,0.5166 1.47921,0.82595 l 0.0103,0.006 0.0106,0.005 c 3.66426,1.69708 6.47734,2.14357 8.60007,1.36501 1.88855,-0.69279 2.9782,-2.25037 3.93945,-3.6245 0.20571,-0.29413 0.40004,-0.57192 0.60099,-0.84184 l 0.0127,-0.0168 0.0107,-0.0185 c 1.337099,-2.31593 1.570019,-5.00368 0.655697,-7.56795 -0.973907,-2.73179 -3.154417,-5.13762 -6.305897,-6.95713 m -0.18236,0.31585 c 6.48452,3.74384 8.062805,9.61691 5.51671,14.02687 -2.14355,2.87878 -3.85238,7.0838 -12.69484,2.9882 -0.47528,-0.25848 -0.96803,-0.53096 -1.47098,-0.82133 -3.37892,-1.95083 -7.23996,-4.71875 -9.68976,-9.59496 -5.65775,-4.71861 0.0494,-2.03596 1.98742,-5.39278 2.5461,-4.40996 9.86693,-4.94985 16.35145,-1.206" style="fill:#000000;fill-opacity:1;fill-rule:nonzero;stroke:none;stroke-width:0.0120966" id="SvgjsPath1794"></path>
              <path d="m -107.40603,-540.04981 c 0,0 -0.3807,2.57016 1.0449,3.08398 1.42591,0.514 5.63043,-5.10225 5.63043,-5.10225" style="fill:#edcd9d;fill-opacity:1;fill-rule:nonzero;stroke:#000000;stroke-width:0.364713;stroke-linecap:round;stroke-linejoin:miter;stroke-miterlimit:10;stroke-dasharray:none;stroke-opacity:1" id="SvgjsPath1793"></path>
              <path d="m -104.10326,-541.38003 c -1.13747,-0.657 -2.13706,-1.78626 -2.97067,-3.35663 -0.0168,-0.0316 -0.0238,-0.0677 -0.0204,-0.10311 l 1.85754,-18.99519 c 0.005,-0.0519 0.032,-0.099 0.0741,-0.12985 0.0421,-0.0306 0.0953,-0.0417 0.14605,-0.0306 1.14578,0.24946 2.28998,0.70124 3.40127,1.34285 2.254426,1.30159 4.197403,3.29288 5.470746,5.6074 1.408905,2.56069 1.932318,5.36874 1.513451,8.12066 -0.529024,3.47569 -2.462738,6.48652 -4.926454,7.67037 -1.544913,0.74258 -3.116673,0.69918 -4.544863,-0.12539" style="fill:#b46945;fill-opacity:1;fill-rule:nonzero;stroke:none;stroke-width:0.0120966" id="SvgjsPath1792"></path>
              <path d="m -101.52421,-562.81063 c -1.12742,-0.65092 -2.28948,-1.10952 -3.4536,-1.36301 -0.10165,-0.0221 -0.20812,2.5e-4 -0.29223,0.0615 -0.0842,0.0613 -0.13805,0.15565 -0.14818,0.25932 l -1.85743,18.99524 c -0.007,0.0713 0.007,0.14313 0.0408,0.20639 0.85007,1.60138 1.87302,2.75503 3.04046,3.42905 1.46213,0.84416 3.13719,0.89105 4.716595,0.1318 2.51603,-1.20939 4.489158,-4.27372 5.026825,-7.80672 0.424896,-2.79188 -0.105496,-5.63986 -1.533838,-8.23607 -1.28924,-2.34312 -3.256458,-4.35943 -5.539382,-5.67748 m -0.18236,0.31585 c 4.33098,2.50049 7.776539,7.75173 6.895065,13.54278 -0.864631,5.68107 -5.370805,9.62524 -9.200615,7.4141 -1.04675,-0.60435 -2.04352,-1.66955 -2.90071,-3.28426 l 1.85744,-18.99525 c 1.13592,0.24741 2.26969,0.69959 3.34882,1.32263" style="fill:#000000;fill-opacity:1;fill-rule:nonzero;stroke:none;stroke-width:0.0120966" id="SvgjsPath1791"></path>
              <path d="m -107.65678,-543.11989 c -1.14639,-0.66187 -2.89274,-2.40219 -1.70752,-6.6201 2.09202,-7.44407 1.28282,-12.65185 -2.40527,-15.47859 -0.0535,-0.0409 -0.08,-0.10794 -0.0689,-0.17431 0.011,-0.0664 0.0575,-0.12141 0.12126,-0.14301 1.37571,-0.4662 4.84722,-0.84541 8.14014,1.05575 1.81841,1.04987 3.34053,2.64899 4.524126,4.75316 2.477572,4.40449 0.836838,9.83596 -1.320896,13.14892 -1.6912,2.59659 -3.81635,4.17482 -5.41388,4.02072 -0.6007,-0.0207 -1.28593,-0.22589 -1.86881,-0.56242" style="fill:#b46945;fill-opacity:1;fill-rule:nonzero;stroke:none;stroke-width:0.0120966" id="SvgjsPath1790"></path>
              <path d="m -103.48591,-564.63812 c -3.34958,-1.93389 -6.88726,-1.54581 -8.28991,-1.07044 -0.12746,0.0432 -0.22072,0.15319 -0.24262,0.28595 -0.022,0.13287 0.0311,0.26699 0.13791,0.34879 3.62308,2.77678 4.41062,7.91925 2.34072,15.2846 -1.21868,4.33659 0.59955,6.13895 1.79182,6.82731 0.60457,0.34904 1.31606,0.56273 1.95394,0.58699 1.68824,0.1552 3.82228,-1.41594 5.57277,-4.10359 1.264067,-1.94073 2.136423,-4.20846 2.456404,-6.38556 0.377012,-2.56475 -0.01354,-4.96882 -1.129206,-6.95234 -1.199808,-2.13294 -2.744698,-3.75528 -4.591828,-4.82171 m -0.18235,0.31585 c 1.59591,0.9214 3.1675,2.39321 4.456374,4.68471 3.985196,7.08474 -2.713974,17.26958 -6.558364,16.89868 -0.49091,-0.0171 -1.15719,-0.17042 -1.79538,-0.53889 -1.4064,-0.81198 -2.67524,-2.66883 -1.62312,-6.41282 1.52962,-5.44297 2.18254,-12.10684 -2.46993,-15.67265 1.20521,-0.40848 4.65194,-0.88651 7.99042,1.04097" style="fill:#000000;fill-opacity:1;fill-rule:nonzero;stroke:none;stroke-width:0.0120966" id="SvgjsPath1789"></path>
              <path d="m -113.84955,-545.32546 c -0.93696,-0.54123 -2.98811,-2.26169 -1.80064,-6.53865 1.58002,-5.69042 1.15124,-10.20422 -1.09229,-11.49952 -0.47488,-0.27417 -1.03686,-0.41537 -1.67024,-0.41984 -0.0322,-1.5e-4 -0.063,-0.009 -0.0899,-0.0244 -0.0333,-0.0192 -0.0604,-0.049 -0.0763,-0.0858 -0.0287,-0.0664 -0.0152,-0.14372 0.0341,-0.19653 0.28483,-0.30487 1.47678,-1.12175 3.16438,-1.56278 1.47657,-0.3859 3.72178,-0.5659 6.03194,0.76787 1.06426,0.61445 2.06031,1.5038 2.96024,2.64285 1.87458,2.61081 2.45297,5.70467 1.67762,8.95379 -0.95027,3.98298 -3.7181,7.35226 -5.26775,8.15845 -1.11146,0.57826 -2.66702,0.4998 -3.87081,-0.19521" style="fill:#b46945;fill-opacity:1;fill-rule:nonzero;stroke:none;stroke-width:0.0120966" id="SvgjsPath1788"></path>
              <path d="m -109.25738,-565.04302 c -2.3637,-1.36468 -4.65949,-1.18078 -6.1693,-0.78642 -1.72559,0.45095 -2.95532,1.2977 -3.2514,1.61479 -0.0987,0.10588 -0.12557,0.26008 -0.0684,0.39299 0.0317,0.0738 0.086,0.13317 0.15271,0.1717 0.0535,0.0309 0.11524,0.0484 0.17976,0.0489 0.60131,0.004 1.13295,0.13715 1.58027,0.39541 2.16926,1.25243 2.56487,5.68505 1.00775,11.29274 -1.22175,4.4002 0.91139,6.18309 1.88524,6.74534 1.25586,0.72507 2.882,0.80517 4.04654,0.19931 1.57997,-0.82193 4.39815,-4.24287 5.36106,-8.27821 0.36649,-1.53621 0.43977,-3.04239 0.21764,-4.4765 -0.25486,-1.64549 -0.90069,-3.19949 -1.91956,-4.61883 -0.003,-0.005 -0.007,-0.009 -0.01,-0.0133 -0.91443,-1.15749 -1.92785,-2.06175 -3.01232,-2.68787 m -0.18236,0.31585 c 0.97971,0.56563 1.96426,1.40281 2.90857,2.59807 5.18369,7.22064 -1.20255,15.62574 -3.53131,16.83737 -1.01501,0.52807 -2.49134,0.50373 -3.69587,-0.1917 -1.55913,-0.90017 -2.66206,-2.92536 -1.7162,-6.33193 1.41147,-5.08348 1.43603,-10.19764 -1.17678,-11.70615 -0.4908,-0.28336 -1.07486,-0.43954 -1.7602,-0.44426 0.51234,-0.5487 4.70252,-3.22627 8.97179,-0.7614" style="fill:#000000;fill-opacity:1;fill-rule:nonzero;stroke:none;stroke-width:0.0120966" id="SvgjsPath1787"></path>
              <path d="m -118.40596,-547.40381 c -1.90403,-1.09971 -1.4755,-3.83111 -1.05067,-5.36144 0.71751,-2.58453 0.36022,-4.31122 -1.0622,-5.13246 -0.9618,-0.55529 -2.18401,-0.56422 -3.06836,-0.46593 -0.027,0.0316 -0.0609,0.0581 -0.10656,0.0706 -0.047,0.013 -0.10236,0.006 -0.14468,-0.0184 -0.1255,-0.0725 -0.0972,-0.21746 -0.0867,-0.27217 0.12221,-0.62756 1.88762,-4.92087 6.06363,-5.5071 1.47364,-0.20712 2.83079,0.0403 4.03406,0.73505 2.28837,1.32119 3.71003,4.19946 3.53741,7.16186 -0.24327,4.17761 -3.72054,8.32108 -5.51063,8.97713 -0.67472,0.24711 -1.71323,0.32791 -2.60494,-0.18692" style="fill:#b46945;fill-opacity:1;fill-rule:nonzero;stroke:none;stroke-width:0.0120966" id="SvgjsPath1786"></path>
              <path d="m -113.73638,-563.51373 c -1.2392,-0.71546 -2.63562,-0.97037 -4.15046,-0.75769 -2.26422,0.31792 -3.78826,1.69329 -4.66811,2.7912 -0.98051,1.22361 -1.47433,2.47764 -1.5492,2.86183 -0.0553,0.28489 0.0857,0.41361 0.17462,0.46496 0.0843,0.0487 0.19002,0.0621 0.28407,0.0363 0.056,-0.0154 0.1019,-0.0417 0.13916,-0.0719 1.47864,-0.1541 2.38876,0.15611 2.89642,0.44921 1.34114,0.77431 1.67018,2.43162 0.9776,4.92578 -0.40357,1.45335 -0.48356,2.68398 -0.23796,3.65743 0.21608,0.85597 0.69084,1.51671 1.37324,1.9107 0.9463,0.54634 2.04568,0.46172 2.75897,0.20029 1.82971,-0.67048 5.38264,-4.88983 5.63007,-9.13753 0.17643,-3.02975 -1.28159,-5.97568 -3.62842,-7.33062 m -0.18235,0.31585 c 2.31854,1.33861 3.60953,4.19885 3.44671,6.99357 -0.23949,4.11176 -3.69097,8.19316 -5.39151,8.81627 -0.71063,0.26046 -1.67432,0.2748 -2.45111,-0.17368 -1.08207,-0.62473 -1.80112,-2.14796 -0.96635,-5.15478 0.83618,-3.01118 0.13054,-4.60167 -1.14659,-5.33902 -0.91382,-0.52759 -2.12029,-0.61822 -3.26373,-0.47956 -0.0282,0.0503 -0.0469,0.071 -0.0559,0.0658 -0.12015,-0.0694 1.53955,-4.82725 5.91096,-5.44104 1.50434,-0.21119 2.82505,0.0817 3.91749,0.71244" style="fill:#000000;fill-opacity:1;fill-rule:nonzero;stroke:none;stroke-width:0.0120966" id="SvgjsPath1785"></path>
              <path d="m -123.09789,-548.30315 c 0,0 -0.45975,3.19289 0.98757,3.96593 1.44733,0.77304 3.18683,-1.27941 3.18683,-1.27941" style="fill:#edcd9d;fill-opacity:1;fill-rule:nonzero;stroke:#000000;stroke-width:0.364713;stroke-linecap:round;stroke-linejoin:miter;stroke-miterlimit:10;stroke-dasharray:none;stroke-opacity:1" id="SvgjsPath1784"></path>
              <path d="m -121.39924,-557.41456 c 1.27177,-3.72767 -0.80569,-7.7193 -1.88687,-6.79573 -1.08109,0.92363 -0.80372,5.50323 -0.27511,6.40165" style="fill:#edcd9d;fill-opacity:1;fill-rule:nonzero;stroke:#000000;stroke-width:0.364713;stroke-linecap:round;stroke-linejoin:miter;stroke-miterlimit:10;stroke-dasharray:none;stroke-opacity:1" id="SvgjsPath1783"></path>
              <path d="m -122.12404,-560.82483 c 0.10488,1.32969 -0.0812,2.39472 -0.33646,2.41636 -0.25525,0.0216 -0.77181,-0.99105 -0.87675,-2.32063 -0.10489,-1.32969 0.0817,-2.42905 0.41673,-2.4555 0.335,-0.0264 0.6916,1.03009 0.79648,2.35977" style="fill:#e89595;fill-opacity:1;fill-rule:nonzero;stroke:none;stroke-width:0.0120966" id="SvgjsPath1782"></path>
              <path d="m -127.98993,-548.11775 c -1.49545,-0.8634 -2.65278,-2.02452 -3.09589,-3.10613 -0.73356,-1.81963 0.28813,-2.44538 0.72437,-2.71229 0.0534,-0.0329 0.0994,-0.0609 0.12619,-0.0816 0.61875,-0.47679 1.01165,-1.16988 1.11732,-1.37105 1.37135,-2.60945 3.31205,-4.38957 5.46461,-5.01221 1.61813,-0.4683 3.28401,-0.2475 4.81811,0.63821 0.3918,0.22621 0.77964,0.49846 1.1523,0.80887 1.74688,1.4561 2.45695,3.7766 1.89898,6.20768 -0.64182,2.79599 -2.76563,5.02729 -5.41095,5.68474 -2.08232,0.61738 -4.56198,0.23306 -6.79483,-1.05607" style="fill:#edcd9d;fill-opacity:1;fill-rule:nonzero;stroke:none;stroke-width:0.0120966" id="SvgjsPath1781"></path>
              <path d="m -118.74402,-559.92083 c -1.5781,-0.91111 -3.29326,-1.13774 -4.95998,-0.65545 -2.2006,0.63667 -4.18068,2.44895 -5.5754,5.10273 -0.0722,0.13722 -0.46246,0.84527 -1.06717,1.31131 -0.0192,0.0148 -0.0653,0.043 -0.11007,0.0704 -0.43475,0.26624 -1.58971,0.97331 -0.79877,2.93501 0.45871,1.11967 1.64499,2.31412 3.17437,3.19711 2.2735,1.31261 4.8018,1.70364 6.93802,1.07324 2.70758,-0.67626 4.88042,-2.95958 5.53667,-5.81903 0.5736,-2.4993 -0.15911,-4.88748 -1.95989,-6.38838 -0.3807,-0.3173 -0.77696,-0.59553 -1.17778,-0.82694 m -0.18235,0.31585 c 0.37975,0.21926 0.75622,0.48242 1.12665,0.79113 3.96166,3.30177 1.71579,10.29426 -3.43919,11.57547 -2.29027,0.67876 -4.76316,0.058 -6.65983,-1.03708 -1.47051,-0.849 -2.59472,-1.98331 -3.01844,-3.01769 -0.76881,-1.90688 0.50759,-2.36003 0.7933,-2.58031 0.61262,-0.47222 1.0229,-1.15598 1.16721,-1.43038 2.33131,-4.43592 6.34841,-6.42688 10.0303,-4.30114" style="fill:#000000;fill-opacity:1;fill-rule:nonzero;stroke:none;stroke-width:0.0120966" id="SvgjsPath1780"></path>
              <path d="m -128.76573,-550.78406 c -0.29408,0.2413 -0.88399,0.008 -1.31765,-0.52007 -0.43365,-0.52847 -0.54669,-1.15259 -0.25251,-1.39383 0.29414,-0.24139 0.88406,-0.009 1.31771,0.51997 0.43349,0.52852 0.54652,1.15264 0.25245,1.39393" style="fill:#e89595;fill-opacity:1;fill-rule:nonzero;stroke:none;stroke-width:0.0120966" id="SvgjsPath1779"></path>
              <path d="m -122.96648,-553.53608 c -0.19046,0.32988 -0.61233,0.44292 -0.94222,0.25246 -0.32988,-0.19046 -0.44292,-0.61233 -0.25246,-0.94221 0.19046,-0.32989 0.61232,-0.44293 0.94221,-0.25247 0.32989,0.19046 0.44293,0.61233 0.25247,0.94222" style="fill:#000000;fill-opacity:1;fill-rule:nonzero;stroke:none;stroke-width:0.0120966" id="SvgjsPath1778"></path>
              <path d="m -126.68625,-556.84094 c -0.19046,0.32989 -0.61233,0.44292 -0.94222,0.25246 -0.32989,-0.19046 -0.44282,-0.61226 -0.25236,-0.94215 0.19046,-0.32989 0.61222,-0.44299 0.94211,-0.25253 0.32989,0.19046 0.44293,0.61233 0.25247,0.94222" style="fill:#000000;fill-opacity:1;fill-rule:nonzero;stroke:none;stroke-width:0.0120966" id="SvgjsPath1777"></path>
              <path d="m -118.56157,-557.06268 c 3.18026,1.03129 0.55226,-0.66017 1.70117,-0.72388 -0.24795,-0.39723 -2.52807,-3.06115 -5.73984,-2.63855 -1.71284,0.46152 -3.62505,3.38671 -2.24546,3.82829 1.37942,0.44162 2.73461,-2.27773 6.28413,-0.46586" style="fill:#b46945;fill-opacity:1;fill-rule:nonzero;stroke:none;stroke-width:0.0120966" id="SvgjsPath1776"></path>
              <path d="m -119.57067,-556.6801 c 2.60669,-2.95276 7.10299,-3.12793 6.83711,-1.73113 -0.26595,1.3969 -4.38039,3.42678 -5.42288,3.41309" style="fill:#edcd9d;fill-opacity:1;fill-rule:nonzero;stroke:#000000;stroke-width:0.364713;stroke-linecap:round;stroke-linejoin:miter;stroke-miterlimit:10;stroke-dasharray:none;stroke-opacity:1" id="SvgjsPath1775"></path>
              <path d="m -116.48353,-556.49903 c -1.173,0.63478 -2.22214,0.89633 -2.34545,0.67177 -0.12315,-0.22461 0.59318,-1.10726 1.76635,-1.74209 1.173,-0.63477 2.25362,-0.90971 2.41348,-0.61419 0.15996,0.29559 -0.66138,1.04973 -1.83438,1.68451" style="fill:#e89595;fill-opacity:1;fill-rule:nonzero;stroke:none;stroke-width:0.0120966" id="SvgjsPath1774"></path>
              <g aria-label="Design by ms_potato" id="SvgjsG1773" style="font-weight:bold;font-size:2.11667px;font-family:Georgia;-inkscape-font-specification:'Georgia Bold';fill:#ffaf8c;stroke-width:0.315912;stroke-linecap:round;stroke-linejoin:round">
                <path d="m -121.88544,-572.16555 q 0.21802,0 0.34925,0.0656 0.13123,0.0656 0.20108,0.17357 0.0699,0.10795 0.091,0.24553 0.0233,0.13759 0.0233,0.2794 0,0.15452 -0.0402,0.29211 -0.0381,0.13758 -0.12065,0.2413 -0.0804,0.1016 -0.20744,0.16298 -0.127,0.0593 -0.30268,0.0593 -0.1397,0 -0.22437,-0.0212 -0.0826,-0.019 -0.12911,-0.0593 -0.0444,-0.0402 -0.0593,-0.1016 -0.0148,-0.0614 -0.0148,-0.14393 v -0.79587 q 0,-0.091 0.0148,-0.1651 0.0169,-0.0741 0.0635,-0.12488 0.0466,-0.0529 0.13123,-0.0804 0.0868,-0.0275 0.22437,-0.0275 z m 0.008,1.3081 q 0.13123,0 0.2159,-0.0466 0.0868,-0.0487 0.13758,-0.127 0.0508,-0.0783 0.0699,-0.1778 0.0212,-0.0995 0.0212,-0.2032 0,-0.0952 -0.0148,-0.1905 -0.0148,-0.0974 -0.0614,-0.17568 -0.0466,-0.0783 -0.13335,-0.127 -0.0868,-0.0487 -0.23072,-0.0487 -0.13123,0 -0.18203,0.0381 -0.0508,0.0381 -0.0508,0.11642 v 0.81069 q 0,0.0656 0.0466,0.0995 0.0487,0.0317 0.18204,0.0317 z" style="font-family:Sniglet;-inkscape-font-specification:'Sniglet Bold';fill:#000000" id="SvgjsPath1772"></path>
                <path d="m -120.51807,-571.05853 q -0.0741,0 -0.15664,-0.0106 -0.0804,-0.0127 -0.17568,-0.0508 0.0191,0.12912 0.10583,0.19474 0.0889,0.0656 0.254,0.0656 0.0593,0 0.10584,-0.006 0.0487,-0.008 0.0847,-0.0169 0.036,-0.0106 0.0635,-0.0169 0.0275,-0.008 0.0508,-0.008 0.0296,0 0.0572,0.019 0.0275,0.0169 0.0275,0.0593 0,0.0529 -0.0444,0.0868 -0.0423,0.0339 -0.10583,0.055 -0.0614,0.019 -0.13124,0.0254 -0.0699,0.008 -0.12276,0.008 -0.12489,0 -0.23072,-0.0339 -0.10372,-0.0339 -0.17992,-0.1016 -0.0762,-0.0698 -0.11853,-0.17145 -0.0423,-0.1016 -0.0423,-0.23706 0,-0.13124 0.0402,-0.23284 0.0423,-0.1016 0.1143,-0.17145 0.072,-0.0698 0.16934,-0.10583 0.0995,-0.036 0.21378,-0.036 0.0889,0 0.17145,0.0233 0.0847,0.0233 0.14817,0.0698 0.0656,0.0466 0.10371,0.11853 0.0402,0.0699 0.0402,0.1651 0,0.0847 -0.0318,0.14394 -0.0318,0.0593 -0.091,0.0952 -0.0572,0.036 -0.1397,0.0529 -0.0804,0.0169 -0.17991,0.0169 z m -0.0148,-0.49107 q -0.0572,0 -0.11007,0.0148 -0.0529,0.0127 -0.0974,0.0445 -0.0423,0.0296 -0.072,0.0804 -0.0296,0.0487 -0.0402,0.12277 0.0804,0.036 0.15664,0.0508 0.0762,0.0127 0.16086,0.0127 0.12489,0 0.18415,-0.0296 0.0614,-0.0317 0.0614,-0.11218 0,-0.0741 -0.0572,-0.12912 -0.055,-0.055 -0.18627,-0.055 z" style="font-family:Sniglet;-inkscape-font-specification:'Sniglet Bold';fill:#000000" id="SvgjsPath1771"></path>
                <path d="m -119.50207,-571.77397 q 0.0444,0 0.11218,0.008 0.0677,0.006 0.12912,0.0275 0.0614,0.019 0.10583,0.055 0.0444,0.036 0.0444,0.091 0,0.0317 -0.0191,0.055 -0.0169,0.0233 -0.055,0.0233 -0.0275,0 -0.0635,-0.008 -0.0339,-0.008 -0.0762,-0.019 -0.0402,-0.0127 -0.0889,-0.0212 -0.0466,-0.008 -0.0995,-0.008 -0.0889,0 -0.14605,0.0275 -0.055,0.0275 -0.055,0.0868 0,0.0339 0.0191,0.0571 0.0212,0.0233 0.055,0.0423 0.036,0.0169 0.0825,0.0296 0.0487,0.0127 0.1016,0.0254 0.0656,0.0169 0.12911,0.0381 0.0656,0.0212 0.11642,0.0593 0.0508,0.036 0.0825,0.0931 0.0318,0.055 0.0318,0.13758 0,0.15664 -0.11853,0.24977 -0.11854,0.091 -0.34925,0.091 -0.0508,0 -0.12066,-0.008 -0.0699,-0.006 -0.13123,-0.0275 -0.0614,-0.019 -0.10583,-0.055 -0.0423,-0.0381 -0.0423,-0.0995 0,-0.0423 0.019,-0.0635 0.0212,-0.0233 0.0508,-0.0233 0.0233,0 0.0487,0.0148 0.0254,0.0148 0.0614,0.0317 0.036,0.0169 0.0868,0.0317 0.0508,0.0148 0.12489,0.0148 0.0275,0 0.072,-0.002 0.0444,-0.004 0.0868,-0.019 0.0444,-0.0148 0.0741,-0.0402 0.0318,-0.0275 0.0318,-0.0762 0,-0.0381 -0.0212,-0.0635 -0.0212,-0.0275 -0.0571,-0.0466 -0.036,-0.019 -0.0847,-0.0317 -0.0466,-0.0148 -0.0995,-0.0296 -0.0614,-0.0169 -0.12489,-0.0381 -0.0614,-0.0212 -0.11218,-0.055 -0.0508,-0.0339 -0.0825,-0.0847 -0.0318,-0.0529 -0.0318,-0.12912 0,-0.072 0.0296,-0.13335 0.0296,-0.0635 0.0847,-0.11006 0.055,-0.0466 0.13123,-0.072 0.0783,-0.0254 0.17357,-0.0254 z" style="font-family:Sniglet;-inkscape-font-specification:'Sniglet Bold';fill:#000000" id="SvgjsPath1770"></path>
                <path d="m -118.88612,-570.8003 q -0.004,-0.0783 -0.008,-0.1778 -0.002,-0.1016 -0.002,-0.22225 0,-0.15029 0.002,-0.25612 0.002,-0.10795 0.0106,-0.17568 0.0106,-0.0698 0.0318,-0.1016 0.0212,-0.0339 0.0593,-0.0339 0.036,0 0.0635,0.0254 0.0275,0.0254 0.0318,0.11007 0.0127,0.22225 0.0127,0.42968 0,0.10584 -0.004,0.19897 -0.004,0.091 -0.008,0.20108 -0.002,0.0508 -0.0106,0.0783 -0.006,0.0275 -0.019,0.0423 -0.0127,0.0148 -0.0296,0.0169 -0.0148,0.004 -0.036,0.004 -0.0381,0 -0.0635,-0.0254 -0.0254,-0.0275 -0.0296,-0.1143 z m 0.0953,-1.35044 q 0.0487,0 0.0889,0.0381 0.0423,0.0381 0.0423,0.091 0,0.0508 -0.0423,0.0889 -0.0423,0.036 -0.0952,0.036 -0.0444,0 -0.0847,-0.036 -0.0381,-0.0381 -0.0381,-0.0931 0,-0.0508 0.0381,-0.0868 0.0402,-0.0381 0.091,-0.0381 z" style="font-family:Sniglet;-inkscape-font-specification:'Sniglet Bold';fill:#000000" id="SvgjsPath1769"></path>
                <path d="m -118.00559,-570.37908 q 0.0995,0 0.16722,-0.0402 0.0699,-0.0381 0.11218,-0.11218 0.0423,-0.072 0.0593,-0.17357 0.0191,-0.10372 0.0191,-0.23283 -0.0191,0.0677 -0.055,0.1143 -0.036,0.0466 -0.0847,0.0762 -0.0466,0.0275 -0.10583,0.0402 -0.0593,0.0127 -0.12277,0.0127 -0.0974,0 -0.18415,-0.0275 -0.0868,-0.0275 -0.1524,-0.0868 -0.0635,-0.0593 -0.1016,-0.15028 -0.0381,-0.0931 -0.0381,-0.22225 0,-0.12489 0.036,-0.2286 0.0381,-0.10584 0.10795,-0.18204 0.072,-0.0762 0.17357,-0.11853 0.1016,-0.0423 0.23283,-0.0423 0.0698,0 0.12277,0.0127 0.055,0.0127 0.0974,0.0339 0.0423,0.0212 0.0741,0.0508 0.0339,0.0296 0.0614,0.0635 0.0804,0.1016 0.11642,0.2413 0.036,0.13759 0.036,0.33232 0,0.14394 -0.0254,0.29422 -0.0233,0.15028 -0.0868,0.27093 -0.0635,0.12277 -0.17568,0.19897 -0.11219,0.0783 -0.28787,0.0783 -0.0317,0 -0.072,-0.004 -0.0381,-0.002 -0.0804,-0.008 -0.0402,-0.006 -0.0804,-0.019 -0.0402,-0.0106 -0.0741,-0.0296 -0.0423,-0.0233 -0.0677,-0.0444 -0.0254,-0.0212 -0.0254,-0.0699 0,-0.0402 0.0169,-0.0741 0.019,-0.0317 0.0635,-0.0317 0.0212,0 0.0466,0.0127 0.0254,0.0127 0.0614,0.0254 0.0381,0.0148 0.0889,0.0275 0.0529,0.0127 0.127,0.0127 z m 0.0106,-0.508 q 0.0825,0 0.1397,-0.0296 0.0593,-0.0317 0.0952,-0.0825 0.0381,-0.0508 0.055,-0.1143 0.0191,-0.0635 0.0191,-0.127 0,-0.0529 -0.0148,-0.10583 -0.0127,-0.055 -0.0444,-0.0995 -0.0318,-0.0444 -0.0868,-0.072 -0.055,-0.0275 -0.13758,-0.0275 -0.1397,0 -0.22649,0.0847 -0.0847,0.0847 -0.0847,0.24977 0,0.15451 0.0762,0.23918 0.0762,0.0847 0.20956,0.0847 z" style="font-family:Sniglet;-inkscape-font-specification:'Sniglet Bold';fill:#000000" id="SvgjsPath1768"></path>
                <path d="m -116.74406,-571.57077 q -0.0783,0 -0.14181,0.0254 -0.0614,0.0254 -0.1397,0.0762 0,0.0444 0,0.13123 0,0.0847 -0.002,0.18627 -0.002,0.0995 -0.004,0.19685 -0.002,0.0974 -0.008,0.16299 -0.004,0.0423 -0.0106,0.0677 -0.004,0.0233 -0.0148,0.036 -0.008,0.0127 -0.0254,0.0169 -0.0148,0.002 -0.0402,0.002 -0.0254,0 -0.0423,-0.002 -0.0148,-0.004 -0.0254,-0.0148 -0.0106,-0.0127 -0.0169,-0.036 -0.006,-0.0233 -0.0106,-0.0635 -0.004,-0.0381 -0.008,-0.1016 -0.002,-0.0635 -0.004,-0.13759 -0.002,-0.0762 -0.004,-0.1524 0,-0.0783 0,-0.14393 0,-0.10795 0.002,-0.17569 0.004,-0.0677 0.0127,-0.12065 0.0127,-0.0889 0.0339,-0.11218 0.0212,-0.0233 0.0571,-0.0233 0.0529,0 0.0783,0.0296 0.0275,0.0296 0.0339,0.0974 0.0783,-0.0677 0.16721,-0.10795 0.091,-0.0402 0.18627,-0.0402 0.091,0 0.1651,0.0423 0.0762,0.0423 0.12489,0.13759 0.0296,0.0572 0.0444,0.127 0.0148,0.0677 0.0212,0.14393 0.002,0.0339 0.004,0.0677 0.002,0.0317 0.002,0.0698 0.002,0.036 0.002,0.0825 0,0.0466 0,0.11006 0,0.0677 -0.002,0.127 -0.002,0.0593 -0.0127,0.10372 -0.008,0.0423 -0.0318,0.0677 -0.0233,0.0233 -0.0635,0.0233 -0.0974,0 -0.1016,-0.0931 0,-0.006 0,-0.0529 0,-0.0487 -0.002,-0.11219 0,-0.0635 -0.002,-0.12911 0,-0.0656 -0.002,-0.10795 -0.002,-0.0339 -0.006,-0.072 -0.002,-0.0402 -0.008,-0.0804 -0.004,-0.0402 -0.0127,-0.0762 -0.008,-0.0381 -0.0212,-0.0677 -0.0296,-0.0699 -0.0741,-0.0889 -0.0444,-0.019 -0.0953,-0.019 z" style="font-family:Sniglet;-inkscape-font-specification:'Sniglet Bold';fill:#000000" id="SvgjsPath1767"></path>
                <path d="m -115.38727,-572.05337 q 0,0.127 -0.008,0.2667 -0.006,0.13758 -0.0169,0.26882 0.0275,-0.0572 0.072,-0.0974 0.0444,-0.0423 0.0974,-0.0677 0.055,-0.0254 0.1143,-0.0381 0.0593,-0.0127 0.1143,-0.0127 0.0953,0 0.1778,0.036 0.0847,0.0339 0.14605,0.1016 0.0635,0.0656 0.0974,0.1651 0.036,0.0974 0.036,0.22437 0,0.12277 -0.036,0.22437 -0.036,0.1016 -0.10795,0.17568 -0.0699,0.072 -0.17569,0.11218 -0.10371,0.0402 -0.23918,0.0402 -0.18415,0 -0.28998,-0.0741 -0.10372,-0.0741 -0.15452,-0.19685 -0.0508,-0.12489 -0.0635,-0.28575 -0.0106,-0.16087 -0.0106,-0.33656 0,-0.1778 0.006,-0.32173 0.006,-0.14393 0.019,-0.23283 0.0127,-0.0804 0.0423,-0.1143 0.0296,-0.0339 0.0783,-0.0339 0.036,0 0.0572,0.0169 0.0212,0.0148 0.0296,0.0423 0.0106,0.0275 0.0127,0.0635 0.002,0.0339 0.002,0.0741 z m 0.31326,0.52917 q -0.0614,0 -0.11853,0.0212 -0.055,0.0191 -0.0995,0.0614 -0.0423,0.0423 -0.0677,0.10795 -0.0254,0.0635 -0.0254,0.15452 0,0.16086 0.0783,0.24553 0.0804,0.0825 0.21378,0.0825 0.055,0 0.11219,-0.0148 0.0571,-0.0169 0.10371,-0.055 0.0466,-0.0402 0.0762,-0.10583 0.0296,-0.0656 0.0296,-0.16299 0,-0.0868 -0.0254,-0.15028 -0.0233,-0.0635 -0.0656,-0.10372 -0.0423,-0.0423 -0.0974,-0.0614 -0.055,-0.019 -0.1143,-0.019 z" style="font-family:Sniglet;-inkscape-font-specification:'Sniglet Bold';fill:#000000" id="SvgjsPath1766"></path>
                <path d="m -114.13209,-570.28172 q -0.0275,0.0487 -0.0529,0.072 -0.0233,0.0233 -0.055,0.0233 -0.0296,0 -0.0593,-0.019 -0.0296,-0.019 -0.0296,-0.0529 0,-0.0317 0.0212,-0.091 0.0233,-0.0593 0.055,-0.12912 0.0339,-0.0698 0.0699,-0.14393 0.036,-0.0741 0.0656,-0.13547 l 0.0148,-0.0317 q -0.0635,-0.12488 -0.13123,-0.2667 -0.0656,-0.14181 -0.12065,-0.26882 -0.055,-0.127 -0.091,-0.22013 -0.0339,-0.0952 -0.0339,-0.12488 0,-0.0275 0.0212,-0.0466 0.0233,-0.0212 0.0572,-0.0212 0.0296,0 0.0571,0.0127 0.0275,0.0106 0.0508,0.0508 0.0339,0.0635 0.0698,0.14605 0.0381,0.0804 0.0741,0.16934 0.0381,0.0889 0.0762,0.17992 0.0402,0.091 0.0804,0.17568 0.0466,-0.0868 0.0995,-0.18203 0.0529,-0.0953 0.1016,-0.18416 0.0508,-0.0889 0.0931,-0.16298 0.0423,-0.0762 0.072,-0.127 0.0296,-0.0487 0.0593,-0.0698 0.0296,-0.0212 0.0614,-0.0212 0.0212,0 0.0423,0.019 0.0212,0.0169 0.0212,0.0466 0,0.0444 -0.0402,0.14393 -0.0381,0.0974 -0.0995,0.22649 -0.0614,0.12912 -0.1397,0.27728 -0.0762,0.14605 -0.1524,0.28787 -0.0762,0.1397 -0.14605,0.26247 -0.0677,0.12276 -0.11218,0.20531 z" style="font-family:Sniglet;-inkscape-font-specification:'Sniglet Bold';fill:#000000" id="SvgjsPath1765"></path>
                <path d="m -111.41429,-570.73257 q -0.0127,-0.036 -0.0169,-0.0804 -0.002,-0.0444 -0.002,-0.11007 0,-0.0466 0,-0.072 0.002,-0.0275 0.002,-0.0466 0,-0.0212 0,-0.0402 0.002,-0.0212 0.002,-0.0571 0,-0.0741 -0.004,-0.14816 -0.002,-0.0762 -0.0212,-0.13547 -0.0191,-0.0614 -0.0593,-0.0995 -0.0402,-0.0381 -0.11642,-0.0381 -0.12912,0 -0.20108,0.12277 -0.072,0.12277 -0.0868,0.39159 -0.004,0.0847 -0.004,0.15451 0,0.0698 -0.008,0.12065 -0.008,0.0487 -0.0317,0.0762 -0.0212,0.0275 -0.072,0.0275 -0.0466,0 -0.0677,-0.0233 -0.0212,-0.0254 -0.0318,-0.0741 -0.008,-0.0487 -0.0106,-0.11853 0,-0.0699 -0.006,-0.16298 -0.006,-0.1016 -0.0212,-0.19474 -0.0127,-0.0931 -0.0444,-0.16298 -0.0296,-0.072 -0.0825,-0.1143 -0.0508,-0.0423 -0.13123,-0.0423 -0.0762,0 -0.11853,0.0381 -0.0402,0.036 -0.0593,0.0974 -0.019,0.0593 -0.0233,0.13547 -0.002,0.0741 -0.002,0.15028 0,0.0381 0,0.0571 0.002,0.0169 0.002,0.0317 0,0.0148 0,0.0381 0.002,0.0233 0.002,0.072 0,0.0699 -0.004,0.12065 -0.002,0.0508 -0.0148,0.0868 -0.0148,0.0423 -0.0402,0.0529 -0.0254,0.008 -0.0466,0.008 -0.0656,0 -0.0847,-0.0466 -0.019,-0.0466 -0.0212,-0.13547 0,-0.0487 -0.002,-0.10795 0,-0.0614 0,-0.14816 0,-0.0423 0,-0.0741 0,-0.0317 0,-0.0614 0.002,-0.0296 0.002,-0.0593 0.002,-0.0317 0.004,-0.072 0.006,-0.12911 0.0466,-0.20531 0.0402,-0.0783 0.0953,-0.11854 0.055,-0.0402 0.11853,-0.0508 0.0635,-0.0127 0.11642,-0.0127 0.1143,0 0.19261,0.0339 0.0783,0.0339 0.127,0.0889 0.0508,0.055 0.0741,0.12488 0.0254,0.0699 0.0339,0.14182 0.008,-0.0698 0.0339,-0.13758 0.0275,-0.0699 0.0783,-0.12277 0.0529,-0.055 0.13546,-0.0889 0.0825,-0.0339 0.20321,-0.0339 0.0572,0 0.11641,0.0127 0.0614,0.0106 0.11219,0.0508 0.0508,0.0402 0.0847,0.11642 0.036,0.0741 0.0423,0.20108 0.002,0.0402 0.002,0.072 0.002,0.0296 0.002,0.0593 0.002,0.0296 0.002,0.0614 0,0.0317 0,0.0741 0,0.0868 -0.002,0.14816 0,0.0593 0,0.10795 0,0.0402 -0.004,0.0741 -0.002,0.0339 -0.0127,0.0571 -0.0106,0.0233 -0.0317,0.0381 -0.0191,0.0127 -0.0572,0.0127 -0.036,0 -0.055,-0.0127 -0.019,-0.0148 -0.0317,-0.0487 z" style="font-family:Sniglet;-inkscape-font-specification:'Sniglet Bold';fill:#000000" id="SvgjsPath1764"></path>
                <path d="m -110.59937,-571.77397 q 0.0444,0 0.11218,0.008 0.0677,0.006 0.12912,0.0275 0.0614,0.019 0.10583,0.055 0.0444,0.036 0.0444,0.091 0,0.0317 -0.019,0.055 -0.0169,0.0233 -0.055,0.0233 -0.0275,0 -0.0635,-0.008 -0.0339,-0.008 -0.0762,-0.019 -0.0402,-0.0127 -0.0889,-0.0212 -0.0466,-0.008 -0.0995,-0.008 -0.0889,0 -0.14605,0.0275 -0.055,0.0275 -0.055,0.0868 0,0.0339 0.0191,0.0571 0.0212,0.0233 0.055,0.0423 0.036,0.0169 0.0825,0.0296 0.0487,0.0127 0.1016,0.0254 0.0656,0.0169 0.12911,0.0381 0.0656,0.0212 0.11642,0.0593 0.0508,0.036 0.0825,0.0931 0.0318,0.055 0.0318,0.13758 0,0.15664 -0.11853,0.24977 -0.11854,0.091 -0.34925,0.091 -0.0508,0 -0.12065,-0.008 -0.0698,-0.006 -0.13124,-0.0275 -0.0614,-0.019 -0.10583,-0.055 -0.0423,-0.0381 -0.0423,-0.0995 0,-0.0423 0.0191,-0.0635 0.0212,-0.0233 0.0508,-0.0233 0.0233,0 0.0487,0.0148 0.0254,0.0148 0.0614,0.0317 0.036,0.0169 0.0868,0.0317 0.0508,0.0148 0.12488,0.0148 0.0275,0 0.072,-0.002 0.0444,-0.004 0.0868,-0.019 0.0444,-0.0148 0.0741,-0.0402 0.0318,-0.0275 0.0318,-0.0762 0,-0.0381 -0.0212,-0.0635 -0.0212,-0.0275 -0.0572,-0.0466 -0.036,-0.019 -0.0847,-0.0317 -0.0466,-0.0148 -0.0995,-0.0296 -0.0614,-0.0169 -0.12489,-0.0381 -0.0614,-0.0212 -0.11218,-0.055 -0.0508,-0.0339 -0.0826,-0.0847 -0.0317,-0.0529 -0.0317,-0.12912 0,-0.072 0.0296,-0.13335 0.0296,-0.0635 0.0847,-0.11006 0.055,-0.0466 0.13123,-0.072 0.0783,-0.0254 0.17357,-0.0254 z" style="font-family:Sniglet;-inkscape-font-specification:'Sniglet Bold';fill:#000000" id="SvgjsPath1763"></path>
                <path d="m -108.99705,-570.62673 q -0.14605,0.004 -0.35984,0.006 -0.21166,0.004 -0.4826,0.004 -0.14393,0 -0.20532,-0.0169 -0.0614,-0.0169 -0.0614,-0.0868 0,-0.019 0.004,-0.0339 0.004,-0.0169 0.0191,-0.0296 0.0148,-0.0148 0.0402,-0.0233 0.0275,-0.008 0.0698,-0.0127 0.0445,-0.002 0.091,-0.004 0.0487,-0.002 0.10795,-0.002 0.0614,-0.002 0.1397,-0.002 0.0783,0 0.18415,0 0.1143,0 0.22648,0.002 0.11219,0 0.22437,0.006 0.0508,0.002 0.0783,0.0106 0.0275,0.008 0.0423,0.0212 0.0148,0.0127 0.0169,0.0296 0.004,0.0169 0.004,0.0381 0,0.0381 -0.0275,0.0635 -0.0254,0.0254 -0.11218,0.0296 z" style="font-family:Sniglet;-inkscape-font-specification:'Sniglet Bold';fill:#000000" id="SvgjsPath1762"></path>
                <path d="m -108.47636,-570.36427 q 0,0.0402 -0.002,0.0762 -0.002,0.0381 -0.0148,0.0677 -0.0106,0.0296 -0.0339,0.0466 -0.0212,0.019 -0.0614,0.019 -0.0466,0 -0.0783,-0.0339 -0.0296,-0.0317 -0.0339,-0.1143 -0.002,-0.0529 -0.006,-0.12912 -0.004,-0.0762 -0.008,-0.16087 -0.002,-0.0847 -0.006,-0.16933 -0.002,-0.0847 -0.002,-0.15663 0,-0.24765 0.0339,-0.40852 0.036,-0.16087 0.10583,-0.25612 0.0699,-0.0952 0.17145,-0.13335 0.10372,-0.0381 0.23919,-0.0381 0.10795,0 0.2032,0.0339 0.0953,0.0317 0.1651,0.1016 0.072,0.0677 0.1143,0.1778 0.0423,0.10795 0.0423,0.26035 0,0.127 -0.0444,0.22437 -0.0423,0.0974 -0.11853,0.1651 -0.0762,0.0656 -0.17992,0.1016 -0.1016,0.0339 -0.21802,0.0339 -0.0995,0 -0.17991,-0.0402 -0.0783,-0.0423 -0.11219,-0.091 0.0106,0.11853 0.0169,0.22013 0.008,0.1016 0.008,0.2032 z m 0.2921,-1.17898 q -0.0741,0 -0.12911,0.0254 -0.0529,0.0254 -0.0868,0.0698 -0.0339,0.0444 -0.0508,0.10583 -0.0148,0.0614 -0.0148,0.13335 0,0.0698 0.0127,0.13335 0.0148,0.0614 0.0466,0.10795 0.0318,0.0466 0.0847,0.0741 0.0529,0.0275 0.12912,0.0275 0.0593,0 0.1143,-0.0148 0.055,-0.0169 0.0974,-0.055 0.0444,-0.0381 0.0699,-0.1016 0.0275,-0.0635 0.0275,-0.15875 0,-0.0974 -0.0275,-0.16298 -0.0254,-0.0677 -0.0699,-0.10795 -0.0423,-0.0423 -0.0974,-0.0593 -0.0529,-0.0169 -0.10584,-0.0169 z" style="font-family:Sniglet;-inkscape-font-specification:'Sniglet Bold';fill:#000000" id="SvgjsPath1761"></path>
                <path d="m -106.95024,-571.74222 q 0.12065,0 0.2159,0.0381 0.0953,0.036 0.16086,0.10372 0.0677,0.0677 0.10372,0.1651 0.036,0.0974 0.036,0.21802 0,0.13335 -0.0423,0.23918 -0.0402,0.10583 -0.1143,0.17992 -0.072,0.0741 -0.17357,0.1143 -0.0995,0.0402 -0.21801,0.0402 -0.12912,0 -0.2286,-0.0444 -0.0974,-0.0444 -0.1651,-0.12065 -0.0656,-0.0762 -0.0995,-0.17568 -0.0339,-0.0995 -0.0339,-0.20955 0,-0.12065 0.0381,-0.22014 0.0402,-0.1016 0.11218,-0.17356 0.0741,-0.0741 0.1778,-0.1143 0.10372,-0.0402 0.23072,-0.0402 z m -0.0233,0.90382 q 0.0868,0 0.14817,-0.0296 0.0614,-0.0317 0.0995,-0.0825 0.0402,-0.0508 0.0572,-0.1143 0.019,-0.0656 0.019,-0.13547 0,-0.072 -0.019,-0.13335 -0.0169,-0.0635 -0.055,-0.11007 -0.036,-0.0466 -0.0953,-0.072 -0.0571,-0.0275 -0.13758,-0.0275 -0.0825,0 -0.14394,0.0275 -0.0614,0.0275 -0.10371,0.0762 -0.0402,0.0466 -0.0614,0.11219 -0.0212,0.0656 -0.0212,0.14182 0,0.15451 0.0783,0.25188 0.0804,0.0952 0.23495,0.0952 z" style="font-family:Sniglet;-inkscape-font-specification:'Sniglet Bold';fill:#000000" id="SvgjsPath1760"></path>
                <path d="m -106.08453,-570.80665 q -0.006,-0.13335 -0.008,-0.31538 0,-0.18416 0,-0.41699 -0.0212,0.002 -0.0508,0.002 -0.0275,0 -0.0444,0 -0.0381,0 -0.0699,-0.002 -0.0296,-0.002 -0.0529,-0.0127 -0.0233,-0.0106 -0.036,-0.0296 -0.0127,-0.0212 -0.0127,-0.0571 0,-0.1016 0.1524,-0.1016 0.0233,0 0.0572,0 0.0339,0 0.0571,0.004 0,-0.11218 0.004,-0.17992 0.004,-0.0677 0.0148,-0.10371 0.0127,-0.0381 0.0317,-0.0487 0.0212,-0.0127 0.0529,-0.0127 0.0339,0 0.055,0.0233 0.0212,0.0233 0.0318,0.0593 0.0127,0.036 0.0148,0.0804 0.004,0.0444 0.004,0.0868 0,0.0296 -0.002,0.055 0,0.0233 0,0.0423 0.0296,-0.008 0.0614,-0.008 0.0318,-0.002 0.0614,-0.002 0.0783,0 0.12065,0.0254 0.0423,0.0233 0.0423,0.0783 0,0.0339 -0.0148,0.055 -0.0148,0.019 -0.0402,0.0296 -0.0233,0.0106 -0.0572,0.0148 -0.0318,0.002 -0.0699,0.002 -0.0212,0 -0.0487,0 -0.0275,0 -0.0508,-0.004 0,0.11218 0,0.20531 0,0.0931 -0.002,0.17992 -0.002,0.0847 -0.004,0.16934 -0.002,0.0847 -0.006,0.17991 -0.002,0.0508 -0.0106,0.0783 -0.006,0.0275 -0.019,0.0423 -0.0127,0.0148 -0.0296,0.019 -0.0148,0.002 -0.036,0.002 -0.0381,0 -0.0656,-0.0254 -0.0254,-0.0275 -0.0296,-0.1143 z" style="font-family:Sniglet;-inkscape-font-specification:'Sniglet Bold';fill:#000000" id="SvgjsPath1759"></path>
                <path d="m -104.55841,-570.6606 q -0.0339,0 -0.055,-0.0106 -0.0191,-0.0127 -0.0296,-0.0317 -0.0106,-0.019 -0.0148,-0.0444 -0.004,-0.0275 -0.006,-0.0571 -0.0529,0.0656 -0.13759,0.11006 -0.0825,0.0444 -0.21166,0.0444 -0.0825,0 -0.16934,-0.0233 -0.0847,-0.0254 -0.15451,-0.0847 -0.0699,-0.0614 -0.1143,-0.16298 -0.0444,-0.1016 -0.0444,-0.25612 0,-0.12065 0.0296,-0.22648 0.0296,-0.10584 0.0889,-0.18415 0.0614,-0.0804 0.1524,-0.127 0.091,-0.0466 0.21378,-0.0466 0.10795,0 0.19262,0.0402 0.0847,0.0381 0.1524,0.127 0,-0.0254 0.002,-0.0508 0.002,-0.0275 0.0106,-0.0487 0.0106,-0.0233 0.0318,-0.036 0.0212,-0.0148 0.0571,-0.0148 0.0318,0 0.0593,0.0254 0.0275,0.0254 0.0317,0.11007 0.006,0.11218 0.008,0.20108 0.004,0.0889 0.004,0.18416 0,0.11641 -0.002,0.21378 -0.002,0.0974 -0.0106,0.20743 -0.004,0.0487 -0.0127,0.0783 -0.006,0.0275 -0.0169,0.0423 -0.0106,0.0127 -0.0254,0.0169 -0.0148,0.004 -0.0296,0.004 z m -0.1143,-0.53763 q 0,-0.11007 -0.0339,-0.17992 -0.0318,-0.0698 -0.0825,-0.10795 -0.0487,-0.0402 -0.10583,-0.055 -0.0572,-0.0148 -0.10583,-0.0148 -0.0762,0 -0.13124,0.0275 -0.0529,0.0275 -0.0868,0.0762 -0.0339,0.0466 -0.0508,0.11219 -0.0148,0.0635 -0.0148,0.1397 0,0.18627 0.0804,0.27517 0.0825,0.0889 0.22225,0.0889 0.0825,0 0.1397,-0.0275 0.0593,-0.0296 0.0952,-0.0783 0.0381,-0.0487 0.055,-0.1143 0.0191,-0.0677 0.0191,-0.14181 z" style="font-family:Sniglet;-inkscape-font-specification:'Sniglet Bold';fill:#000000" id="SvgjsPath1758"></path>
                <path d="m -104.03136,-570.80665 q -0.006,-0.13335 -0.008,-0.31538 0,-0.18416 0,-0.41699 -0.0212,0.002 -0.0508,0.002 -0.0275,0 -0.0444,0 -0.0381,0 -0.0699,-0.002 -0.0296,-0.002 -0.0529,-0.0127 -0.0233,-0.0106 -0.036,-0.0296 -0.0127,-0.0212 -0.0127,-0.0571 0,-0.1016 0.1524,-0.1016 0.0233,0 0.0571,0 0.0339,0 0.0572,0.004 0,-0.11218 0.004,-0.17992 0.004,-0.0677 0.0148,-0.10371 0.0127,-0.0381 0.0318,-0.0487 0.0212,-0.0127 0.0529,-0.0127 0.0339,0 0.055,0.0233 0.0212,0.0233 0.0318,0.0593 0.0127,0.036 0.0148,0.0804 0.004,0.0444 0.004,0.0868 0,0.0296 -0.002,0.055 0,0.0233 0,0.0423 0.0296,-0.008 0.0614,-0.008 0.0318,-0.002 0.0614,-0.002 0.0783,0 0.12065,0.0254 0.0423,0.0233 0.0423,0.0783 0,0.0339 -0.0148,0.055 -0.0148,0.019 -0.0402,0.0296 -0.0233,0.0106 -0.0571,0.0148 -0.0318,0.002 -0.0699,0.002 -0.0212,0 -0.0487,0 -0.0275,0 -0.0508,-0.004 0,0.11218 0,0.20531 0,0.0931 -0.002,0.17992 -0.002,0.0847 -0.004,0.16934 -0.002,0.0847 -0.006,0.17991 -0.002,0.0508 -0.0106,0.0783 -0.006,0.0275 -0.0191,0.0423 -0.0127,0.0148 -0.0296,0.019 -0.0148,0.002 -0.036,0.002 -0.0381,0 -0.0656,-0.0254 -0.0254,-0.0275 -0.0296,-0.1143 z" style="font-family:Sniglet;-inkscape-font-specification:'Sniglet Bold';fill:#000000" id="SvgjsPath1757"></path>
                <path d="m -102.90529,-571.74222 q 0.12065,0 0.2159,0.0381 0.0953,0.036 0.16087,0.10372 0.0677,0.0677 0.10371,0.1651 0.036,0.0974 0.036,0.21802 0,0.13335 -0.0423,0.23918 -0.0402,0.10583 -0.1143,0.17992 -0.072,0.0741 -0.17356,0.1143 -0.0995,0.0402 -0.21802,0.0402 -0.12912,0 -0.2286,-0.0444 -0.0974,-0.0444 -0.1651,-0.12065 -0.0656,-0.0762 -0.0995,-0.17568 -0.0339,-0.0995 -0.0339,-0.20955 0,-0.12065 0.0381,-0.22014 0.0402,-0.1016 0.11218,-0.17356 0.0741,-0.0741 0.1778,-0.1143 0.10372,-0.0402 0.23072,-0.0402 z m -0.0233,0.90382 q 0.0868,0 0.14817,-0.0296 0.0614,-0.0317 0.0995,-0.0825 0.0402,-0.0508 0.0572,-0.1143 0.019,-0.0656 0.019,-0.13547 0,-0.072 -0.019,-0.13335 -0.0169,-0.0635 -0.055,-0.11007 -0.036,-0.0466 -0.0953,-0.072 -0.0571,-0.0275 -0.13758,-0.0275 -0.0825,0 -0.14394,0.0275 -0.0614,0.0275 -0.10371,0.0762 -0.0402,0.0466 -0.0614,0.11219 -0.0212,0.0656 -0.0212,0.14182 0,0.15451 0.0783,0.25188 0.0804,0.0952 0.23495,0.0952 z" style="font-family:Sniglet;-inkscape-font-specification:'Sniglet Bold';fill:#000000" id="SvgjsPath1756"></path>
              </g>
            </g>
          </g>
        </g>
      </g>
    </g>
  </g>
  <style type="text/css" id="SvgjsStyle1755">
	.st0{fill:#75AADB;}
	.st1{fill:#4D4D4D;}
	.st2{fill:#FFFFFF;}
	.st3{fill:url(#SVGID_1_);}
	.st4{fill:url(#SVGID_2_);}
	.st5{fill:url(#SVGID_3_);}
	.st6{fill:url(#SVGID_4_);}
	.st7{fill:url(#SVGID_5_);}
	.st8{fill:url(#SVGID_6_);}
	.st9{fill:url(#SVGID_7_);}
	.st10{fill:url(#SVGID_8_);}
	.st11{fill:url(#SVGID_9_);}
	.st12{fill:url(#SVGID_10_);}
	.st13{opacity:0.18;fill:url(#SVGID_11_);}
	.st14{opacity:0.3;}
</style>
  <style type="text/css" id="SvgjsStyle1754">
	.st0{fill:#75AADB;}
	.st1{fill:#4D4D4D;}
	.st2{fill:#FFFFFF;}
	.st3{fill:url(#SVGID_1_);}
	.st4{fill:url(#SVGID_2_);}
	.st5{fill:url(#SVGID_3_);}
	.st6{fill:url(#SVGID_4_);}
	.st7{fill:url(#SVGID_5_);}
	.st8{fill:url(#SVGID_6_);}
	.st9{fill:url(#SVGID_7_);}
	.st10{fill:url(#SVGID_8_);}
	.st11{fill:url(#SVGID_9_);}
	.st12{fill:url(#SVGID_10_);}
	.st13{opacity:0.18;fill:url(#SVGID_11_);}
	.st14{opacity:0.3;}
</style>
  <style type="text/css" id="SvgjsStyle1753">
	.st0{fill:#75AADB;}
	.st1{fill:#4D4D4D;}
	.st2{fill:#FFFFFF;}
	.st3{fill:url(#SVGID_1_);}
	.st4{fill:url(#SVGID_2_);}
	.st5{fill:url(#SVGID_3_);}
	.st6{fill:url(#SVGID_4_);}
	.st7{fill:url(#SVGID_5_);}
	.st8{fill:url(#SVGID_6_);}
	.st9{fill:url(#SVGID_7_);}
	.st10{fill:url(#SVGID_8_);}
	.st11{fill:url(#SVGID_9_);}
	.st12{fill:url(#SVGID_10_);}
	.st13{opacity:0.18;fill:url(#SVGID_11_);}
	.st14{opacity:0.3;}
</style>
  <style type="text/css" id="SvgjsStyle1752">
	.st0{fill:#75AADB;}
	.st1{fill:#4D4D4D;}
	.st2{fill:#FFFFFF;}
	.st3{fill:url(#SVGID_1_);}
	.st4{fill:url(#SVGID_2_);}
	.st5{fill:url(#SVGID_3_);}
	.st6{fill:url(#SVGID_4_);}
	.st7{fill:url(#SVGID_5_);}
	.st8{fill:url(#SVGID_6_);}
	.st9{fill:url(#SVGID_7_);}
	.st10{fill:url(#SVGID_8_);}
	.st11{fill:url(#SVGID_9_);}
	.st12{fill:url(#SVGID_10_);}
	.st13{opacity:0.18;fill:url(#SVGID_11_);}
	.st14{opacity:0.3;}
</style>
  <style type="text/css" id="SvgjsStyle1751">
	.st0{fill:#75AADB;}
	.st1{fill:#4D4D4D;}
	.st2{fill:#FFFFFF;}
	.st3{fill:url(#SVGID_1_);}
	.st4{fill:url(#SVGID_2_);}
	.st5{fill:url(#SVGID_3_);}
	.st6{fill:url(#SVGID_4_);}
	.st7{fill:url(#SVGID_5_);}
	.st8{fill:url(#SVGID_6_);}
	.st9{fill:url(#SVGID_7_);}
	.st10{fill:url(#SVGID_8_);}
	.st11{fill:url(#SVGID_9_);}
	.st12{fill:url(#SVGID_10_);}
	.st13{opacity:0.18;fill:url(#SVGID_11_);}
	.st14{opacity:0.3;}
</style>
  <style type="text/css" id="SvgjsStyle1750">
	.st0{fill:#75AADB;}
	.st1{fill:#4D4D4D;}
	.st2{fill:#FFFFFF;}
	.st3{fill:url(#SVGID_1_);}
	.st4{fill:url(#SVGID_2_);}
	.st5{fill:url(#SVGID_3_);}
	.st6{fill:url(#SVGID_4_);}
	.st7{fill:url(#SVGID_5_);}
	.st8{fill:url(#SVGID_6_);}
	.st9{fill:url(#SVGID_7_);}
	.st10{fill:url(#SVGID_8_);}
	.st11{fill:url(#SVGID_9_);}
	.st12{fill:url(#SVGID_10_);}
	.st13{opacity:0.18;fill:url(#SVGID_11_);}
	.st14{opacity:0.3;}
</style>
</svg><style>@media (prefers-color-scheme: light) { :root { filter: none; } }
@media (prefers-color-scheme: dark) { :root { filter: none; } }
</style></svg>