<?xml version="1.0" encoding="UTF-8" standalone="no"?>
<!-- Created with Inkscape (http://www.inkscape.org/) -->

<svg
   width="43.929581mm"
   height="50.831631mm"
   viewBox="0 0 43.929581 50.831631"
   version="1.1"
   id="svg5"
   inkscape:version="1.1.2 (0a00cf5339, 2022-02-04)"
   sodipodi:docname="logo.svg"
   xmlns:inkscape="http://www.inkscape.org/namespaces/inkscape"
   xmlns:sodipodi="http://sodipodi.sourceforge.net/DTD/sodipodi-0.dtd"
   xmlns="http://www.w3.org/2000/svg"
   xmlns:svg="http://www.w3.org/2000/svg">
  <sodipodi:namedview
     id="namedview7"
     pagecolor="#ffffff"
     bordercolor="#000000"
     borderopacity="0.25"
     inkscape:pageshadow="2"
     inkscape:pageopacity="0.0"
     inkscape:pagecheckerboard="0"
     inkscape:document-units="mm"
     showgrid="false"
     inkscape:zoom="3.559358"
     inkscape:cx="62.511273"
     inkscape:cy="91.8705"
     inkscape:window-width="1920"
     inkscape:window-height="1043"
     inkscape:window-x="0"
     inkscape:window-y="0"
     inkscape:window-maximized="1"
     inkscape:current-layer="g78555"
     showguides="true"
     inkscape:guide-bbox="true"
     fit-margin-top="0"
     fit-margin-left="0"
     fit-margin-right="0"
     fit-margin-bottom="0">
    <sodipodi:guide
       position="26.608324,41.550427"
       orientation="0,-1"
       id="guide62573" />
    <sodipodi:guide
       position="20.879456,14.466576"
       orientation="0,-1"
       id="guide66307" />
  </sodipodi:namedview>
  <defs
     id="defs2">
    <inkscape:perspective
       sodipodi:type="inkscape:persp3d"
       inkscape:vp_x="0 : 635.96801 : 1"
       inkscape:vp_y="0 : 999.99996 : 0"
       inkscape:vp_z="1500 : 635.96801 : 1"
       inkscape:persp3d-origin="750 : 341.92255 : 1"
       id="perspective4362" />
    <clipPath
       id="clp12">
      <path
         d="m 45.315,71.927 h 12.92 v 15.867 h -12.92 z"
         id="path184"
         inkscape:connector-curvature="0" />
    </clipPath>
    <clipPath
       id="clp21">
      <path
         d="m 123.91,72.178 h 26.23 v 15.294 h -26.23 z"
         id="path592"
         inkscape:connector-curvature="0" />
    </clipPath>
    <clipPath
       id="clp9">
      <path
         d="m 413.96,49.857 h 31.76 v 8.719 h -31.76 z"
         id="path100"
         inkscape:connector-curvature="0" />
    </clipPath>
    <inkscape:perspective
       sodipodi:type="inkscape:persp3d"
       inkscape:vp_x="0 : 389.7996 : 1"
       inkscape:vp_y="0 : 999.99992 : 0"
       inkscape:vp_z="1500 : 389.7996 : 1"
       inkscape:persp3d-origin="749.99998 : 95.754155 : 1"
       id="perspective4362-535" />
    <clipPath
       id="clp12-6">
      <path
         d="m 45.315,71.927 h 12.92 v 15.867 h -12.92 z"
         id="path184-2"
         inkscape:connector-curvature="0" />
    </clipPath>
    <clipPath
       id="clp21-9">
      <path
         d="m 123.91,72.178 h 26.23 v 15.294 h -26.23 z"
         id="path592-12"
         inkscape:connector-curvature="0" />
    </clipPath>
    <clipPath
       id="clp9-7">
      <path
         d="m 413.96,49.857 h 31.76 v 8.719 h -31.76 z"
         id="path100-0"
         inkscape:connector-curvature="0" />
    </clipPath>
    <inkscape:perspective
       sodipodi:type="inkscape:persp3d"
       inkscape:vp_x="0 : 389.7996 : 1"
       inkscape:vp_y="0 : 999.99992 : 0"
       inkscape:vp_z="1500 : 389.7996 : 1"
       inkscape:persp3d-origin="749.99998 : 95.754155 : 1"
       id="perspective4362-5" />
    <clipPath
       id="clp12-3">
      <path
         d="m 45.315,71.927 h 12.92 v 15.867 h -12.92 z"
         id="path184-5"
         inkscape:connector-curvature="0" />
    </clipPath>
    <clipPath
       id="clp21-6">
      <path
         d="m 123.91,72.178 h 26.23 v 15.294 h -26.23 z"
         id="path592-2"
         inkscape:connector-curvature="0" />
    </clipPath>
    <clipPath
       id="clp9-9">
      <path
         d="m 413.96,49.857 h 31.76 v 8.719 h -31.76 z"
         id="path100-1"
         inkscape:connector-curvature="0" />
    </clipPath>
    <inkscape:perspective
       sodipodi:type="inkscape:persp3d"
       inkscape:vp_x="0 : 635.96801 : 1"
       inkscape:vp_y="0 : 999.99996 : 0"
       inkscape:vp_z="1500 : 635.96801 : 1"
       inkscape:persp3d-origin="750 : 341.92255 : 1"
       id="perspective4362-9" />
    <clipPath
       id="clp12-37">
      <path
         d="m 45.315,71.927 h 12.92 v 15.867 h -12.92 z"
         id="path184-4"
         inkscape:connector-curvature="0" />
    </clipPath>
    <clipPath
       id="clp21-5">
      <path
         d="m 123.91,72.178 h 26.23 v 15.294 h -26.23 z"
         id="path592-25"
         inkscape:connector-curvature="0" />
    </clipPath>
    <clipPath
       id="clp9-4">
      <path
         d="m 413.96,49.857 h 31.76 v 8.719 h -31.76 z"
         id="path100-7"
         inkscape:connector-curvature="0" />
    </clipPath>
    <inkscape:perspective
       sodipodi:type="inkscape:persp3d"
       inkscape:vp_x="0 : 635.96801 : 1"
       inkscape:vp_y="0 : 999.99996 : 0"
       inkscape:vp_z="1500 : 635.96801 : 1"
       inkscape:persp3d-origin="750 : 341.92255 : 1"
       id="perspective4362-6" />
    <clipPath
       id="clp12-8">
      <path
         d="m 45.315,71.927 h 12.92 v 15.867 h -12.92 z"
         id="path184-9"
         inkscape:connector-curvature="0" />
    </clipPath>
    <clipPath
       id="clp21-2">
      <path
         d="m 123.91,72.178 h 26.23 v 15.294 h -26.23 z"
         id="path592-6"
         inkscape:connector-curvature="0" />
    </clipPath>
    <clipPath
       id="clp9-6">
      <path
         d="m 413.96,49.857 h 31.76 v 8.719 h -31.76 z"
         id="path100-4"
         inkscape:connector-curvature="0" />
    </clipPath>
    <inkscape:perspective
       sodipodi:type="inkscape:persp3d"
       inkscape:vp_x="0 : 635.96801 : 1"
       inkscape:vp_y="0 : 999.99996 : 0"
       inkscape:vp_z="1500 : 635.96801 : 1"
       inkscape:persp3d-origin="750 : 341.92255 : 1"
       id="perspective4362-53" />
    <clipPath
       id="clp12-5">
      <path
         d="m 45.315,71.927 h 12.92 v 15.867 h -12.92 z"
         id="path184-6"
         inkscape:connector-curvature="0" />
    </clipPath>
    <clipPath
       id="clp21-29">
      <path
         d="m 123.91,72.178 h 26.23 v 15.294 h -26.23 z"
         id="path592-1"
         inkscape:connector-curvature="0" />
    </clipPath>
    <clipPath
       id="clp9-2">
      <path
         d="m 413.96,49.857 h 31.76 v 8.719 h -31.76 z"
         id="path100-70"
         inkscape:connector-curvature="0" />
    </clipPath>
  </defs>
  <g
     inkscape:label="Layer 1"
     inkscape:groupmode="layer"
     id="layer1"
     transform="translate(134.31887,576.54601)">
    <text
       xml:space="preserve"
       style="font-size:4.23333px;font-family:sans-serif;-inkscape-font-specification:sans-serif;fill:#fdf0e3;fill-opacity:1;stroke:#4a280d;stroke-width:15;stroke-linecap:round;stroke-linejoin:round;stroke-miterlimit:4;stroke-dasharray:none"
       x="-105.7908"
       y="-558.50726"
       id="text265343"><tspan
         sodipodi:role="line"
         id="tspan265341"
         style="stroke-width:15;stroke-miterlimit:4;stroke-dasharray:none"
         x="-105.7908"
         y="-558.50726" /></text>
    <text
       xml:space="preserve"
       style="font-size:4.23333px;font-family:sans-serif;-inkscape-font-specification:sans-serif;fill:#fdf0e3;fill-opacity:1;stroke:#4a280d;stroke-width:15;stroke-linecap:round;stroke-linejoin:round;stroke-miterlimit:4;stroke-dasharray:none"
       x="-106.25206"
       y="-560.1264"
       id="text268683"><tspan
         sodipodi:role="line"
         id="tspan268681"
         style="stroke-width:15"
         x="-106.25206"
         y="-560.1264" /></text>
    <text
       xml:space="preserve"
       style="font-size:4.23333px;font-family:sans-serif;-inkscape-font-specification:sans-serif;fill:#fdf0e3;fill-opacity:1;stroke:#4a280d;stroke-width:5;stroke-linecap:round;stroke-linejoin:round;stroke-miterlimit:4;stroke-dasharray:none"
       x="-78.450752"
       y="-551.28766"
       id="text270271"><tspan
         sodipodi:role="line"
         id="tspan270269"
         style="stroke-width:5;stroke-miterlimit:4;stroke-dasharray:none"
         x="-78.450752"
         y="-551.28766" /></text>
    <text
       xml:space="preserve"
       style="font-size:4.23333px;font-family:sans-serif;-inkscape-font-specification:sans-serif;fill:#fdf0e3;fill-opacity:1;stroke:#4a280d;stroke-width:4.99999;stroke-linecap:round;stroke-linejoin:round;stroke-miterlimit:4;stroke-dasharray:none"
       x="-75.665482"
       y="-548.79803"
       id="text275393"><tspan
         sodipodi:role="line"
         id="tspan275391"
         style="stroke-width:5"
         x="-75.665482"
         y="-548.79803" /></text>
    <g
       id="g46348">
      <g
         id="g57961"
         transform="rotate(-30,-112.35409,-551.13016)">
        <g
           id="g57911">
          <g
             id="g43251"
             transform="rotate(30,-112.35408,-551.13016)" />
          <g
             id="g78484"
             transform="rotate(30,-112.35409,-551.13016)">
            <g
               id="g78555"
               transform="rotate(-30,-112.35409,-551.13016)">
              <path
                 sodipodi:type="star"
                 style="fill:#7382b3;fill-opacity:1;stroke:#000000;stroke-width:21.7043;stroke-miterlimit:4;stroke-dasharray:none;stroke-opacity:1"
                 id="path4560"
                 sodipodi:sides="6"
                 sodipodi:cx="-5551.2134"
                 sodipodi:cy="-204.52565"
                 sodipodi:r1="1701.6108"
                 sodipodi:r2="1473.6381"
                 sodipodi:arg1="1.0471976"
                 sodipodi:arg2="1.5707963"
                 inkscape:flatsided="true"
                 inkscape:rounded="0"
                 inkscape:randomized="0"
                 inkscape:transform-center-x="1.5731476e-05"
                 inkscape:transform-center-y="7.9344316e-05"
                 transform="matrix(-0.00728526,0.01261844,-0.01259211,-0.00727006,-155.37153,-482.56942)"
                 d="m -4700.408,1269.1126 -1701.6109,-10e-5 -850.8053,-1473.63823 850.8055,-1473.63817 1701.6108,10e-5 850.8054,1473.63823 z" />
              <path
                 d="m -130.65086,-549.093 q 0.12404,0.0716 0.23573,0.16462 0.11597,0.0955 0.19642,0.1932 0.0805,0.0977 0.11249,0.19042 0.0321,0.0927 -0.01,0.16537 -0.10866,0.1882 -0.32252,0.0647 -0.0514,-0.0296 -0.091,-0.0696 -0.0329,-0.0418 -0.0854,-0.0892 -0.0499,-0.0517 -0.1324,-0.1164 -0.0799,-0.069 -0.21252,-0.14556 -0.2823,-0.16299 -0.54741,-0.0594 -0.26511,0.10357 -0.44292,0.41154 -0.19509,0.3379 -0.15964,0.63212 0.0397,0.29668 0.3263,0.46214 0.17965,0.10372 0.30816,0.13796 0.12851,0.0342 0.21914,0.0353 0.095,0.003 0.15499,-0.002 0.0643,-0.003 0.11996,0.0293 0.077,0.0444 0.10001,0.10335 0.0297,0.0571 -0.0271,0.15546 -0.0593,0.10266 -0.18496,0.13275 -0.12144,0.0325 -0.27083,0.0147 -0.14941,-0.0178 -0.30537,-0.0736 -0.15167,-0.0534 -0.26715,-0.12006 -0.51756,-0.29882 -0.64723,-0.75579 -0.12969,-0.45698 0.17406,-0.98309 0.13089,-0.22669 0.31537,-0.38823 0.19128,-0.1633 0.4213,-0.23581 0.23005,-0.0725 0.48722,-0.0438 0.26145,0.0312 0.5352,0.18923 z"
                 style="font-weight:normal;font-size:4.93889px;font-family:Sniglet;-inkscape-font-specification:Sniglet;stroke-width:0.315919;stroke-linecap:round;stroke-linejoin:round"
                 id="path79192" />
              <path
                 d="m -130.6491,-545.36217 q -0.0469,0.0812 -0.0932,0.15149 -0.0488,0.0745 -0.10899,0.11956 -0.056,0.0476 -0.12274,0.0546 -0.065,0.0137 -0.14625,-0.0332 -0.0941,-0.0543 -0.11875,-0.15978 -0.0228,-0.0987 0.0649,-0.27048 0.0574,-0.10943 0.13782,-0.26832 0.0802,-0.15898 0.17053,-0.33497 0.0945,-0.17359 0.18475,-0.34958 0.0945,-0.1736 0.17841,-0.31902 0.28893,-0.50045 0.54503,-0.78602 0.26043,-0.28307 0.51267,-0.39408 0.25228,-0.11098 0.50204,-0.0694 0.25404,0.044 0.52779,0.20206 0.21814,0.12595 0.37112,0.30549 0.15542,0.1753 0.21508,0.39794 0.0664,0.22083 0.0235,0.49264 -0.0404,0.26754 -0.21818,0.57551 -0.14817,0.25663 -0.35159,0.40153 -0.19917,0.14736 -0.43215,0.19534 -0.23053,0.0437 -0.48211,-0.005 -0.24481,-0.0501 -0.48005,-0.18594 -0.20104,-0.11606 -0.31668,-0.29114 -0.10886,-0.17694 -0.12051,-0.31481 -0.1169,0.25189 -0.22262,0.4646 -0.10138,0.2152 -0.21992,0.42052 z m 1.96578,-2.04166 q -0.14971,-0.0864 -0.29057,-0.0993 -0.13658,-0.0104 -0.25686,0.0399 -0.12027,0.0503 -0.22613,0.15459 -0.10159,0.10675 -0.18555,0.25217 -0.0815,0.14115 -0.12994,0.28427 -0.0417,0.14135 -0.0318,0.27247 0.01,0.13116 0.0847,0.24849 0.0748,0.11735 0.22882,0.20625 0.11977,0.0691 0.24828,0.10338 0.13096,0.03 0.26096,0.002 0.13427,-0.0251 0.25968,-0.12382 0.12969,-0.0962 0.24082,-0.2887 0.11359,-0.19675 0.13455,-0.36145 0.0277,-0.16652 -0.0152,-0.29963 -0.0362,-0.13496 -0.12761,-0.23336 -0.0872,-0.096 -0.19412,-0.15769 z"
                 style="font-weight:normal;font-size:4.93889px;font-family:Sniglet;-inkscape-font-specification:Sniglet;stroke-width:0.315919;stroke-linecap:round;stroke-linejoin:round"
                 id="path79194" />
              <path
                 d="m -128.12977,-543.90764 q -0.0469,0.0812 -0.0932,0.15149 -0.0488,0.0745 -0.10898,0.11957 -0.056,0.0476 -0.12275,0.0546 -0.065,0.0137 -0.14624,-0.0332 -0.0941,-0.0543 -0.11876,-0.15979 -0.0228,-0.0987 0.0649,-0.27047 0.0574,-0.10944 0.13783,-0.26833 0.0802,-0.15898 0.17053,-0.33497 0.0944,-0.17359 0.18474,-0.34958 0.0944,-0.17359 0.17841,-0.31902 0.28893,-0.50044 0.54504,-0.78602 0.26042,-0.28307 0.51266,-0.39408 0.25229,-0.11098 0.50204,-0.0694 0.25404,0.044 0.52779,0.20207 0.21814,0.12594 0.37112,0.30548 0.15543,0.17531 0.21509,0.39794 0.0664,0.22083 0.0235,0.49264 -0.0404,0.26755 -0.21819,0.57551 -0.14817,0.25664 -0.35158,0.40154 -0.19916,0.14735 -0.43215,0.19533 -0.23054,0.0437 -0.48211,-0.005 -0.24482,-0.0501 -0.48006,-0.18593 -0.20104,-0.11607 -0.31667,-0.29115 -0.10886,-0.17694 -0.12051,-0.3148 -0.1169,0.25188 -0.22262,0.46459 -0.10139,0.21521 -0.21993,0.42052 z m 1.96577,-2.04166 q -0.14971,-0.0864 -0.29057,-0.0993 -0.13658,-0.0104 -0.25686,0.0399 -0.12027,0.0503 -0.22613,0.15459 -0.10158,0.10674 -0.18554,0.25216 -0.0815,0.14115 -0.12995,0.28428 -0.0417,0.14134 -0.0318,0.27247 0.01,0.13115 0.0847,0.24849 0.0748,0.11734 0.22882,0.20624 0.11977,0.0692 0.24828,0.10339 0.13096,0.03 0.26096,0.002 0.13427,-0.0251 0.25969,-0.12383 0.12968,-0.0962 0.24081,-0.2887 0.11359,-0.19674 0.13455,-0.36144 0.0277,-0.16652 -0.0152,-0.29963 -0.0362,-0.13497 -0.12761,-0.23337 -0.0872,-0.096 -0.19412,-0.15768 z"
                 style="font-weight:normal;font-size:4.93889px;font-family:Sniglet;-inkscape-font-specification:Sniglet;stroke-width:0.315919;stroke-linecap:round;stroke-linejoin:round"
                 id="path79196" />
              <path
                 d="m -124.99908,-543.27496 q 0.0802,-0.15898 0.1724,-0.3282 0.0963,-0.16682 0.2031,-0.3618 0.1068,-0.19497 0.23521,-0.41739 0.13089,-0.2267 0.29141,-0.50472 l 0.30868,-0.53466 -0.33319,-0.0156 q -0.14643,0.007 -0.21799,-0.0176 -0.0673,-0.0218 -0.14,-0.0637 -0.0642,-0.0371 -0.0834,-0.12228 -0.0149,-0.0827 0.0295,-0.15975 0.0445,-0.077 0.12791,-0.10294 0.0902,-0.0277 0.19006,-0.0329 0.13115,-0.01 0.27511,-0.0122 0.14826,4e-5 0.28054,0.008 0.13476,0.004 0.2376,0.0231 0.10958,0.0177 0.16946,0.0522 0.03,0.0173 0.0548,0.0432 0.0292,0.0284 0.0401,0.0688 0.0152,0.0429 1.2e-4,0.10839 -0.008,0.0637 -0.0559,0.15594 -0.0802,0.15899 -0.14276,0.27687 -0.0623,0.11799 -0.12222,0.2317 -0.0574,0.10943 -0.12655,0.2292 -0.0692,0.11976 -0.16052,0.27802 -0.11113,0.19248 -0.21238,0.36785 -0.10125,0.17537 -0.20436,0.34396 -0.10311,0.16859 -0.20868,0.34146 -0.10559,0.17287 -0.2252,0.36045 -0.0636,0.10015 -0.11277,0.14591 -0.0449,0.0482 -0.0879,0.0634 -0.0429,0.0152 -0.0797,-4e-4 -0.035,-0.009 -0.0777,-0.0333 -0.077,-0.0445 -0.0987,-0.12544 -0.0192,-0.0852 0.0735,-0.26552 z"
                 style="font-weight:normal;font-size:4.93889px;font-family:Sniglet;-inkscape-font-specification:Sniglet;stroke-width:0.315919;stroke-linecap:round;stroke-linejoin:round"
                 id="path79198" />
              <path
                 d="m -123.50631,-542.41311 q 0.0803,-0.15898 0.1724,-0.3282 0.0963,-0.16681 0.20311,-0.36179 0.1068,-0.19498 0.23521,-0.4174 0.13088,-0.22669 0.2914,-0.50472 l 0.30869,-0.53466 -0.33319,-0.0156 q -0.14643,0.007 -0.218,-0.0176 -0.0672,-0.0217 -0.13999,-0.0637 -0.0642,-0.0371 -0.0834,-0.12228 -0.0149,-0.0828 0.0295,-0.15975 0.0444,-0.077 0.12791,-0.10294 0.0901,-0.0277 0.19005,-0.0329 0.13116,-0.01 0.27512,-0.0122 0.14826,3e-5 0.28055,0.008 0.13475,0.004 0.2376,0.0231 0.10957,0.0177 0.16945,0.0522 0.03,0.0173 0.0549,0.0432 0.0292,0.0284 0.0402,0.0688 0.0152,0.0429 1.2e-4,0.10838 -0.008,0.0637 -0.0558,0.15595 -0.0803,0.15898 -0.14277,0.27687 -0.0623,0.11799 -0.12222,0.23169 -0.0574,0.10944 -0.12655,0.2292 -0.0691,0.11977 -0.16052,0.27803 -0.11113,0.19248 -0.21237,0.36784 -0.10126,0.17537 -0.20436,0.34396 -0.10312,0.1686 -0.20869,0.34146 -0.10559,0.17288 -0.2252,0.36045 -0.0636,0.10016 -0.11276,0.14592 -0.0449,0.0482 -0.0879,0.0634 -0.0429,0.0152 -0.0796,-3.4e-4 -0.035,-0.009 -0.0777,-0.0333 -0.077,-0.0444 -0.0987,-0.12545 -0.0193,-0.0852 0.0735,-0.26552 z"
                 style="font-weight:normal;font-size:4.93889px;font-family:Sniglet;-inkscape-font-specification:Sniglet;stroke-width:0.315919;stroke-linecap:round;stroke-linejoin:round"
                 id="path79200" />
              <path
                 d="m -120.99171,-540.58491 q -0.0684,-0.0395 -0.0988,-0.0856 -0.0237,-0.0479 -0.0229,-0.0988 8.1e-4,-0.0508 0.0219,-0.10712 0.0234,-0.0606 0.0539,-0.12289 -0.18348,0.0709 -0.40643,0.0619 -0.21868,-0.006 -0.47959,-0.15712 -0.16682,-0.0963 -0.31504,-0.24459 -0.14144,-0.15014 -0.21345,-0.35137 -0.0696,-0.20553 -0.0408,-0.4627 0.0287,-0.25717 0.20899,-0.56942 0.14075,-0.2438 0.32408,-0.42312 0.18331,-0.17931 0.39449,-0.26839 0.21788,-0.0909 0.45614,-0.0788 0.23825,0.0121 0.48633,0.15532 0.21815,0.12594 0.34233,0.30596 0.12665,0.17577 0.1598,0.43443 0.0297,-0.0513 0.0636,-0.10015 0.0364,-0.0531 0.0782,-0.086 0.0486,-0.0347 0.10618,-0.0357 0.0601,-0.005 0.13279,0.0367 0.0642,0.0371 0.0901,0.12051 0.0259,0.0835 -0.0642,0.25946 -0.11806,0.2341 -0.21746,0.41625 -0.0951,0.18465 -0.20618,0.37712 -0.13582,0.23526 -0.25375,0.42951 -0.11793,0.19426 -0.2634,0.40683 -0.0655,0.0934 -0.11701,0.14346 -0.0449,0.0482 -0.0836,0.0658 -0.0362,0.0133 -0.0711,0.005 -0.035,-0.009 -0.0648,-0.0259 z m 0.39628,-1.21978 q 0.12842,-0.22242 0.14149,-0.40307 0.0173,-0.1782 -0.0409,-0.31445 -0.0515,-0.13804 -0.14967,-0.23469 -0.0982,-0.0966 -0.19656,-0.15344 -0.15398,-0.0889 -0.29729,-0.0975 -0.13903,-0.006 -0.26428,0.0527 -0.12274,0.0546 -0.23353,0.16743 -0.10405,0.11102 -0.19295,0.265 -0.21732,0.3764 -0.1585,0.64989 0.0631,0.27596 0.34539,0.43894 0.16682,0.0963 0.31441,0.10739 0.15432,0.009 0.28385,-0.0471 0.13379,-0.0539 0.24456,-0.16677 0.11748,-0.11467 0.20391,-0.26437 z"
                 style="font-weight:normal;font-size:4.93889px;font-family:Sniglet;-inkscape-font-specification:Sniglet;stroke-width:0.315919;stroke-linecap:round;stroke-linejoin:round"
                 id="path79202" />
              <path
                 d="m -120.11261,-540.44805 q 0.0693,-0.15961 0.18852,-0.37592 0.11914,-0.21636 0.29448,-0.52006 0.17286,-0.29941 0.27905,-0.48333 0.11052,-0.18142 0.21332,-0.31028 0.12264,-0.16301 0.19506,-0.18964 0.0767,-0.0242 0.14941,0.0178 0.0514,0.0297 0.0848,0.0605 0.0378,0.0334 0.0506,0.0805 0.0194,0.0454 0.007,0.10664 -0.0126,0.0612 -0.0644,0.15101 -0.01,0.0171 -0.0154,0.0367 -0.01,0.0171 -0.0222,0.0385 -0.006,0.0196 -0.0204,0.0453 0.19944,-0.0788 0.40414,-0.0975 0.20897,-0.0162 0.39718,0.0925 0.25236,0.1457 0.13136,0.35528 -0.0445,0.077 -0.1083,0.10857 -0.0596,0.0341 -0.13923,0.0337 -0.0729,-0.002 -0.15974,-0.0295 -0.0827,-0.0249 -0.18229,-0.0596 -0.15168,-0.0534 -0.31343,-0.0498 -0.15927,-7.3e-4 -0.26379,0.0815 -0.0469,0.0812 -0.0691,0.11977 -0.0179,0.0409 -0.0327,0.0667 -0.0105,0.0281 -0.0278,0.0581 -0.0173,0.03 -0.0543,0.0941 -0.12594,0.21814 -0.24573,0.40561 -0.11732,0.1832 -0.25422,0.40073 -0.0636,0.10015 -0.11701,0.14346 -0.0493,0.0457 -0.0964,0.0584 -0.0429,0.0152 -0.0796,-3.4e-4 -0.0392,-0.0111 -0.0734,-0.0308 -0.11976,-0.0691 -0.13288,-0.14519 -0.006,-0.0778 0.0778,-0.26308 z"
                 style="font-weight:normal;font-size:4.93889px;font-family:Sniglet;-inkscape-font-specification:Sniglet;stroke-width:0.315919;stroke-linecap:round;stroke-linejoin:round"
                 id="path79204" />
              <path
                 d="m -115.71511,-537.73237 q 0.0164,-0.0875 0.0596,-0.18229 0.0475,-0.0923 0.12408,-0.22491 0.0543,-0.0941 0.084,-0.14543 0.0364,-0.0531 0.0587,-0.0916 0.0247,-0.0428 0.0469,-0.0812 0.029,-0.0403 0.071,-0.11299 0.0864,-0.1497 0.16421,-0.3044 0.0846,-0.15649 0.11526,-0.29845 0.0332,-0.14624 -0.004,-0.27018 -0.0368,-0.12389 -0.1908,-0.21281 -0.26092,-0.15064 -0.54958,0.0135 -0.28866,0.16413 -0.63222,0.69006 -0.10744,0.16609 -0.18893,0.30724 -0.0815,0.14115 -0.15783,0.23395 -0.074,0.0885 -0.15307,0.11694 -0.0749,0.0309 -0.17753,-0.0284 -0.0941,-0.0543 -0.10972,-0.12604 -0.0131,-0.0761 0.0223,-0.18676 0.0397,-0.10823 0.1169,-0.25188 0.0815,-0.14115 0.17733,-0.33675 0.10572,-0.21271 0.18441,-0.41821 0.083,-0.203 0.10034,-0.38121 0.0241,-0.17998 -0.0335,-0.32729 -0.0533,-0.14483 -0.21579,-0.23867 -0.15399,-0.0889 -0.28398,-0.0613 -0.12324,0.0258 -0.23336,0.12761 -0.10769,0.0975 -0.20508,0.24659 -0.0908,0.14721 -0.17966,0.30119 -0.0444,0.077 -0.0667,0.11549 -0.0154,0.0367 -0.0327,0.0667 -0.0173,0.03 -0.0445,0.077 -0.0228,0.0495 -0.0796,0.14793 -0.0815,0.14115 -0.14942,0.23881 -0.0636,0.10015 -0.13122,0.15806 -0.0794,0.0683 -0.14297,0.06 -0.0613,-0.0125 -0.10399,-0.0372 -0.1326,-0.0765 -0.11677,-0.19288 0.0159,-0.1163 0.11527,-0.29845 0.0568,-0.0984 0.12161,-0.22064 0.0716,-0.12404 0.17286,-0.29941 0.0494,-0.0856 0.0864,-0.1497 0.0371,-0.0642 0.0716,-0.12405 0.0389,-0.0573 0.0735,-0.11726 0.0414,-0.0617 0.0926,-0.14043 0.16346,-0.25351 0.33365,-0.36056 0.1726,-0.11136 0.33077,-0.12841 0.15811,-0.017 0.29879,0.0356 0.14312,0.0485 0.25005,0.11019 0.23097,0.13335 0.34973,0.29314 0.11876,0.15979 0.15292,0.32782 0.0384,0.17048 0.004,0.33879 -0.0301,0.17081 -0.097,0.32609 0.0986,-0.13131 0.22893,-0.23853 0.1371,-0.10905 0.3015,-0.15671 0.17114,-0.0495 0.37746,-0.0216 0.20632,0.0279 0.45012,0.16865 0.11549,0.0667 0.22045,0.16146 0.1117,0.093 0.16743,0.23355 0.0558,0.1405 0.0353,0.33402 -0.0137,0.19172 -0.14904,0.45575 -0.0426,0.0837 -0.0796,0.14793 -0.0303,0.0624 -0.0648,0.12226 -0.0302,0.0624 -0.0673,0.12655 -0.037,0.0642 -0.0864,0.1497 -0.10125,0.17537 -0.17719,0.29691 -0.0691,0.11976 -0.12595,0.21814 -0.0469,0.0812 -0.0951,0.14471 -0.0438,0.0659 -0.0923,0.10069 -0.0485,0.0347 -0.10863,0.0399 -0.0533,0.003 -0.13029,-0.041 -0.0727,-0.042 -0.0964,-0.0898 -0.0211,-0.0522 -0.007,-0.13544 z"
                 style="font-weight:normal;font-size:4.93889px;font-family:Sniglet;-inkscape-font-specification:Sniglet;stroke-width:0.315919;stroke-linecap:round;stroke-linejoin:round"
                 id="path79206" />
              <path
                 d="m -113.15143,-536.05832 q -0.0684,-0.0395 -0.0989,-0.0856 -0.0237,-0.0478 -0.0228,-0.0987 8.1e-4,-0.0508 0.0219,-0.10713 0.0234,-0.0606 0.0539,-0.12289 -0.18348,0.0709 -0.40644,0.0619 -0.21867,-0.006 -0.47959,-0.15712 -0.16681,-0.0963 -0.31503,-0.24459 -0.14144,-0.15013 -0.21346,-0.35137 -0.0695,-0.20552 -0.0408,-0.4627 0.0287,-0.25717 0.209,-0.56941 0.14076,-0.2438 0.32408,-0.42312 0.18331,-0.17931 0.39449,-0.26841 0.21788,-0.0909 0.45613,-0.0788 0.23826,0.0121 0.48634,0.15532 0.21814,0.12594 0.34233,0.30596 0.12665,0.17577 0.1598,0.43444 0.0297,-0.0514 0.0636,-0.10015 0.0364,-0.0531 0.0782,-0.086 0.0486,-0.0347 0.10618,-0.0357 0.0601,-0.005 0.13279,0.0367 0.0642,0.0371 0.0901,0.1205 0.0259,0.0835 -0.0642,0.25947 -0.11806,0.23409 -0.21745,0.41625 -0.0951,0.18464 -0.20619,0.37712 -0.13582,0.23525 -0.25375,0.42951 -0.11793,0.19425 -0.2634,0.40682 -0.0655,0.0934 -0.11701,0.14346 -0.0449,0.0482 -0.0836,0.0658 -0.0362,0.0133 -0.0711,0.005 -0.035,-0.009 -0.0648,-0.0259 z m 0.39627,-1.21978 q 0.12842,-0.22243 0.1415,-0.40308 0.0173,-0.17819 -0.0409,-0.31445 -0.0515,-0.13803 -0.14965,-0.23468 -0.0982,-0.0966 -0.19656,-0.15344 -0.15399,-0.0889 -0.2973,-0.0975 -0.13904,-0.006 -0.26427,0.0527 -0.12275,0.0546 -0.23354,0.16743 -0.10405,0.11102 -0.19295,0.265 -0.21732,0.3764 -0.15849,0.64989 0.0631,0.27596 0.3454,0.43895 0.16681,0.0963 0.31439,0.10738 0.15432,0.009 0.28385,-0.0471 0.13379,-0.0539 0.24456,-0.16677 0.11748,-0.11467 0.20391,-0.26437 z"
                 style="font-weight:normal;font-size:4.93889px;font-family:Sniglet;-inkscape-font-specification:Sniglet;stroke-width:0.315919;stroke-linecap:round;stroke-linejoin:round"
                 id="path79208" />
              <path
                 d="m -110.65578,-534.65167 q -0.0856,-0.0494 -0.10592,-0.15238 -0.0161,-0.10052 0.0144,-0.20271 -0.0785,0.0174 -0.17409,0.0249 -0.0913,0.01 -0.20157,0.003 -0.10782,-0.0109 -0.22525,-0.0445 -0.11746,-0.0336 -0.23723,-0.10278 -0.14542,-0.084 -0.29792,-0.23471 -0.14572,-0.15261 -0.23485,-0.36372 -0.0824,-0.21294 -0.0683,-0.48426 0.0183,-0.26885 0.20109,-0.58538 0.15558,-0.26946 0.35782,-0.43216 0.20224,-0.16268 0.4292,-0.21985 0.23366,-0.059 0.47668,-0.0156 0.24975,0.0415 0.48928,0.17983 0.20532,0.11854 0.29793,0.23471 0.0926,0.11618 0.124,0.21987 0.0667,-0.11549 0.15063,-0.26091 0.0864,-0.14971 0.16546,-0.28659 0.0858,-0.13864 0.1525,-0.25413 0.071,-0.11299 0.10991,-0.17038 0.0926,-0.14042 0.16496,-0.1671 0.0749,-0.0309 0.1818,0.0308 0.11121,0.0642 0.11761,0.14203 0.0131,0.0761 -0.0548,0.21358 -0.0278,0.0581 -0.0821,0.15221 -0.05,0.0966 -0.1142,0.2078 -0.0642,0.11122 -0.13089,0.22671 -0.0599,0.11371 -0.1142,0.2078 -0.0519,0.0898 -0.0864,0.14971 -0.0346,0.0599 -0.0346,0.0599 -0.25188,0.43627 -0.47292,0.79913 -0.21671,0.36534 -0.34265,0.58349 -0.0185,0.052 -0.0177,0.10957 0.005,0.0601 0.0105,0.12016 0.01,0.0625 0.008,0.12438 -0.002,0.0618 -0.0312,0.11317 -0.0345,0.0598 -0.0917,0.0896 -0.0547,0.0255 -0.11899,0.0283 -0.0601,0.005 -0.12125,-0.007 -0.0544,-0.0143 -0.093,-0.0366 z m -0.60821,-0.85302 q 0.2652,0.15311 0.49772,0.0764 0.23252,-0.0768 0.44243,-0.44034 0.40253,-0.6972 -0.14925,-1.01576 -0.12831,-0.0741 -0.27033,-0.10469 -0.14196,-0.0307 -0.28301,-0.004 -0.13672,0.0294 -0.26824,0.11888 -0.12722,0.0919 -0.22599,0.26303 -0.0815,0.14115 -0.11704,0.29172 -0.0313,0.15302 -0.009,0.30259 0.0288,0.14778 0.11821,0.27926 0.0938,0.13393 0.26486,0.23271 z"
                 style="font-weight:normal;font-size:4.93889px;font-family:Sniglet;-inkscape-font-specification:Sniglet;stroke-width:0.315919;stroke-linecap:round;stroke-linejoin:round"
                 id="path79210" />
              <path
                 d="m -109.84891,-534.52801 q 0.0827,-0.16326 0.19037,-0.36914 0.11421,-0.20782 0.25497,-0.45162 0.17533,-0.30368 0.30314,-0.51505 0.13027,-0.21564 0.22636,-0.34267 0.10289,-0.1288 0.18271,-0.16825 0.0823,-0.0437 0.15926,7.3e-4 0.0728,0.042 0.0987,0.12543 0.0259,0.0835 -0.0642,0.25947 -0.23367,0.46392 -0.47568,0.8831 -0.12347,0.21386 -0.24079,0.39706 -0.11485,0.17893 -0.25166,0.3965 -0.0636,0.10015 -0.11277,0.14591 -0.0449,0.0482 -0.0878,0.0634 -0.0429,0.0152 -0.0796,-3.4e-4 -0.035,-0.009 -0.0777,-0.0333 -0.077,-0.0444 -0.0987,-0.12544 -0.0193,-0.0852 0.0734,-0.26558 z m 1.76801,-2.61778 q 0.0984,0.0568 0.1352,0.18071 0.0411,0.12639 -0.0206,0.23332 -0.0593,0.10265 -0.18928,0.13025 -0.12757,0.0233 -0.23448,-0.0384 -0.0898,-0.0519 -0.12909,-0.17153 -0.0325,-0.12145 0.0317,-0.23266 0.0593,-0.10265 0.17824,-0.13091 0.12569,-0.0301 0.22837,0.0292 z"
                 style="font-weight:normal;font-size:4.93889px;font-family:Sniglet;-inkscape-font-specification:Sniglet;stroke-width:0.315919;stroke-linecap:round;stroke-linejoin:round"
                 id="path79212" />
              <path
                 d="m -108.8964,-533.95526 q 0.0846,-0.15649 0.19878,-0.36429 0.1142,-0.20782 0.24817,-0.44985 0.13829,-0.23953 0.28707,-0.50722 0.15311,-0.26519 0.31362,-0.54322 0.17534,-0.30368 0.30561,-0.51932 0.13027,-0.21564 0.22883,-0.34695 0.10289,-0.1288 0.18271,-0.16825 0.0823,-0.0437 0.15926,7.2e-4 0.0727,0.042 0.10117,0.12112 0.0285,0.0791 -0.0618,0.25519 -0.16066,0.31786 -0.34904,0.65395 -0.18582,0.33184 -0.37103,0.65264 -0.11113,0.19248 -0.21485,0.37213 -0.10125,0.17537 -0.20683,0.34824 -0.10311,0.16859 -0.21116,0.34573 -0.10804,0.17715 -0.22766,0.36473 -0.0636,0.10016 -0.11276,0.14591 -0.0449,0.0482 -0.0879,0.0634 -0.0429,0.0152 -0.0796,-3.4e-4 -0.035,-0.009 -0.0777,-0.0333 -0.077,-0.0444 -0.0987,-0.12544 -0.0193,-0.0852 0.0734,-0.26557 z"
                 style="font-weight:normal;font-size:4.93889px;font-family:Sniglet;-inkscape-font-specification:Sniglet;stroke-width:0.315919;stroke-linecap:round;stroke-linejoin:round"
                 id="path79214" />
              <path
                 d="m -107.93828,-533.4021 q 0.0846,-0.15648 0.19877,-0.36429 0.11421,-0.20781 0.24817,-0.44984 0.13829,-0.23953 0.28707,-0.50722 0.15311,-0.26519 0.31363,-0.54322 0.17533,-0.30369 0.30561,-0.51933 0.13027,-0.21563 0.22883,-0.34694 0.10288,-0.1288 0.1827,-0.16825 0.0823,-0.0437 0.15927,7.2e-4 0.0727,0.042 0.10117,0.12112 0.0284,0.0791 -0.0618,0.25519 -0.16066,0.31786 -0.34904,0.65395 -0.18581,0.33185 -0.37103,0.65265 -0.11113,0.19247 -0.21484,0.37212 -0.10126,0.17537 -0.20683,0.34824 -0.10312,0.16859 -0.21116,0.34574 -0.10805,0.17714 -0.22767,0.36472 -0.0636,0.10016 -0.11276,0.14591 -0.0449,0.0482 -0.0879,0.0634 -0.0429,0.0152 -0.0796,-3.4e-4 -0.035,-0.009 -0.0777,-0.0333 -0.077,-0.0444 -0.0987,-0.12544 -0.0192,-0.0852 0.0734,-0.26557 z"
                 style="font-weight:normal;font-size:4.93889px;font-family:Sniglet;-inkscape-font-specification:Sniglet;stroke-width:0.315919;stroke-linecap:round;stroke-linejoin:round"
                 id="path79216" />
              <path
                 d="m -104.90897,-534.2138 q 0.2438,0.14076 0.39182,0.32888 0.15048,0.18387 0.20407,0.39727 0.0579,0.21589 0.017,0.45464 -0.0408,0.23876 -0.18162,0.48256 -0.15557,0.26947 -0.36461,0.43393 -0.20471,0.16696 -0.44089,0.23022 -0.23185,0.0657 -0.48409,0.0285 -0.24793,-0.0348 -0.48747,-0.17313 -0.26091,-0.15063 -0.41008,-0.35653 -0.14489,-0.20342 -0.19287,-0.43643 -0.0437,-0.23053 0.004,-0.47108 0.0476,-0.24053 0.17606,-0.46295 0.14076,-0.2438 0.33382,-0.40039 0.19977,-0.15841 0.42919,-0.21986 0.23614,-0.0633 0.49265,-0.0235 0.25649,0.0398 0.51313,0.18794 z m -1.10151,1.79926 q 0.17537,0.10125 0.33401,0.11293 0.1611,0.007 0.29734,-0.0507 0.14051,-0.0558 0.24884,-0.16429 0.11501,-0.1104 0.1965,-0.25155 0.084,-0.14544 0.11713,-0.29167 0.0399,-0.14807 0.0172,-0.28664 -0.0184,-0.13609 -0.10852,-0.25655 -0.0834,-0.12228 -0.24592,-0.21612 -0.16682,-0.0963 -0.32296,-0.11232 -0.15614,-0.016 -0.29849,0.033 -0.13557,0.0472 -0.25493,0.15508 -0.11934,0.1079 -0.20824,0.26189 -0.18027,0.31224 -0.13561,0.60037 0.0514,0.28632 0.36366,0.46659 z"
                 style="font-weight:normal;font-size:4.93889px;font-family:Sniglet;-inkscape-font-specification:Sniglet;stroke-width:0.315919;stroke-linecap:round;stroke-linejoin:round"
                 id="path79218" />
              <path
                 d="m -102.80351,-545.30354 c 0,0 0.20893,2.33619 0.72369,3.27004 0.51483,0.93375 -2.56548,-0.4583 -3.24755,-3.27949"
                 style="fill:#edcd9d;fill-opacity:1;fill-rule:nonzero;stroke:#000000;stroke-width:0.322;stroke-linecap:round;stroke-linejoin:miter;stroke-miterlimit:10;stroke-dasharray:none;stroke-opacity:1"
                 id="path69717" />
              <path
                 d="m -114.45384,-545.00503 c -2.66015,-1.53584 -5.98052,-3.83146 -8.07981,-7.99067 -1.80843,-1.5106 -2.12163,-2.04595 -2.03946,-2.41834 0.0798,-0.36162 0.54091,-0.48475 1.12463,-0.64042 0.81714,-0.21814 1.93631,-0.5167 2.5527,-1.58433 2.14938,-3.72282 8.32407,-4.19615 13.76434,-1.0552 5.06233,2.92274 6.96612,7.79009 4.62968,11.83692 l -0.004,0.007 -0.005,0.007 c -0.16794,0.2257 -0.32974,0.4568 -0.50092,0.70172 -1.62266,2.31945 -3.46182,4.94832 -10.20986,1.82298 -0.47944,-0.26024 -0.86787,-0.47733 -1.23156,-0.6873"
                 style="fill:#edcd9d;fill-opacity:1;fill-rule:nonzero;stroke:none;stroke-width:0.01003"
                 id="path69719" />
              <path
                 d="m -107.05576,-558.82506 c -2.65243,-1.53138 -5.55637,-2.26824 -8.17702,-2.07495 -2.6637,0.19646 -4.72124,1.32775 -5.7939,3.18565 -0.58505,1.01333 -1.62503,1.29068 -2.46074,1.51372 -0.6083,0.16233 -1.1338,0.30262 -1.23328,0.75397 -0.1138,0.51524 0.40863,1.1606 2.06621,2.54694 2.11801,4.17754 5.45259,6.48264 8.1249,8.0255 0.365,0.21073 0.75474,0.42835 1.2265,0.68485 l 0.009,0.005 0.009,0.004 c 3.03824,1.40714 5.37073,1.77735 7.1308,1.1318 1.56591,-0.57443 2.4694,-1.86591 3.26643,-3.00528 0.17056,-0.24388 0.33169,-0.47421 0.49831,-0.69801 l 0.0105,-0.0139 0.009,-0.0153 c 1.10867,-1.92027 1.3018,-4.14884 0.54368,-6.27502 -0.80752,-2.26508 -2.61551,-4.25989 -5.22858,-5.76855 m -0.1512,0.26189 c 5.37668,3.10423 6.68533,7.97392 4.57421,11.63047 -1.77733,2.38696 -3.19422,5.87358 -10.52601,2.47769 -0.39408,-0.21432 -0.80265,-0.44025 -1.21967,-0.68101 -2.80166,-1.61755 -6.00306,-3.91259 -8.03433,-7.95573 -4.69116,-3.91247 0.041,-1.68813 1.64788,-4.47146 2.11112,-3.65655 8.18123,-4.1042 13.55792,-0.99996"
                 style="fill:#000000;fill-opacity:1;fill-rule:nonzero;stroke:none;stroke-width:0.322;stroke-miterlimit:4;stroke-dasharray:none"
                 id="path69721" />
              <path
                 d="m -107.98011,-543.23583 c 0,0 -0.31566,2.13107 0.86638,2.5571 1.18231,0.42619 4.66851,-4.23056 4.66851,-4.23056"
                 style="fill:#edcd9d;fill-opacity:1;fill-rule:nonzero;stroke:#000000;stroke-width:0.322;stroke-linecap:round;stroke-linejoin:miter;stroke-miterlimit:10;stroke-dasharray:none;stroke-opacity:1"
                 id="path69723" />
              <path
                 d="m -105.2416,-544.33879 c -0.94314,-0.54476 -1.77196,-1.48109 -2.46315,-2.78317 -0.0139,-0.0262 -0.0197,-0.0561 -0.0169,-0.0855 l 1.54019,-15.74999 c 0.004,-0.043 0.0265,-0.0821 0.0614,-0.10766 0.0349,-0.0254 0.079,-0.0346 0.1211,-0.0254 0.95003,0.20685 1.89875,0.58144 2.82018,1.11344 1.86928,1.07922 3.480315,2.73031 4.536115,4.64941 1.168203,2.12321 1.602195,4.45153 1.254889,6.7333 -0.438644,2.88189 -2.041999,5.37834 -4.084804,6.35994 -1.28098,0.61572 -2.58422,0.57973 -3.76841,-0.10397"
                 style="fill:#b46945;fill-opacity:1;fill-rule:nonzero;stroke:none;stroke-width:0.01003"
                 id="path69725" />
              <path
                 d="m -103.10316,-562.10812 c -0.93481,-0.53971 -1.89834,-0.91996 -2.86358,-1.13015 -0.0843,-0.0183 -0.17256,2.1e-4 -0.2423,0.051 -0.0698,0.0508 -0.11447,0.12905 -0.12287,0.21501 l -1.5401,15.75004 c -0.006,0.0591 0.006,0.11867 0.0338,0.17113 0.70484,1.32779 1.55303,2.28435 2.52102,2.84322 1.21234,0.69994 2.60122,0.73882 3.9108,0.10928 2.086185,-1.00278 3.72222,-3.54359 4.16803,-6.473 0.352305,-2.3149 -0.08747,-4.67632 -1.271792,-6.82899 -1.068983,-1.94281 -2.700118,-3.61465 -4.593018,-4.70752 m -0.15121,0.26189 c 3.591065,2.0733 6.447977,6.4274 5.717097,11.22909 -0.716915,4.71049 -4.453247,7.98083 -7.628757,6.14745 -0.86792,-0.5011 -1.6944,-1.38432 -2.40514,-2.72317 l 1.5401,-15.75004 c 0.94186,0.20514 1.88193,0.58007 2.7767,1.09667"
                 style="fill:#000000;fill-opacity:1;fill-rule:nonzero;stroke:none;stroke-width:0.322;stroke-miterlimit:4;stroke-dasharray:none"
                 id="path69727" />
              <path
                 d="m -108.18802,-545.78141 c -0.95054,-0.54879 -2.39854,-1.99179 -1.4158,-5.4891 1.73461,-6.1723 1.06365,-10.49036 -1.99435,-12.83418 -0.0444,-0.0339 -0.0663,-0.0895 -0.0571,-0.14453 0.009,-0.0551 0.0477,-0.10066 0.10054,-0.11857 1.14068,-0.38656 4.01911,-0.70098 6.74946,0.87538 1.50774,0.87051 2.76982,2.19643 3.75121,3.94111 2.054298,3.65202 0.69387,8.15556 -1.09523,10.90252 -1.40227,2.15298 -3.16436,3.46158 -4.48896,3.33381 -0.49807,-0.0172 -1.06624,-0.1873 -1.54954,-0.46634"
                 style="fill:#b46945;fill-opacity:1;fill-rule:nonzero;stroke:none;stroke-width:0.01003"
                 id="path69729" />
              <path
                 d="m -104.72972,-563.62339 c -2.77732,-1.6035 -5.71062,-1.28172 -6.87363,-0.88757 -0.10569,0.0358 -0.18301,0.12702 -0.20117,0.2371 -0.0182,0.11017 0.0258,0.22138 0.11435,0.2892 3.0041,2.30239 3.65709,6.5663 1.94082,12.67333 -1.01048,3.59572 0.49712,5.09015 1.4857,5.66091 0.50128,0.28941 1.09122,0.46659 1.62012,0.48671 1.39982,0.12868 3.16927,-1.17404 4.6207,-3.40252 1.04811,-1.60917 1.77143,-3.48947 2.036755,-5.29463 0.3126,-2.12658 -0.0112,-4.11993 -0.936295,-5.76458 -0.99483,-1.76854 -2.27579,-3.11372 -3.80735,-3.99795 m -0.15119,0.26189 c 1.32326,0.76398 2.62635,1.98434 3.69503,3.88435 3.304357,5.87437 -2.25031,14.31919 -5.43791,14.01166 -0.40704,-0.0142 -0.9595,-0.14131 -1.48865,-0.44682 -1.16613,-0.67326 -2.2182,-2.21288 -1.34583,-5.31724 1.2683,-4.51307 1.80967,-10.03847 -2.04796,-12.99508 0.99931,-0.3387 3.85719,-0.73506 6.62532,0.86313"
                 style="fill:#000000;fill-opacity:1;fill-rule:nonzero;stroke:none;stroke-width:0.322;stroke-miterlimit:10;stroke-dasharray:none"
                 id="path69731" />
              <path
                 d="m -113.3228,-547.61017 c -0.77689,-0.44876 -2.47761,-1.8753 -1.49301,-5.42157 1.31008,-4.71825 0.95456,-8.46089 -0.90568,-9.5349 -0.39375,-0.22733 -0.85972,-0.34441 -1.38489,-0.34811 -0.0267,-1.3e-4 -0.0522,-0.007 -0.0745,-0.0202 -0.0276,-0.0159 -0.0501,-0.0406 -0.0633,-0.0711 -0.0238,-0.055 -0.0126,-0.11916 0.0283,-0.16295 0.23616,-0.25279 1.22448,-0.93011 2.62376,-1.29579 1.22431,-0.31997 3.08594,-0.46922 5.00143,0.63668 0.88243,0.50948 1.70832,1.24689 2.4545,2.19134 1.55432,2.16477 2.0339,4.73007 1.39101,7.4241 -0.78792,3.30251 -3.08289,6.09617 -4.36779,6.76463 -0.92158,0.47947 -2.21138,0.41441 -3.20951,-0.16186"
                 style="fill:#b46945;fill-opacity:1;fill-rule:nonzero;stroke:none;stroke-width:0.01003"
                 id="path69733" />
              <path
                 d="m -109.51517,-563.95912 c -1.95988,-1.13153 -3.86345,-0.97905 -5.11532,-0.65206 -1.43078,0.3739 -2.45042,1.07599 -2.69592,1.33891 -0.0818,0.0878 -0.10412,0.21565 -0.0567,0.32585 0.0263,0.0612 0.0713,0.11042 0.12662,0.14237 0.0444,0.0256 0.0955,0.0401 0.14905,0.0405 0.49858,0.003 0.93939,0.11372 1.31029,0.32786 1.79866,1.03846 2.12668,4.7138 0.83558,9.36345 -1.01302,3.64846 0.75569,5.12675 1.56316,5.59295 1.04131,0.60119 2.38963,0.66761 3.35522,0.16525 1.31004,-0.6815 3.64675,-3.518 4.44516,-6.86393 0.30387,-1.27376 0.36463,-2.52262 0.18045,-3.71172 -0.21131,-1.36437 -0.74681,-2.65288 -1.59161,-3.82973 -0.002,-0.004 -0.006,-0.007 -0.008,-0.011 -0.75821,-0.95974 -1.59849,-1.70952 -2.49769,-2.22867 m -0.1512,0.26189 c 0.81233,0.469 1.62868,1.16315 2.41166,2.15421 4.29809,5.98704 -0.99711,12.95619 -2.92801,13.96082 -0.84161,0.43785 -2.06571,0.41767 -3.06446,-0.15895 -1.29276,-0.74638 -2.20726,-2.42558 -1.423,-5.25016 1.17033,-4.21501 1.1907,-8.45545 -0.97573,-9.70624 -0.40695,-0.23495 -0.89123,-0.36444 -1.45948,-0.36836 0.42481,-0.45496 3.89912,-2.67508 7.43902,-0.63132"
                 style="fill:#000000;fill-opacity:1;fill-rule:nonzero;stroke:none;stroke-width:0.322;stroke-miterlimit:10;stroke-dasharray:none"
                 id="path69735" />
              <path
                 d="m -117.10078,-549.33345 c -1.57874,-0.91183 -1.22342,-3.17659 -0.87117,-4.44547 0.59493,-2.14298 0.29868,-3.57468 -0.88073,-4.25562 -0.79748,-0.46042 -1.81089,-0.46782 -2.54415,-0.38633 -0.0224,0.0262 -0.0505,0.0482 -0.0884,0.0585 -0.039,0.0108 -0.0849,0.005 -0.11997,-0.0153 -0.10406,-0.0601 -0.0806,-0.18031 -0.0719,-0.22568 0.10134,-0.52034 1.56514,-4.08017 5.0277,-4.56624 1.22188,-0.17174 2.34717,0.0334 3.34487,0.60947 1.89742,1.09547 3.0762,3.48201 2.93307,5.9383 -0.20171,3.4639 -3.08491,6.89948 -4.56918,7.44345 -0.55944,0.20489 -1.42053,0.27189 -2.1599,-0.15499"
                 style="fill:#b46945;fill-opacity:1;fill-rule:nonzero;stroke:none;stroke-width:0.01003"
                 id="path69737" />
              <path
                 d="m -113.22896,-562.6911 c -1.0275,-0.59323 -2.18535,-0.80459 -3.44139,-0.62824 -1.87739,0.2636 -3.14106,1.404 -3.87059,2.31434 -0.813,1.01457 -1.22245,2.05435 -1.28453,2.37291 -0.0459,0.23622 0.0711,0.34294 0.14479,0.38552 0.0699,0.0404 0.15755,0.0515 0.23554,0.0301 0.0464,-0.0128 0.0845,-0.0346 0.11538,-0.0596 1.22603,-0.12777 1.98066,0.12944 2.40159,0.37247 1.11201,0.64202 1.38484,2.01619 0.81058,4.08424 -0.33462,1.20506 -0.40095,2.22544 -0.19731,3.03259 0.17917,0.70973 0.57282,1.25759 1.13864,1.58427 0.78463,0.453 1.69619,0.38283 2.28761,0.16607 1.51712,-0.55594 4.46306,-4.05444 4.66821,-7.57645 0.14629,-2.51214 -1.06263,-4.95477 -3.00852,-6.07823 m -0.1512,0.26189 c 1.92243,1.10992 2.99287,3.4815 2.85786,5.79876 -0.19857,3.4093 -3.06039,6.79342 -4.4704,7.31007 -0.58923,0.21597 -1.38828,0.22786 -2.03236,-0.144 -0.8972,-0.518 -1.49341,-1.781 -0.80125,-4.27412 0.69332,-2.49674 0.10823,-3.81551 -0.95071,-4.42689 -0.7577,-0.43745 -1.75805,-0.5126 -2.70614,-0.39763 -0.0234,0.0417 -0.0389,0.0589 -0.0463,0.0546 -0.0996,-0.0575 1.27653,-4.00255 4.90111,-4.51148 1.24733,-0.17511 2.34241,0.0678 3.24821,0.59073"
                 style="fill:#000000;fill-opacity:1;fill-rule:nonzero;stroke:none;stroke-width:0.322;stroke-miterlimit:10;stroke-dasharray:none"
                 id="path69739" />
              <path
                 d="m -120.99112,-550.07914 c 0,0 -0.38121,2.6474 0.81885,3.28838 1.20006,0.64097 2.64238,-1.06084 2.64238,-1.06084"
                 style="fill:#edcd9d;fill-opacity:1;fill-rule:nonzero;stroke:#000000;stroke-width:0.322;stroke-linecap:round;stroke-linejoin:miter;stroke-miterlimit:10;stroke-dasharray:none;stroke-opacity:1"
                 id="path69741" />
              <path
                 d="m -119.58268,-557.63393 c 1.0545,-3.09082 -0.66804,-6.40051 -1.56451,-5.63473 -0.89639,0.76584 -0.66641,4.56305 -0.22811,5.30798"
                 style="fill:#edcd9d;fill-opacity:1;fill-rule:nonzero;stroke:#000000;stroke-width:0.322;stroke-linecap:round;stroke-linejoin:miter;stroke-miterlimit:10;stroke-dasharray:none;stroke-opacity:1"
                 id="path69743" />
              <path
                 d="m -120.18365,-560.46158 c 0.087,1.10252 -0.0673,1.9856 -0.27898,2.00354 -0.21164,0.0179 -0.63995,-0.82173 -0.72696,-1.92416 -0.087,-1.10252 0.0677,-2.01407 0.34553,-2.036 0.27777,-0.0219 0.57345,0.85411 0.66041,1.95662"
                 style="fill:#e89595;fill-opacity:1;fill-rule:nonzero;stroke:none;stroke-width:0.01003"
                 id="path69745" />
              <path
                 d="m -125.04739,-549.92542 c -1.23996,-0.71589 -2.19957,-1.67864 -2.56698,-2.57547 -0.60824,-1.50875 0.23891,-2.0276 0.60062,-2.24891 0.0443,-0.0273 0.0824,-0.0505 0.10463,-0.0677 0.51304,-0.39533 0.83881,-0.97001 0.92643,-1.13681 1.13707,-2.16365 2.74621,-3.63965 4.53102,-4.15591 1.34168,-0.3883 2.72296,-0.20522 3.99497,0.52917 0.32486,0.18757 0.64644,0.41331 0.95544,0.67068 1.44843,1.20734 2.03719,3.1314 1.57455,5.14714 -0.53217,2.31832 -2.29314,4.16842 -4.48653,4.71355 -1.72657,0.5119 -3.78259,0.19324 -5.63398,-0.87565"
                 style="fill:#edcd9d;fill-opacity:1;fill-rule:nonzero;stroke:none;stroke-width:0.01003"
                 id="path69747" />
              <path
                 d="m -117.38108,-559.71202 c -1.30849,-0.75545 -2.73063,-0.94337 -4.1126,-0.54347 -1.82465,0.5279 -3.46644,2.03056 -4.62288,4.23096 -0.0599,0.11378 -0.38346,0.70086 -0.88486,1.08728 -0.0159,0.0123 -0.0541,0.0357 -0.0913,0.0584 -0.36048,0.22075 -1.31812,0.80702 -0.66231,2.43358 0.38035,0.92838 1.36396,1.91877 2.63205,2.65091 1.88509,1.08835 3.98145,1.41258 5.75271,0.88988 2.24501,-0.56073 4.04663,-2.45396 4.59077,-4.82489 0.4756,-2.07231 -0.13193,-4.05249 -1.62506,-5.29697 -0.31566,-0.26309 -0.64422,-0.49379 -0.97656,-0.68566 m -0.1512,0.26189 c 0.31487,0.1818 0.62703,0.4 0.93417,0.65597 3.28484,2.73768 1.42266,8.53556 -2.85163,9.59788 -1.89899,0.5628 -3.9494,0.0481 -5.52204,-0.8599 -1.21928,-0.70396 -2.15143,-1.64448 -2.50276,-2.50214 -0.63746,-1.5811 0.42087,-1.95684 0.65777,-2.13948 0.50796,-0.39155 0.84814,-0.95849 0.9678,-1.18601 1.93302,-3.67807 5.26383,-5.32889 8.31669,-3.56632"
                 style="fill:#000000;fill-opacity:1;fill-rule:nonzero;stroke:none;stroke-width:0.322;stroke-miterlimit:9;stroke-dasharray:none"
                 id="path69749" />
              <path
                 d="m -125.69065,-552.13621 c -0.24384,0.20008 -0.73297,0.007 -1.09254,-0.43122 -0.35956,-0.43818 -0.45329,-0.95567 -0.20937,-1.1557 0.24389,-0.20015 0.73302,-0.007 1.09259,0.43114 0.35943,0.43822 0.45315,0.95572 0.20932,1.15578"
                 style="fill:#e89595;fill-opacity:1;fill-rule:nonzero;stroke:none;stroke-width:0.01003"
                 id="path69751" />
              <path
                 d="m -120.88216,-554.41806 c -0.15793,0.27352 -0.50772,0.36725 -0.78125,0.20933 -0.27352,-0.15792 -0.36725,-0.50772 -0.20933,-0.78124 0.15792,-0.27353 0.50771,-0.36726 0.78124,-0.20934 0.27353,0.15792 0.36726,0.50772 0.20934,0.78125"
                 style="fill:#000000;fill-opacity:1;fill-rule:nonzero;stroke:none;stroke-width:0.01003"
                 id="path69753" />
              <path
                 d="m -123.96644,-557.15831 c -0.15792,0.27353 -0.50771,0.36725 -0.78124,0.20933 -0.27354,-0.15792 -0.36717,-0.50766 -0.20925,-0.78119 0.15792,-0.27353 0.50763,-0.36731 0.78116,-0.20939 0.27353,0.15792 0.36725,0.50772 0.20933,0.78125"
                 style="fill:#000000;fill-opacity:1;fill-rule:nonzero;stroke:none;stroke-width:0.01003"
                 id="path69755" />
              <path
                 d="m -117.2298,-557.34217 c 2.63693,0.85511 0.45791,-0.54738 1.41053,-0.60021 -0.20559,-0.32936 -2.09616,-2.53817 -4.75922,-2.18777 -1.42022,0.38267 -3.00574,2.80812 -1.86184,3.17426 1.14375,0.36617 2.26742,-1.8886 5.21053,-0.38628"
                 style="fill:#b46945;fill-opacity:1;fill-rule:nonzero;stroke:none;stroke-width:0.01003"
                 id="path69757" />
              <path
                 d="m -118.06651,-557.02495 c 2.16136,-2.4483 5.8895,-2.59354 5.66904,-1.43538 -0.22051,1.15825 -3.63203,2.84134 -4.49642,2.82999"
                 style="fill:#edcd9d;fill-opacity:1;fill-rule:nonzero;stroke:#000000;stroke-width:0.322;stroke-linecap:round;stroke-linejoin:miter;stroke-miterlimit:10;stroke-dasharray:none;stroke-opacity:1"
                 id="path69759" />
              <path
                 d="m -115.50678,-556.87481 c -0.9726,0.52633 -1.8425,0.7432 -1.94475,0.557 -0.10211,-0.18624 0.49184,-0.91809 1.46458,-1.44446 0.9726,-0.52633 1.86861,-0.7543 2.00116,-0.50926 0.13263,0.24509 -0.54839,0.87039 -1.52099,1.39672"
                 style="fill:#e89595;fill-opacity:1;fill-rule:nonzero;stroke:none;stroke-width:0.01003"
                 id="path69761" />
              <path
                 d="m -121.88544,-572.16555 q 0.21802,0 0.34925,0.0656 0.13123,0.0656 0.20108,0.17357 0.0699,0.10795 0.091,0.24553 0.0233,0.13759 0.0233,0.2794 0,0.15452 -0.0402,0.29211 -0.0381,0.13758 -0.12065,0.2413 -0.0804,0.1016 -0.20744,0.16298 -0.127,0.0593 -0.30268,0.0593 -0.1397,0 -0.22437,-0.0212 -0.0826,-0.019 -0.12911,-0.0593 -0.0444,-0.0402 -0.0593,-0.1016 -0.0148,-0.0614 -0.0148,-0.14393 v -0.79587 q 0,-0.091 0.0148,-0.1651 0.0169,-0.0741 0.0635,-0.12488 0.0466,-0.0529 0.13123,-0.0804 0.0868,-0.0275 0.22437,-0.0275 z m 0.008,1.3081 q 0.13123,0 0.2159,-0.0466 0.0868,-0.0487 0.13758,-0.127 0.0508,-0.0783 0.0699,-0.1778 0.0212,-0.0995 0.0212,-0.2032 0,-0.0952 -0.0148,-0.1905 -0.0148,-0.0974 -0.0614,-0.17568 -0.0466,-0.0783 -0.13335,-0.127 -0.0868,-0.0487 -0.23072,-0.0487 -0.13123,0 -0.18203,0.0381 -0.0508,0.0381 -0.0508,0.11642 v 0.81069 q 0,0.0656 0.0466,0.0995 0.0487,0.0317 0.18204,0.0317 z"
                 style="font-weight:bold;font-size:2.11667px;font-family:Sniglet;-inkscape-font-specification:'Sniglet Bold';fill:#000000;stroke-width:0.315912;stroke-linecap:round;stroke-linejoin:round"
                 id="path79157" />
              <path
                 d="m -120.51807,-571.05853 q -0.0741,0 -0.15664,-0.0106 -0.0804,-0.0127 -0.17568,-0.0508 0.0191,0.12912 0.10583,0.19474 0.0889,0.0656 0.254,0.0656 0.0593,0 0.10584,-0.006 0.0487,-0.008 0.0847,-0.0169 0.036,-0.0106 0.0635,-0.0169 0.0275,-0.008 0.0508,-0.008 0.0296,0 0.0572,0.019 0.0275,0.0169 0.0275,0.0593 0,0.0529 -0.0444,0.0868 -0.0423,0.0339 -0.10583,0.055 -0.0614,0.019 -0.13124,0.0254 -0.0699,0.008 -0.12276,0.008 -0.12489,0 -0.23072,-0.0339 -0.10372,-0.0339 -0.17992,-0.1016 -0.0762,-0.0698 -0.11853,-0.17145 -0.0423,-0.1016 -0.0423,-0.23706 0,-0.13124 0.0402,-0.23284 0.0423,-0.1016 0.1143,-0.17145 0.072,-0.0698 0.16934,-0.10583 0.0995,-0.036 0.21378,-0.036 0.0889,0 0.17145,0.0233 0.0847,0.0233 0.14817,0.0698 0.0656,0.0466 0.10371,0.11853 0.0402,0.0699 0.0402,0.1651 0,0.0847 -0.0318,0.14394 -0.0318,0.0593 -0.091,0.0952 -0.0572,0.036 -0.1397,0.0529 -0.0804,0.0169 -0.17991,0.0169 z m -0.0148,-0.49107 q -0.0572,0 -0.11007,0.0148 -0.0529,0.0127 -0.0974,0.0445 -0.0423,0.0296 -0.072,0.0804 -0.0296,0.0487 -0.0402,0.12277 0.0804,0.036 0.15664,0.0508 0.0762,0.0127 0.16086,0.0127 0.12489,0 0.18415,-0.0296 0.0614,-0.0317 0.0614,-0.11218 0,-0.0741 -0.0572,-0.12912 -0.055,-0.055 -0.18627,-0.055 z"
                 style="font-weight:bold;font-size:2.11667px;font-family:Sniglet;-inkscape-font-specification:'Sniglet Bold';fill:#000000;stroke-width:0.315912;stroke-linecap:round;stroke-linejoin:round"
                 id="path79159" />
              <path
                 d="m -119.50207,-571.77397 q 0.0444,0 0.11218,0.008 0.0677,0.006 0.12912,0.0275 0.0614,0.019 0.10583,0.055 0.0444,0.036 0.0444,0.091 0,0.0317 -0.0191,0.055 -0.0169,0.0233 -0.055,0.0233 -0.0275,0 -0.0635,-0.008 -0.0339,-0.008 -0.0762,-0.019 -0.0402,-0.0127 -0.0889,-0.0212 -0.0466,-0.008 -0.0995,-0.008 -0.0889,0 -0.14605,0.0275 -0.055,0.0275 -0.055,0.0868 0,0.0339 0.0191,0.0571 0.0212,0.0233 0.055,0.0423 0.036,0.0169 0.0825,0.0296 0.0487,0.0127 0.1016,0.0254 0.0656,0.0169 0.12911,0.0381 0.0656,0.0212 0.11642,0.0593 0.0508,0.036 0.0825,0.0931 0.0318,0.055 0.0318,0.13758 0,0.15664 -0.11853,0.24977 -0.11854,0.091 -0.34925,0.091 -0.0508,0 -0.12066,-0.008 -0.0699,-0.006 -0.13123,-0.0275 -0.0614,-0.019 -0.10583,-0.055 -0.0423,-0.0381 -0.0423,-0.0995 0,-0.0423 0.019,-0.0635 0.0212,-0.0233 0.0508,-0.0233 0.0233,0 0.0487,0.0148 0.0254,0.0148 0.0614,0.0317 0.036,0.0169 0.0868,0.0317 0.0508,0.0148 0.12489,0.0148 0.0275,0 0.072,-0.002 0.0444,-0.004 0.0868,-0.019 0.0444,-0.0148 0.0741,-0.0402 0.0318,-0.0275 0.0318,-0.0762 0,-0.0381 -0.0212,-0.0635 -0.0212,-0.0275 -0.0571,-0.0466 -0.036,-0.019 -0.0847,-0.0317 -0.0466,-0.0148 -0.0995,-0.0296 -0.0614,-0.0169 -0.12489,-0.0381 -0.0614,-0.0212 -0.11218,-0.055 -0.0508,-0.0339 -0.0825,-0.0847 -0.0318,-0.0529 -0.0318,-0.12912 0,-0.072 0.0296,-0.13335 0.0296,-0.0635 0.0847,-0.11006 0.055,-0.0466 0.13123,-0.072 0.0783,-0.0254 0.17357,-0.0254 z"
                 style="font-weight:bold;font-size:2.11667px;font-family:Sniglet;-inkscape-font-specification:'Sniglet Bold';fill:#000000;stroke-width:0.315912;stroke-linecap:round;stroke-linejoin:round"
                 id="path79161" />
              <path
                 d="m -118.88612,-570.8003 q -0.004,-0.0783 -0.008,-0.1778 -0.002,-0.1016 -0.002,-0.22225 0,-0.15029 0.002,-0.25612 0.002,-0.10795 0.0106,-0.17568 0.0106,-0.0698 0.0318,-0.1016 0.0212,-0.0339 0.0593,-0.0339 0.036,0 0.0635,0.0254 0.0275,0.0254 0.0318,0.11007 0.0127,0.22225 0.0127,0.42968 0,0.10584 -0.004,0.19897 -0.004,0.091 -0.008,0.20108 -0.002,0.0508 -0.0106,0.0783 -0.006,0.0275 -0.019,0.0423 -0.0127,0.0148 -0.0296,0.0169 -0.0148,0.004 -0.036,0.004 -0.0381,0 -0.0635,-0.0254 -0.0254,-0.0275 -0.0296,-0.1143 z m 0.0953,-1.35044 q 0.0487,0 0.0889,0.0381 0.0423,0.0381 0.0423,0.091 0,0.0508 -0.0423,0.0889 -0.0423,0.036 -0.0952,0.036 -0.0444,0 -0.0847,-0.036 -0.0381,-0.0381 -0.0381,-0.0931 0,-0.0508 0.0381,-0.0868 0.0402,-0.0381 0.091,-0.0381 z"
                 style="font-weight:bold;font-size:2.11667px;font-family:Sniglet;-inkscape-font-specification:'Sniglet Bold';fill:#000000;stroke-width:0.315912;stroke-linecap:round;stroke-linejoin:round"
                 id="path79163" />
              <path
                 d="m -118.00559,-570.37908 q 0.0995,0 0.16722,-0.0402 0.0699,-0.0381 0.11218,-0.11218 0.0423,-0.072 0.0593,-0.17357 0.0191,-0.10372 0.0191,-0.23283 -0.0191,0.0677 -0.055,0.1143 -0.036,0.0466 -0.0847,0.0762 -0.0466,0.0275 -0.10583,0.0402 -0.0593,0.0127 -0.12277,0.0127 -0.0974,0 -0.18415,-0.0275 -0.0868,-0.0275 -0.1524,-0.0868 -0.0635,-0.0593 -0.1016,-0.15028 -0.0381,-0.0931 -0.0381,-0.22225 0,-0.12489 0.036,-0.2286 0.0381,-0.10584 0.10795,-0.18204 0.072,-0.0762 0.17357,-0.11853 0.1016,-0.0423 0.23283,-0.0423 0.0698,0 0.12277,0.0127 0.055,0.0127 0.0974,0.0339 0.0423,0.0212 0.0741,0.0508 0.0339,0.0296 0.0614,0.0635 0.0804,0.1016 0.11642,0.2413 0.036,0.13759 0.036,0.33232 0,0.14394 -0.0254,0.29422 -0.0233,0.15028 -0.0868,0.27093 -0.0635,0.12277 -0.17568,0.19897 -0.11219,0.0783 -0.28787,0.0783 -0.0317,0 -0.072,-0.004 -0.0381,-0.002 -0.0804,-0.008 -0.0402,-0.006 -0.0804,-0.019 -0.0402,-0.0106 -0.0741,-0.0296 -0.0423,-0.0233 -0.0677,-0.0444 -0.0254,-0.0212 -0.0254,-0.0699 0,-0.0402 0.0169,-0.0741 0.019,-0.0317 0.0635,-0.0317 0.0212,0 0.0466,0.0127 0.0254,0.0127 0.0614,0.0254 0.0381,0.0148 0.0889,0.0275 0.0529,0.0127 0.127,0.0127 z m 0.0106,-0.508 q 0.0825,0 0.1397,-0.0296 0.0593,-0.0317 0.0952,-0.0825 0.0381,-0.0508 0.055,-0.1143 0.0191,-0.0635 0.0191,-0.127 0,-0.0529 -0.0148,-0.10583 -0.0127,-0.055 -0.0444,-0.0995 -0.0318,-0.0444 -0.0868,-0.072 -0.055,-0.0275 -0.13758,-0.0275 -0.1397,0 -0.22649,0.0847 -0.0847,0.0847 -0.0847,0.24977 0,0.15451 0.0762,0.23918 0.0762,0.0847 0.20956,0.0847 z"
                 style="font-weight:bold;font-size:2.11667px;font-family:Sniglet;-inkscape-font-specification:'Sniglet Bold';fill:#000000;stroke-width:0.315912;stroke-linecap:round;stroke-linejoin:round"
                 id="path79165" />
              <path
                 d="m -116.74406,-571.57077 q -0.0783,0 -0.14181,0.0254 -0.0614,0.0254 -0.1397,0.0762 0,0.0444 0,0.13123 0,0.0847 -0.002,0.18627 -0.002,0.0995 -0.004,0.19685 -0.002,0.0974 -0.008,0.16299 -0.004,0.0423 -0.0106,0.0677 -0.004,0.0233 -0.0148,0.036 -0.008,0.0127 -0.0254,0.0169 -0.0148,0.002 -0.0402,0.002 -0.0254,0 -0.0423,-0.002 -0.0148,-0.004 -0.0254,-0.0148 -0.0106,-0.0127 -0.0169,-0.036 -0.006,-0.0233 -0.0106,-0.0635 -0.004,-0.0381 -0.008,-0.1016 -0.002,-0.0635 -0.004,-0.13759 -0.002,-0.0762 -0.004,-0.1524 0,-0.0783 0,-0.14393 0,-0.10795 0.002,-0.17569 0.004,-0.0677 0.0127,-0.12065 0.0127,-0.0889 0.0339,-0.11218 0.0212,-0.0233 0.0571,-0.0233 0.0529,0 0.0783,0.0296 0.0275,0.0296 0.0339,0.0974 0.0783,-0.0677 0.16721,-0.10795 0.091,-0.0402 0.18627,-0.0402 0.091,0 0.1651,0.0423 0.0762,0.0423 0.12489,0.13759 0.0296,0.0572 0.0444,0.127 0.0148,0.0677 0.0212,0.14393 0.002,0.0339 0.004,0.0677 0.002,0.0317 0.002,0.0698 0.002,0.036 0.002,0.0825 0,0.0466 0,0.11006 0,0.0677 -0.002,0.127 -0.002,0.0593 -0.0127,0.10372 -0.008,0.0423 -0.0318,0.0677 -0.0233,0.0233 -0.0635,0.0233 -0.0974,0 -0.1016,-0.0931 0,-0.006 0,-0.0529 0,-0.0487 -0.002,-0.11219 0,-0.0635 -0.002,-0.12911 0,-0.0656 -0.002,-0.10795 -0.002,-0.0339 -0.006,-0.072 -0.002,-0.0402 -0.008,-0.0804 -0.004,-0.0402 -0.0127,-0.0762 -0.008,-0.0381 -0.0212,-0.0677 -0.0296,-0.0699 -0.0741,-0.0889 -0.0444,-0.019 -0.0953,-0.019 z"
                 style="font-weight:bold;font-size:2.11667px;font-family:Sniglet;-inkscape-font-specification:'Sniglet Bold';fill:#000000;stroke-width:0.315912;stroke-linecap:round;stroke-linejoin:round"
                 id="path79167" />
              <path
                 d="m -115.38727,-572.05337 q 0,0.127 -0.008,0.2667 -0.006,0.13758 -0.0169,0.26882 0.0275,-0.0572 0.072,-0.0974 0.0444,-0.0423 0.0974,-0.0677 0.055,-0.0254 0.1143,-0.0381 0.0593,-0.0127 0.1143,-0.0127 0.0953,0 0.1778,0.036 0.0847,0.0339 0.14605,0.1016 0.0635,0.0656 0.0974,0.1651 0.036,0.0974 0.036,0.22437 0,0.12277 -0.036,0.22437 -0.036,0.1016 -0.10795,0.17568 -0.0699,0.072 -0.17569,0.11218 -0.10371,0.0402 -0.23918,0.0402 -0.18415,0 -0.28998,-0.0741 -0.10372,-0.0741 -0.15452,-0.19685 -0.0508,-0.12489 -0.0635,-0.28575 -0.0106,-0.16087 -0.0106,-0.33656 0,-0.1778 0.006,-0.32173 0.006,-0.14393 0.019,-0.23283 0.0127,-0.0804 0.0423,-0.1143 0.0296,-0.0339 0.0783,-0.0339 0.036,0 0.0572,0.0169 0.0212,0.0148 0.0296,0.0423 0.0106,0.0275 0.0127,0.0635 0.002,0.0339 0.002,0.0741 z m 0.31326,0.52917 q -0.0614,0 -0.11853,0.0212 -0.055,0.0191 -0.0995,0.0614 -0.0423,0.0423 -0.0677,0.10795 -0.0254,0.0635 -0.0254,0.15452 0,0.16086 0.0783,0.24553 0.0804,0.0825 0.21378,0.0825 0.055,0 0.11219,-0.0148 0.0571,-0.0169 0.10371,-0.055 0.0466,-0.0402 0.0762,-0.10583 0.0296,-0.0656 0.0296,-0.16299 0,-0.0868 -0.0254,-0.15028 -0.0233,-0.0635 -0.0656,-0.10372 -0.0423,-0.0423 -0.0974,-0.0614 -0.055,-0.019 -0.1143,-0.019 z"
                 style="font-weight:bold;font-size:2.11667px;font-family:Sniglet;-inkscape-font-specification:'Sniglet Bold';fill:#000000;stroke-width:0.315912;stroke-linecap:round;stroke-linejoin:round"
                 id="path79169" />
              <path
                 d="m -114.13209,-570.28172 q -0.0275,0.0487 -0.0529,0.072 -0.0233,0.0233 -0.055,0.0233 -0.0296,0 -0.0593,-0.019 -0.0296,-0.019 -0.0296,-0.0529 0,-0.0317 0.0212,-0.091 0.0233,-0.0593 0.055,-0.12912 0.0339,-0.0698 0.0699,-0.14393 0.036,-0.0741 0.0656,-0.13547 l 0.0148,-0.0317 q -0.0635,-0.12488 -0.13123,-0.2667 -0.0656,-0.14181 -0.12065,-0.26882 -0.055,-0.127 -0.091,-0.22013 -0.0339,-0.0952 -0.0339,-0.12488 0,-0.0275 0.0212,-0.0466 0.0233,-0.0212 0.0572,-0.0212 0.0296,0 0.0571,0.0127 0.0275,0.0106 0.0508,0.0508 0.0339,0.0635 0.0698,0.14605 0.0381,0.0804 0.0741,0.16934 0.0381,0.0889 0.0762,0.17992 0.0402,0.091 0.0804,0.17568 0.0466,-0.0868 0.0995,-0.18203 0.0529,-0.0953 0.1016,-0.18416 0.0508,-0.0889 0.0931,-0.16298 0.0423,-0.0762 0.072,-0.127 0.0296,-0.0487 0.0593,-0.0698 0.0296,-0.0212 0.0614,-0.0212 0.0212,0 0.0423,0.019 0.0212,0.0169 0.0212,0.0466 0,0.0444 -0.0402,0.14393 -0.0381,0.0974 -0.0995,0.22649 -0.0614,0.12912 -0.1397,0.27728 -0.0762,0.14605 -0.1524,0.28787 -0.0762,0.1397 -0.14605,0.26247 -0.0677,0.12276 -0.11218,0.20531 z"
                 style="font-weight:bold;font-size:2.11667px;font-family:Sniglet;-inkscape-font-specification:'Sniglet Bold';fill:#000000;stroke-width:0.315912;stroke-linecap:round;stroke-linejoin:round"
                 id="path79171" />
              <path
                 d="m -111.41429,-570.73257 q -0.0127,-0.036 -0.0169,-0.0804 -0.002,-0.0444 -0.002,-0.11007 0,-0.0466 0,-0.072 0.002,-0.0275 0.002,-0.0466 0,-0.0212 0,-0.0402 0.002,-0.0212 0.002,-0.0571 0,-0.0741 -0.004,-0.14816 -0.002,-0.0762 -0.0212,-0.13547 -0.0191,-0.0614 -0.0593,-0.0995 -0.0402,-0.0381 -0.11642,-0.0381 -0.12912,0 -0.20108,0.12277 -0.072,0.12277 -0.0868,0.39159 -0.004,0.0847 -0.004,0.15451 0,0.0698 -0.008,0.12065 -0.008,0.0487 -0.0317,0.0762 -0.0212,0.0275 -0.072,0.0275 -0.0466,0 -0.0677,-0.0233 -0.0212,-0.0254 -0.0318,-0.0741 -0.008,-0.0487 -0.0106,-0.11853 0,-0.0699 -0.006,-0.16298 -0.006,-0.1016 -0.0212,-0.19474 -0.0127,-0.0931 -0.0444,-0.16298 -0.0296,-0.072 -0.0825,-0.1143 -0.0508,-0.0423 -0.13123,-0.0423 -0.0762,0 -0.11853,0.0381 -0.0402,0.036 -0.0593,0.0974 -0.019,0.0593 -0.0233,0.13547 -0.002,0.0741 -0.002,0.15028 0,0.0381 0,0.0571 0.002,0.0169 0.002,0.0317 0,0.0148 0,0.0381 0.002,0.0233 0.002,0.072 0,0.0699 -0.004,0.12065 -0.002,0.0508 -0.0148,0.0868 -0.0148,0.0423 -0.0402,0.0529 -0.0254,0.008 -0.0466,0.008 -0.0656,0 -0.0847,-0.0466 -0.019,-0.0466 -0.0212,-0.13547 0,-0.0487 -0.002,-0.10795 0,-0.0614 0,-0.14816 0,-0.0423 0,-0.0741 0,-0.0317 0,-0.0614 0.002,-0.0296 0.002,-0.0593 0.002,-0.0317 0.004,-0.072 0.006,-0.12911 0.0466,-0.20531 0.0402,-0.0783 0.0953,-0.11854 0.055,-0.0402 0.11853,-0.0508 0.0635,-0.0127 0.11642,-0.0127 0.1143,0 0.19261,0.0339 0.0783,0.0339 0.127,0.0889 0.0508,0.055 0.0741,0.12488 0.0254,0.0699 0.0339,0.14182 0.008,-0.0698 0.0339,-0.13758 0.0275,-0.0699 0.0783,-0.12277 0.0529,-0.055 0.13546,-0.0889 0.0825,-0.0339 0.20321,-0.0339 0.0572,0 0.11641,0.0127 0.0614,0.0106 0.11219,0.0508 0.0508,0.0402 0.0847,0.11642 0.036,0.0741 0.0423,0.20108 0.002,0.0402 0.002,0.072 0.002,0.0296 0.002,0.0593 0.002,0.0296 0.002,0.0614 0,0.0317 0,0.0741 0,0.0868 -0.002,0.14816 0,0.0593 0,0.10795 0,0.0402 -0.004,0.0741 -0.002,0.0339 -0.0127,0.0571 -0.0106,0.0233 -0.0317,0.0381 -0.0191,0.0127 -0.0572,0.0127 -0.036,0 -0.055,-0.0127 -0.019,-0.0148 -0.0317,-0.0487 z"
                 style="font-weight:bold;font-size:2.11667px;font-family:Sniglet;-inkscape-font-specification:'Sniglet Bold';fill:#000000;stroke-width:0.315912;stroke-linecap:round;stroke-linejoin:round"
                 id="path79173" />
              <path
                 d="m -110.59937,-571.77397 q 0.0444,0 0.11218,0.008 0.0677,0.006 0.12912,0.0275 0.0614,0.019 0.10583,0.055 0.0444,0.036 0.0444,0.091 0,0.0317 -0.019,0.055 -0.0169,0.0233 -0.055,0.0233 -0.0275,0 -0.0635,-0.008 -0.0339,-0.008 -0.0762,-0.019 -0.0402,-0.0127 -0.0889,-0.0212 -0.0466,-0.008 -0.0995,-0.008 -0.0889,0 -0.14605,0.0275 -0.055,0.0275 -0.055,0.0868 0,0.0339 0.0191,0.0571 0.0212,0.0233 0.055,0.0423 0.036,0.0169 0.0825,0.0296 0.0487,0.0127 0.1016,0.0254 0.0656,0.0169 0.12911,0.0381 0.0656,0.0212 0.11642,0.0593 0.0508,0.036 0.0825,0.0931 0.0318,0.055 0.0318,0.13758 0,0.15664 -0.11853,0.24977 -0.11854,0.091 -0.34925,0.091 -0.0508,0 -0.12065,-0.008 -0.0698,-0.006 -0.13124,-0.0275 -0.0614,-0.019 -0.10583,-0.055 -0.0423,-0.0381 -0.0423,-0.0995 0,-0.0423 0.0191,-0.0635 0.0212,-0.0233 0.0508,-0.0233 0.0233,0 0.0487,0.0148 0.0254,0.0148 0.0614,0.0317 0.036,0.0169 0.0868,0.0317 0.0508,0.0148 0.12488,0.0148 0.0275,0 0.072,-0.002 0.0444,-0.004 0.0868,-0.019 0.0444,-0.0148 0.0741,-0.0402 0.0318,-0.0275 0.0318,-0.0762 0,-0.0381 -0.0212,-0.0635 -0.0212,-0.0275 -0.0572,-0.0466 -0.036,-0.019 -0.0847,-0.0317 -0.0466,-0.0148 -0.0995,-0.0296 -0.0614,-0.0169 -0.12489,-0.0381 -0.0614,-0.0212 -0.11218,-0.055 -0.0508,-0.0339 -0.0826,-0.0847 -0.0317,-0.0529 -0.0317,-0.12912 0,-0.072 0.0296,-0.13335 0.0296,-0.0635 0.0847,-0.11006 0.055,-0.0466 0.13123,-0.072 0.0783,-0.0254 0.17357,-0.0254 z"
                 style="font-weight:bold;font-size:2.11667px;font-family:Sniglet;-inkscape-font-specification:'Sniglet Bold';fill:#000000;stroke-width:0.315912;stroke-linecap:round;stroke-linejoin:round"
                 id="path79175" />
              <path
                 d="m -108.99705,-570.62673 q -0.14605,0.004 -0.35984,0.006 -0.21166,0.004 -0.4826,0.004 -0.14393,0 -0.20532,-0.0169 -0.0614,-0.0169 -0.0614,-0.0868 0,-0.019 0.004,-0.0339 0.004,-0.0169 0.0191,-0.0296 0.0148,-0.0148 0.0402,-0.0233 0.0275,-0.008 0.0698,-0.0127 0.0445,-0.002 0.091,-0.004 0.0487,-0.002 0.10795,-0.002 0.0614,-0.002 0.1397,-0.002 0.0783,0 0.18415,0 0.1143,0 0.22648,0.002 0.11219,0 0.22437,0.006 0.0508,0.002 0.0783,0.0106 0.0275,0.008 0.0423,0.0212 0.0148,0.0127 0.0169,0.0296 0.004,0.0169 0.004,0.0381 0,0.0381 -0.0275,0.0635 -0.0254,0.0254 -0.11218,0.0296 z"
                 style="font-weight:bold;font-size:2.11667px;font-family:Sniglet;-inkscape-font-specification:'Sniglet Bold';fill:#000000;stroke-width:0.315912;stroke-linecap:round;stroke-linejoin:round"
                 id="path79177" />
              <path
                 d="m -108.47636,-570.36427 q 0,0.0402 -0.002,0.0762 -0.002,0.0381 -0.0148,0.0677 -0.0106,0.0296 -0.0339,0.0466 -0.0212,0.019 -0.0614,0.019 -0.0466,0 -0.0783,-0.0339 -0.0296,-0.0317 -0.0339,-0.1143 -0.002,-0.0529 -0.006,-0.12912 -0.004,-0.0762 -0.008,-0.16087 -0.002,-0.0847 -0.006,-0.16933 -0.002,-0.0847 -0.002,-0.15663 0,-0.24765 0.0339,-0.40852 0.036,-0.16087 0.10583,-0.25612 0.0699,-0.0952 0.17145,-0.13335 0.10372,-0.0381 0.23919,-0.0381 0.10795,0 0.2032,0.0339 0.0953,0.0317 0.1651,0.1016 0.072,0.0677 0.1143,0.1778 0.0423,0.10795 0.0423,0.26035 0,0.127 -0.0444,0.22437 -0.0423,0.0974 -0.11853,0.1651 -0.0762,0.0656 -0.17992,0.1016 -0.1016,0.0339 -0.21802,0.0339 -0.0995,0 -0.17991,-0.0402 -0.0783,-0.0423 -0.11219,-0.091 0.0106,0.11853 0.0169,0.22013 0.008,0.1016 0.008,0.2032 z m 0.2921,-1.17898 q -0.0741,0 -0.12911,0.0254 -0.0529,0.0254 -0.0868,0.0698 -0.0339,0.0444 -0.0508,0.10583 -0.0148,0.0614 -0.0148,0.13335 0,0.0698 0.0127,0.13335 0.0148,0.0614 0.0466,0.10795 0.0318,0.0466 0.0847,0.0741 0.0529,0.0275 0.12912,0.0275 0.0593,0 0.1143,-0.0148 0.055,-0.0169 0.0974,-0.055 0.0444,-0.0381 0.0699,-0.1016 0.0275,-0.0635 0.0275,-0.15875 0,-0.0974 -0.0275,-0.16298 -0.0254,-0.0677 -0.0699,-0.10795 -0.0423,-0.0423 -0.0974,-0.0593 -0.0529,-0.0169 -0.10584,-0.0169 z"
                 style="font-weight:bold;font-size:2.11667px;font-family:Sniglet;-inkscape-font-specification:'Sniglet Bold';fill:#000000;stroke-width:0.315912;stroke-linecap:round;stroke-linejoin:round"
                 id="path79179" />
              <path
                 d="m -106.95024,-571.74222 q 0.12065,0 0.2159,0.0381 0.0953,0.036 0.16086,0.10372 0.0677,0.0677 0.10372,0.1651 0.036,0.0974 0.036,0.21802 0,0.13335 -0.0423,0.23918 -0.0402,0.10583 -0.1143,0.17992 -0.072,0.0741 -0.17357,0.1143 -0.0995,0.0402 -0.21801,0.0402 -0.12912,0 -0.2286,-0.0444 -0.0974,-0.0444 -0.1651,-0.12065 -0.0656,-0.0762 -0.0995,-0.17568 -0.0339,-0.0995 -0.0339,-0.20955 0,-0.12065 0.0381,-0.22014 0.0402,-0.1016 0.11218,-0.17356 0.0741,-0.0741 0.1778,-0.1143 0.10372,-0.0402 0.23072,-0.0402 z m -0.0233,0.90382 q 0.0868,0 0.14817,-0.0296 0.0614,-0.0317 0.0995,-0.0825 0.0402,-0.0508 0.0572,-0.1143 0.019,-0.0656 0.019,-0.13547 0,-0.072 -0.019,-0.13335 -0.0169,-0.0635 -0.055,-0.11007 -0.036,-0.0466 -0.0953,-0.072 -0.0571,-0.0275 -0.13758,-0.0275 -0.0825,0 -0.14394,0.0275 -0.0614,0.0275 -0.10371,0.0762 -0.0402,0.0466 -0.0614,0.11219 -0.0212,0.0656 -0.0212,0.14182 0,0.15451 0.0783,0.25188 0.0804,0.0952 0.23495,0.0952 z"
                 style="font-weight:bold;font-size:2.11667px;font-family:Sniglet;-inkscape-font-specification:'Sniglet Bold';fill:#000000;stroke-width:0.315912;stroke-linecap:round;stroke-linejoin:round"
                 id="path79181" />
              <path
                 d="m -106.08453,-570.80665 q -0.006,-0.13335 -0.008,-0.31538 0,-0.18416 0,-0.41699 -0.0212,0.002 -0.0508,0.002 -0.0275,0 -0.0444,0 -0.0381,0 -0.0699,-0.002 -0.0296,-0.002 -0.0529,-0.0127 -0.0233,-0.0106 -0.036,-0.0296 -0.0127,-0.0212 -0.0127,-0.0571 0,-0.1016 0.1524,-0.1016 0.0233,0 0.0572,0 0.0339,0 0.0571,0.004 0,-0.11218 0.004,-0.17992 0.004,-0.0677 0.0148,-0.10371 0.0127,-0.0381 0.0317,-0.0487 0.0212,-0.0127 0.0529,-0.0127 0.0339,0 0.055,0.0233 0.0212,0.0233 0.0318,0.0593 0.0127,0.036 0.0148,0.0804 0.004,0.0444 0.004,0.0868 0,0.0296 -0.002,0.055 0,0.0233 0,0.0423 0.0296,-0.008 0.0614,-0.008 0.0318,-0.002 0.0614,-0.002 0.0783,0 0.12065,0.0254 0.0423,0.0233 0.0423,0.0783 0,0.0339 -0.0148,0.055 -0.0148,0.019 -0.0402,0.0296 -0.0233,0.0106 -0.0572,0.0148 -0.0318,0.002 -0.0699,0.002 -0.0212,0 -0.0487,0 -0.0275,0 -0.0508,-0.004 0,0.11218 0,0.20531 0,0.0931 -0.002,0.17992 -0.002,0.0847 -0.004,0.16934 -0.002,0.0847 -0.006,0.17991 -0.002,0.0508 -0.0106,0.0783 -0.006,0.0275 -0.019,0.0423 -0.0127,0.0148 -0.0296,0.019 -0.0148,0.002 -0.036,0.002 -0.0381,0 -0.0656,-0.0254 -0.0254,-0.0275 -0.0296,-0.1143 z"
                 style="font-weight:bold;font-size:2.11667px;font-family:Sniglet;-inkscape-font-specification:'Sniglet Bold';fill:#000000;stroke-width:0.315912;stroke-linecap:round;stroke-linejoin:round"
                 id="path79183" />
              <path
                 d="m -104.55841,-570.6606 q -0.0339,0 -0.055,-0.0106 -0.0191,-0.0127 -0.0296,-0.0317 -0.0106,-0.019 -0.0148,-0.0444 -0.004,-0.0275 -0.006,-0.0571 -0.0529,0.0656 -0.13759,0.11006 -0.0825,0.0444 -0.21166,0.0444 -0.0825,0 -0.16934,-0.0233 -0.0847,-0.0254 -0.15451,-0.0847 -0.0699,-0.0614 -0.1143,-0.16298 -0.0444,-0.1016 -0.0444,-0.25612 0,-0.12065 0.0296,-0.22648 0.0296,-0.10584 0.0889,-0.18415 0.0614,-0.0804 0.1524,-0.127 0.091,-0.0466 0.21378,-0.0466 0.10795,0 0.19262,0.0402 0.0847,0.0381 0.1524,0.127 0,-0.0254 0.002,-0.0508 0.002,-0.0275 0.0106,-0.0487 0.0106,-0.0233 0.0318,-0.036 0.0212,-0.0148 0.0571,-0.0148 0.0318,0 0.0593,0.0254 0.0275,0.0254 0.0317,0.11007 0.006,0.11218 0.008,0.20108 0.004,0.0889 0.004,0.18416 0,0.11641 -0.002,0.21378 -0.002,0.0974 -0.0106,0.20743 -0.004,0.0487 -0.0127,0.0783 -0.006,0.0275 -0.0169,0.0423 -0.0106,0.0127 -0.0254,0.0169 -0.0148,0.004 -0.0296,0.004 z m -0.1143,-0.53763 q 0,-0.11007 -0.0339,-0.17992 -0.0318,-0.0698 -0.0825,-0.10795 -0.0487,-0.0402 -0.10583,-0.055 -0.0572,-0.0148 -0.10583,-0.0148 -0.0762,0 -0.13124,0.0275 -0.0529,0.0275 -0.0868,0.0762 -0.0339,0.0466 -0.0508,0.11219 -0.0148,0.0635 -0.0148,0.1397 0,0.18627 0.0804,0.27517 0.0825,0.0889 0.22225,0.0889 0.0825,0 0.1397,-0.0275 0.0593,-0.0296 0.0952,-0.0783 0.0381,-0.0487 0.055,-0.1143 0.0191,-0.0677 0.0191,-0.14181 z"
                 style="font-weight:bold;font-size:2.11667px;font-family:Sniglet;-inkscape-font-specification:'Sniglet Bold';fill:#000000;stroke-width:0.315912;stroke-linecap:round;stroke-linejoin:round"
                 id="path79185" />
              <path
                 d="m -104.03136,-570.80665 q -0.006,-0.13335 -0.008,-0.31538 0,-0.18416 0,-0.41699 -0.0212,0.002 -0.0508,0.002 -0.0275,0 -0.0444,0 -0.0381,0 -0.0699,-0.002 -0.0296,-0.002 -0.0529,-0.0127 -0.0233,-0.0106 -0.036,-0.0296 -0.0127,-0.0212 -0.0127,-0.0571 0,-0.1016 0.1524,-0.1016 0.0233,0 0.0571,0 0.0339,0 0.0572,0.004 0,-0.11218 0.004,-0.17992 0.004,-0.0677 0.0148,-0.10371 0.0127,-0.0381 0.0318,-0.0487 0.0212,-0.0127 0.0529,-0.0127 0.0339,0 0.055,0.0233 0.0212,0.0233 0.0318,0.0593 0.0127,0.036 0.0148,0.0804 0.004,0.0444 0.004,0.0868 0,0.0296 -0.002,0.055 0,0.0233 0,0.0423 0.0296,-0.008 0.0614,-0.008 0.0318,-0.002 0.0614,-0.002 0.0783,0 0.12065,0.0254 0.0423,0.0233 0.0423,0.0783 0,0.0339 -0.0148,0.055 -0.0148,0.019 -0.0402,0.0296 -0.0233,0.0106 -0.0571,0.0148 -0.0318,0.002 -0.0699,0.002 -0.0212,0 -0.0487,0 -0.0275,0 -0.0508,-0.004 0,0.11218 0,0.20531 0,0.0931 -0.002,0.17992 -0.002,0.0847 -0.004,0.16934 -0.002,0.0847 -0.006,0.17991 -0.002,0.0508 -0.0106,0.0783 -0.006,0.0275 -0.0191,0.0423 -0.0127,0.0148 -0.0296,0.019 -0.0148,0.002 -0.036,0.002 -0.0381,0 -0.0656,-0.0254 -0.0254,-0.0275 -0.0296,-0.1143 z"
                 style="font-weight:bold;font-size:2.11667px;font-family:Sniglet;-inkscape-font-specification:'Sniglet Bold';fill:#000000;stroke-width:0.315912;stroke-linecap:round;stroke-linejoin:round"
                 id="path79187" />
              <path
                 d="m -102.90529,-571.74222 q 0.12065,0 0.2159,0.0381 0.0953,0.036 0.16087,0.10372 0.0677,0.0677 0.10371,0.1651 0.036,0.0974 0.036,0.21802 0,0.13335 -0.0423,0.23918 -0.0402,0.10583 -0.1143,0.17992 -0.072,0.0741 -0.17356,0.1143 -0.0995,0.0402 -0.21802,0.0402 -0.12912,0 -0.2286,-0.0444 -0.0974,-0.0444 -0.1651,-0.12065 -0.0656,-0.0762 -0.0995,-0.17568 -0.0339,-0.0995 -0.0339,-0.20955 0,-0.12065 0.0381,-0.22014 0.0402,-0.1016 0.11218,-0.17356 0.0741,-0.0741 0.1778,-0.1143 0.10372,-0.0402 0.23072,-0.0402 z m -0.0233,0.90382 q 0.0868,0 0.14817,-0.0296 0.0614,-0.0317 0.0995,-0.0825 0.0402,-0.0508 0.0572,-0.1143 0.019,-0.0656 0.019,-0.13547 0,-0.072 -0.019,-0.13335 -0.0169,-0.0635 -0.055,-0.11007 -0.036,-0.0466 -0.0953,-0.072 -0.0571,-0.0275 -0.13758,-0.0275 -0.0825,0 -0.14394,0.0275 -0.0614,0.0275 -0.10371,0.0762 -0.0402,0.0466 -0.0614,0.11219 -0.0212,0.0656 -0.0212,0.14182 0,0.15451 0.0783,0.25188 0.0804,0.0952 0.23495,0.0952 z"
                 style="font-weight:bold;font-size:2.11667px;font-family:Sniglet;-inkscape-font-specification:'Sniglet Bold';fill:#000000;stroke-width:0.315912;stroke-linecap:round;stroke-linejoin:round"
                 id="path79189" />
            </g>
          </g>
        </g>
      </g>
    </g>
  </g>
  <style
     type="text/css"
     id="style10296">
	.st0{fill:#75AADB;}
	.st1{fill:#4D4D4D;}
	.st2{fill:#FFFFFF;}
	.st3{fill:url(#SVGID_1_);}
	.st4{fill:url(#SVGID_2_);}
	.st5{fill:url(#SVGID_3_);}
	.st6{fill:url(#SVGID_4_);}
	.st7{fill:url(#SVGID_5_);}
	.st8{fill:url(#SVGID_6_);}
	.st9{fill:url(#SVGID_7_);}
	.st10{fill:url(#SVGID_8_);}
	.st11{fill:url(#SVGID_9_);}
	.st12{fill:url(#SVGID_10_);}
	.st13{opacity:0.18;fill:url(#SVGID_11_);}
	.st14{opacity:0.3;}
</style>
  <style
     type="text/css"
     id="style10296-3">
	.st0{fill:#75AADB;}
	.st1{fill:#4D4D4D;}
	.st2{fill:#FFFFFF;}
	.st3{fill:url(#SVGID_1_);}
	.st4{fill:url(#SVGID_2_);}
	.st5{fill:url(#SVGID_3_);}
	.st6{fill:url(#SVGID_4_);}
	.st7{fill:url(#SVGID_5_);}
	.st8{fill:url(#SVGID_6_);}
	.st9{fill:url(#SVGID_7_);}
	.st10{fill:url(#SVGID_8_);}
	.st11{fill:url(#SVGID_9_);}
	.st12{fill:url(#SVGID_10_);}
	.st13{opacity:0.18;fill:url(#SVGID_11_);}
	.st14{opacity:0.3;}
</style>
  <style
     type="text/css"
     id="style10296-7">
	.st0{fill:#75AADB;}
	.st1{fill:#4D4D4D;}
	.st2{fill:#FFFFFF;}
	.st3{fill:url(#SVGID_1_);}
	.st4{fill:url(#SVGID_2_);}
	.st5{fill:url(#SVGID_3_);}
	.st6{fill:url(#SVGID_4_);}
	.st7{fill:url(#SVGID_5_);}
	.st8{fill:url(#SVGID_6_);}
	.st9{fill:url(#SVGID_7_);}
	.st10{fill:url(#SVGID_8_);}
	.st11{fill:url(#SVGID_9_);}
	.st12{fill:url(#SVGID_10_);}
	.st13{opacity:0.18;fill:url(#SVGID_11_);}
	.st14{opacity:0.3;}
</style>
  <style
     type="text/css"
     id="style10296-4">
	.st0{fill:#75AADB;}
	.st1{fill:#4D4D4D;}
	.st2{fill:#FFFFFF;}
	.st3{fill:url(#SVGID_1_);}
	.st4{fill:url(#SVGID_2_);}
	.st5{fill:url(#SVGID_3_);}
	.st6{fill:url(#SVGID_4_);}
	.st7{fill:url(#SVGID_5_);}
	.st8{fill:url(#SVGID_6_);}
	.st9{fill:url(#SVGID_7_);}
	.st10{fill:url(#SVGID_8_);}
	.st11{fill:url(#SVGID_9_);}
	.st12{fill:url(#SVGID_10_);}
	.st13{opacity:0.18;fill:url(#SVGID_11_);}
	.st14{opacity:0.3;}
</style>
  <style
     type="text/css"
     id="style10296-9">
	.st0{fill:#75AADB;}
	.st1{fill:#4D4D4D;}
	.st2{fill:#FFFFFF;}
	.st3{fill:url(#SVGID_1_);}
	.st4{fill:url(#SVGID_2_);}
	.st5{fill:url(#SVGID_3_);}
	.st6{fill:url(#SVGID_4_);}
	.st7{fill:url(#SVGID_5_);}
	.st8{fill:url(#SVGID_6_);}
	.st9{fill:url(#SVGID_7_);}
	.st10{fill:url(#SVGID_8_);}
	.st11{fill:url(#SVGID_9_);}
	.st12{fill:url(#SVGID_10_);}
	.st13{opacity:0.18;fill:url(#SVGID_11_);}
	.st14{opacity:0.3;}
</style>
  <style
     type="text/css"
     id="style10296-2">
	.st0{fill:#75AADB;}
	.st1{fill:#4D4D4D;}
	.st2{fill:#FFFFFF;}
	.st3{fill:url(#SVGID_1_);}
	.st4{fill:url(#SVGID_2_);}
	.st5{fill:url(#SVGID_3_);}
	.st6{fill:url(#SVGID_4_);}
	.st7{fill:url(#SVGID_5_);}
	.st8{fill:url(#SVGID_6_);}
	.st9{fill:url(#SVGID_7_);}
	.st10{fill:url(#SVGID_8_);}
	.st11{fill:url(#SVGID_9_);}
	.st12{fill:url(#SVGID_10_);}
	.st13{opacity:0.18;fill:url(#SVGID_11_);}
	.st14{opacity:0.3;}
</style>
</svg>
