<?xml version="1.0" encoding="UTF-8" standalone="no"?>
<!-- Created with Inkscape (http://www.inkscape.org/) -->

<svg
   width="43.929592mm"
   height="50.831615mm"
   viewBox="0 0 43.929592 50.831615"
   version="1.1"
   id="svg5"
   inkscape:version="1.1.2 (0a00cf5339, 2022-02-04)"
   sodipodi:docname="logo.svg"
   xmlns:inkscape="http://www.inkscape.org/namespaces/inkscape"
   xmlns:sodipodi="http://sodipodi.sourceforge.net/DTD/sodipodi-0.dtd"
   xmlns="http://www.w3.org/2000/svg"
   xmlns:svg="http://www.w3.org/2000/svg">
  <sodipodi:namedview
     id="namedview7"
     pagecolor="#ffffff"
     bordercolor="#000000"
     borderopacity="0.25"
     inkscape:pageshadow="2"
     inkscape:pageopacity="0.0"
     inkscape:pagecheckerboard="0"
     inkscape:document-units="mm"
     showgrid="false"
     showguides="true"
     inkscape:guide-bbox="true"
     inkscape:zoom="3.1062212"
     inkscape:cx="36.700541"
     inkscape:cy="85.312662"
     inkscape:window-width="1920"
     inkscape:window-height="1043"
     inkscape:window-x="0"
     inkscape:window-y="0"
     inkscape:window-maximized="1"
     inkscape:current-layer="g118190"
     fit-margin-top="0"
     fit-margin-left="0"
     fit-margin-right="0"
     fit-margin-bottom="0">
    <sodipodi:guide
       position="12.717529,39.084416"
       orientation="0,-1"
       id="guide1005" />
  </sodipodi:namedview>
  <defs
     id="defs2">
    <inkscape:perspective
       sodipodi:type="inkscape:persp3d"
       inkscape:vp_x="0 : 389.7996 : 1"
       inkscape:vp_y="0 : 999.99992 : 0"
       inkscape:vp_z="1500 : 389.7996 : 1"
       inkscape:persp3d-origin="749.99998 : 95.754155 : 1"
       id="perspective4362" />
    <clipPath
       id="clp12">
      <path
         d="m 45.315,71.927 h 12.92 v 15.867 h -12.92 z"
         id="path184"
         inkscape:connector-curvature="0" />
    </clipPath>
    <clipPath
       id="clp21">
      <path
         d="m 123.91,72.178 h 26.23 v 15.294 h -26.23 z"
         id="path592"
         inkscape:connector-curvature="0" />
    </clipPath>
    <clipPath
       id="clp9">
      <path
         d="m 413.96,49.857 h 31.76 v 8.719 h -31.76 z"
         id="path100"
         inkscape:connector-curvature="0" />
    </clipPath>
    <inkscape:perspective
       sodipodi:type="inkscape:persp3d"
       inkscape:vp_x="0 : 389.7996 : 1"
       inkscape:vp_y="0 : 999.99992 : 0"
       inkscape:vp_z="1500 : 389.7996 : 1"
       inkscape:persp3d-origin="749.99998 : 95.754155 : 1"
       id="perspective4362-5" />
    <clipPath
       id="clp12-3">
      <path
         d="m 45.315,71.927 h 12.92 v 15.867 h -12.92 z"
         id="path184-5"
         inkscape:connector-curvature="0" />
    </clipPath>
    <clipPath
       id="clp21-6">
      <path
         d="m 123.91,72.178 h 26.23 v 15.294 h -26.23 z"
         id="path592-2"
         inkscape:connector-curvature="0" />
    </clipPath>
    <clipPath
       id="clp9-9">
      <path
         d="m 413.96,49.857 h 31.76 v 8.719 h -31.76 z"
         id="path100-1"
         inkscape:connector-curvature="0" />
    </clipPath>
    <inkscape:perspective
       sodipodi:type="inkscape:persp3d"
       inkscape:vp_x="0 : 635.96801 : 1"
       inkscape:vp_y="0 : 999.99996 : 0"
       inkscape:vp_z="1500 : 635.96801 : 1"
       inkscape:persp3d-origin="750 : 341.92255 : 1"
       id="perspective4362-9" />
    <clipPath
       id="clp12-37">
      <path
         d="m 45.315,71.927 h 12.92 v 15.867 h -12.92 z"
         id="path184-4"
         inkscape:connector-curvature="0" />
    </clipPath>
    <clipPath
       id="clp21-5">
      <path
         d="m 123.91,72.178 h 26.23 v 15.294 h -26.23 z"
         id="path592-25"
         inkscape:connector-curvature="0" />
    </clipPath>
    <clipPath
       id="clp9-4">
      <path
         d="m 413.96,49.857 h 31.76 v 8.719 h -31.76 z"
         id="path100-7"
         inkscape:connector-curvature="0" />
    </clipPath>
    <inkscape:perspective
       sodipodi:type="inkscape:persp3d"
       inkscape:vp_x="0 : 635.96801 : 1"
       inkscape:vp_y="0 : 999.99996 : 0"
       inkscape:vp_z="1500 : 635.96801 : 1"
       inkscape:persp3d-origin="750 : 341.92255 : 1"
       id="perspective4362-6" />
    <clipPath
       id="clp12-8">
      <path
         d="m 45.315,71.927 h 12.92 v 15.867 h -12.92 z"
         id="path184-9"
         inkscape:connector-curvature="0" />
    </clipPath>
    <clipPath
       id="clp21-2">
      <path
         d="m 123.91,72.178 h 26.23 v 15.294 h -26.23 z"
         id="path592-6"
         inkscape:connector-curvature="0" />
    </clipPath>
    <clipPath
       id="clp9-6">
      <path
         d="m 413.96,49.857 h 31.76 v 8.719 h -31.76 z"
         id="path100-4"
         inkscape:connector-curvature="0" />
    </clipPath>
    <inkscape:perspective
       sodipodi:type="inkscape:persp3d"
       inkscape:vp_x="0 : 635.96801 : 1"
       inkscape:vp_y="0 : 999.99996 : 0"
       inkscape:vp_z="1500 : 635.96801 : 1"
       inkscape:persp3d-origin="750 : 341.92255 : 1"
       id="perspective4362-53" />
    <clipPath
       id="clp12-5">
      <path
         d="m 45.315,71.927 h 12.92 v 15.867 h -12.92 z"
         id="path184-6"
         inkscape:connector-curvature="0" />
    </clipPath>
    <clipPath
       id="clp21-29">
      <path
         d="m 123.91,72.178 h 26.23 v 15.294 h -26.23 z"
         id="path592-1"
         inkscape:connector-curvature="0" />
    </clipPath>
    <clipPath
       id="clp9-2">
      <path
         d="m 413.96,49.857 h 31.76 v 8.719 h -31.76 z"
         id="path100-70"
         inkscape:connector-curvature="0" />
    </clipPath>
  </defs>
  <g
     inkscape:label="Layer 1"
     inkscape:groupmode="layer"
     id="layer1"
     transform="translate(-186.65577,-98.20731)">
    <text
       xml:space="preserve"
       style="font-size:4.23333px;font-family:sans-serif;-inkscape-font-specification:sans-serif;fill:#fdf0e3;fill-opacity:1;stroke:#4a280d;stroke-width:15;stroke-linecap:round;stroke-linejoin:round;stroke-miterlimit:4;stroke-dasharray:none"
       x="214.69817"
       y="116.24603"
       id="text265343"><tspan
         sodipodi:role="line"
         id="tspan265341"
         style="stroke-width:15;stroke-miterlimit:4;stroke-dasharray:none"
         x="214.69817"
         y="116.24603" /></text>
    <text
       xml:space="preserve"
       style="font-size:4.23333px;font-family:sans-serif;-inkscape-font-specification:sans-serif;fill:#fdf0e3;fill-opacity:1;stroke:#4a280d;stroke-width:15;stroke-linecap:round;stroke-linejoin:round;stroke-miterlimit:4;stroke-dasharray:none"
       x="214.23691"
       y="114.62688"
       id="text268683"><tspan
         sodipodi:role="line"
         id="tspan268681"
         style="stroke-width:15"
         x="214.23691"
         y="114.62688" /></text>
    <text
       xml:space="preserve"
       style="font-size:4.23333px;font-family:sans-serif;-inkscape-font-specification:sans-serif;fill:#fdf0e3;fill-opacity:1;stroke:#4a280d;stroke-width:5;stroke-linecap:round;stroke-linejoin:round;stroke-miterlimit:4;stroke-dasharray:none"
       x="242.03822"
       y="123.46563"
       id="text270271"><tspan
         sodipodi:role="line"
         id="tspan270269"
         style="stroke-width:5;stroke-miterlimit:4;stroke-dasharray:none"
         x="242.03822"
         y="123.46563" /></text>
    <text
       xml:space="preserve"
       style="font-size:4.23333px;font-family:sans-serif;-inkscape-font-specification:sans-serif;fill:#fdf0e3;fill-opacity:1;stroke:#4a280d;stroke-width:4.99999;stroke-linecap:round;stroke-linejoin:round;stroke-miterlimit:4;stroke-dasharray:none"
       x="244.82349"
       y="125.95525"
       id="text275393"><tspan
         sodipodi:role="line"
         id="tspan275391"
         style="stroke-width:5"
         x="244.82349"
         y="125.95525" /></text>
    <g
       id="g193503"
       transform="translate(0,0.18106276)">
      <g
         id="g193548">
        <text
           xml:space="preserve"
           style="font-size:4.23333px;font-family:sans-serif;-inkscape-font-specification:sans-serif;fill:#fdf0e3;fill-opacity:1;stroke:#4a280d;stroke-width:15;stroke-linecap:round;stroke-linejoin:round;stroke-miterlimit:4;stroke-dasharray:none"
           x="264.96298"
           y="116.49283"
           id="text265343-7"><tspan
             sodipodi:role="line"
             id="tspan265341-8"
             style="stroke-width:15;stroke-miterlimit:4;stroke-dasharray:none"
             x="264.96298"
             y="116.49283" /></text>
        <text
           xml:space="preserve"
           style="font-size:4.23333px;font-family:sans-serif;-inkscape-font-specification:sans-serif;fill:#fdf0e3;fill-opacity:1;stroke:#4a280d;stroke-width:15;stroke-linecap:round;stroke-linejoin:round;stroke-miterlimit:4;stroke-dasharray:none"
           x="264.50171"
           y="114.87369"
           id="text268683-6"><tspan
             sodipodi:role="line"
             id="tspan268681-8"
             style="stroke-width:15"
             x="264.50171"
             y="114.87369" /></text>
        <text
           xml:space="preserve"
           style="font-size:4.23333px;font-family:sans-serif;-inkscape-font-specification:sans-serif;fill:#fdf0e3;fill-opacity:1;stroke:#4a280d;stroke-width:5;stroke-linecap:round;stroke-linejoin:round;stroke-miterlimit:4;stroke-dasharray:none"
           x="292.30304"
           y="123.71243"
           id="text270271-8"><tspan
             sodipodi:role="line"
             id="tspan270269-4"
             style="stroke-width:5;stroke-miterlimit:4;stroke-dasharray:none"
             x="292.30304"
             y="123.71243" /></text>
        <text
           xml:space="preserve"
           style="font-size:4.23333px;font-family:sans-serif;-inkscape-font-specification:sans-serif;fill:#fdf0e3;fill-opacity:1;stroke:#4a280d;stroke-width:4.99999;stroke-linecap:round;stroke-linejoin:round;stroke-miterlimit:4;stroke-dasharray:none"
           x="295.08829"
           y="126.20206"
           id="text275393-3"><tspan
             sodipodi:role="line"
             id="tspan275391-1"
             style="stroke-width:5"
             x="295.08829"
             y="126.20206" /></text>
        <path
           sodipodi:type="star"
           style="fill:#fdf0e3;fill-opacity:1;stroke:#4a280d;stroke-width:73.9932;stroke-miterlimit:4;stroke-dasharray:none;stroke-opacity:1"
           id="path4560"
           sodipodi:sides="6"
           sodipodi:cx="-5551.2134"
           sodipodi:cy="-204.52565"
           sodipodi:r1="1701.6108"
           sodipodi:r2="1473.6381"
           sodipodi:arg1="1.0471976"
           sodipodi:arg2="1.5707963"
           inkscape:flatsided="true"
           inkscape:rounded="0"
           inkscape:randomized="0"
           inkscape:transform-center-x="1.5731476e-05"
           inkscape:transform-center-y="7.9344316e-05"
           transform="matrix(0,0.01457052,-0.01454011,0,205.64674,204.32612)"
           d="m -4700.408,1269.1126 -1701.6109,-10e-5 -850.8053,-1473.63823 850.8055,-1473.63817 1701.6108,10e-5 850.8054,1473.63823 z" />
        <circle
           transform="rotate(-45)"
           class="st0"
           cx="47.664406"
           cy="239.43797"
           id="ellipse10300"
           r="3.2430675"
           style="font-size:4.23333px;font-family:Sniglet;-inkscape-font-specification:sans-serif;stroke:#4a280d;stroke-width:0;stroke-linecap:round;stroke-linejoin:round" />
        <path
           d="m 202.94778,136.05061 q -0.0593,0.004 -0.12277,0.008 -0.0593,0 -0.12277,0 -0.072,0 -0.14393,0 -0.072,0 -0.16087,-0.008 v 0.85937 q 0,0.13545 -0.0677,0.16932 -0.0635,0.0296 -0.16087,0.0296 -0.0508,0 -0.0804,-0.008 -0.0296,-0.004 -0.0508,-0.0212 -0.0169,-0.0212 -0.0296,-0.0593 -0.008,-0.0381 -0.0127,-0.10583 -0.008,-0.0762 -0.0127,-0.22013 -0.004,-0.14817 -0.008,-0.381 0,-0.23283 -0.004,-0.56303 0,-0.33444 0,-0.78317 0,-0.17357 0.0423,-0.33443 0.0423,-0.1651 0.1524,-0.28787 0.11007,-0.127 0.29633,-0.2032 0.1905,-0.0762 0.4826,-0.0762 0.20744,0 0.40217,0.0466 0.19897,0.0466 0.35137,0.16086 0.1524,0.1143 0.24553,0.30904 0.0931,0.19473 0.0931,0.48683 0,0.38947 -0.16933,0.60537 -0.1651,0.21166 -0.4572,0.30056 l 0.56727,0.77894 q 0.0762,0.1016 0.0762,0.20743 0,0.0847 -0.0593,0.13123 -0.055,0.0508 -0.1397,0.0508 -0.0931,0 -0.16087,-0.0508 -0.0677,-0.055 -0.127,-0.1397 z m 0.66463,-0.98636 q 0,-0.2921 -0.1778,-0.4318 -0.17357,-0.14394 -0.55457,-0.14394 -0.1397,0 -0.23283,0.0254 -0.0931,0.0212 -0.14817,0.0847 -0.055,0.0635 -0.0804,0.1778 -0.0212,0.11007 -0.0212,0.28363 0,0.12277 0,0.28787 0,0.1651 0.004,0.30057 0.0974,0.004 0.2159,0.004 0.12276,0 0.2286,0 0.11853,0 0.24976,-0.0127 0.13547,-0.0169 0.24977,-0.0762 0.1143,-0.0635 0.1905,-0.1778 0.0762,-0.11853 0.0762,-0.32173 z"
           id="path21118"
           style="font-size:4.23333px;font-family:Sniglet;-inkscape-font-specification:Sniglet;fill:#ffffff;stroke:#ffffff;stroke-width:0.1;stroke-linecap:round;stroke-linejoin:round;stroke-miterlimit:4;stroke-dasharray:none" />
        <path
           d="m 202.94789,136.05071 q -0.0593,0.004 -0.12277,0.008 -0.0593,0 -0.12276,0 -0.072,0 -0.14394,0 -0.072,0 -0.16087,-0.008 v 0.85936 q 0,0.13548 -0.0678,0.16934 -0.0635,0.0296 -0.16087,0.0296 -0.0508,0 -0.0804,-0.008 -0.0296,-0.004 -0.0508,-0.0212 -0.017,-0.0212 -0.0296,-0.0593 -0.008,-0.0381 -0.0127,-0.10584 -0.008,-0.0762 -0.0127,-0.22013 -0.004,-0.14817 -0.008,-0.381 0,-0.23284 -0.004,-0.56304 0,-0.33443 0,-0.78316 0,-0.17357 0.0423,-0.33444 0.0423,-0.1651 0.1524,-0.28787 0.11006,-0.127 0.29633,-0.20319 0.1905,-0.0762 0.4826,-0.0762 0.20744,0 0.40217,0.0466 0.19897,0.0465 0.35137,0.16087 0.1524,0.1143 0.24553,0.30903 0.0931,0.19473 0.0931,0.48684 0,0.38946 -0.16933,0.60536 -0.1651,0.21167 -0.4572,0.30057 l 0.56727,0.77893 q 0.0762,0.1016 0.0762,0.20744 0,0.0847 -0.0593,0.13123 -0.055,0.0508 -0.13971,0.0508 -0.0931,0 -0.16086,-0.0508 -0.0678,-0.055 -0.127,-0.1397 z m 0.66463,-0.98636 q 0,-0.29211 -0.1778,-0.43181 -0.17357,-0.14393 -0.55457,-0.14393 -0.1397,0 -0.23283,0.0254 -0.0931,0.0212 -0.14816,0.0847 -0.055,0.0635 -0.0805,0.1778 -0.0212,0.11006 -0.0212,0.28363 0,0.12277 0,0.28787 0,0.1651 0.004,0.30056 0.0974,0.004 0.2159,0.004 0.12276,0 0.22859,0 0.11854,0 0.24977,-0.0127 0.13547,-0.017 0.24977,-0.0762 0.11431,-0.0635 0.1905,-0.17779 0.0762,-0.11854 0.0762,-0.32173 z"
           style="font-weight:bold;font-size:5.09201px;font-family:Sniglet;-inkscape-font-specification:Sniglet;fill:#ffffff;stroke:#ffffff;stroke-width:0.1;stroke-linecap:round;stroke-linejoin:round;stroke-miterlimit:4;stroke-dasharray:none"
           id="path192290" />
        <path
           d="m 201.28419,137.10904 q -0.0678,0 -0.11007,-0.0212 -0.0381,-0.0254 -0.0593,-0.0635 -0.0212,-0.0381 -0.0296,-0.0889 -0.008,-0.055 -0.0127,-0.1143 -0.10584,0.13123 -0.27517,0.22013 -0.1651,0.0889 -0.42333,0.0889 -0.1651,0 -0.33867,-0.0465 -0.16933,-0.0508 -0.30903,-0.16934 -0.1397,-0.12277 -0.2286,-0.32597 -0.0889,-0.2032 -0.0889,-0.51223 0,-0.2413 0.0593,-0.45297 0.0593,-0.21167 0.17781,-0.3683 0.12276,-0.16087 0.30479,-0.254 0.18204,-0.0931 0.42757,-0.0931 0.2159,0 0.38524,0.0804 0.16933,0.0762 0.30479,0.254 0,-0.0508 0.004,-0.1016 0.004,-0.055 0.0212,-0.0974 0.0212,-0.0466 0.0635,-0.072 0.0423,-0.0296 0.1143,-0.0296 0.0635,0 0.11853,0.0508 0.055,0.0508 0.0635,0.22014 0.0127,0.22436 0.017,0.40216 0.008,0.1778 0.008,0.3683 0,0.23283 -0.004,0.42757 -0.004,0.19473 -0.0212,0.41486 -0.008,0.0974 -0.0254,0.15664 -0.0127,0.055 -0.0338,0.0847 -0.0212,0.0254 -0.0508,0.0338 -0.0296,0.008 -0.0593,0.008 z m -0.22861,-1.07526 q 0,-0.22014 -0.0678,-0.35983 -0.0635,-0.13971 -0.1651,-0.21591 -0.0974,-0.0804 -0.21167,-0.11007 -0.1143,-0.0296 -0.21167,-0.0296 -0.15239,0 -0.26246,0.055 -0.10583,0.055 -0.17356,0.15241 -0.0678,0.0931 -0.10161,0.22436 -0.0297,0.127 -0.0297,0.2794 0,0.37254 0.16087,0.55034 0.16511,0.1778 0.4445,0.1778 0.16511,0 0.2794,-0.055 0.11854,-0.0593 0.1905,-0.15663 0.0762,-0.0974 0.11007,-0.2286 0.0381,-0.13546 0.0381,-0.28363 z"
           style="font-weight:bold;font-size:5.09201px;font-family:Sniglet;-inkscape-font-specification:Sniglet;fill:#4a280d;stroke:#4a280d;stroke-width:0.1;stroke-linecap:round;stroke-linejoin:round;stroke-miterlimit:4;stroke-dasharray:none"
           id="path192288" />
        <path
           d="m 207.27012,136.96511 q -0.0254,-0.072 -0.0338,-0.16087 -0.004,-0.0889 -0.004,-0.22013 0,-0.0931 0,-0.14393 0.004,-0.055 0.004,-0.0931 0,-0.0423 0,-0.0805 0.004,-0.0423 0.004,-0.1143 0,-0.14817 -0.008,-0.29634 -0.004,-0.1524 -0.0423,-0.27093 -0.0381,-0.12276 -0.11853,-0.19897 -0.0805,-0.0762 -0.23283,-0.0762 -0.25823,0 -0.40216,0.24553 -0.14394,0.24554 -0.17358,0.78317 -0.008,0.16933 -0.008,0.30904 0,0.13969 -0.017,0.24129 -0.017,0.0974 -0.0635,0.15241 -0.0423,0.055 -0.14394,0.055 -0.0931,0 -0.13546,-0.0466 -0.0423,-0.0508 -0.0635,-0.14817 -0.017,-0.0974 -0.0212,-0.23706 0,-0.13971 -0.0127,-0.32597 -0.0127,-0.2032 -0.0423,-0.38947 -0.0254,-0.18626 -0.0889,-0.32597 -0.0593,-0.14393 -0.1651,-0.2286 -0.10161,-0.0847 -0.26247,-0.0847 -0.1524,0 -0.23706,0.0762 -0.0805,0.072 -0.11854,0.19473 -0.0381,0.11854 -0.0466,0.27094 -0.004,0.14816 -0.004,0.30056 0,0.0762 0,0.11431 0.004,0.0338 0.004,0.0635 0,0.0296 0,0.0762 0.004,0.0465 0.004,0.14393 0,0.1397 -0.008,0.24131 -0.004,0.10159 -0.0297,0.17356 -0.0296,0.0847 -0.0805,0.10583 -0.0508,0.017 -0.0931,0.017 -0.13124,0 -0.16934,-0.0931 -0.0381,-0.0931 -0.0423,-0.27094 0,-0.0974 -0.004,-0.2159 0,-0.12277 0,-0.29633 0,-0.0847 0,-0.14817 0,-0.0635 0,-0.12276 0.004,-0.0593 0.004,-0.11853 0.004,-0.0635 0.008,-0.14394 0.0127,-0.25823 0.0931,-0.41064 0.0804,-0.15662 0.1905,-0.23706 0.11007,-0.0804 0.23707,-0.1016 0.127,-0.0254 0.23283,-0.0254 0.2286,0 0.38523,0.0678 0.15664,0.0677 0.254,0.1778 0.1016,0.11006 0.14817,0.24977 0.0508,0.13969 0.0677,0.28363 0.017,-0.13971 0.0678,-0.27517 0.055,-0.1397 0.15663,-0.24553 0.10583,-0.11007 0.27094,-0.1778 0.1651,-0.0678 0.40639,-0.0678 0.11431,0 0.23284,0.0254 0.12276,0.0212 0.22437,0.1016 0.1016,0.0804 0.16933,0.23284 0.072,0.14816 0.0847,0.40216 0.004,0.0804 0.004,0.14394 0.004,0.0593 0.004,0.11853 0.004,0.0593 0.004,0.12276 0,0.0635 0,0.14817 0,0.17356 -0.004,0.29633 0,0.11854 0,0.2159 0,0.0805 -0.008,0.14817 -0.004,0.0677 -0.0254,0.1143 -0.0212,0.0466 -0.0635,0.0762 -0.0381,0.0254 -0.11429,0.0254 -0.072,0 -0.11008,-0.0254 -0.0381,-0.0297 -0.0635,-0.0974 z"
           style="font-weight:bold;font-size:5.09201px;font-family:Sniglet;-inkscape-font-specification:Sniglet;fill:#4a280d;stroke:#4a280d;stroke-width:0.1;stroke-linecap:round;stroke-linejoin:round;stroke-miterlimit:4;stroke-dasharray:none"
           id="path192292" />
        <path
           d="m 209.89055,137.10904 q -0.0678,0 -0.11007,-0.0212 -0.0381,-0.0254 -0.0593,-0.0635 -0.0212,-0.0381 -0.0296,-0.0889 -0.008,-0.055 -0.0127,-0.1143 -0.10583,0.13123 -0.27516,0.22013 -0.1651,0.0889 -0.42334,0.0889 -0.1651,0 -0.33866,-0.0465 -0.16934,-0.0508 -0.30903,-0.16934 -0.1397,-0.12277 -0.2286,-0.32597 -0.0889,-0.2032 -0.0889,-0.51223 0,-0.2413 0.0593,-0.45297 0.0593,-0.21167 0.1778,-0.3683 0.12277,-0.16087 0.3048,-0.254 0.18203,-0.0931 0.42756,-0.0931 0.21591,0 0.38524,0.0804 0.16933,0.0762 0.3048,0.254 0,-0.0508 0.004,-0.1016 0.004,-0.055 0.0212,-0.0974 0.0212,-0.0466 0.0635,-0.072 0.0423,-0.0296 0.11431,-0.0296 0.0635,0 0.11853,0.0508 0.055,0.0508 0.0635,0.22014 0.0127,0.22436 0.017,0.40216 0.008,0.1778 0.008,0.3683 0,0.23283 -0.004,0.42757 -0.004,0.19473 -0.0212,0.41486 -0.008,0.0974 -0.0254,0.15664 -0.0127,0.055 -0.0338,0.0847 -0.0212,0.0254 -0.0508,0.0338 -0.0296,0.008 -0.0593,0.008 z m -0.22859,-1.07526 q 0,-0.22014 -0.0678,-0.35983 -0.0635,-0.13971 -0.16509,-0.21591 -0.0974,-0.0804 -0.21167,-0.11007 -0.1143,-0.0296 -0.21167,-0.0296 -0.1524,0 -0.26247,0.055 -0.10583,0.055 -0.17356,0.15241 -0.0678,0.0931 -0.1016,0.22436 -0.0296,0.127 -0.0296,0.2794 0,0.37254 0.16086,0.55034 0.1651,0.1778 0.4445,0.1778 0.1651,0 0.27941,-0.055 0.11853,-0.0593 0.1905,-0.15663 0.0762,-0.0974 0.11006,-0.2286 0.0381,-0.13546 0.0381,-0.28363 z"
           style="font-weight:bold;font-size:5.09201px;font-family:Sniglet;-inkscape-font-specification:Sniglet;fill:#4a280d;stroke:#4a280d;stroke-width:0.1;stroke-linecap:round;stroke-linejoin:round;stroke-miterlimit:4;stroke-dasharray:none"
           id="path192294" />
        <path
           d="m 212.34589,137.08365 q -0.0847,0 -0.14394,-0.0678 -0.055,-0.0678 -0.0761,-0.15663 -0.0508,0.0466 -0.11854,0.0931 -0.0635,0.0466 -0.14816,0.0889 -0.0847,0.0381 -0.18627,0.0635 -0.1016,0.0254 -0.22013,0.0254 -0.14394,0 -0.32174,-0.0465 -0.17357,-0.0508 -0.3302,-0.16934 -0.1524,-0.12276 -0.25824,-0.3302 -0.10159,-0.20743 -0.10159,-0.5207 0,-0.2667 0.0804,-0.47413 0.0804,-0.20744 0.22437,-0.34714 0.14817,-0.14393 0.34713,-0.2159 0.20321,-0.0762 0.44027,-0.0762 0.2032,0 0.32174,0.0465 0.11853,0.0466 0.18626,0.11008 0,-0.11431 0,-0.25824 0,-0.14817 0,-0.28363 0.004,-0.13971 0.004,-0.254 0.004,-0.11431 0.008,-0.17357 0.008,-0.14393 0.0508,-0.19474 0.0423,-0.055 0.14817,-0.055 0.11007,0 0.14817,0.055 0.0423,0.0508 0.0508,0.18204 0.004,0.055 0.004,0.14817 0.004,0.0931 0.004,0.2032 0,0.11006 0,0.22436 0.004,0.11007 0.004,0.2032 0,0.0889 0,0.14817 0,0.0593 0,0.0593 0,0.43179 -0.008,0.79587 -0.004,0.36406 -0.004,0.57996 0.008,0.0465 0.0338,0.0889 0.0296,0.0423 0.0593,0.0847 0.0338,0.0423 0.0593,0.0889 0.0254,0.0466 0.0254,0.0974 0,0.0593 -0.0296,0.10583 -0.0296,0.0423 -0.0762,0.072 -0.0423,0.0296 -0.0931,0.0466 -0.0465,0.0127 -0.0847,0.0127 z m -0.81704,-0.37254 q 0.26247,0 0.40217,-0.15664 0.1397,-0.15663 0.1397,-0.51646 0,-0.69004 -0.5461,-0.69004 -0.127,0 -0.24554,0.0381 -0.11852,0.0381 -0.21166,0.11854 -0.0889,0.0804 -0.14817,0.20319 -0.055,0.12277 -0.055,0.2921 0,0.13971 0.0381,0.26671 0.0423,0.127 0.12277,0.2286 0.0847,0.0974 0.20743,0.15663 0.127,0.0593 0.29634,0.0593 z"
           style="font-weight:bold;font-size:5.09201px;font-family:Sniglet;-inkscape-font-specification:Sniglet;fill:#4a280d;stroke:#4a280d;stroke-width:0.1;stroke-linecap:round;stroke-linejoin:round;stroke-miterlimit:4;stroke-dasharray:none"
           id="path192296" />
        <path
           d="m 212.99782,136.82964 q -0.008,-0.15663 -0.017,-0.35559 -0.004,-0.20321 -0.004,-0.44451 0,-0.30057 0.004,-0.51223 0.004,-0.2159 0.0212,-0.35137 0.0212,-0.1397 0.0635,-0.2032 0.0423,-0.0677 0.11853,-0.0677 0.072,0 0.127,0.0508 0.055,0.0508 0.0635,0.22013 0.0254,0.44451 0.0254,0.85937 0,0.21167 -0.008,0.39794 -0.008,0.18203 -0.017,0.40216 -0.004,0.1016 -0.0212,0.15664 -0.0127,0.055 -0.0381,0.0847 -0.0254,0.0296 -0.0593,0.0338 -0.0296,0.008 -0.072,0.008 -0.0762,0 -0.12701,-0.0508 -0.0508,-0.055 -0.0593,-0.2286 z m 0.1905,-2.70087 q 0.0974,0 0.1778,0.0762 0.0847,0.0762 0.0847,0.18204 0,0.10159 -0.0847,0.17779 -0.0847,0.072 -0.1905,0.072 -0.0889,0 -0.16934,-0.072 -0.0762,-0.0762 -0.0762,-0.18627 0,-0.1016 0.0762,-0.17356 0.0804,-0.0762 0.18204,-0.0762 z"
           style="font-weight:bold;font-size:5.09201px;font-family:Sniglet;-inkscape-font-specification:Sniglet;fill:#4a280d;stroke:#4a280d;stroke-width:0.1;stroke-linecap:round;stroke-linejoin:round;stroke-miterlimit:4;stroke-dasharray:none"
           id="path192298" />
        <path
           d="m 213.95032,136.84657 q -0.004,-0.15239 -0.008,-0.3556 -0.004,-0.20319 -0.008,-0.44026 0,-0.23707 -0.004,-0.49953 0,-0.26247 0,-0.53764 0,-0.30056 0.004,-0.51646 0.004,-0.21591 0.0212,-0.3556 0.0212,-0.13971 0.0635,-0.20321 0.0423,-0.0677 0.11853,-0.0677 0.072,0 0.127,0.0465 0.055,0.0466 0.0635,0.2159 0.017,0.30481 0.0212,0.63501 0.004,0.32596 0.004,0.64346 0,0.1905 0,0.36831 0,0.17356 -0.004,0.34713 -0.004,0.16933 -0.008,0.34713 -0.004,0.1778 -0.0127,0.3683 -0.004,0.1016 -0.0212,0.15664 -0.0127,0.055 -0.0381,0.0847 -0.0254,0.0296 -0.0593,0.0338 -0.0296,0.008 -0.072,0.008 -0.0762,0 -0.127,-0.0508 -0.0508,-0.055 -0.0593,-0.2286 z"
           style="font-weight:bold;font-size:5.09201px;font-family:Sniglet;-inkscape-font-specification:Sniglet;fill:#4a280d;stroke:#4a280d;stroke-width:0.1;stroke-linecap:round;stroke-linejoin:round;stroke-miterlimit:4;stroke-dasharray:none"
           id="path192300" />
        <path
           d="m 214.89858,136.84657 q -0.004,-0.15239 -0.008,-0.3556 -0.004,-0.20319 -0.008,-0.44026 0,-0.23707 -0.004,-0.49953 0,-0.26247 0,-0.53764 0,-0.30056 0.004,-0.51646 0.004,-0.21591 0.0212,-0.3556 0.0212,-0.13971 0.0635,-0.20321 0.0423,-0.0677 0.11854,-0.0677 0.072,0 0.127,0.0465 0.055,0.0466 0.0635,0.2159 0.017,0.30481 0.0212,0.63501 0.004,0.32596 0.004,0.64346 0,0.1905 0,0.36831 0,0.17356 -0.004,0.34713 -0.004,0.16933 -0.008,0.34713 -0.004,0.1778 -0.0127,0.3683 -0.004,0.1016 -0.0212,0.15664 -0.0127,0.055 -0.0381,0.0847 -0.0254,0.0296 -0.0593,0.0338 -0.0296,0.008 -0.072,0.008 -0.0762,0 -0.127,-0.0508 -0.0508,-0.055 -0.0593,-0.2286 z"
           style="font-weight:bold;font-size:5.09201px;font-family:Sniglet;-inkscape-font-specification:Sniglet;fill:#4a280d;stroke:#4a280d;stroke-width:0.1;stroke-linecap:round;stroke-linejoin:round;stroke-miterlimit:4;stroke-dasharray:none"
           id="path192302" />
        <path
           d="m 216.79934,134.94581 q 0.2413,0 0.4318,0.0762 0.19051,0.072 0.32174,0.20743 0.13546,0.13546 0.20743,0.33019 0.072,0.19474 0.072,0.43604 0,0.2667 -0.0847,0.47837 -0.0805,0.21167 -0.2286,0.35983 -0.14393,0.14817 -0.34713,0.2286 -0.19897,0.0804 -0.43603,0.0804 -0.25824,0 -0.45721,-0.0889 -0.19473,-0.0889 -0.33019,-0.2413 -0.13124,-0.1524 -0.19897,-0.35137 -0.0678,-0.19896 -0.0678,-0.4191 0,-0.24129 0.0762,-0.44027 0.0804,-0.20319 0.22436,-0.34713 0.14817,-0.14816 0.3556,-0.2286 0.20743,-0.0804 0.46143,-0.0804 z m -0.0465,1.80763 q 0.17356,0 0.29633,-0.0593 0.12277,-0.0635 0.19896,-0.1651 0.0805,-0.10161 0.11431,-0.22861 0.0381,-0.13123 0.0381,-0.27093 0,-0.14393 -0.0381,-0.26669 -0.0338,-0.127 -0.11008,-0.22014 -0.072,-0.0931 -0.1905,-0.14393 -0.11429,-0.055 -0.27516,-0.055 -0.1651,0 -0.28786,0.055 -0.12277,0.055 -0.20744,0.1524 -0.0804,0.0931 -0.12277,0.22436 -0.0423,0.13124 -0.0423,0.28364 0,0.30903 0.15663,0.50377 0.16087,0.1905 0.4699,0.1905 z"
           style="font-weight:bold;font-size:5.09201px;font-family:Sniglet;-inkscape-font-specification:Sniglet;fill:#4a280d;stroke:#4a280d;stroke-width:0.1;stroke-linecap:round;stroke-linejoin:round;stroke-miterlimit:4;stroke-dasharray:none"
           id="path192304" />
        <g
           id="g118190"
           transform="translate(-2.9411954)">
          <path
             style="fill:#907d77;fill-opacity:1;stroke:#4a280d;stroke-width:0.76;stroke-linecap:round;stroke-linejoin:round;stroke-miterlimit:4;stroke-dasharray:none"
             d="m 225.61385,120.16617 c 0.86075,-0.46568 1.87361,-0.84593 2.78542,-1.65272 1.26346,-1.11793 2.28192,-2.69587 1.97653,-3.23912 -0.30641,-0.5195 -2.09905,0.12885 -3.24534,0.61132 -0.71241,0.29984 -1.44234,0.67536 -2.17597,1.06692"
             id="path9670"
             sodipodi:nodetypes="cscsc" />
          <path
             style="fill:none;stroke:#4a280d;stroke-width:0.76;stroke-linecap:round;stroke-linejoin:round;stroke-miterlimit:4;stroke-dasharray:none"
             d="m 226.50906,116.30193 c 0.77829,0.71362 0.84273,1.77668 0.79155,2.91638"
             id="path10332"
             sodipodi:nodetypes="cc" />
          <path
             style="fill:none;stroke:#4a280d;stroke-width:0.76;stroke-linecap:round;stroke-linejoin:round;stroke-miterlimit:4;stroke-dasharray:none"
             d="m 227.96873,115.62654 c 0.44436,0.18572 0.77599,1.09238 0.95497,2.28923"
             id="path10337"
             sodipodi:nodetypes="cc" />
          <g
             id="g118210"
             transform="translate(2.4863846)">
            <path
               style="fill:#d4c4b5;fill-opacity:1;stroke:#4a280d;stroke-width:0.759883;stroke-linecap:round;stroke-linejoin:round;stroke-miterlimit:4;stroke-dasharray:none"
               d="m 201.8082,111.80807 c -0.6482,-1.44235 -1.34548,-2.25895 -2.4349,-2.03462 -1.63828,0.74959 -0.73739,2.20696 -0.61932,3.40627 -1.08475,1.51762 -2.50901,3.59666 -2.67424,6.68855 -0.0482,0.90244 0.0108,1.89117 0.21685,2.97741 0.15846,0.66675 0.40904,1.355 0.68437,1.94055 0.27988,0.61953 0.69373,1.17788 1.12571,1.67758 0.19587,0.27756 0.58929,0.50466 0.61956,0.72284 0.24426,1.09652 -0.0524,2.81157 1.24304,3.07389 0.43542,0.0711 0.77075,-0.059 1.07849,-0.30249 0.3229,-0.25748 0.40749,-0.55262 0.52536,-1.10871 4.62228,0.85542 9.68259,1.29461 16.62311,-0.0528 2.66247,-0.66497 3.50833,-2.98686 4.60706,-5.07812 l -13.88568,-10.47308 c 0.39823,-1.24942 1.09657,-2.78595 -0.39031,-3.49855 -0.30614,-0.15876 -0.62281,-0.058 -0.90027,0.0502 -0.85325,0.35453 -1.5834,1.28101 -1.87372,1.95206 -1.15444,-0.34118 -2.59277,-0.29579 -3.94511,0.0589"
               id="path34876"
               sodipodi:nodetypes="cccscccccccccccccc" />
            <path
               style="fill:#d4c4b5;fill-opacity:1;stroke:#4a280d;stroke-width:0.766939;stroke-linecap:round;stroke-linejoin:round;stroke-miterlimit:4;stroke-dasharray:none"
               d="m 205.96539,128.60388 c -0.0502,0.60264 0.15488,1.40775 0.52814,1.90145 0.37354,0.46347 1.08324,0.591 1.5454,0.27283 0.61913,-0.45961 0.87428,-1.50489 0.93098,-1.94082"
               id="path9038"
               sodipodi:nodetypes="cccc" />
            <path
               style="fill:none;stroke:#4a280d;stroke-width:0.759883;stroke-linecap:round;stroke-linejoin:round;stroke-miterlimit:4;stroke-dasharray:none"
               d="m 197.68682,115.55469 c -0.71353,-0.36915 -1.44305,-0.72775 -2.43045,-0.91612"
               id="path40216"
               sodipodi:nodetypes="cc" />
            <path
               style="fill:none;stroke:#4a280d;stroke-width:0.759883;stroke-linecap:round;stroke-linejoin:round;stroke-miterlimit:4;stroke-dasharray:none"
               d="m 197.13421,116.9674 c -1.0641,-0.0362 -1.77401,0.0161 -2.36182,0.0992"
               id="path40218"
               sodipodi:nodetypes="cc" />
            <path
               style="fill:#d4c4b5;fill-opacity:1;stroke:#4a280d;stroke-width:0.759883;stroke-linecap:round;stroke-linejoin:round;stroke-miterlimit:4;stroke-dasharray:none"
               d="m 215.61384,128.19777 c -0.0502,0.60264 0.15487,1.40775 0.52814,1.90146 0.37354,0.46346 1.08323,0.59099 1.54539,0.27282 0.61914,-0.45961 0.87428,-1.50489 0.93099,-1.94082"
               id="path41005"
               sodipodi:nodetypes="cccc" />
            <path
               style="fill:#907d77;fill-opacity:1;stroke:#4a280d;stroke-width:0.759883;stroke-linecap:round;stroke-linejoin:round;stroke-miterlimit:4;stroke-dasharray:none"
               d="m 213.56693,111.73297 6.83523,13.28136 c 0.53165,0.28789 0.95139,0.21754 1.30508,0.0131 0.64803,-0.36075 0.92625,-0.9915 1.20418,-1.59168 0.38647,-0.78715 0.44257,-1.65122 0.4636,-2.4532 0.0909,-3.75311 -1.62739,-6.33627 -4.7146,-8.43114 -0.37465,-0.27466 -0.76781,-0.48874 -1.15251,-0.64352 -1.91274,-0.69673 -6.73405,-1.30394 -8.15689,-0.64339 z"
               id="path46763"
               sodipodi:nodetypes="ccccccccc" />
            <path
               style="fill:#907d77;fill-opacity:1;stroke:#4a280d;stroke-width:0.759883;stroke-linecap:round;stroke-linejoin:round;stroke-miterlimit:4;stroke-dasharray:none"
               d="m 212.2397,111.26453 4.60097,14.8852 c 1.50623,0.48316 3.47477,-0.0348 3.92685,-1.38986 0.53159,-1.44703 0.90709,-2.85953 0.8072,-4.2849 -0.15069,-2.08792 -0.87644,-4.35068 -1.70952,-5.73842 -0.74753,-1.22581 -2.10835,-2.41907 -3.14413,-3.0516 -1.28277,-0.78338 -5.78133,-1.15798 -7.37005,-0.42042 z"
               id="path45978"
               sodipodi:nodetypes="cccccscc" />
            <path
               style="fill:#907d77;fill-opacity:1;stroke:#4a280d;stroke-width:0.759883;stroke-linecap:round;stroke-linejoin:round;stroke-miterlimit:4;stroke-dasharray:none"
               d="m 209.35102,111.26453 4.60097,14.8852 c 0.94373,0.35067 1.95051,0.66167 2.94787,0.1815 0.34093,-0.13484 0.53475,-0.39106 0.70253,-0.6737 0.66263,-1.1218 1.03854,-2.81489 1.10044,-3.94185 0.12265,-2.37425 -0.72418,-5.30978 -1.72631,-6.97913 -0.74753,-1.22581 -2.10835,-2.41907 -3.14413,-3.0516 -1.28277,-0.78338 -2.89265,-1.15799 -4.48137,-0.42042 z"
               id="path43821"
               sodipodi:nodetypes="ccccccscc" />
            <path
               style="fill:#907d77;fill-opacity:1;stroke:#4a280d;stroke-width:0.759883;stroke-linecap:round;stroke-linejoin:round;stroke-miterlimit:4;stroke-dasharray:none"
               d="m 208.91761,113.24538 c 2.01001,1.52864 2.44395,3.8502 1.96238,5.96843 -0.15166,0.6671 -0.71019,1.24359 -1.04771,1.83369 -0.29898,0.50786 -0.30673,1.07824 -0.24788,1.61124 0.1925,1.68424 1.37177,3.02569 3.25961,3.64684 0.3062,0.10107 0.57663,0.14337 0.82639,0.0984 0.44333,-0.0889 0.6579,-0.41295 0.87748,-0.73841 0.39061,-0.59047 0.66972,-1.31427 0.79747,-1.88945 0.30708,-1.02858 0.27177,-2.7728 0.15635,-4.11611 -0.13063,-1.52042 -0.57775,-3.33166 -1.68724,-4.97042 -1.27939,-1.89937 -3.29939,-2.76857 -4.46344,-3.42508 z"
               id="path41040"
               sodipodi:nodetypes="csccccccsccc" />
            <path
               style="fill:none;stroke:#4a280d;stroke-width:0.759883;stroke-linecap:round;stroke-linejoin:round;stroke-miterlimit:4;stroke-dasharray:none"
               d="m 210.15966,115.65023 c 0.71353,-0.36916 1.44305,-0.72775 2.43044,-0.91613"
               id="path10884"
               sodipodi:nodetypes="cc" />
            <path
               style="fill:none;stroke:#4a280d;stroke-width:0.759883;stroke-linecap:round;stroke-linejoin:round;stroke-miterlimit:4;stroke-dasharray:none"
               d="m 210.45488,116.99208 c 1.06411,-0.0362 1.77402,0.0161 2.36182,0.0992"
               id="path11166"
               sodipodi:nodetypes="cc" />
            <path
               style="fill:none;stroke:#4a280d;stroke-width:0.759999;stroke-linecap:round;stroke-linejoin:round;stroke-miterlimit:4;stroke-dasharray:none"
               d="m 202.65576,117.09522 c 0.0487,0.23333 0.11992,0.30608 0.25685,0.35306 0.11688,0.0401 0.26039,0.0107 0.4211,-0.0907 0.0822,-0.0519 0.20285,-0.43698 0.29163,-0.5159 0.15547,-0.0187 0.0855,0.35517 0.1834,0.46967 0.10405,0.12171 0.3847,0.2519 0.63857,0.0973 0.14806,-0.0911 0.19333,-0.22518 0.21956,-0.31576"
               id="path11372-3"
               sodipodi:nodetypes="csscscc" />
            <ellipse
               style="fill:#4a280d;stroke:none;stroke-width:0.759999;stroke-linecap:round;stroke-linejoin:round;stroke-miterlimit:4;stroke-dasharray:none"
               id="ellipse13025"
               cx="200.66386"
               cy="116.68668"
               rx="0.65961587"
               ry="0.6884765" />
            <ellipse
               style="fill:#4a280d;stroke:none;stroke-width:0.759999;stroke-linecap:round;stroke-linejoin:round;stroke-miterlimit:4;stroke-dasharray:none"
               id="ellipse13027"
               cx="207.08081"
               cy="116.71011"
               rx="0.66984326"
               ry="0.69915134" />
            <path
               style="fill:#907d77;fill-opacity:1;stroke:none;stroke-width:0.76694;stroke-linecap:round;stroke-linejoin:round;stroke-miterlimit:4;stroke-dasharray:none"
               d="m 202.04743,112.39435 c 0.26949,0.95634 0.37074,2.19059 1.00163,2.97056 0.47498,0.503 0.93817,0.52223 1.33433,0.17258 0.71122,-0.56766 1.1356,-1.76906 1.39199,-3.08349 0.17233,-0.95598 -4.09005,-0.84637 -3.72794,-0.0597 z"
               id="path110805"
               sodipodi:nodetypes="cccccc" />
            <path
               style="fill:#d4c4b5;fill-opacity:1;stroke:#4a280d;stroke-width:0.759883;stroke-linecap:round;stroke-linejoin:round;stroke-miterlimit:4;stroke-dasharray:none"
               d="m 199.00651,113.62399 c -0.0184,-0.0577 -0.18284,-0.49456 -0.20225,-0.55334 -0.40123,-1.21477 -0.97113,-2.64411 0.44712,-3.32382 0.30614,-0.15876 0.62281,-0.058 0.90027,0.0502 0.85325,0.35453 1.4313,1.66235 1.72162,2.3334"
               id="path107136"
               sodipodi:nodetypes="csccc" />
            <path
               style="fill:#d4c4b5;fill-opacity:1;stroke:#4a280d;stroke-width:0.759883;stroke-linecap:round;stroke-linejoin:round;stroke-miterlimit:4;stroke-dasharray:none"
               d="m 208.77217,113.62399 c 0.0184,-0.0577 0.18284,-0.49456 0.20225,-0.55334 0.40123,-1.21477 0.97113,-2.64411 -0.44712,-3.32382 -0.30614,-0.15876 -0.62281,-0.058 -0.90027,0.0502 -0.85325,0.35453 -1.4185,1.66439 -1.70882,2.33544"
               id="path43516"
               sodipodi:nodetypes="csccc" />
            <path
               style="fill:#d4c4b5;fill-opacity:1;stroke:#4a280d;stroke-width:0.759883;stroke-linecap:round;stroke-linejoin:round;stroke-miterlimit:4;stroke-dasharray:none"
               d="m 205.51875,111.68597 c -1.03945,-0.25316 -2.27647,-0.21562 -3.46495,0.0612 -0.0821,0.0191 -0.16402,0.0394 -0.2456,0.0608"
               id="path116289"
               sodipodi:nodetypes="csc" />
          </g>
        </g>
      </g>
    </g>
  </g>
  <style
     type="text/css"
     id="style10296">
	.st0{fill:#75AADB;}
	.st1{fill:#4D4D4D;}
	.st2{fill:#FFFFFF;}
	.st3{fill:url(#SVGID_1_);}
	.st4{fill:url(#SVGID_2_);}
	.st5{fill:url(#SVGID_3_);}
	.st6{fill:url(#SVGID_4_);}
	.st7{fill:url(#SVGID_5_);}
	.st8{fill:url(#SVGID_6_);}
	.st9{fill:url(#SVGID_7_);}
	.st10{fill:url(#SVGID_8_);}
	.st11{fill:url(#SVGID_9_);}
	.st12{fill:url(#SVGID_10_);}
	.st13{opacity:0.18;fill:url(#SVGID_11_);}
	.st14{opacity:0.3;}
</style>
  <style
     type="text/css"
     id="style10296-7">
	.st0{fill:#75AADB;}
	.st1{fill:#4D4D4D;}
	.st2{fill:#FFFFFF;}
	.st3{fill:url(#SVGID_1_);}
	.st4{fill:url(#SVGID_2_);}
	.st5{fill:url(#SVGID_3_);}
	.st6{fill:url(#SVGID_4_);}
	.st7{fill:url(#SVGID_5_);}
	.st8{fill:url(#SVGID_6_);}
	.st9{fill:url(#SVGID_7_);}
	.st10{fill:url(#SVGID_8_);}
	.st11{fill:url(#SVGID_9_);}
	.st12{fill:url(#SVGID_10_);}
	.st13{opacity:0.18;fill:url(#SVGID_11_);}
	.st14{opacity:0.3;}
</style>
  <style
     type="text/css"
     id="style10296-4">
	.st0{fill:#75AADB;}
	.st1{fill:#4D4D4D;}
	.st2{fill:#FFFFFF;}
	.st3{fill:url(#SVGID_1_);}
	.st4{fill:url(#SVGID_2_);}
	.st5{fill:url(#SVGID_3_);}
	.st6{fill:url(#SVGID_4_);}
	.st7{fill:url(#SVGID_5_);}
	.st8{fill:url(#SVGID_6_);}
	.st9{fill:url(#SVGID_7_);}
	.st10{fill:url(#SVGID_8_);}
	.st11{fill:url(#SVGID_9_);}
	.st12{fill:url(#SVGID_10_);}
	.st13{opacity:0.18;fill:url(#SVGID_11_);}
	.st14{opacity:0.3;}
</style>
  <style
     type="text/css"
     id="style10296-9">
	.st0{fill:#75AADB;}
	.st1{fill:#4D4D4D;}
	.st2{fill:#FFFFFF;}
	.st3{fill:url(#SVGID_1_);}
	.st4{fill:url(#SVGID_2_);}
	.st5{fill:url(#SVGID_3_);}
	.st6{fill:url(#SVGID_4_);}
	.st7{fill:url(#SVGID_5_);}
	.st8{fill:url(#SVGID_6_);}
	.st9{fill:url(#SVGID_7_);}
	.st10{fill:url(#SVGID_8_);}
	.st11{fill:url(#SVGID_9_);}
	.st12{fill:url(#SVGID_10_);}
	.st13{opacity:0.18;fill:url(#SVGID_11_);}
	.st14{opacity:0.3;}
</style>
  <style
     type="text/css"
     id="style10296-2">
	.st0{fill:#75AADB;}
	.st1{fill:#4D4D4D;}
	.st2{fill:#FFFFFF;}
	.st3{fill:url(#SVGID_1_);}
	.st4{fill:url(#SVGID_2_);}
	.st5{fill:url(#SVGID_3_);}
	.st6{fill:url(#SVGID_4_);}
	.st7{fill:url(#SVGID_5_);}
	.st8{fill:url(#SVGID_6_);}
	.st9{fill:url(#SVGID_7_);}
	.st10{fill:url(#SVGID_8_);}
	.st11{fill:url(#SVGID_9_);}
	.st12{fill:url(#SVGID_10_);}
	.st13{opacity:0.18;fill:url(#SVGID_11_);}
	.st14{opacity:0.3;}
</style>
</svg>
